M48
; DRILL file {KiCad 7.0.8-7.0.8~ubuntu22.04.1} date Mon 30 Oct 2023 20:16:42
; FORMAT={-:-/ absolute / inch / decimal}
; #@! TF.CreationDate,2023-10-30T20:16:42+11:00
; #@! TF.GenerationSoftware,Kicad,Pcbnew,7.0.8-7.0.8~ubuntu22.04.1
; #@! TF.FileFunction,Plated,1,4,PTH
FMAT,2
INCH
; #@! TA.AperFunction,Plated,PTH,ViaDrill
T1C0.0079
; #@! TA.AperFunction,Plated,PTH,ViaDrill
T2C0.0118
; #@! TA.AperFunction,Plated,PTH,ViaDrill
T3C0.0157
; #@! TA.AperFunction,Plated,PTH,ComponentDrill
T4C0.0236
; #@! TA.AperFunction,Plated,PTH,ComponentDrill
T5C0.0315
; #@! TA.AperFunction,Plated,PTH,ComponentDrill
T6C0.0335
; #@! TA.AperFunction,Plated,PTH,ComponentDrill
T7C0.0394
; #@! TA.AperFunction,Plated,PTH,ComponentDrill
T8C0.0402
; #@! TA.AperFunction,Plated,PTH,ComponentDrill
T9C0.0472
; #@! TA.AperFunction,Plated,PTH,ComponentDrill
T10C0.0984
%
G90
G05
T1
X4.1585Y-2.8061
X4.2549Y-2.814
X4.3851Y-3.0512
X4.4993Y-2.934
X4.5171Y-2.8919
X5.0699Y-2.4656
X5.1634Y-2.5187
X5.2323Y-2.5079
X5.2628Y-2.3219
X5.2795Y-2.376
X5.2854Y-2.3338
X5.3287Y-2.3691
X5.377Y-2.3711
X5.4793Y-2.4498
X5.4956Y-2.4356
X5.4986Y-2.4141
X5.5331Y-2.4242
X5.5633Y-2.3839
X5.8868Y-2.2795
X5.8868Y-2.3278
X5.8878Y-2.2539
X5.8878Y-2.3051
X6.0807Y-2.3327
X6.1439Y-2.9213
X6.2057Y-2.81
X6.2087Y-2.9252
X6.2275Y-2.1729
X6.2362Y-2.937
X6.2402Y-2.878
X6.2724Y-2.8149
X6.2756Y-3.0197
X6.2756Y-3.0551
X6.2874Y-2.7972
X6.2963Y-2.2037
X6.3051Y-2.7815
X6.3228Y-2.7638
X6.3245Y-3.0089
X6.3415Y-2.9094
X6.3768Y-2.879
X6.378Y-2.6929
X6.4026Y-2.8743
X6.4203Y-2.8248
X6.4331Y-2.6181
X6.4466Y-2.7919
X6.4803Y-2.5472
X6.4843Y-2.435
X6.5157Y-2.4331
X6.5197Y-2.2598
X6.5209Y-2.737
X6.5506Y-2.7126
X6.5507Y-2.6895
X6.5512Y-2.2967
X6.5561Y-2.753
X6.5709Y-2.6594
X6.5748Y-2.2677
X6.5797Y-2.6949
X6.5883Y-2.153
X6.5893Y-2.4812
X6.5994Y-2.315
X6.6021Y-2.1769
X6.6043Y-2.3583
X6.6043Y-2.6378
X6.6132Y-2.8169
X6.6142Y-2.1969
X6.6307Y-2.7983
X6.6319Y-2.6378
X6.6319Y-2.3117
X6.6434Y-2.3971
X6.6476Y-2.3702
X6.6535Y-2.4173
X6.6535Y-2.4488
X6.6668Y-2.5635
X6.6811Y-2.5886
X6.6831Y-2.4567
X6.6988Y-2.435
X6.7087Y-2.5906
X6.7678Y-2.6424
X6.7717Y-2.874
X6.7864Y-2.6314
X6.8282Y-2.6036
X6.8307Y-2.7539
X6.8435Y-2.0531
X6.8583Y-2.0787
X6.8654Y-2.7392
X6.8661Y-2.5098
X6.8665Y-2.1024
X6.8671Y-2.8453
X6.8684Y-2.8002
X6.874Y-2.4754
X6.8976Y-2.563
X6.9035Y-2.4567
X6.9065Y-2.4911
X6.9114Y-2.253
X6.9114Y-2.752
X6.9213Y-2.5512
X6.9213Y-2.7224
X6.937Y-2.6142
X6.9449Y-2.2675
X6.9547Y-2.2411
X6.9693Y-2.6663
X6.9764Y-2.4646
X6.9843Y-2.1024
X6.9843Y-2.5463
X6.9843Y-2.752
X6.9921Y-2.0787
X7.0Y-2.0512
X7.0094Y-2.5316
X7.065Y-2.4724
X7.0994Y-2.6083
X7.1142Y-2.4547
X7.123Y-2.6024
X7.1929Y-2.4783
X7.2244Y-2.8701
T2
X6.5049Y-2.123
X6.5402Y-2.1664
X6.8219Y-2.5758
X7.1299Y-2.5335
T3
X3.9087Y-2.1906
X3.9491Y-2.2972
X3.9757Y-2.2083
X4.0354Y-1.9685
X4.0469Y-2.3555
X4.0984Y-2.8474
X4.1742Y-2.8524
X4.2886Y-2.9065
X4.3169Y-2.0197
X4.3258Y-2.6673
X4.3622Y-2.9252
X4.3701Y-2.5472
X4.4291Y-2.6575
X4.435Y-3.0285
X4.437Y-2.8327
X4.4646Y-2.5472
X4.4715Y-1.9616
X4.5276Y-2.6575
X4.5827Y-2.5039
X4.626Y-2.6575
X4.6969Y-2.6949
X4.7708Y-2.2008
X4.7963Y-2.6909
X4.8041Y-2.4183
X4.8228Y-3.0512
X4.8573Y-2.0187
X4.8573Y-2.0551
X4.8652Y-2.1841
X4.8674Y-1.9488
X4.8996Y-2.0187
X4.8996Y-2.0551
X4.9055Y-2.2126
X4.9068Y-1.9459
X4.9213Y-3.0512
X4.9273Y-2.2454
X4.9419Y-2.0197
X4.9419Y-2.0561
X4.9451Y-1.9409
X4.9488Y-2.4596
X4.9631Y-2.3056
X4.9705Y-2.5413
X4.9843Y-2.0197
X4.9843Y-2.0561
X4.9843Y-2.0925
X4.9882Y-2.4607
X4.9902Y-2.6594
X4.9983Y-1.935
X5.0197Y-3.0512
X5.0315Y-2.1585
X5.0442Y-2.5343
X5.0453Y-2.5659
X5.0455Y-1.936
X5.0884Y-2.7558
X5.1181Y-3.0512
X5.1516Y-2.1211
X5.1725Y-1.9734
X5.1998Y-2.3898
X5.2109Y-1.9734
X5.2165Y-3.0512
X5.2274Y-2.2815
X5.2483Y-1.9734
X5.265Y-2.564
X5.2707Y-2.6604
X5.315Y-1.9685
X5.315Y-3.0512
X5.3189Y-2.6142
X5.328Y-2.574
X5.4134Y-1.9685
X5.4144Y-2.2608
X5.4333Y-2.4311
X5.4478Y-2.6713
X5.4924Y-3.0128
X5.5085Y-2.6801
X5.5118Y-2.0669
X5.518Y-2.2746
X5.5192Y-2.598
X5.5207Y-2.8189
X5.5426Y-3.0128
X5.56Y-2.776
X5.5659Y-2.1978
X5.5918Y-3.0128
X5.6014Y-2.776
X5.6102Y-1.9685
X5.6348Y-2.2333
X5.639Y-3.0128
X5.6575Y-2.5994
X5.6863Y-3.0128
X5.7008Y-2.8819
X5.7116Y-2.4961
X5.7559Y-2.8504
X5.8268Y-2.5256
X5.8504Y-2.622
X5.9055Y-2.0669
X5.9055Y-2.1654
X5.9373Y-2.7205
X5.9528Y-2.9055
X5.98Y-2.1215
X6.003Y-2.4075
X6.0098Y-2.0689
X6.0214Y-3.001
X6.024Y-2.0185
X6.0315Y-2.6299
X6.0318Y-2.8081
X6.0394Y-3.0394
X6.0496Y-2.0503
X6.0807Y-2.4006
X6.1346Y-2.7451
X6.1476Y-2.0177
X6.1664Y-2.0552
X6.1831Y-2.3199
X6.1831Y-2.4006
X6.2126Y-2.0866
X6.2146Y-2.5689
X6.2411Y-2.8238
X6.258Y-2.1618
X6.2815Y-2.0492
X6.2854Y-1.998
X6.2864Y-2.3199
X6.2864Y-2.4006
X6.3307Y-2.0079
X6.3829Y-3.062
X6.478Y-2.0902
X6.4961Y-1.9685
X6.5044Y-2.9313
X6.5174Y-2.4961
X6.5363Y-2.087
X6.5638Y-3.0151
X6.618Y-2.4963
X6.6437Y-2.5276
X6.697Y-2.307
X6.8039Y-2.3478
X6.8041Y-3.061
X6.8077Y-2.3933
X6.9553Y-2.9413
X6.9803Y-3.0354
X7.0111Y-2.6801
X7.0866Y-3.0512
X7.1026Y-2.9193
X7.1102Y-2.063
X7.1339Y-2.1024
X7.1417Y-2.8799
X7.1486Y-2.3209
X7.1648Y-2.6516
X7.176Y-2.1205
X7.185Y-2.8799
X7.2067Y-2.9154
X7.2205Y-2.0472
X7.2205Y-2.126
X7.2372Y-2.251
X7.2461Y-2.937
X7.2461Y-2.9803
X7.2461Y-3.0256
X7.2677Y-2.1811
X7.2677Y-2.2205
X7.2854Y-3.0591
X7.3054Y-2.7185
X7.3189Y-2.5315
X7.3209Y-2.5787
X7.3346Y-3.0591
X7.3477Y-2.7185
X7.3602Y-2.2549
X7.378Y-1.9291
X7.3858Y-2.3701
X7.3858Y-2.4272
X7.3858Y-2.4843
X7.3858Y-2.5413
X7.3858Y-2.5984
X7.3898Y-3.0591
X7.39Y-2.7185
T5
X4.4213Y-2.2559
X4.5591Y-2.2559
T6
X4.0453Y-2.8051
X4.0453Y-3.002
T7
X5.6299Y-2.0866
X5.8268Y-2.0866
T8
X4.1339Y-2.0472
X4.1339Y-2.4409
X4.252Y-2.0472
X4.252Y-2.4409
T9
X4.8681Y-2.8937
X5.0059Y-2.8937
X5.1437Y-2.8937
X5.2815Y-2.8937
T10
X4.6303Y-2.0162
X4.6303Y-2.975
X6.6953Y-2.0162
X6.6953Y-2.975
T4
G00X3.9252Y-2.7657
M15
G01X3.9528Y-2.7657
M16
G05
G00X3.9528Y-3.0413
M15
G01X3.9252Y-3.0413
M16
G05
T0
M30
