%TF.GenerationSoftware,KiCad,Pcbnew,7.0.8-7.0.8~ubuntu22.04.1*%
%TF.CreationDate,2023-10-29T15:12:20+11:00*%
%TF.ProjectId,Strelka_Flight_Computer,53747265-6c6b-4615-9f46-6c696768745f,2*%
%TF.SameCoordinates,Original*%
%TF.FileFunction,Legend,Bot*%
%TF.FilePolarity,Positive*%
%FSLAX46Y46*%
G04 Gerber Fmt 4.6, Leading zero omitted, Abs format (unit mm)*
G04 Created by KiCad (PCBNEW 7.0.8-7.0.8~ubuntu22.04.1) date 2023-10-29 15:12:20*
%MOMM*%
%LPD*%
G01*
G04 APERTURE LIST*
%ADD10C,0.120000*%
%ADD11C,0.127000*%
%ADD12C,0.200000*%
%ADD13C,0.250000*%
G04 APERTURE END LIST*
D10*
%TO.C,J8*%
X184881000Y-69680200D02*
G75*
G03*
X184881000Y-69680200I-381000J0D01*
G01*
%TO.C,R1*%
X102374324Y-54687500D02*
X102848840Y-54687500D01*
X102374324Y-55732500D02*
X102848840Y-55732500D01*
%TO.C,R27*%
X125610000Y-60160436D02*
X125610000Y-64514564D01*
X122190000Y-60160436D02*
X122190000Y-64514564D01*
%TO.C,U4*%
X184600000Y-55295695D02*
X184600000Y-71495695D01*
X184200000Y-55295695D02*
X184600000Y-55295695D01*
X168750000Y-55295695D02*
X168750000Y-54395695D01*
X168400000Y-55295695D02*
X168750000Y-55295695D01*
X168400000Y-55295695D02*
X168400000Y-71495695D01*
X184600000Y-71495695D02*
X184200000Y-71495695D01*
X168400000Y-71495695D02*
X168800000Y-71495695D01*
%TO.C,MOSFET1*%
X108309482Y-59436400D02*
X106353682Y-59436400D01*
X106353682Y-56083600D02*
X108309482Y-56083600D01*
%TO.C,Q17*%
X138425000Y-53615000D02*
X137775000Y-53615000D01*
X138425000Y-53615000D02*
X139075000Y-53615000D01*
X138425000Y-56735000D02*
X136750000Y-56735000D01*
X138425000Y-56735000D02*
X139075000Y-56735000D01*
%TO.C,Q10*%
X135710000Y-68162500D02*
X135710000Y-67512500D01*
X135710000Y-68162500D02*
X135710000Y-68812500D01*
X132590000Y-68162500D02*
X132590000Y-66487500D01*
X132590000Y-68162500D02*
X132590000Y-68812500D01*
%TO.C,D11*%
X162834082Y-66240000D02*
X163484082Y-66240000D01*
X162834082Y-66240000D02*
X162184082Y-66240000D01*
X162834082Y-63120000D02*
X164509082Y-63120000D01*
X162834082Y-63120000D02*
X162184082Y-63120000D01*
%TO.C,Q5*%
X128710000Y-68162500D02*
X128710000Y-67512500D01*
X128710000Y-68162500D02*
X128710000Y-68812500D01*
X125590000Y-68162500D02*
X125590000Y-66487500D01*
X125590000Y-68162500D02*
X125590000Y-68812500D01*
D11*
%TO.C,BT2*%
X163251582Y-60906000D02*
X163651582Y-60906000D01*
X163451582Y-61106000D02*
X163451582Y-60706000D01*
X161751582Y-59260000D02*
G75*
G03*
X161751582Y-59260000I-3400000J0D01*
G01*
D12*
%TO.C,IC1*%
X155725000Y-49000000D02*
X155725000Y-55000000D01*
X155725000Y-55000000D02*
X161275000Y-55000000D01*
X161275000Y-49000000D02*
X155725000Y-49000000D01*
X161275000Y-55000000D02*
X161275000Y-49000000D01*
D13*
X154250000Y-54730000D02*
G75*
G03*
X154250000Y-54730000I-125000J0D01*
G01*
D10*
%TO.C,R47*%
X132560000Y-60160436D02*
X132560000Y-64514564D01*
X129140000Y-60160436D02*
X129140000Y-64514564D01*
%TO.C,U5*%
X144310000Y-66875000D02*
X144310000Y-64925000D01*
X144310000Y-66875000D02*
X144310000Y-68825000D01*
X139190000Y-66875000D02*
X139190000Y-63425000D01*
X139190000Y-66875000D02*
X139190000Y-68825000D01*
%TO.C,Q9*%
X132210000Y-68162500D02*
X132210000Y-67512500D01*
X132210000Y-68162500D02*
X132210000Y-68812500D01*
X129090000Y-68162500D02*
X129090000Y-66487500D01*
X129090000Y-68162500D02*
X129090000Y-68812500D01*
%TO.C,U2*%
X102931582Y-59310000D02*
X103731582Y-59310000D01*
X102931582Y-59310000D02*
X102131582Y-59310000D01*
X102931582Y-56190000D02*
X104731582Y-56190000D01*
X102931582Y-56190000D02*
X102131582Y-56190000D01*
%TO.C,Q4*%
X125210000Y-68162500D02*
X125210000Y-67512500D01*
X125210000Y-68162500D02*
X125210000Y-68812500D01*
X122090000Y-68162500D02*
X122090000Y-66487500D01*
X122090000Y-68162500D02*
X122090000Y-68812500D01*
%TO.C,Q16*%
X142312500Y-58260000D02*
X142962500Y-58260000D01*
X142312500Y-58260000D02*
X141662500Y-58260000D01*
X142312500Y-55140000D02*
X143987500Y-55140000D01*
X142312500Y-55140000D02*
X141662500Y-55140000D01*
%TD*%
M02*
