%TF.GenerationSoftware,KiCad,Pcbnew,7.0.8-7.0.8~ubuntu22.04.1*%
%TF.CreationDate,2023-10-29T13:03:15+11:00*%
%TF.ProjectId,Strelka_Flight_Computer,53747265-6c6b-4615-9f46-6c696768745f,2*%
%TF.SameCoordinates,Original*%
%TF.FileFunction,Drillmap*%
%TF.FilePolarity,Positive*%
%FSLAX45Y45*%
G04 Gerber Fmt 4.5, Leading zero omitted, Abs format (unit mm)*
G04 Created by KiCad (PCBNEW 7.0.8-7.0.8~ubuntu22.04.1) date 2023-10-29 13:03:15*
%MOMM*%
%LPD*%
G01*
G04 APERTURE LIST*
%ADD10C,0.200000*%
%ADD11C,0.020000*%
%ADD12C,0.030000*%
%ADD13C,0.040000*%
%ADD14C,0.060000*%
%ADD15C,0.080000*%
%ADD16C,0.085000*%
%ADD17C,0.100000*%
%ADD18C,0.102000*%
%ADD19C,0.120000*%
%ADD20C,0.250000*%
G04 APERTURE END LIST*
D10*
X18927600Y-5006060D02*
X18927600Y-7673079D01*
X9825961Y-7667020D02*
G75*
G03*
X9995960Y-7841059I172019J-2020D01*
G01*
X18755580Y-4831108D02*
X10000000Y-4831110D01*
X9825961Y-5000000D02*
X9825961Y-7667020D01*
X18927600Y-5006060D02*
G75*
G03*
X18755580Y-4831108I-167940J6920D01*
G01*
X18755580Y-7841059D02*
X9995960Y-7841059D01*
X10000000Y-4831094D02*
G75*
G03*
X9825961Y-5000000I-2020J-172036D01*
G01*
X18755580Y-7841063D02*
G75*
G03*
X18927600Y-7673079I3980J167993D01*
G01*
D11*
X10552500Y-7117500D02*
X10572500Y-7137500D01*
X10572500Y-7117500D02*
X10552500Y-7137500D01*
X10797500Y-7137450D02*
X10817500Y-7157450D01*
X10817500Y-7137450D02*
X10797500Y-7157450D01*
X11128158Y-7740000D02*
X11148158Y-7760000D01*
X11148158Y-7740000D02*
X11128158Y-7760000D01*
X11418158Y-7442450D02*
X11438158Y-7462450D01*
X11438158Y-7442450D02*
X11418158Y-7462450D01*
X11463462Y-7335304D02*
X11483462Y-7355304D01*
X11483462Y-7335304D02*
X11463462Y-7355304D01*
X12867500Y-6252500D02*
X12887500Y-6272500D01*
X12887500Y-6252500D02*
X12867500Y-6272500D01*
X13105050Y-6387500D02*
X13125050Y-6407500D01*
X13125050Y-6387500D02*
X13105050Y-6407500D01*
X13280000Y-6360000D02*
X13300000Y-6380000D01*
X13300000Y-6360000D02*
X13280000Y-6380000D01*
X13357500Y-5887500D02*
X13377500Y-5907500D01*
X13377500Y-5887500D02*
X13357500Y-5907500D01*
X13400000Y-6025000D02*
X13420000Y-6045000D01*
X13420000Y-6025000D02*
X13400000Y-6045000D01*
X13414922Y-5917852D02*
X13434922Y-5937852D01*
X13434922Y-5917852D02*
X13414922Y-5937852D01*
X13525000Y-6007500D02*
X13545000Y-6027500D01*
X13545000Y-6007500D02*
X13525000Y-6027500D01*
X13647500Y-6012500D02*
X13667500Y-6032500D01*
X13667500Y-6012500D02*
X13647500Y-6032500D01*
X13907500Y-6212500D02*
X13927500Y-6232500D01*
X13927500Y-6212500D02*
X13907500Y-6232500D01*
X13948858Y-6176319D02*
X13968858Y-6196319D01*
X13968858Y-6176319D02*
X13948858Y-6196319D01*
X13956452Y-6121896D02*
X13976452Y-6141896D01*
X13976452Y-6121896D02*
X13956452Y-6141896D01*
X14044158Y-6147500D02*
X14064158Y-6167500D01*
X14064158Y-6147500D02*
X14044158Y-6167500D01*
X14120658Y-6045000D02*
X14140658Y-6065000D01*
X14140658Y-6045000D02*
X14120658Y-6065000D01*
X14942500Y-5780000D02*
X14962500Y-5800000D01*
X14962500Y-5780000D02*
X14942500Y-5800000D01*
X14942500Y-5902500D02*
X14962500Y-5922500D01*
X14962500Y-5902500D02*
X14942500Y-5922500D01*
X14945000Y-5715000D02*
X14965000Y-5735000D01*
X14965000Y-5715000D02*
X14945000Y-5735000D01*
X14945000Y-5845000D02*
X14965000Y-5865000D01*
X14965000Y-5845000D02*
X14945000Y-5865000D01*
X15435000Y-5915000D02*
X15455000Y-5935000D01*
X15455000Y-5915000D02*
X15435000Y-5935000D01*
X15595585Y-7410000D02*
X15615585Y-7430000D01*
X15615585Y-7410000D02*
X15595585Y-7430000D01*
X15752500Y-7127500D02*
X15772500Y-7147500D01*
X15772500Y-7127500D02*
X15752500Y-7147500D01*
X15760000Y-7420000D02*
X15780000Y-7440000D01*
X15780000Y-7420000D02*
X15760000Y-7440000D01*
X15807737Y-5509246D02*
X15827737Y-5529246D01*
X15827737Y-5509246D02*
X15807737Y-5529246D01*
X15830000Y-7450000D02*
X15850000Y-7470000D01*
X15850000Y-7450000D02*
X15830000Y-7470000D01*
X15840000Y-7300000D02*
X15860000Y-7320000D01*
X15860000Y-7300000D02*
X15840000Y-7320000D01*
X15921799Y-7139924D02*
X15941799Y-7159924D01*
X15941799Y-7139924D02*
X15921799Y-7159924D01*
X15930000Y-7660000D02*
X15950000Y-7680000D01*
X15950000Y-7660000D02*
X15930000Y-7680000D01*
X15930000Y-7750000D02*
X15950000Y-7770000D01*
X15950000Y-7750000D02*
X15930000Y-7770000D01*
X15960000Y-7095000D02*
X15980000Y-7115000D01*
X15980000Y-7095000D02*
X15960000Y-7115000D01*
X15982500Y-5587500D02*
X16002500Y-5607500D01*
X16002500Y-5587500D02*
X15982500Y-5607500D01*
X16004957Y-7055125D02*
X16024957Y-7075125D01*
X16024957Y-7055125D02*
X16004957Y-7075125D01*
X16050000Y-7010000D02*
X16070000Y-7030000D01*
X16070000Y-7010000D02*
X16050000Y-7030000D01*
X16054251Y-7632550D02*
X16074251Y-7652550D01*
X16074251Y-7632550D02*
X16054251Y-7652550D01*
X16097500Y-7380000D02*
X16117500Y-7400000D01*
X16117500Y-7380000D02*
X16097500Y-7400000D01*
X16187164Y-7302596D02*
X16207164Y-7322596D01*
X16207164Y-7302596D02*
X16187164Y-7322596D01*
X16190000Y-6830000D02*
X16210000Y-6850000D01*
X16210000Y-6830000D02*
X16190000Y-6850000D01*
X16252560Y-7290757D02*
X16272560Y-7310757D01*
X16272560Y-7290757D02*
X16252560Y-7310757D01*
X16297500Y-7165000D02*
X16317500Y-7185000D01*
X16317500Y-7165000D02*
X16297500Y-7185000D01*
X16330000Y-6640000D02*
X16350000Y-6660000D01*
X16350000Y-6640000D02*
X16330000Y-6660000D01*
X16364468Y-7081398D02*
X16384468Y-7101398D01*
X16384468Y-7081398D02*
X16364468Y-7101398D01*
X16450000Y-6460000D02*
X16470000Y-6480000D01*
X16470000Y-6460000D02*
X16450000Y-6480000D01*
X16460000Y-6175000D02*
X16480000Y-6195000D01*
X16480000Y-6175000D02*
X16460000Y-6195000D01*
X16540000Y-6170000D02*
X16560000Y-6190000D01*
X16560000Y-6170000D02*
X16540000Y-6190000D01*
X16550000Y-5730000D02*
X16570000Y-5750000D01*
X16570000Y-5730000D02*
X16550000Y-5750000D01*
X16553158Y-6942000D02*
X16573158Y-6962000D01*
X16573158Y-6942000D02*
X16553158Y-6962000D01*
X16628490Y-6880000D02*
X16648490Y-6900000D01*
X16648490Y-6880000D02*
X16628490Y-6900000D01*
X16628743Y-6821257D02*
X16648743Y-6841257D01*
X16648743Y-6821257D02*
X16628743Y-6841257D01*
X16630000Y-5823561D02*
X16650000Y-5843561D01*
X16650000Y-5823561D02*
X16630000Y-5843561D01*
X16642500Y-6982500D02*
X16662500Y-7002500D01*
X16662500Y-6982500D02*
X16642500Y-7002500D01*
X16680000Y-6745000D02*
X16700000Y-6765000D01*
X16700000Y-6745000D02*
X16680000Y-6765000D01*
X16690000Y-5750000D02*
X16710000Y-5770000D01*
X16710000Y-5750000D02*
X16690000Y-5770000D01*
X16702500Y-6835000D02*
X16722500Y-6855000D01*
X16722500Y-6835000D02*
X16702500Y-6855000D01*
X16724307Y-5458615D02*
X16744307Y-5478615D01*
X16744307Y-5458615D02*
X16724307Y-5478615D01*
X16726719Y-6292345D02*
X16746719Y-6312345D01*
X16746719Y-6292345D02*
X16726719Y-6312345D01*
X16752579Y-5870050D02*
X16772579Y-5890050D01*
X16772579Y-5870050D02*
X16752579Y-5890050D01*
X16759376Y-5519377D02*
X16779376Y-5539377D01*
X16779376Y-5519377D02*
X16759376Y-5539377D01*
X16765000Y-5980000D02*
X16785000Y-6000000D01*
X16785000Y-5980000D02*
X16765000Y-6000000D01*
X16765000Y-6690000D02*
X16785000Y-6710000D01*
X16785000Y-6690000D02*
X16765000Y-6710000D01*
X16787500Y-7145000D02*
X16807500Y-7165000D01*
X16807500Y-7145000D02*
X16787500Y-7165000D01*
X16790000Y-5570000D02*
X16810000Y-5590000D01*
X16810000Y-5570000D02*
X16790000Y-5590000D01*
X16832096Y-7097780D02*
X16852096Y-7117780D01*
X16852096Y-7097780D02*
X16832096Y-7117780D01*
X16835000Y-6690000D02*
X16855000Y-6710000D01*
X16855000Y-6690000D02*
X16835000Y-6710000D01*
X16835100Y-5861746D02*
X16855100Y-5881746D01*
X16855100Y-5861746D02*
X16835100Y-5881746D01*
X16864308Y-6078615D02*
X16884308Y-6098615D01*
X16884308Y-6078615D02*
X16864308Y-6098615D01*
X16874900Y-6010306D02*
X16894900Y-6030306D01*
X16894900Y-6010306D02*
X16874900Y-6030306D01*
X16890000Y-6130000D02*
X16910000Y-6150000D01*
X16910000Y-6130000D02*
X16890000Y-6150000D01*
X16890000Y-6210000D02*
X16910000Y-6230000D01*
X16910000Y-6210000D02*
X16890000Y-6230000D01*
X16923750Y-6501250D02*
X16943750Y-6521250D01*
X16943750Y-6501250D02*
X16923750Y-6521250D01*
X16960000Y-6565000D02*
X16980000Y-6585000D01*
X16980000Y-6565000D02*
X16960000Y-6585000D01*
X16965002Y-6230000D02*
X16985002Y-6250000D01*
X16985002Y-6230000D02*
X16965002Y-6250000D01*
X17005000Y-6175000D02*
X17025000Y-6195000D01*
X17025000Y-6175000D02*
X17005000Y-6195000D01*
X17030000Y-6570000D02*
X17050000Y-6590000D01*
X17050000Y-6570000D02*
X17030000Y-6590000D01*
X17180177Y-6701605D02*
X17200177Y-6721605D01*
X17200177Y-6701605D02*
X17180177Y-6721605D01*
X17190000Y-7290000D02*
X17210000Y-7310000D01*
X17210000Y-7290000D02*
X17190000Y-7310000D01*
X17227522Y-6673712D02*
X17247522Y-6693712D01*
X17247522Y-6673712D02*
X17227522Y-6693712D01*
X17333557Y-6603149D02*
X17353557Y-6623149D01*
X17353557Y-6603149D02*
X17333557Y-6623149D01*
X17340000Y-6985000D02*
X17360000Y-7005000D01*
X17360000Y-6985000D02*
X17340000Y-7005000D01*
X17372500Y-5205000D02*
X17392500Y-5225000D01*
X17392500Y-5205000D02*
X17372500Y-5225000D01*
X17410000Y-5270000D02*
X17430000Y-5290000D01*
X17430000Y-5270000D02*
X17410000Y-5290000D01*
X17428158Y-6947500D02*
X17448158Y-6967500D01*
X17448158Y-6947500D02*
X17428158Y-6967500D01*
X17430000Y-6365000D02*
X17450000Y-6385000D01*
X17450000Y-6365000D02*
X17430000Y-6385000D01*
X17430864Y-5330000D02*
X17450864Y-5350000D01*
X17450864Y-5330000D02*
X17430864Y-5350000D01*
X17432450Y-7217070D02*
X17452450Y-7237070D01*
X17452450Y-7217070D02*
X17432450Y-7237070D01*
X17435658Y-7102500D02*
X17455658Y-7122500D01*
X17455658Y-7102500D02*
X17435658Y-7122500D01*
X17450000Y-6277500D02*
X17470000Y-6297500D01*
X17470000Y-6277500D02*
X17450000Y-6297500D01*
X17510000Y-6500000D02*
X17530000Y-6520000D01*
X17530000Y-6500000D02*
X17510000Y-6520000D01*
X17525000Y-6229950D02*
X17545000Y-6249950D01*
X17545000Y-6229950D02*
X17525000Y-6249950D01*
X17532488Y-6317500D02*
X17552488Y-6337500D01*
X17552488Y-6317500D02*
X17532488Y-6337500D01*
X17545000Y-5712500D02*
X17565000Y-5732500D01*
X17565000Y-5712500D02*
X17545000Y-5732500D01*
X17545000Y-6980000D02*
X17565000Y-7000000D01*
X17565000Y-6980000D02*
X17545000Y-7000000D01*
X17570000Y-6470000D02*
X17590000Y-6490000D01*
X17590000Y-6470000D02*
X17570000Y-6490000D01*
X17570057Y-6904950D02*
X17590057Y-6924950D01*
X17590057Y-6904950D02*
X17570057Y-6924950D01*
X17610001Y-6629999D02*
X17630001Y-6649999D01*
X17630001Y-6629999D02*
X17610001Y-6649999D01*
X17629997Y-5749462D02*
X17649997Y-5769462D01*
X17649997Y-5749462D02*
X17629997Y-5769462D01*
X17655000Y-5682500D02*
X17675000Y-5702500D01*
X17675000Y-5682500D02*
X17655000Y-5702500D01*
X17692000Y-6762500D02*
X17712000Y-6782500D01*
X17712000Y-6762500D02*
X17692000Y-6782500D01*
X17710000Y-6250000D02*
X17730000Y-6270000D01*
X17730000Y-6250000D02*
X17710000Y-6270000D01*
X17730000Y-5330000D02*
X17750000Y-5350000D01*
X17750000Y-5330000D02*
X17730000Y-5350000D01*
X17730000Y-6457500D02*
X17750000Y-6477500D01*
X17750000Y-6457500D02*
X17730000Y-6477500D01*
X17730000Y-6980000D02*
X17750000Y-7000000D01*
X17750000Y-6980000D02*
X17730000Y-7000000D01*
X17750001Y-5270000D02*
X17770001Y-5290000D01*
X17770001Y-5270000D02*
X17750001Y-5290000D01*
X17770000Y-5200000D02*
X17790000Y-5220000D01*
X17790000Y-5200000D02*
X17770000Y-5220000D01*
X17793816Y-6420314D02*
X17813816Y-6440314D01*
X17813816Y-6420314D02*
X17793816Y-6440314D01*
X17935000Y-6270000D02*
X17955000Y-6290000D01*
X17955000Y-6270000D02*
X17935000Y-6290000D01*
X18022500Y-6615000D02*
X18042500Y-6635000D01*
X18042500Y-6615000D02*
X18022500Y-6635000D01*
X18060000Y-6225000D02*
X18080000Y-6245000D01*
X18080000Y-6225000D02*
X18060000Y-6245000D01*
X18082500Y-6600000D02*
X18102500Y-6620000D01*
X18102500Y-6600000D02*
X18082500Y-6620000D01*
X18260000Y-6285000D02*
X18280000Y-6305000D01*
X18280000Y-6285000D02*
X18260000Y-6305000D01*
X18340000Y-7280000D02*
X18360000Y-7300000D01*
X18360000Y-7280000D02*
X18340000Y-7300000D01*
D12*
X16537500Y-5392500D02*
G75*
G03*
X16537500Y-5392500I-15000J0D01*
G01*
X16627013Y-5502598D02*
G75*
G03*
X16627013Y-5502598I-15000J0D01*
G01*
X17342500Y-6542500D02*
G75*
G03*
X17342500Y-6542500I-15000J0D01*
G01*
X18125000Y-6435000D02*
G75*
G03*
X18125000Y-6435000I-15000J0D01*
G01*
D13*
X9928158Y-5544000D02*
X9928158Y-5584000D01*
X9908158Y-5564000D02*
X9948158Y-5564000D01*
X10030658Y-5815000D02*
X10030658Y-5855000D01*
X10010658Y-5835000D02*
X10050658Y-5835000D01*
X10098158Y-5589000D02*
X10098158Y-5629000D01*
X10078158Y-5609000D02*
X10118158Y-5609000D01*
X10250000Y-4980000D02*
X10250000Y-5020000D01*
X10230000Y-5000000D02*
X10270000Y-5000000D01*
X10279158Y-5963000D02*
X10279158Y-6003000D01*
X10259158Y-5983000D02*
X10299158Y-5983000D01*
X10410000Y-7212500D02*
X10410000Y-7252500D01*
X10390000Y-7232500D02*
X10430000Y-7232500D01*
X10602500Y-7225000D02*
X10602500Y-7265000D01*
X10582500Y-7245000D02*
X10622500Y-7245000D01*
X10893158Y-7362500D02*
X10893158Y-7402500D01*
X10873158Y-7382500D02*
X10913158Y-7382500D01*
X10965000Y-5110000D02*
X10965000Y-5150000D01*
X10945000Y-5130000D02*
X10985000Y-5130000D01*
X10987500Y-6755000D02*
X10987500Y-6795000D01*
X10967500Y-6775000D02*
X11007500Y-6775000D01*
X11080000Y-7410000D02*
X11080000Y-7450000D01*
X11060000Y-7430000D02*
X11100000Y-7430000D01*
X11100000Y-6450000D02*
X11100000Y-6490000D01*
X11080000Y-6470000D02*
X11120000Y-6470000D01*
X11250000Y-6730000D02*
X11250000Y-6770000D01*
X11230000Y-6750000D02*
X11270000Y-6750000D01*
X11265000Y-7672500D02*
X11265000Y-7712500D01*
X11245000Y-7692500D02*
X11285000Y-7692500D01*
X11270000Y-7175000D02*
X11270000Y-7215000D01*
X11250000Y-7195000D02*
X11290000Y-7195000D01*
X11340000Y-6450000D02*
X11340000Y-6490000D01*
X11320000Y-6470000D02*
X11360000Y-6470000D01*
X11357500Y-4962500D02*
X11357500Y-5002500D01*
X11337500Y-4982500D02*
X11377500Y-4982500D01*
X11500000Y-6730000D02*
X11500000Y-6770000D01*
X11480000Y-6750000D02*
X11520000Y-6750000D01*
X11640000Y-6340000D02*
X11640000Y-6380000D01*
X11620000Y-6360000D02*
X11660000Y-6360000D01*
X11750000Y-6730000D02*
X11750000Y-6770000D01*
X11730000Y-6750000D02*
X11770000Y-6750000D01*
X11930000Y-6825000D02*
X11930000Y-6865000D01*
X11910000Y-6845000D02*
X11950000Y-6845000D01*
X12117750Y-5570144D02*
X12117750Y-5610144D01*
X12097750Y-5590144D02*
X12137750Y-5590144D01*
X12182500Y-6815000D02*
X12182500Y-6855000D01*
X12162500Y-6835000D02*
X12202500Y-6835000D01*
X12202500Y-6122450D02*
X12202500Y-6162450D01*
X12182500Y-6142450D02*
X12222500Y-6142450D01*
X12250000Y-7730000D02*
X12250000Y-7770000D01*
X12230000Y-7750000D02*
X12270000Y-7750000D01*
X12337500Y-5107500D02*
X12337500Y-5147500D01*
X12317500Y-5127500D02*
X12357500Y-5127500D01*
X12337500Y-5200000D02*
X12337500Y-5240000D01*
X12317500Y-5220000D02*
X12357500Y-5220000D01*
X12357500Y-5527500D02*
X12357500Y-5567500D01*
X12337500Y-5547500D02*
X12377500Y-5547500D01*
X12363158Y-4930000D02*
X12363158Y-4970000D01*
X12343158Y-4950000D02*
X12383158Y-4950000D01*
X12445000Y-5107500D02*
X12445000Y-5147500D01*
X12425000Y-5127500D02*
X12465000Y-5127500D01*
X12445000Y-5200000D02*
X12445000Y-5240000D01*
X12425000Y-5220000D02*
X12465000Y-5220000D01*
X12460000Y-5600000D02*
X12460000Y-5640000D01*
X12440000Y-5620000D02*
X12480000Y-5620000D01*
X12463158Y-4922500D02*
X12463158Y-4962500D01*
X12443158Y-4942500D02*
X12483158Y-4942500D01*
X12500000Y-7730000D02*
X12500000Y-7770000D01*
X12480000Y-7750000D02*
X12520000Y-7750000D01*
X12515447Y-5683221D02*
X12515447Y-5723221D01*
X12495447Y-5703221D02*
X12535447Y-5703221D01*
X12552500Y-5110000D02*
X12552500Y-5150000D01*
X12532500Y-5130000D02*
X12572500Y-5130000D01*
X12552500Y-5202500D02*
X12552500Y-5242500D01*
X12532500Y-5222500D02*
X12572500Y-5222500D01*
X12560658Y-4910000D02*
X12560658Y-4950000D01*
X12540658Y-4930000D02*
X12580658Y-4930000D01*
X12570000Y-6227500D02*
X12570000Y-6267500D01*
X12550000Y-6247500D02*
X12590000Y-6247500D01*
X12606206Y-5836344D02*
X12606206Y-5876344D01*
X12586206Y-5856344D02*
X12626206Y-5856344D01*
X12625000Y-6435000D02*
X12625000Y-6475000D01*
X12605000Y-6455000D02*
X12645000Y-6455000D01*
X12660000Y-5110000D02*
X12660000Y-5150000D01*
X12640000Y-5130000D02*
X12680000Y-5130000D01*
X12660000Y-5202500D02*
X12660000Y-5242500D01*
X12640000Y-5222500D02*
X12680000Y-5222500D01*
X12660000Y-5295000D02*
X12660000Y-5335000D01*
X12640000Y-5315000D02*
X12680000Y-5315000D01*
X12669916Y-6230129D02*
X12669916Y-6270129D01*
X12649916Y-6250129D02*
X12689916Y-6250129D01*
X12675000Y-6735000D02*
X12675000Y-6775000D01*
X12655000Y-6755000D02*
X12695000Y-6755000D01*
X12695658Y-4895000D02*
X12695658Y-4935000D01*
X12675658Y-4915000D02*
X12715658Y-4915000D01*
X12750000Y-7730000D02*
X12750000Y-7770000D01*
X12730000Y-7750000D02*
X12770000Y-7750000D01*
X12780000Y-5462500D02*
X12780000Y-5502500D01*
X12760000Y-5482500D02*
X12800000Y-5482500D01*
X12812151Y-6417203D02*
X12812151Y-6457203D01*
X12792151Y-6437203D02*
X12832151Y-6437203D01*
X12815000Y-6497500D02*
X12815000Y-6537500D01*
X12795000Y-6517500D02*
X12835000Y-6517500D01*
X12815658Y-4897500D02*
X12815658Y-4937500D01*
X12795658Y-4917500D02*
X12835658Y-4917500D01*
X12924522Y-6979848D02*
X12924522Y-7019848D01*
X12904522Y-6999848D02*
X12944522Y-6999848D01*
X13000000Y-7730000D02*
X13000000Y-7770000D01*
X12980000Y-7750000D02*
X13020000Y-7750000D01*
X13085000Y-5367500D02*
X13085000Y-5407500D01*
X13065000Y-5387500D02*
X13105000Y-5387500D01*
X13138158Y-4992500D02*
X13138158Y-5032500D01*
X13118158Y-5012500D02*
X13158158Y-5012500D01*
X13207500Y-6050000D02*
X13207500Y-6090000D01*
X13187500Y-6070000D02*
X13227500Y-6070000D01*
X13235658Y-4992500D02*
X13235658Y-5032500D01*
X13215658Y-5012500D02*
X13255658Y-5012500D01*
X13250000Y-7730000D02*
X13250000Y-7770000D01*
X13230000Y-7750000D02*
X13270000Y-7750000D01*
X13277500Y-5775000D02*
X13277500Y-5815000D01*
X13257500Y-5795000D02*
X13297500Y-5795000D01*
X13330658Y-4992500D02*
X13330658Y-5032500D01*
X13310658Y-5012500D02*
X13350658Y-5012500D01*
X13373158Y-6492500D02*
X13373158Y-6532500D01*
X13353158Y-6512500D02*
X13393158Y-6512500D01*
X13387500Y-6737500D02*
X13387500Y-6777500D01*
X13367500Y-6757500D02*
X13407500Y-6757500D01*
X13500000Y-4980000D02*
X13500000Y-5020000D01*
X13480000Y-5000000D02*
X13520000Y-5000000D01*
X13500000Y-7730000D02*
X13500000Y-7770000D01*
X13480000Y-7750000D02*
X13520000Y-7750000D01*
X13510000Y-6620000D02*
X13510000Y-6660000D01*
X13490000Y-6640000D02*
X13530000Y-6640000D01*
X13533058Y-6517876D02*
X13533058Y-6557876D01*
X13513058Y-6537876D02*
X13553058Y-6537876D01*
X13750000Y-4980000D02*
X13750000Y-5020000D01*
X13730000Y-5000000D02*
X13770000Y-5000000D01*
X13752500Y-5722500D02*
X13752500Y-5762500D01*
X13732500Y-5742500D02*
X13772500Y-5742500D01*
X13800658Y-6155000D02*
X13800658Y-6195000D01*
X13780658Y-6175000D02*
X13820658Y-6175000D01*
X13837500Y-6765000D02*
X13837500Y-6805000D01*
X13817500Y-6785000D02*
X13857500Y-6785000D01*
X13950658Y-7632500D02*
X13950658Y-7672500D01*
X13930658Y-7652500D02*
X13970658Y-7652500D01*
X13991477Y-6787450D02*
X13991477Y-6827450D01*
X13971477Y-6807450D02*
X14011477Y-6807450D01*
X14000000Y-5230000D02*
X14000000Y-5270000D01*
X13980000Y-5250000D02*
X14020000Y-5250000D01*
X14015658Y-5757500D02*
X14015658Y-5797500D01*
X13995658Y-5777500D02*
X14035658Y-5777500D01*
X14018653Y-6578849D02*
X14018653Y-6618849D01*
X13998653Y-6598849D02*
X14038653Y-6598849D01*
X14022500Y-7140000D02*
X14022500Y-7180000D01*
X14002500Y-7160000D02*
X14042500Y-7160000D01*
X14078158Y-7632500D02*
X14078158Y-7672500D01*
X14058158Y-7652500D02*
X14098158Y-7652500D01*
X14122500Y-7030935D02*
X14122500Y-7070935D01*
X14102500Y-7050935D02*
X14142500Y-7050935D01*
X14137500Y-5562500D02*
X14137500Y-5602500D01*
X14117500Y-5582500D02*
X14157500Y-5582500D01*
X14203158Y-7632500D02*
X14203158Y-7672500D01*
X14183158Y-7652500D02*
X14223158Y-7652500D01*
X14227500Y-7030935D02*
X14227500Y-7070935D01*
X14207500Y-7050935D02*
X14247500Y-7050935D01*
X14250000Y-4980000D02*
X14250000Y-5020000D01*
X14230000Y-5000000D02*
X14270000Y-5000000D01*
X14312500Y-5652500D02*
X14312500Y-5692500D01*
X14292500Y-5672500D02*
X14332500Y-5672500D01*
X14323158Y-7632500D02*
X14323158Y-7672500D01*
X14303158Y-7652500D02*
X14343158Y-7652500D01*
X14370000Y-6582500D02*
X14370000Y-6622500D01*
X14350000Y-6602500D02*
X14390000Y-6602500D01*
X14443158Y-7632500D02*
X14443158Y-7672500D01*
X14423158Y-7652500D02*
X14463158Y-7652500D01*
X14480000Y-7300000D02*
X14480000Y-7340000D01*
X14460000Y-7320000D02*
X14500000Y-7320000D01*
X14507500Y-6320000D02*
X14507500Y-6360000D01*
X14487500Y-6340000D02*
X14527500Y-6340000D01*
X14620000Y-7220000D02*
X14620000Y-7260000D01*
X14600000Y-7240000D02*
X14640000Y-7240000D01*
X14800000Y-6395000D02*
X14800000Y-6435000D01*
X14780000Y-6415000D02*
X14820000Y-6415000D01*
X14860000Y-6640000D02*
X14860000Y-6680000D01*
X14840000Y-6660000D02*
X14880000Y-6660000D01*
X15000000Y-5230000D02*
X15000000Y-5270000D01*
X14980000Y-5250000D02*
X15020000Y-5250000D01*
X15000000Y-5480000D02*
X15000000Y-5520000D01*
X14980000Y-5500000D02*
X15020000Y-5500000D01*
X15080658Y-6890000D02*
X15080658Y-6930000D01*
X15060658Y-6910000D02*
X15100658Y-6910000D01*
X15120000Y-7360000D02*
X15120000Y-7400000D01*
X15100000Y-7380000D02*
X15140000Y-7380000D01*
X15189133Y-5368541D02*
X15189133Y-5408541D01*
X15169133Y-5388541D02*
X15209133Y-5388541D01*
X15247500Y-6095000D02*
X15247500Y-6135000D01*
X15227500Y-6115000D02*
X15267500Y-6115000D01*
X15265000Y-5235000D02*
X15265000Y-5275000D01*
X15245000Y-5255000D02*
X15285000Y-5255000D01*
X15294373Y-7602500D02*
X15294373Y-7642500D01*
X15274373Y-7622500D02*
X15314373Y-7622500D01*
X15300943Y-5106999D02*
X15300943Y-5146999D01*
X15280943Y-5126999D02*
X15320943Y-5126999D01*
X15320000Y-6660000D02*
X15320000Y-6700000D01*
X15300000Y-6680000D02*
X15340000Y-6680000D01*
X15320658Y-7112500D02*
X15320658Y-7152500D01*
X15300658Y-7132500D02*
X15340658Y-7132500D01*
X15340000Y-7700000D02*
X15340000Y-7740000D01*
X15320000Y-7720000D02*
X15360000Y-7720000D01*
X15366108Y-5187703D02*
X15366108Y-5227703D01*
X15346108Y-5207703D02*
X15386108Y-5207703D01*
X15445000Y-6077500D02*
X15445000Y-6117500D01*
X15425000Y-6097500D02*
X15465000Y-6097500D01*
X15581909Y-6952442D02*
X15581909Y-6992442D01*
X15561909Y-6972442D02*
X15601909Y-6972442D01*
X15615000Y-5105000D02*
X15615000Y-5145000D01*
X15595000Y-5125000D02*
X15635000Y-5125000D01*
X15662779Y-5200333D02*
X15662779Y-5240333D01*
X15642779Y-5220333D02*
X15682779Y-5220333D01*
X15705000Y-5872500D02*
X15705000Y-5912500D01*
X15685000Y-5892500D02*
X15725000Y-5892500D01*
X15705000Y-6077500D02*
X15705000Y-6117500D01*
X15685000Y-6097500D02*
X15725000Y-6097500D01*
X15780000Y-5280000D02*
X15780000Y-5320000D01*
X15760000Y-5300000D02*
X15800000Y-5300000D01*
X15785000Y-6505000D02*
X15785000Y-6545000D01*
X15765000Y-6525000D02*
X15805000Y-6525000D01*
X15852500Y-7152500D02*
X15852500Y-7192500D01*
X15832500Y-7172500D02*
X15872500Y-7172500D01*
X15895199Y-5470857D02*
X15895199Y-5510857D01*
X15875199Y-5490857D02*
X15915199Y-5490857D01*
X15955000Y-5185000D02*
X15955000Y-5225000D01*
X15935000Y-5205000D02*
X15975000Y-5205000D01*
X15965000Y-5055000D02*
X15965000Y-5095000D01*
X15945000Y-5075000D02*
X15985000Y-5075000D01*
X15967500Y-5872500D02*
X15967500Y-5912500D01*
X15947500Y-5892500D02*
X15987500Y-5892500D01*
X15967500Y-6077500D02*
X15967500Y-6117500D01*
X15947500Y-6097500D02*
X15987500Y-6097500D01*
X16080000Y-5080000D02*
X16080000Y-5120000D01*
X16060000Y-5100000D02*
X16100000Y-5100000D01*
X16212500Y-7757500D02*
X16212500Y-7797500D01*
X16192500Y-7777500D02*
X16232500Y-7777500D01*
X16454158Y-5289000D02*
X16454158Y-5329000D01*
X16434158Y-5309000D02*
X16474158Y-5309000D01*
X16500000Y-4980000D02*
X16500000Y-5020000D01*
X16480000Y-5000000D02*
X16520000Y-5000000D01*
X16521172Y-7425513D02*
X16521172Y-7465513D01*
X16501172Y-7445513D02*
X16541172Y-7445513D01*
X16554158Y-6320000D02*
X16554158Y-6360000D01*
X16534158Y-6340000D02*
X16574158Y-6340000D01*
X16602158Y-5281000D02*
X16602158Y-5321000D01*
X16582158Y-5301000D02*
X16622158Y-5301000D01*
X16672060Y-7638400D02*
X16672060Y-7678400D01*
X16652060Y-7658400D02*
X16692060Y-7658400D01*
X16809768Y-6320687D02*
X16809768Y-6360687D01*
X16789768Y-6340687D02*
X16829768Y-6340687D01*
X16875000Y-6400000D02*
X16875000Y-6440000D01*
X16855000Y-6420000D02*
X16895000Y-6420000D01*
X17010338Y-5839664D02*
X17010338Y-5879664D01*
X16990338Y-5859664D02*
X17030338Y-5859664D01*
X17281961Y-5943396D02*
X17281961Y-5983396D01*
X17261961Y-5963396D02*
X17301961Y-5963396D01*
X17282500Y-7755000D02*
X17282500Y-7795000D01*
X17262500Y-7775000D02*
X17302500Y-7775000D01*
X17291608Y-6059000D02*
X17291608Y-6099000D01*
X17271608Y-6079000D02*
X17311608Y-6079000D01*
X17666480Y-7451020D02*
X17666480Y-7491020D01*
X17646480Y-7471020D02*
X17686480Y-7471020D01*
X17730000Y-7690000D02*
X17730000Y-7730000D01*
X17710000Y-7710000D02*
X17750000Y-7710000D01*
X17808158Y-6787500D02*
X17808158Y-6827500D01*
X17788158Y-6807500D02*
X17828158Y-6807500D01*
X18000000Y-7730000D02*
X18000000Y-7770000D01*
X17980000Y-7750000D02*
X18020000Y-7750000D01*
X18040658Y-7395000D02*
X18040658Y-7435000D01*
X18020658Y-7415000D02*
X18060658Y-7415000D01*
X18060000Y-5220000D02*
X18060000Y-5260000D01*
X18040000Y-5240000D02*
X18080000Y-5240000D01*
X18120000Y-5320000D02*
X18120000Y-5360000D01*
X18100000Y-5340000D02*
X18140000Y-5340000D01*
X18140000Y-7295000D02*
X18140000Y-7335000D01*
X18120000Y-7315000D02*
X18160000Y-7315000D01*
X18157500Y-5875000D02*
X18157500Y-5915000D01*
X18137500Y-5895000D02*
X18177500Y-5895000D01*
X18198618Y-6715155D02*
X18198618Y-6755155D01*
X18178618Y-6735155D02*
X18218618Y-6735155D01*
X18227043Y-5366065D02*
X18227043Y-5406065D01*
X18207043Y-5386065D02*
X18247043Y-5386065D01*
X18250000Y-7295000D02*
X18250000Y-7335000D01*
X18230000Y-7315000D02*
X18270000Y-7315000D01*
X18305000Y-7385000D02*
X18305000Y-7425000D01*
X18285000Y-7405000D02*
X18325000Y-7405000D01*
X18340000Y-5180000D02*
X18340000Y-5220000D01*
X18320000Y-5200000D02*
X18360000Y-5200000D01*
X18340000Y-5380000D02*
X18340000Y-5420000D01*
X18320000Y-5400000D02*
X18360000Y-5400000D01*
X18382500Y-5697500D02*
X18382500Y-5737500D01*
X18362500Y-5717500D02*
X18402500Y-5717500D01*
X18405000Y-7440000D02*
X18405000Y-7480000D01*
X18385000Y-7460000D02*
X18425000Y-7460000D01*
X18405000Y-7550000D02*
X18405000Y-7590000D01*
X18385000Y-7570000D02*
X18425000Y-7570000D01*
X18405000Y-7665000D02*
X18405000Y-7705000D01*
X18385000Y-7685000D02*
X18425000Y-7685000D01*
X18460000Y-5520000D02*
X18460000Y-5560000D01*
X18440000Y-5540000D02*
X18480000Y-5540000D01*
X18460000Y-5620000D02*
X18460000Y-5660000D01*
X18440000Y-5640000D02*
X18480000Y-5640000D01*
X18505000Y-7750000D02*
X18505000Y-7790000D01*
X18485000Y-7770000D02*
X18525000Y-7770000D01*
X18555658Y-6885000D02*
X18555658Y-6925000D01*
X18535658Y-6905000D02*
X18575658Y-6905000D01*
X18590000Y-6410000D02*
X18590000Y-6450000D01*
X18570000Y-6430000D02*
X18610000Y-6430000D01*
X18595000Y-6530000D02*
X18595000Y-6570000D01*
X18575000Y-6550000D02*
X18615000Y-6550000D01*
X18630000Y-7750000D02*
X18630000Y-7790000D01*
X18610000Y-7770000D02*
X18650000Y-7770000D01*
X18663158Y-6885000D02*
X18663158Y-6925000D01*
X18643158Y-6905000D02*
X18683158Y-6905000D01*
X18695000Y-5707500D02*
X18695000Y-5747500D01*
X18675000Y-5727500D02*
X18715000Y-5727500D01*
X18740000Y-4880000D02*
X18740000Y-4920000D01*
X18720000Y-4900000D02*
X18760000Y-4900000D01*
X18760000Y-6000000D02*
X18760000Y-6040000D01*
X18740000Y-6020000D02*
X18780000Y-6020000D01*
X18760000Y-6145000D02*
X18760000Y-6185000D01*
X18740000Y-6165000D02*
X18780000Y-6165000D01*
X18760000Y-6290000D02*
X18760000Y-6330000D01*
X18740000Y-6310000D02*
X18780000Y-6310000D01*
X18760000Y-6435000D02*
X18760000Y-6475000D01*
X18740000Y-6455000D02*
X18780000Y-6455000D01*
X18760000Y-6580000D02*
X18760000Y-6620000D01*
X18740000Y-6600000D02*
X18780000Y-6600000D01*
X18770000Y-7750000D02*
X18770000Y-7790000D01*
X18750000Y-7770000D02*
X18790000Y-7770000D01*
X18770658Y-6885000D02*
X18770658Y-6925000D01*
X18750658Y-6905000D02*
X18790658Y-6905000D01*
D14*
X10026213Y-7046213D02*
X10026213Y-7003787D01*
X9983787Y-7003787D01*
X9983787Y-7046213D01*
X10026213Y-7046213D01*
D10*
X9970000Y-7055000D02*
X10040000Y-7055000D01*
X10040000Y-7055000D02*
G75*
G03*
X10040000Y-6995000I0J30000D01*
G01*
X10040000Y-6995000D02*
X9970000Y-6995000D01*
X9970000Y-6995000D02*
G75*
G03*
X9970000Y-7055000I0J-30000D01*
G01*
D14*
X10026213Y-7746213D02*
X10026213Y-7703787D01*
X9983787Y-7703787D01*
X9983787Y-7746213D01*
X10026213Y-7746213D01*
D10*
X10040000Y-7695000D02*
X9970000Y-7695000D01*
X9970000Y-7695000D02*
G75*
G03*
X9970000Y-7755000I0J-30000D01*
G01*
X9970000Y-7755000D02*
X10040000Y-7755000D01*
X10040000Y-7755000D02*
G75*
G03*
X10040000Y-7695000I0J30000D01*
G01*
D15*
X11230000Y-5770000D02*
X11270000Y-5730000D01*
X11230000Y-5690000D01*
X11190000Y-5730000D01*
X11230000Y-5770000D01*
X11580000Y-5770000D02*
X11620000Y-5730000D01*
X11580000Y-5690000D01*
X11540000Y-5730000D01*
X11580000Y-5770000D01*
D16*
X10232500Y-7082500D02*
X10317500Y-7167500D01*
X10317500Y-7082500D02*
X10232500Y-7167500D01*
X10317500Y-7125000D02*
G75*
G03*
X10317500Y-7125000I-42500J0D01*
G01*
X10232500Y-7582500D02*
X10317500Y-7667500D01*
X10317500Y-7582500D02*
X10232500Y-7667500D01*
X10317500Y-7625000D02*
G75*
G03*
X10317500Y-7625000I-42500J0D01*
G01*
D17*
X14250000Y-5250000D02*
X14350000Y-5350000D01*
X14350000Y-5250000D02*
X14250000Y-5350000D01*
X14300000Y-5250000D02*
X14300000Y-5350000D01*
X14250000Y-5300000D02*
X14350000Y-5300000D01*
X14750000Y-5250000D02*
X14850000Y-5350000D01*
X14850000Y-5250000D02*
X14750000Y-5350000D01*
X14800000Y-5250000D02*
X14800000Y-5350000D01*
X14750000Y-5300000D02*
X14850000Y-5300000D01*
D18*
X10449000Y-5149000D02*
X10551000Y-5251000D01*
X10551000Y-5149000D02*
X10449000Y-5251000D01*
X10536063Y-5236063D02*
X10536063Y-5163937D01*
X10463937Y-5163937D01*
X10463937Y-5236063D01*
X10536063Y-5236063D01*
X10449000Y-6149000D02*
X10551000Y-6251000D01*
X10551000Y-6149000D02*
X10449000Y-6251000D01*
X10536063Y-6236063D02*
X10536063Y-6163937D01*
X10463937Y-6163937D01*
X10463937Y-6236063D01*
X10536063Y-6236063D01*
X10749000Y-5149000D02*
X10851000Y-5251000D01*
X10851000Y-5149000D02*
X10749000Y-5251000D01*
X10836063Y-5236063D02*
X10836063Y-5163937D01*
X10763937Y-5163937D01*
X10763937Y-5236063D01*
X10836063Y-5236063D01*
X10749000Y-6149000D02*
X10851000Y-6251000D01*
X10851000Y-6149000D02*
X10749000Y-6251000D01*
X10836063Y-6236063D02*
X10836063Y-6163937D01*
X10763937Y-6163937D01*
X10763937Y-6236063D01*
X10836063Y-6236063D01*
D19*
X12305000Y-7290000D02*
X12425000Y-7410000D01*
X12425000Y-7290000D02*
X12305000Y-7410000D01*
X12365000Y-7410000D02*
X12425000Y-7350000D01*
X12365000Y-7290000D01*
X12305000Y-7350000D01*
X12365000Y-7410000D01*
X12655000Y-7290000D02*
X12775000Y-7410000D01*
X12775000Y-7290000D02*
X12655000Y-7410000D01*
X12715000Y-7410000D02*
X12775000Y-7350000D01*
X12715000Y-7290000D01*
X12655000Y-7350000D01*
X12715000Y-7410000D01*
X13005000Y-7290000D02*
X13125000Y-7410000D01*
X13125000Y-7290000D02*
X13005000Y-7410000D01*
X13065000Y-7410000D02*
X13125000Y-7350000D01*
X13065000Y-7290000D01*
X13005000Y-7350000D01*
X13065000Y-7410000D01*
X13355000Y-7290000D02*
X13475000Y-7410000D01*
X13475000Y-7290000D02*
X13355000Y-7410000D01*
X13415000Y-7410000D02*
X13475000Y-7350000D01*
X13415000Y-7290000D01*
X13355000Y-7350000D01*
X13415000Y-7410000D01*
D20*
X11760960Y-4996060D02*
X11760960Y-5246060D01*
X11635960Y-5121060D02*
X11885960Y-5121060D01*
X11885960Y-5121060D02*
G75*
G03*
X11885960Y-5121060I-125000J0D01*
G01*
X11760960Y-7431579D02*
X11760960Y-7681579D01*
X11635960Y-7556579D02*
X11885960Y-7556579D01*
X11885960Y-7556579D02*
G75*
G03*
X11885960Y-7556579I-125000J0D01*
G01*
X17005960Y-4996060D02*
X17005960Y-5246060D01*
X16880960Y-5121060D02*
X17130960Y-5121060D01*
X17130960Y-5121060D02*
G75*
G03*
X17130960Y-5121060I-125000J0D01*
G01*
X17005960Y-7431579D02*
X17005960Y-7681579D01*
X16880960Y-7556579D02*
X17130960Y-7556579D01*
X17130960Y-7556579D02*
G75*
G03*
X17130960Y-7556579I-125000J0D01*
G01*
D10*
X10076725Y-8162594D02*
X10076725Y-7962594D01*
X10076725Y-7962594D02*
X10124344Y-7962594D01*
X10124344Y-7962594D02*
X10152916Y-7972118D01*
X10152916Y-7972118D02*
X10171964Y-7991165D01*
X10171964Y-7991165D02*
X10181487Y-8010213D01*
X10181487Y-8010213D02*
X10191011Y-8048308D01*
X10191011Y-8048308D02*
X10191011Y-8076880D01*
X10191011Y-8076880D02*
X10181487Y-8114975D01*
X10181487Y-8114975D02*
X10171964Y-8134022D01*
X10171964Y-8134022D02*
X10152916Y-8153070D01*
X10152916Y-8153070D02*
X10124344Y-8162594D01*
X10124344Y-8162594D02*
X10076725Y-8162594D01*
X10276725Y-8162594D02*
X10276725Y-8029261D01*
X10276725Y-8067356D02*
X10286249Y-8048308D01*
X10286249Y-8048308D02*
X10295773Y-8038784D01*
X10295773Y-8038784D02*
X10314821Y-8029261D01*
X10314821Y-8029261D02*
X10333868Y-8029261D01*
X10400535Y-8162594D02*
X10400535Y-8029261D01*
X10400535Y-7962594D02*
X10391011Y-7972118D01*
X10391011Y-7972118D02*
X10400535Y-7981642D01*
X10400535Y-7981642D02*
X10410059Y-7972118D01*
X10410059Y-7972118D02*
X10400535Y-7962594D01*
X10400535Y-7962594D02*
X10400535Y-7981642D01*
X10524344Y-8162594D02*
X10505297Y-8153070D01*
X10505297Y-8153070D02*
X10495773Y-8134022D01*
X10495773Y-8134022D02*
X10495773Y-7962594D01*
X10629106Y-8162594D02*
X10610059Y-8153070D01*
X10610059Y-8153070D02*
X10600535Y-8134022D01*
X10600535Y-8134022D02*
X10600535Y-7962594D01*
X10857678Y-8162594D02*
X10857678Y-7962594D01*
X10857678Y-7962594D02*
X10924345Y-8105451D01*
X10924345Y-8105451D02*
X10991011Y-7962594D01*
X10991011Y-7962594D02*
X10991011Y-8162594D01*
X11171964Y-8162594D02*
X11171964Y-8057832D01*
X11171964Y-8057832D02*
X11162440Y-8038784D01*
X11162440Y-8038784D02*
X11143392Y-8029261D01*
X11143392Y-8029261D02*
X11105297Y-8029261D01*
X11105297Y-8029261D02*
X11086249Y-8038784D01*
X11171964Y-8153070D02*
X11152916Y-8162594D01*
X11152916Y-8162594D02*
X11105297Y-8162594D01*
X11105297Y-8162594D02*
X11086249Y-8153070D01*
X11086249Y-8153070D02*
X11076725Y-8134022D01*
X11076725Y-8134022D02*
X11076725Y-8114975D01*
X11076725Y-8114975D02*
X11086249Y-8095927D01*
X11086249Y-8095927D02*
X11105297Y-8086403D01*
X11105297Y-8086403D02*
X11152916Y-8086403D01*
X11152916Y-8086403D02*
X11171964Y-8076880D01*
X11267202Y-8029261D02*
X11267202Y-8229261D01*
X11267202Y-8038784D02*
X11286249Y-8029261D01*
X11286249Y-8029261D02*
X11324344Y-8029261D01*
X11324344Y-8029261D02*
X11343392Y-8038784D01*
X11343392Y-8038784D02*
X11352916Y-8048308D01*
X11352916Y-8048308D02*
X11362440Y-8067356D01*
X11362440Y-8067356D02*
X11362440Y-8124499D01*
X11362440Y-8124499D02*
X11352916Y-8143546D01*
X11352916Y-8143546D02*
X11343392Y-8153070D01*
X11343392Y-8153070D02*
X11324344Y-8162594D01*
X11324344Y-8162594D02*
X11286249Y-8162594D01*
X11286249Y-8162594D02*
X11267202Y-8153070D01*
X11448154Y-8143546D02*
X11457678Y-8153070D01*
X11457678Y-8153070D02*
X11448154Y-8162594D01*
X11448154Y-8162594D02*
X11438630Y-8153070D01*
X11438630Y-8153070D02*
X11448154Y-8143546D01*
X11448154Y-8143546D02*
X11448154Y-8162594D01*
X11448154Y-8038784D02*
X11457678Y-8048308D01*
X11457678Y-8048308D02*
X11448154Y-8057832D01*
X11448154Y-8057832D02*
X11438630Y-8048308D01*
X11438630Y-8048308D02*
X11448154Y-8038784D01*
X11448154Y-8038784D02*
X11448154Y-8057832D01*
D11*
X9795949Y-8481110D02*
X9815949Y-8501110D01*
X9815949Y-8481110D02*
X9795949Y-8501110D01*
D10*
X10114821Y-8382594D02*
X10133868Y-8382594D01*
X10133868Y-8382594D02*
X10152916Y-8392118D01*
X10152916Y-8392118D02*
X10162440Y-8401642D01*
X10162440Y-8401642D02*
X10171964Y-8420689D01*
X10171964Y-8420689D02*
X10181487Y-8458784D01*
X10181487Y-8458784D02*
X10181487Y-8506404D01*
X10181487Y-8506404D02*
X10171964Y-8544499D01*
X10171964Y-8544499D02*
X10162440Y-8563546D01*
X10162440Y-8563546D02*
X10152916Y-8573070D01*
X10152916Y-8573070D02*
X10133868Y-8582594D01*
X10133868Y-8582594D02*
X10114821Y-8582594D01*
X10114821Y-8582594D02*
X10095773Y-8573070D01*
X10095773Y-8573070D02*
X10086249Y-8563546D01*
X10086249Y-8563546D02*
X10076725Y-8544499D01*
X10076725Y-8544499D02*
X10067202Y-8506404D01*
X10067202Y-8506404D02*
X10067202Y-8458784D01*
X10067202Y-8458784D02*
X10076725Y-8420689D01*
X10076725Y-8420689D02*
X10086249Y-8401642D01*
X10086249Y-8401642D02*
X10095773Y-8392118D01*
X10095773Y-8392118D02*
X10114821Y-8382594D01*
X10267202Y-8563546D02*
X10276725Y-8573070D01*
X10276725Y-8573070D02*
X10267202Y-8582594D01*
X10267202Y-8582594D02*
X10257678Y-8573070D01*
X10257678Y-8573070D02*
X10267202Y-8563546D01*
X10267202Y-8563546D02*
X10267202Y-8582594D01*
X10352916Y-8401642D02*
X10362440Y-8392118D01*
X10362440Y-8392118D02*
X10381487Y-8382594D01*
X10381487Y-8382594D02*
X10429106Y-8382594D01*
X10429106Y-8382594D02*
X10448154Y-8392118D01*
X10448154Y-8392118D02*
X10457678Y-8401642D01*
X10457678Y-8401642D02*
X10467202Y-8420689D01*
X10467202Y-8420689D02*
X10467202Y-8439737D01*
X10467202Y-8439737D02*
X10457678Y-8468308D01*
X10457678Y-8468308D02*
X10343392Y-8582594D01*
X10343392Y-8582594D02*
X10467202Y-8582594D01*
X10591011Y-8382594D02*
X10610059Y-8382594D01*
X10610059Y-8382594D02*
X10629106Y-8392118D01*
X10629106Y-8392118D02*
X10638630Y-8401642D01*
X10638630Y-8401642D02*
X10648154Y-8420689D01*
X10648154Y-8420689D02*
X10657678Y-8458784D01*
X10657678Y-8458784D02*
X10657678Y-8506404D01*
X10657678Y-8506404D02*
X10648154Y-8544499D01*
X10648154Y-8544499D02*
X10638630Y-8563546D01*
X10638630Y-8563546D02*
X10629106Y-8573070D01*
X10629106Y-8573070D02*
X10610059Y-8582594D01*
X10610059Y-8582594D02*
X10591011Y-8582594D01*
X10591011Y-8582594D02*
X10571964Y-8573070D01*
X10571964Y-8573070D02*
X10562440Y-8563546D01*
X10562440Y-8563546D02*
X10552916Y-8544499D01*
X10552916Y-8544499D02*
X10543392Y-8506404D01*
X10543392Y-8506404D02*
X10543392Y-8458784D01*
X10543392Y-8458784D02*
X10552916Y-8420689D01*
X10552916Y-8420689D02*
X10562440Y-8401642D01*
X10562440Y-8401642D02*
X10571964Y-8392118D01*
X10571964Y-8392118D02*
X10591011Y-8382594D01*
X10781487Y-8382594D02*
X10800535Y-8382594D01*
X10800535Y-8382594D02*
X10819583Y-8392118D01*
X10819583Y-8392118D02*
X10829106Y-8401642D01*
X10829106Y-8401642D02*
X10838630Y-8420689D01*
X10838630Y-8420689D02*
X10848154Y-8458784D01*
X10848154Y-8458784D02*
X10848154Y-8506404D01*
X10848154Y-8506404D02*
X10838630Y-8544499D01*
X10838630Y-8544499D02*
X10829106Y-8563546D01*
X10829106Y-8563546D02*
X10819583Y-8573070D01*
X10819583Y-8573070D02*
X10800535Y-8582594D01*
X10800535Y-8582594D02*
X10781487Y-8582594D01*
X10781487Y-8582594D02*
X10762440Y-8573070D01*
X10762440Y-8573070D02*
X10752916Y-8563546D01*
X10752916Y-8563546D02*
X10743392Y-8544499D01*
X10743392Y-8544499D02*
X10733868Y-8506404D01*
X10733868Y-8506404D02*
X10733868Y-8458784D01*
X10733868Y-8458784D02*
X10743392Y-8420689D01*
X10743392Y-8420689D02*
X10752916Y-8401642D01*
X10752916Y-8401642D02*
X10762440Y-8392118D01*
X10762440Y-8392118D02*
X10781487Y-8382594D01*
X10933868Y-8582594D02*
X10933868Y-8449261D01*
X10933868Y-8468308D02*
X10943392Y-8458784D01*
X10943392Y-8458784D02*
X10962440Y-8449261D01*
X10962440Y-8449261D02*
X10991011Y-8449261D01*
X10991011Y-8449261D02*
X11010059Y-8458784D01*
X11010059Y-8458784D02*
X11019583Y-8477832D01*
X11019583Y-8477832D02*
X11019583Y-8582594D01*
X11019583Y-8477832D02*
X11029106Y-8458784D01*
X11029106Y-8458784D02*
X11048154Y-8449261D01*
X11048154Y-8449261D02*
X11076725Y-8449261D01*
X11076725Y-8449261D02*
X11095773Y-8458784D01*
X11095773Y-8458784D02*
X11105297Y-8477832D01*
X11105297Y-8477832D02*
X11105297Y-8582594D01*
X11200535Y-8582594D02*
X11200535Y-8449261D01*
X11200535Y-8468308D02*
X11210059Y-8458784D01*
X11210059Y-8458784D02*
X11229106Y-8449261D01*
X11229106Y-8449261D02*
X11257678Y-8449261D01*
X11257678Y-8449261D02*
X11276725Y-8458784D01*
X11276725Y-8458784D02*
X11286249Y-8477832D01*
X11286249Y-8477832D02*
X11286249Y-8582594D01*
X11286249Y-8477832D02*
X11295773Y-8458784D01*
X11295773Y-8458784D02*
X11314821Y-8449261D01*
X11314821Y-8449261D02*
X11343392Y-8449261D01*
X11343392Y-8449261D02*
X11362440Y-8458784D01*
X11362440Y-8458784D02*
X11371964Y-8477832D01*
X11371964Y-8477832D02*
X11371964Y-8582594D01*
X11762440Y-8373070D02*
X11591011Y-8630213D01*
X12019583Y-8382594D02*
X12038630Y-8382594D01*
X12038630Y-8382594D02*
X12057678Y-8392118D01*
X12057678Y-8392118D02*
X12067202Y-8401642D01*
X12067202Y-8401642D02*
X12076726Y-8420689D01*
X12076726Y-8420689D02*
X12086249Y-8458784D01*
X12086249Y-8458784D02*
X12086249Y-8506404D01*
X12086249Y-8506404D02*
X12076726Y-8544499D01*
X12076726Y-8544499D02*
X12067202Y-8563546D01*
X12067202Y-8563546D02*
X12057678Y-8573070D01*
X12057678Y-8573070D02*
X12038630Y-8582594D01*
X12038630Y-8582594D02*
X12019583Y-8582594D01*
X12019583Y-8582594D02*
X12000535Y-8573070D01*
X12000535Y-8573070D02*
X11991011Y-8563546D01*
X11991011Y-8563546D02*
X11981487Y-8544499D01*
X11981487Y-8544499D02*
X11971964Y-8506404D01*
X11971964Y-8506404D02*
X11971964Y-8458784D01*
X11971964Y-8458784D02*
X11981487Y-8420689D01*
X11981487Y-8420689D02*
X11991011Y-8401642D01*
X11991011Y-8401642D02*
X12000535Y-8392118D01*
X12000535Y-8392118D02*
X12019583Y-8382594D01*
X12171964Y-8563546D02*
X12181487Y-8573070D01*
X12181487Y-8573070D02*
X12171964Y-8582594D01*
X12171964Y-8582594D02*
X12162440Y-8573070D01*
X12162440Y-8573070D02*
X12171964Y-8563546D01*
X12171964Y-8563546D02*
X12171964Y-8582594D01*
X12305297Y-8382594D02*
X12324345Y-8382594D01*
X12324345Y-8382594D02*
X12343392Y-8392118D01*
X12343392Y-8392118D02*
X12352916Y-8401642D01*
X12352916Y-8401642D02*
X12362440Y-8420689D01*
X12362440Y-8420689D02*
X12371964Y-8458784D01*
X12371964Y-8458784D02*
X12371964Y-8506404D01*
X12371964Y-8506404D02*
X12362440Y-8544499D01*
X12362440Y-8544499D02*
X12352916Y-8563546D01*
X12352916Y-8563546D02*
X12343392Y-8573070D01*
X12343392Y-8573070D02*
X12324345Y-8582594D01*
X12324345Y-8582594D02*
X12305297Y-8582594D01*
X12305297Y-8582594D02*
X12286249Y-8573070D01*
X12286249Y-8573070D02*
X12276726Y-8563546D01*
X12276726Y-8563546D02*
X12267202Y-8544499D01*
X12267202Y-8544499D02*
X12257678Y-8506404D01*
X12257678Y-8506404D02*
X12257678Y-8458784D01*
X12257678Y-8458784D02*
X12267202Y-8420689D01*
X12267202Y-8420689D02*
X12276726Y-8401642D01*
X12276726Y-8401642D02*
X12286249Y-8392118D01*
X12286249Y-8392118D02*
X12305297Y-8382594D01*
X12495773Y-8382594D02*
X12514821Y-8382594D01*
X12514821Y-8382594D02*
X12533868Y-8392118D01*
X12533868Y-8392118D02*
X12543392Y-8401642D01*
X12543392Y-8401642D02*
X12552916Y-8420689D01*
X12552916Y-8420689D02*
X12562440Y-8458784D01*
X12562440Y-8458784D02*
X12562440Y-8506404D01*
X12562440Y-8506404D02*
X12552916Y-8544499D01*
X12552916Y-8544499D02*
X12543392Y-8563546D01*
X12543392Y-8563546D02*
X12533868Y-8573070D01*
X12533868Y-8573070D02*
X12514821Y-8582594D01*
X12514821Y-8582594D02*
X12495773Y-8582594D01*
X12495773Y-8582594D02*
X12476726Y-8573070D01*
X12476726Y-8573070D02*
X12467202Y-8563546D01*
X12467202Y-8563546D02*
X12457678Y-8544499D01*
X12457678Y-8544499D02*
X12448154Y-8506404D01*
X12448154Y-8506404D02*
X12448154Y-8458784D01*
X12448154Y-8458784D02*
X12457678Y-8420689D01*
X12457678Y-8420689D02*
X12467202Y-8401642D01*
X12467202Y-8401642D02*
X12476726Y-8392118D01*
X12476726Y-8392118D02*
X12495773Y-8382594D01*
X12629107Y-8382594D02*
X12762440Y-8382594D01*
X12762440Y-8382594D02*
X12676726Y-8582594D01*
X12848154Y-8582594D02*
X12886249Y-8582594D01*
X12886249Y-8582594D02*
X12905297Y-8573070D01*
X12905297Y-8573070D02*
X12914821Y-8563546D01*
X12914821Y-8563546D02*
X12933868Y-8534975D01*
X12933868Y-8534975D02*
X12943392Y-8496880D01*
X12943392Y-8496880D02*
X12943392Y-8420689D01*
X12943392Y-8420689D02*
X12933868Y-8401642D01*
X12933868Y-8401642D02*
X12924345Y-8392118D01*
X12924345Y-8392118D02*
X12905297Y-8382594D01*
X12905297Y-8382594D02*
X12867202Y-8382594D01*
X12867202Y-8382594D02*
X12848154Y-8392118D01*
X12848154Y-8392118D02*
X12838630Y-8401642D01*
X12838630Y-8401642D02*
X12829107Y-8420689D01*
X12829107Y-8420689D02*
X12829107Y-8468308D01*
X12829107Y-8468308D02*
X12838630Y-8487356D01*
X12838630Y-8487356D02*
X12848154Y-8496880D01*
X12848154Y-8496880D02*
X12867202Y-8506404D01*
X12867202Y-8506404D02*
X12905297Y-8506404D01*
X12905297Y-8506404D02*
X12924345Y-8496880D01*
X12924345Y-8496880D02*
X12933868Y-8487356D01*
X12933868Y-8487356D02*
X12943392Y-8468308D01*
X13019583Y-8382594D02*
X13019583Y-8420689D01*
X13095773Y-8382594D02*
X13095773Y-8420689D01*
X13391011Y-8658784D02*
X13381488Y-8649261D01*
X13381488Y-8649261D02*
X13362440Y-8620689D01*
X13362440Y-8620689D02*
X13352916Y-8601642D01*
X13352916Y-8601642D02*
X13343392Y-8573070D01*
X13343392Y-8573070D02*
X13333869Y-8525451D01*
X13333869Y-8525451D02*
X13333869Y-8487356D01*
X13333869Y-8487356D02*
X13343392Y-8439737D01*
X13343392Y-8439737D02*
X13352916Y-8411165D01*
X13352916Y-8411165D02*
X13362440Y-8392118D01*
X13362440Y-8392118D02*
X13381488Y-8363546D01*
X13381488Y-8363546D02*
X13391011Y-8354022D01*
X13571964Y-8582594D02*
X13457678Y-8582594D01*
X13514821Y-8582594D02*
X13514821Y-8382594D01*
X13514821Y-8382594D02*
X13495773Y-8411165D01*
X13495773Y-8411165D02*
X13476726Y-8430213D01*
X13476726Y-8430213D02*
X13457678Y-8439737D01*
X13762440Y-8582594D02*
X13648154Y-8582594D01*
X13705297Y-8582594D02*
X13705297Y-8382594D01*
X13705297Y-8382594D02*
X13686249Y-8411165D01*
X13686249Y-8411165D02*
X13667202Y-8430213D01*
X13667202Y-8430213D02*
X13648154Y-8439737D01*
X13829107Y-8382594D02*
X13952916Y-8382594D01*
X13952916Y-8382594D02*
X13886249Y-8458784D01*
X13886249Y-8458784D02*
X13914821Y-8458784D01*
X13914821Y-8458784D02*
X13933869Y-8468308D01*
X13933869Y-8468308D02*
X13943392Y-8477832D01*
X13943392Y-8477832D02*
X13952916Y-8496880D01*
X13952916Y-8496880D02*
X13952916Y-8544499D01*
X13952916Y-8544499D02*
X13943392Y-8563546D01*
X13943392Y-8563546D02*
X13933869Y-8573070D01*
X13933869Y-8573070D02*
X13914821Y-8582594D01*
X13914821Y-8582594D02*
X13857678Y-8582594D01*
X13857678Y-8582594D02*
X13838630Y-8573070D01*
X13838630Y-8573070D02*
X13829107Y-8563546D01*
X14191011Y-8582594D02*
X14191011Y-8382594D01*
X14276726Y-8582594D02*
X14276726Y-8477832D01*
X14276726Y-8477832D02*
X14267202Y-8458784D01*
X14267202Y-8458784D02*
X14248154Y-8449261D01*
X14248154Y-8449261D02*
X14219583Y-8449261D01*
X14219583Y-8449261D02*
X14200535Y-8458784D01*
X14200535Y-8458784D02*
X14191011Y-8468308D01*
X14400535Y-8582594D02*
X14381488Y-8573070D01*
X14381488Y-8573070D02*
X14371964Y-8563546D01*
X14371964Y-8563546D02*
X14362440Y-8544499D01*
X14362440Y-8544499D02*
X14362440Y-8487356D01*
X14362440Y-8487356D02*
X14371964Y-8468308D01*
X14371964Y-8468308D02*
X14381488Y-8458784D01*
X14381488Y-8458784D02*
X14400535Y-8449261D01*
X14400535Y-8449261D02*
X14429107Y-8449261D01*
X14429107Y-8449261D02*
X14448154Y-8458784D01*
X14448154Y-8458784D02*
X14457678Y-8468308D01*
X14457678Y-8468308D02*
X14467202Y-8487356D01*
X14467202Y-8487356D02*
X14467202Y-8544499D01*
X14467202Y-8544499D02*
X14457678Y-8563546D01*
X14457678Y-8563546D02*
X14448154Y-8573070D01*
X14448154Y-8573070D02*
X14429107Y-8582594D01*
X14429107Y-8582594D02*
X14400535Y-8582594D01*
X14581488Y-8582594D02*
X14562440Y-8573070D01*
X14562440Y-8573070D02*
X14552916Y-8554023D01*
X14552916Y-8554023D02*
X14552916Y-8382594D01*
X14733869Y-8573070D02*
X14714821Y-8582594D01*
X14714821Y-8582594D02*
X14676726Y-8582594D01*
X14676726Y-8582594D02*
X14657678Y-8573070D01*
X14657678Y-8573070D02*
X14648154Y-8554023D01*
X14648154Y-8554023D02*
X14648154Y-8477832D01*
X14648154Y-8477832D02*
X14657678Y-8458784D01*
X14657678Y-8458784D02*
X14676726Y-8449261D01*
X14676726Y-8449261D02*
X14714821Y-8449261D01*
X14714821Y-8449261D02*
X14733869Y-8458784D01*
X14733869Y-8458784D02*
X14743392Y-8477832D01*
X14743392Y-8477832D02*
X14743392Y-8496880D01*
X14743392Y-8496880D02*
X14648154Y-8515927D01*
X14819583Y-8573070D02*
X14838631Y-8582594D01*
X14838631Y-8582594D02*
X14876726Y-8582594D01*
X14876726Y-8582594D02*
X14895773Y-8573070D01*
X14895773Y-8573070D02*
X14905297Y-8554023D01*
X14905297Y-8554023D02*
X14905297Y-8544499D01*
X14905297Y-8544499D02*
X14895773Y-8525451D01*
X14895773Y-8525451D02*
X14876726Y-8515927D01*
X14876726Y-8515927D02*
X14848154Y-8515927D01*
X14848154Y-8515927D02*
X14829107Y-8506404D01*
X14829107Y-8506404D02*
X14819583Y-8487356D01*
X14819583Y-8487356D02*
X14819583Y-8477832D01*
X14819583Y-8477832D02*
X14829107Y-8458784D01*
X14829107Y-8458784D02*
X14848154Y-8449261D01*
X14848154Y-8449261D02*
X14876726Y-8449261D01*
X14876726Y-8449261D02*
X14895773Y-8458784D01*
X14971964Y-8658784D02*
X14981488Y-8649261D01*
X14981488Y-8649261D02*
X15000535Y-8620689D01*
X15000535Y-8620689D02*
X15010059Y-8601642D01*
X15010059Y-8601642D02*
X15019583Y-8573070D01*
X15019583Y-8573070D02*
X15029107Y-8525451D01*
X15029107Y-8525451D02*
X15029107Y-8487356D01*
X15029107Y-8487356D02*
X15019583Y-8439737D01*
X15019583Y-8439737D02*
X15010059Y-8411165D01*
X15010059Y-8411165D02*
X15000535Y-8392118D01*
X15000535Y-8392118D02*
X14981488Y-8363546D01*
X14981488Y-8363546D02*
X14971964Y-8354022D01*
D12*
X9815949Y-8755110D02*
G75*
G03*
X9815949Y-8755110I-15000J0D01*
G01*
D10*
X10114821Y-8646594D02*
X10133868Y-8646594D01*
X10133868Y-8646594D02*
X10152916Y-8656118D01*
X10152916Y-8656118D02*
X10162440Y-8665642D01*
X10162440Y-8665642D02*
X10171964Y-8684689D01*
X10171964Y-8684689D02*
X10181487Y-8722784D01*
X10181487Y-8722784D02*
X10181487Y-8770404D01*
X10181487Y-8770404D02*
X10171964Y-8808499D01*
X10171964Y-8808499D02*
X10162440Y-8827546D01*
X10162440Y-8827546D02*
X10152916Y-8837070D01*
X10152916Y-8837070D02*
X10133868Y-8846594D01*
X10133868Y-8846594D02*
X10114821Y-8846594D01*
X10114821Y-8846594D02*
X10095773Y-8837070D01*
X10095773Y-8837070D02*
X10086249Y-8827546D01*
X10086249Y-8827546D02*
X10076725Y-8808499D01*
X10076725Y-8808499D02*
X10067202Y-8770404D01*
X10067202Y-8770404D02*
X10067202Y-8722784D01*
X10067202Y-8722784D02*
X10076725Y-8684689D01*
X10076725Y-8684689D02*
X10086249Y-8665642D01*
X10086249Y-8665642D02*
X10095773Y-8656118D01*
X10095773Y-8656118D02*
X10114821Y-8646594D01*
X10267202Y-8827546D02*
X10276725Y-8837070D01*
X10276725Y-8837070D02*
X10267202Y-8846594D01*
X10267202Y-8846594D02*
X10257678Y-8837070D01*
X10257678Y-8837070D02*
X10267202Y-8827546D01*
X10267202Y-8827546D02*
X10267202Y-8846594D01*
X10343392Y-8646594D02*
X10467202Y-8646594D01*
X10467202Y-8646594D02*
X10400535Y-8722784D01*
X10400535Y-8722784D02*
X10429106Y-8722784D01*
X10429106Y-8722784D02*
X10448154Y-8732308D01*
X10448154Y-8732308D02*
X10457678Y-8741832D01*
X10457678Y-8741832D02*
X10467202Y-8760880D01*
X10467202Y-8760880D02*
X10467202Y-8808499D01*
X10467202Y-8808499D02*
X10457678Y-8827546D01*
X10457678Y-8827546D02*
X10448154Y-8837070D01*
X10448154Y-8837070D02*
X10429106Y-8846594D01*
X10429106Y-8846594D02*
X10371964Y-8846594D01*
X10371964Y-8846594D02*
X10352916Y-8837070D01*
X10352916Y-8837070D02*
X10343392Y-8827546D01*
X10591011Y-8646594D02*
X10610059Y-8646594D01*
X10610059Y-8646594D02*
X10629106Y-8656118D01*
X10629106Y-8656118D02*
X10638630Y-8665642D01*
X10638630Y-8665642D02*
X10648154Y-8684689D01*
X10648154Y-8684689D02*
X10657678Y-8722784D01*
X10657678Y-8722784D02*
X10657678Y-8770404D01*
X10657678Y-8770404D02*
X10648154Y-8808499D01*
X10648154Y-8808499D02*
X10638630Y-8827546D01*
X10638630Y-8827546D02*
X10629106Y-8837070D01*
X10629106Y-8837070D02*
X10610059Y-8846594D01*
X10610059Y-8846594D02*
X10591011Y-8846594D01*
X10591011Y-8846594D02*
X10571964Y-8837070D01*
X10571964Y-8837070D02*
X10562440Y-8827546D01*
X10562440Y-8827546D02*
X10552916Y-8808499D01*
X10552916Y-8808499D02*
X10543392Y-8770404D01*
X10543392Y-8770404D02*
X10543392Y-8722784D01*
X10543392Y-8722784D02*
X10552916Y-8684689D01*
X10552916Y-8684689D02*
X10562440Y-8665642D01*
X10562440Y-8665642D02*
X10571964Y-8656118D01*
X10571964Y-8656118D02*
X10591011Y-8646594D01*
X10781487Y-8646594D02*
X10800535Y-8646594D01*
X10800535Y-8646594D02*
X10819583Y-8656118D01*
X10819583Y-8656118D02*
X10829106Y-8665642D01*
X10829106Y-8665642D02*
X10838630Y-8684689D01*
X10838630Y-8684689D02*
X10848154Y-8722784D01*
X10848154Y-8722784D02*
X10848154Y-8770404D01*
X10848154Y-8770404D02*
X10838630Y-8808499D01*
X10838630Y-8808499D02*
X10829106Y-8827546D01*
X10829106Y-8827546D02*
X10819583Y-8837070D01*
X10819583Y-8837070D02*
X10800535Y-8846594D01*
X10800535Y-8846594D02*
X10781487Y-8846594D01*
X10781487Y-8846594D02*
X10762440Y-8837070D01*
X10762440Y-8837070D02*
X10752916Y-8827546D01*
X10752916Y-8827546D02*
X10743392Y-8808499D01*
X10743392Y-8808499D02*
X10733868Y-8770404D01*
X10733868Y-8770404D02*
X10733868Y-8722784D01*
X10733868Y-8722784D02*
X10743392Y-8684689D01*
X10743392Y-8684689D02*
X10752916Y-8665642D01*
X10752916Y-8665642D02*
X10762440Y-8656118D01*
X10762440Y-8656118D02*
X10781487Y-8646594D01*
X10933868Y-8846594D02*
X10933868Y-8713261D01*
X10933868Y-8732308D02*
X10943392Y-8722784D01*
X10943392Y-8722784D02*
X10962440Y-8713261D01*
X10962440Y-8713261D02*
X10991011Y-8713261D01*
X10991011Y-8713261D02*
X11010059Y-8722784D01*
X11010059Y-8722784D02*
X11019583Y-8741832D01*
X11019583Y-8741832D02*
X11019583Y-8846594D01*
X11019583Y-8741832D02*
X11029106Y-8722784D01*
X11029106Y-8722784D02*
X11048154Y-8713261D01*
X11048154Y-8713261D02*
X11076725Y-8713261D01*
X11076725Y-8713261D02*
X11095773Y-8722784D01*
X11095773Y-8722784D02*
X11105297Y-8741832D01*
X11105297Y-8741832D02*
X11105297Y-8846594D01*
X11200535Y-8846594D02*
X11200535Y-8713261D01*
X11200535Y-8732308D02*
X11210059Y-8722784D01*
X11210059Y-8722784D02*
X11229106Y-8713261D01*
X11229106Y-8713261D02*
X11257678Y-8713261D01*
X11257678Y-8713261D02*
X11276725Y-8722784D01*
X11276725Y-8722784D02*
X11286249Y-8741832D01*
X11286249Y-8741832D02*
X11286249Y-8846594D01*
X11286249Y-8741832D02*
X11295773Y-8722784D01*
X11295773Y-8722784D02*
X11314821Y-8713261D01*
X11314821Y-8713261D02*
X11343392Y-8713261D01*
X11343392Y-8713261D02*
X11362440Y-8722784D01*
X11362440Y-8722784D02*
X11371964Y-8741832D01*
X11371964Y-8741832D02*
X11371964Y-8846594D01*
X11762440Y-8637070D02*
X11591011Y-8894213D01*
X12019583Y-8646594D02*
X12038630Y-8646594D01*
X12038630Y-8646594D02*
X12057678Y-8656118D01*
X12057678Y-8656118D02*
X12067202Y-8665642D01*
X12067202Y-8665642D02*
X12076726Y-8684689D01*
X12076726Y-8684689D02*
X12086249Y-8722784D01*
X12086249Y-8722784D02*
X12086249Y-8770404D01*
X12086249Y-8770404D02*
X12076726Y-8808499D01*
X12076726Y-8808499D02*
X12067202Y-8827546D01*
X12067202Y-8827546D02*
X12057678Y-8837070D01*
X12057678Y-8837070D02*
X12038630Y-8846594D01*
X12038630Y-8846594D02*
X12019583Y-8846594D01*
X12019583Y-8846594D02*
X12000535Y-8837070D01*
X12000535Y-8837070D02*
X11991011Y-8827546D01*
X11991011Y-8827546D02*
X11981487Y-8808499D01*
X11981487Y-8808499D02*
X11971964Y-8770404D01*
X11971964Y-8770404D02*
X11971964Y-8722784D01*
X11971964Y-8722784D02*
X11981487Y-8684689D01*
X11981487Y-8684689D02*
X11991011Y-8665642D01*
X11991011Y-8665642D02*
X12000535Y-8656118D01*
X12000535Y-8656118D02*
X12019583Y-8646594D01*
X12171964Y-8827546D02*
X12181487Y-8837070D01*
X12181487Y-8837070D02*
X12171964Y-8846594D01*
X12171964Y-8846594D02*
X12162440Y-8837070D01*
X12162440Y-8837070D02*
X12171964Y-8827546D01*
X12171964Y-8827546D02*
X12171964Y-8846594D01*
X12305297Y-8646594D02*
X12324345Y-8646594D01*
X12324345Y-8646594D02*
X12343392Y-8656118D01*
X12343392Y-8656118D02*
X12352916Y-8665642D01*
X12352916Y-8665642D02*
X12362440Y-8684689D01*
X12362440Y-8684689D02*
X12371964Y-8722784D01*
X12371964Y-8722784D02*
X12371964Y-8770404D01*
X12371964Y-8770404D02*
X12362440Y-8808499D01*
X12362440Y-8808499D02*
X12352916Y-8827546D01*
X12352916Y-8827546D02*
X12343392Y-8837070D01*
X12343392Y-8837070D02*
X12324345Y-8846594D01*
X12324345Y-8846594D02*
X12305297Y-8846594D01*
X12305297Y-8846594D02*
X12286249Y-8837070D01*
X12286249Y-8837070D02*
X12276726Y-8827546D01*
X12276726Y-8827546D02*
X12267202Y-8808499D01*
X12267202Y-8808499D02*
X12257678Y-8770404D01*
X12257678Y-8770404D02*
X12257678Y-8722784D01*
X12257678Y-8722784D02*
X12267202Y-8684689D01*
X12267202Y-8684689D02*
X12276726Y-8665642D01*
X12276726Y-8665642D02*
X12286249Y-8656118D01*
X12286249Y-8656118D02*
X12305297Y-8646594D01*
X12562440Y-8846594D02*
X12448154Y-8846594D01*
X12505297Y-8846594D02*
X12505297Y-8646594D01*
X12505297Y-8646594D02*
X12486249Y-8675165D01*
X12486249Y-8675165D02*
X12467202Y-8694213D01*
X12467202Y-8694213D02*
X12448154Y-8703737D01*
X12752916Y-8846594D02*
X12638630Y-8846594D01*
X12695773Y-8846594D02*
X12695773Y-8646594D01*
X12695773Y-8646594D02*
X12676726Y-8675165D01*
X12676726Y-8675165D02*
X12657678Y-8694213D01*
X12657678Y-8694213D02*
X12638630Y-8703737D01*
X12867202Y-8732308D02*
X12848154Y-8722784D01*
X12848154Y-8722784D02*
X12838630Y-8713261D01*
X12838630Y-8713261D02*
X12829107Y-8694213D01*
X12829107Y-8694213D02*
X12829107Y-8684689D01*
X12829107Y-8684689D02*
X12838630Y-8665642D01*
X12838630Y-8665642D02*
X12848154Y-8656118D01*
X12848154Y-8656118D02*
X12867202Y-8646594D01*
X12867202Y-8646594D02*
X12905297Y-8646594D01*
X12905297Y-8646594D02*
X12924345Y-8656118D01*
X12924345Y-8656118D02*
X12933868Y-8665642D01*
X12933868Y-8665642D02*
X12943392Y-8684689D01*
X12943392Y-8684689D02*
X12943392Y-8694213D01*
X12943392Y-8694213D02*
X12933868Y-8713261D01*
X12933868Y-8713261D02*
X12924345Y-8722784D01*
X12924345Y-8722784D02*
X12905297Y-8732308D01*
X12905297Y-8732308D02*
X12867202Y-8732308D01*
X12867202Y-8732308D02*
X12848154Y-8741832D01*
X12848154Y-8741832D02*
X12838630Y-8751356D01*
X12838630Y-8751356D02*
X12829107Y-8770404D01*
X12829107Y-8770404D02*
X12829107Y-8808499D01*
X12829107Y-8808499D02*
X12838630Y-8827546D01*
X12838630Y-8827546D02*
X12848154Y-8837070D01*
X12848154Y-8837070D02*
X12867202Y-8846594D01*
X12867202Y-8846594D02*
X12905297Y-8846594D01*
X12905297Y-8846594D02*
X12924345Y-8837070D01*
X12924345Y-8837070D02*
X12933868Y-8827546D01*
X12933868Y-8827546D02*
X12943392Y-8808499D01*
X12943392Y-8808499D02*
X12943392Y-8770404D01*
X12943392Y-8770404D02*
X12933868Y-8751356D01*
X12933868Y-8751356D02*
X12924345Y-8741832D01*
X12924345Y-8741832D02*
X12905297Y-8732308D01*
X13019583Y-8646594D02*
X13019583Y-8684689D01*
X13095773Y-8646594D02*
X13095773Y-8684689D01*
X13391011Y-8922784D02*
X13381488Y-8913261D01*
X13381488Y-8913261D02*
X13362440Y-8884689D01*
X13362440Y-8884689D02*
X13352916Y-8865642D01*
X13352916Y-8865642D02*
X13343392Y-8837070D01*
X13343392Y-8837070D02*
X13333869Y-8789451D01*
X13333869Y-8789451D02*
X13333869Y-8751356D01*
X13333869Y-8751356D02*
X13343392Y-8703737D01*
X13343392Y-8703737D02*
X13352916Y-8675165D01*
X13352916Y-8675165D02*
X13362440Y-8656118D01*
X13362440Y-8656118D02*
X13381488Y-8627546D01*
X13381488Y-8627546D02*
X13391011Y-8618023D01*
X13552916Y-8713261D02*
X13552916Y-8846594D01*
X13505297Y-8637070D02*
X13457678Y-8779927D01*
X13457678Y-8779927D02*
X13581488Y-8779927D01*
X13810059Y-8846594D02*
X13810059Y-8646594D01*
X13895773Y-8846594D02*
X13895773Y-8741832D01*
X13895773Y-8741832D02*
X13886250Y-8722784D01*
X13886250Y-8722784D02*
X13867202Y-8713261D01*
X13867202Y-8713261D02*
X13838630Y-8713261D01*
X13838630Y-8713261D02*
X13819583Y-8722784D01*
X13819583Y-8722784D02*
X13810059Y-8732308D01*
X14019583Y-8846594D02*
X14000535Y-8837070D01*
X14000535Y-8837070D02*
X13991011Y-8827546D01*
X13991011Y-8827546D02*
X13981488Y-8808499D01*
X13981488Y-8808499D02*
X13981488Y-8751356D01*
X13981488Y-8751356D02*
X13991011Y-8732308D01*
X13991011Y-8732308D02*
X14000535Y-8722784D01*
X14000535Y-8722784D02*
X14019583Y-8713261D01*
X14019583Y-8713261D02*
X14048154Y-8713261D01*
X14048154Y-8713261D02*
X14067202Y-8722784D01*
X14067202Y-8722784D02*
X14076726Y-8732308D01*
X14076726Y-8732308D02*
X14086250Y-8751356D01*
X14086250Y-8751356D02*
X14086250Y-8808499D01*
X14086250Y-8808499D02*
X14076726Y-8827546D01*
X14076726Y-8827546D02*
X14067202Y-8837070D01*
X14067202Y-8837070D02*
X14048154Y-8846594D01*
X14048154Y-8846594D02*
X14019583Y-8846594D01*
X14200535Y-8846594D02*
X14181488Y-8837070D01*
X14181488Y-8837070D02*
X14171964Y-8818023D01*
X14171964Y-8818023D02*
X14171964Y-8646594D01*
X14352916Y-8837070D02*
X14333869Y-8846594D01*
X14333869Y-8846594D02*
X14295773Y-8846594D01*
X14295773Y-8846594D02*
X14276726Y-8837070D01*
X14276726Y-8837070D02*
X14267202Y-8818023D01*
X14267202Y-8818023D02*
X14267202Y-8741832D01*
X14267202Y-8741832D02*
X14276726Y-8722784D01*
X14276726Y-8722784D02*
X14295773Y-8713261D01*
X14295773Y-8713261D02*
X14333869Y-8713261D01*
X14333869Y-8713261D02*
X14352916Y-8722784D01*
X14352916Y-8722784D02*
X14362440Y-8741832D01*
X14362440Y-8741832D02*
X14362440Y-8760880D01*
X14362440Y-8760880D02*
X14267202Y-8779927D01*
X14438631Y-8837070D02*
X14457678Y-8846594D01*
X14457678Y-8846594D02*
X14495773Y-8846594D01*
X14495773Y-8846594D02*
X14514821Y-8837070D01*
X14514821Y-8837070D02*
X14524345Y-8818023D01*
X14524345Y-8818023D02*
X14524345Y-8808499D01*
X14524345Y-8808499D02*
X14514821Y-8789451D01*
X14514821Y-8789451D02*
X14495773Y-8779927D01*
X14495773Y-8779927D02*
X14467202Y-8779927D01*
X14467202Y-8779927D02*
X14448154Y-8770404D01*
X14448154Y-8770404D02*
X14438631Y-8751356D01*
X14438631Y-8751356D02*
X14438631Y-8741832D01*
X14438631Y-8741832D02*
X14448154Y-8722784D01*
X14448154Y-8722784D02*
X14467202Y-8713261D01*
X14467202Y-8713261D02*
X14495773Y-8713261D01*
X14495773Y-8713261D02*
X14514821Y-8722784D01*
X14591012Y-8922784D02*
X14600535Y-8913261D01*
X14600535Y-8913261D02*
X14619583Y-8884689D01*
X14619583Y-8884689D02*
X14629107Y-8865642D01*
X14629107Y-8865642D02*
X14638631Y-8837070D01*
X14638631Y-8837070D02*
X14648154Y-8789451D01*
X14648154Y-8789451D02*
X14648154Y-8751356D01*
X14648154Y-8751356D02*
X14638631Y-8703737D01*
X14638631Y-8703737D02*
X14629107Y-8675165D01*
X14629107Y-8675165D02*
X14619583Y-8656118D01*
X14619583Y-8656118D02*
X14600535Y-8627546D01*
X14600535Y-8627546D02*
X14591012Y-8618023D01*
D13*
X9795949Y-8999110D02*
X9795949Y-9039110D01*
X9775949Y-9019110D02*
X9815949Y-9019110D01*
D10*
X10114821Y-8910594D02*
X10133868Y-8910594D01*
X10133868Y-8910594D02*
X10152916Y-8920118D01*
X10152916Y-8920118D02*
X10162440Y-8929642D01*
X10162440Y-8929642D02*
X10171964Y-8948689D01*
X10171964Y-8948689D02*
X10181487Y-8986784D01*
X10181487Y-8986784D02*
X10181487Y-9034404D01*
X10181487Y-9034404D02*
X10171964Y-9072499D01*
X10171964Y-9072499D02*
X10162440Y-9091546D01*
X10162440Y-9091546D02*
X10152916Y-9101070D01*
X10152916Y-9101070D02*
X10133868Y-9110594D01*
X10133868Y-9110594D02*
X10114821Y-9110594D01*
X10114821Y-9110594D02*
X10095773Y-9101070D01*
X10095773Y-9101070D02*
X10086249Y-9091546D01*
X10086249Y-9091546D02*
X10076725Y-9072499D01*
X10076725Y-9072499D02*
X10067202Y-9034404D01*
X10067202Y-9034404D02*
X10067202Y-8986784D01*
X10067202Y-8986784D02*
X10076725Y-8948689D01*
X10076725Y-8948689D02*
X10086249Y-8929642D01*
X10086249Y-8929642D02*
X10095773Y-8920118D01*
X10095773Y-8920118D02*
X10114821Y-8910594D01*
X10267202Y-9091546D02*
X10276725Y-9101070D01*
X10276725Y-9101070D02*
X10267202Y-9110594D01*
X10267202Y-9110594D02*
X10257678Y-9101070D01*
X10257678Y-9101070D02*
X10267202Y-9091546D01*
X10267202Y-9091546D02*
X10267202Y-9110594D01*
X10448154Y-8977261D02*
X10448154Y-9110594D01*
X10400535Y-8901070D02*
X10352916Y-9043927D01*
X10352916Y-9043927D02*
X10476725Y-9043927D01*
X10591011Y-8910594D02*
X10610059Y-8910594D01*
X10610059Y-8910594D02*
X10629106Y-8920118D01*
X10629106Y-8920118D02*
X10638630Y-8929642D01*
X10638630Y-8929642D02*
X10648154Y-8948689D01*
X10648154Y-8948689D02*
X10657678Y-8986784D01*
X10657678Y-8986784D02*
X10657678Y-9034404D01*
X10657678Y-9034404D02*
X10648154Y-9072499D01*
X10648154Y-9072499D02*
X10638630Y-9091546D01*
X10638630Y-9091546D02*
X10629106Y-9101070D01*
X10629106Y-9101070D02*
X10610059Y-9110594D01*
X10610059Y-9110594D02*
X10591011Y-9110594D01*
X10591011Y-9110594D02*
X10571964Y-9101070D01*
X10571964Y-9101070D02*
X10562440Y-9091546D01*
X10562440Y-9091546D02*
X10552916Y-9072499D01*
X10552916Y-9072499D02*
X10543392Y-9034404D01*
X10543392Y-9034404D02*
X10543392Y-8986784D01*
X10543392Y-8986784D02*
X10552916Y-8948689D01*
X10552916Y-8948689D02*
X10562440Y-8929642D01*
X10562440Y-8929642D02*
X10571964Y-8920118D01*
X10571964Y-8920118D02*
X10591011Y-8910594D01*
X10781487Y-8910594D02*
X10800535Y-8910594D01*
X10800535Y-8910594D02*
X10819583Y-8920118D01*
X10819583Y-8920118D02*
X10829106Y-8929642D01*
X10829106Y-8929642D02*
X10838630Y-8948689D01*
X10838630Y-8948689D02*
X10848154Y-8986784D01*
X10848154Y-8986784D02*
X10848154Y-9034404D01*
X10848154Y-9034404D02*
X10838630Y-9072499D01*
X10838630Y-9072499D02*
X10829106Y-9091546D01*
X10829106Y-9091546D02*
X10819583Y-9101070D01*
X10819583Y-9101070D02*
X10800535Y-9110594D01*
X10800535Y-9110594D02*
X10781487Y-9110594D01*
X10781487Y-9110594D02*
X10762440Y-9101070D01*
X10762440Y-9101070D02*
X10752916Y-9091546D01*
X10752916Y-9091546D02*
X10743392Y-9072499D01*
X10743392Y-9072499D02*
X10733868Y-9034404D01*
X10733868Y-9034404D02*
X10733868Y-8986784D01*
X10733868Y-8986784D02*
X10743392Y-8948689D01*
X10743392Y-8948689D02*
X10752916Y-8929642D01*
X10752916Y-8929642D02*
X10762440Y-8920118D01*
X10762440Y-8920118D02*
X10781487Y-8910594D01*
X10933868Y-9110594D02*
X10933868Y-8977261D01*
X10933868Y-8996308D02*
X10943392Y-8986784D01*
X10943392Y-8986784D02*
X10962440Y-8977261D01*
X10962440Y-8977261D02*
X10991011Y-8977261D01*
X10991011Y-8977261D02*
X11010059Y-8986784D01*
X11010059Y-8986784D02*
X11019583Y-9005832D01*
X11019583Y-9005832D02*
X11019583Y-9110594D01*
X11019583Y-9005832D02*
X11029106Y-8986784D01*
X11029106Y-8986784D02*
X11048154Y-8977261D01*
X11048154Y-8977261D02*
X11076725Y-8977261D01*
X11076725Y-8977261D02*
X11095773Y-8986784D01*
X11095773Y-8986784D02*
X11105297Y-9005832D01*
X11105297Y-9005832D02*
X11105297Y-9110594D01*
X11200535Y-9110594D02*
X11200535Y-8977261D01*
X11200535Y-8996308D02*
X11210059Y-8986784D01*
X11210059Y-8986784D02*
X11229106Y-8977261D01*
X11229106Y-8977261D02*
X11257678Y-8977261D01*
X11257678Y-8977261D02*
X11276725Y-8986784D01*
X11276725Y-8986784D02*
X11286249Y-9005832D01*
X11286249Y-9005832D02*
X11286249Y-9110594D01*
X11286249Y-9005832D02*
X11295773Y-8986784D01*
X11295773Y-8986784D02*
X11314821Y-8977261D01*
X11314821Y-8977261D02*
X11343392Y-8977261D01*
X11343392Y-8977261D02*
X11362440Y-8986784D01*
X11362440Y-8986784D02*
X11371964Y-9005832D01*
X11371964Y-9005832D02*
X11371964Y-9110594D01*
X11762440Y-8901070D02*
X11591011Y-9158213D01*
X12019583Y-8910594D02*
X12038630Y-8910594D01*
X12038630Y-8910594D02*
X12057678Y-8920118D01*
X12057678Y-8920118D02*
X12067202Y-8929642D01*
X12067202Y-8929642D02*
X12076726Y-8948689D01*
X12076726Y-8948689D02*
X12086249Y-8986784D01*
X12086249Y-8986784D02*
X12086249Y-9034404D01*
X12086249Y-9034404D02*
X12076726Y-9072499D01*
X12076726Y-9072499D02*
X12067202Y-9091546D01*
X12067202Y-9091546D02*
X12057678Y-9101070D01*
X12057678Y-9101070D02*
X12038630Y-9110594D01*
X12038630Y-9110594D02*
X12019583Y-9110594D01*
X12019583Y-9110594D02*
X12000535Y-9101070D01*
X12000535Y-9101070D02*
X11991011Y-9091546D01*
X11991011Y-9091546D02*
X11981487Y-9072499D01*
X11981487Y-9072499D02*
X11971964Y-9034404D01*
X11971964Y-9034404D02*
X11971964Y-8986784D01*
X11971964Y-8986784D02*
X11981487Y-8948689D01*
X11981487Y-8948689D02*
X11991011Y-8929642D01*
X11991011Y-8929642D02*
X12000535Y-8920118D01*
X12000535Y-8920118D02*
X12019583Y-8910594D01*
X12171964Y-9091546D02*
X12181487Y-9101070D01*
X12181487Y-9101070D02*
X12171964Y-9110594D01*
X12171964Y-9110594D02*
X12162440Y-9101070D01*
X12162440Y-9101070D02*
X12171964Y-9091546D01*
X12171964Y-9091546D02*
X12171964Y-9110594D01*
X12305297Y-8910594D02*
X12324345Y-8910594D01*
X12324345Y-8910594D02*
X12343392Y-8920118D01*
X12343392Y-8920118D02*
X12352916Y-8929642D01*
X12352916Y-8929642D02*
X12362440Y-8948689D01*
X12362440Y-8948689D02*
X12371964Y-8986784D01*
X12371964Y-8986784D02*
X12371964Y-9034404D01*
X12371964Y-9034404D02*
X12362440Y-9072499D01*
X12362440Y-9072499D02*
X12352916Y-9091546D01*
X12352916Y-9091546D02*
X12343392Y-9101070D01*
X12343392Y-9101070D02*
X12324345Y-9110594D01*
X12324345Y-9110594D02*
X12305297Y-9110594D01*
X12305297Y-9110594D02*
X12286249Y-9101070D01*
X12286249Y-9101070D02*
X12276726Y-9091546D01*
X12276726Y-9091546D02*
X12267202Y-9072499D01*
X12267202Y-9072499D02*
X12257678Y-9034404D01*
X12257678Y-9034404D02*
X12257678Y-8986784D01*
X12257678Y-8986784D02*
X12267202Y-8948689D01*
X12267202Y-8948689D02*
X12276726Y-8929642D01*
X12276726Y-8929642D02*
X12286249Y-8920118D01*
X12286249Y-8920118D02*
X12305297Y-8910594D01*
X12562440Y-9110594D02*
X12448154Y-9110594D01*
X12505297Y-9110594D02*
X12505297Y-8910594D01*
X12505297Y-8910594D02*
X12486249Y-8939165D01*
X12486249Y-8939165D02*
X12467202Y-8958213D01*
X12467202Y-8958213D02*
X12448154Y-8967737D01*
X12743392Y-8910594D02*
X12648154Y-8910594D01*
X12648154Y-8910594D02*
X12638630Y-9005832D01*
X12638630Y-9005832D02*
X12648154Y-8996308D01*
X12648154Y-8996308D02*
X12667202Y-8986784D01*
X12667202Y-8986784D02*
X12714821Y-8986784D01*
X12714821Y-8986784D02*
X12733868Y-8996308D01*
X12733868Y-8996308D02*
X12743392Y-9005832D01*
X12743392Y-9005832D02*
X12752916Y-9024880D01*
X12752916Y-9024880D02*
X12752916Y-9072499D01*
X12752916Y-9072499D02*
X12743392Y-9091546D01*
X12743392Y-9091546D02*
X12733868Y-9101070D01*
X12733868Y-9101070D02*
X12714821Y-9110594D01*
X12714821Y-9110594D02*
X12667202Y-9110594D01*
X12667202Y-9110594D02*
X12648154Y-9101070D01*
X12648154Y-9101070D02*
X12638630Y-9091546D01*
X12819583Y-8910594D02*
X12952916Y-8910594D01*
X12952916Y-8910594D02*
X12867202Y-9110594D01*
X13019583Y-8910594D02*
X13019583Y-8948689D01*
X13095773Y-8910594D02*
X13095773Y-8948689D01*
X13391011Y-9186784D02*
X13381488Y-9177261D01*
X13381488Y-9177261D02*
X13362440Y-9148689D01*
X13362440Y-9148689D02*
X13352916Y-9129642D01*
X13352916Y-9129642D02*
X13343392Y-9101070D01*
X13343392Y-9101070D02*
X13333869Y-9053451D01*
X13333869Y-9053451D02*
X13333869Y-9015356D01*
X13333869Y-9015356D02*
X13343392Y-8967737D01*
X13343392Y-8967737D02*
X13352916Y-8939165D01*
X13352916Y-8939165D02*
X13362440Y-8920118D01*
X13362440Y-8920118D02*
X13381488Y-8891546D01*
X13381488Y-8891546D02*
X13391011Y-8882023D01*
X13571964Y-9110594D02*
X13457678Y-9110594D01*
X13514821Y-9110594D02*
X13514821Y-8910594D01*
X13514821Y-8910594D02*
X13495773Y-8939165D01*
X13495773Y-8939165D02*
X13476726Y-8958213D01*
X13476726Y-8958213D02*
X13457678Y-8967737D01*
X13743392Y-8910594D02*
X13705297Y-8910594D01*
X13705297Y-8910594D02*
X13686249Y-8920118D01*
X13686249Y-8920118D02*
X13676726Y-8929642D01*
X13676726Y-8929642D02*
X13657678Y-8958213D01*
X13657678Y-8958213D02*
X13648154Y-8996308D01*
X13648154Y-8996308D02*
X13648154Y-9072499D01*
X13648154Y-9072499D02*
X13657678Y-9091546D01*
X13657678Y-9091546D02*
X13667202Y-9101070D01*
X13667202Y-9101070D02*
X13686249Y-9110594D01*
X13686249Y-9110594D02*
X13724345Y-9110594D01*
X13724345Y-9110594D02*
X13743392Y-9101070D01*
X13743392Y-9101070D02*
X13752916Y-9091546D01*
X13752916Y-9091546D02*
X13762440Y-9072499D01*
X13762440Y-9072499D02*
X13762440Y-9024880D01*
X13762440Y-9024880D02*
X13752916Y-9005832D01*
X13752916Y-9005832D02*
X13743392Y-8996308D01*
X13743392Y-8996308D02*
X13724345Y-8986784D01*
X13724345Y-8986784D02*
X13686249Y-8986784D01*
X13686249Y-8986784D02*
X13667202Y-8996308D01*
X13667202Y-8996308D02*
X13657678Y-9005832D01*
X13657678Y-9005832D02*
X13648154Y-9024880D01*
X13857678Y-9110594D02*
X13895773Y-9110594D01*
X13895773Y-9110594D02*
X13914821Y-9101070D01*
X13914821Y-9101070D02*
X13924345Y-9091546D01*
X13924345Y-9091546D02*
X13943392Y-9062975D01*
X13943392Y-9062975D02*
X13952916Y-9024880D01*
X13952916Y-9024880D02*
X13952916Y-8948689D01*
X13952916Y-8948689D02*
X13943392Y-8929642D01*
X13943392Y-8929642D02*
X13933869Y-8920118D01*
X13933869Y-8920118D02*
X13914821Y-8910594D01*
X13914821Y-8910594D02*
X13876726Y-8910594D01*
X13876726Y-8910594D02*
X13857678Y-8920118D01*
X13857678Y-8920118D02*
X13848154Y-8929642D01*
X13848154Y-8929642D02*
X13838630Y-8948689D01*
X13838630Y-8948689D02*
X13838630Y-8996308D01*
X13838630Y-8996308D02*
X13848154Y-9015356D01*
X13848154Y-9015356D02*
X13857678Y-9024880D01*
X13857678Y-9024880D02*
X13876726Y-9034404D01*
X13876726Y-9034404D02*
X13914821Y-9034404D01*
X13914821Y-9034404D02*
X13933869Y-9024880D01*
X13933869Y-9024880D02*
X13943392Y-9015356D01*
X13943392Y-9015356D02*
X13952916Y-8996308D01*
X14191011Y-9110594D02*
X14191011Y-8910594D01*
X14276726Y-9110594D02*
X14276726Y-9005832D01*
X14276726Y-9005832D02*
X14267202Y-8986784D01*
X14267202Y-8986784D02*
X14248154Y-8977261D01*
X14248154Y-8977261D02*
X14219583Y-8977261D01*
X14219583Y-8977261D02*
X14200535Y-8986784D01*
X14200535Y-8986784D02*
X14191011Y-8996308D01*
X14400535Y-9110594D02*
X14381488Y-9101070D01*
X14381488Y-9101070D02*
X14371964Y-9091546D01*
X14371964Y-9091546D02*
X14362440Y-9072499D01*
X14362440Y-9072499D02*
X14362440Y-9015356D01*
X14362440Y-9015356D02*
X14371964Y-8996308D01*
X14371964Y-8996308D02*
X14381488Y-8986784D01*
X14381488Y-8986784D02*
X14400535Y-8977261D01*
X14400535Y-8977261D02*
X14429107Y-8977261D01*
X14429107Y-8977261D02*
X14448154Y-8986784D01*
X14448154Y-8986784D02*
X14457678Y-8996308D01*
X14457678Y-8996308D02*
X14467202Y-9015356D01*
X14467202Y-9015356D02*
X14467202Y-9072499D01*
X14467202Y-9072499D02*
X14457678Y-9091546D01*
X14457678Y-9091546D02*
X14448154Y-9101070D01*
X14448154Y-9101070D02*
X14429107Y-9110594D01*
X14429107Y-9110594D02*
X14400535Y-9110594D01*
X14581488Y-9110594D02*
X14562440Y-9101070D01*
X14562440Y-9101070D02*
X14552916Y-9082023D01*
X14552916Y-9082023D02*
X14552916Y-8910594D01*
X14733869Y-9101070D02*
X14714821Y-9110594D01*
X14714821Y-9110594D02*
X14676726Y-9110594D01*
X14676726Y-9110594D02*
X14657678Y-9101070D01*
X14657678Y-9101070D02*
X14648154Y-9082023D01*
X14648154Y-9082023D02*
X14648154Y-9005832D01*
X14648154Y-9005832D02*
X14657678Y-8986784D01*
X14657678Y-8986784D02*
X14676726Y-8977261D01*
X14676726Y-8977261D02*
X14714821Y-8977261D01*
X14714821Y-8977261D02*
X14733869Y-8986784D01*
X14733869Y-8986784D02*
X14743392Y-9005832D01*
X14743392Y-9005832D02*
X14743392Y-9024880D01*
X14743392Y-9024880D02*
X14648154Y-9043927D01*
X14819583Y-9101070D02*
X14838631Y-9110594D01*
X14838631Y-9110594D02*
X14876726Y-9110594D01*
X14876726Y-9110594D02*
X14895773Y-9101070D01*
X14895773Y-9101070D02*
X14905297Y-9082023D01*
X14905297Y-9082023D02*
X14905297Y-9072499D01*
X14905297Y-9072499D02*
X14895773Y-9053451D01*
X14895773Y-9053451D02*
X14876726Y-9043927D01*
X14876726Y-9043927D02*
X14848154Y-9043927D01*
X14848154Y-9043927D02*
X14829107Y-9034404D01*
X14829107Y-9034404D02*
X14819583Y-9015356D01*
X14819583Y-9015356D02*
X14819583Y-9005832D01*
X14819583Y-9005832D02*
X14829107Y-8986784D01*
X14829107Y-8986784D02*
X14848154Y-8977261D01*
X14848154Y-8977261D02*
X14876726Y-8977261D01*
X14876726Y-8977261D02*
X14895773Y-8986784D01*
X14971964Y-9186784D02*
X14981488Y-9177261D01*
X14981488Y-9177261D02*
X15000535Y-9148689D01*
X15000535Y-9148689D02*
X15010059Y-9129642D01*
X15010059Y-9129642D02*
X15019583Y-9101070D01*
X15019583Y-9101070D02*
X15029107Y-9053451D01*
X15029107Y-9053451D02*
X15029107Y-9015356D01*
X15029107Y-9015356D02*
X15019583Y-8967737D01*
X15019583Y-8967737D02*
X15010059Y-8939165D01*
X15010059Y-8939165D02*
X15000535Y-8920118D01*
X15000535Y-8920118D02*
X14981488Y-8891546D01*
X14981488Y-8891546D02*
X14971964Y-8882023D01*
D14*
X9807162Y-9304324D02*
X9807162Y-9261897D01*
X9764735Y-9261897D01*
X9764735Y-9304324D01*
X9807162Y-9304324D01*
D10*
X10114821Y-9174594D02*
X10133868Y-9174594D01*
X10133868Y-9174594D02*
X10152916Y-9184118D01*
X10152916Y-9184118D02*
X10162440Y-9193642D01*
X10162440Y-9193642D02*
X10171964Y-9212689D01*
X10171964Y-9212689D02*
X10181487Y-9250784D01*
X10181487Y-9250784D02*
X10181487Y-9298404D01*
X10181487Y-9298404D02*
X10171964Y-9336499D01*
X10171964Y-9336499D02*
X10162440Y-9355546D01*
X10162440Y-9355546D02*
X10152916Y-9365070D01*
X10152916Y-9365070D02*
X10133868Y-9374594D01*
X10133868Y-9374594D02*
X10114821Y-9374594D01*
X10114821Y-9374594D02*
X10095773Y-9365070D01*
X10095773Y-9365070D02*
X10086249Y-9355546D01*
X10086249Y-9355546D02*
X10076725Y-9336499D01*
X10076725Y-9336499D02*
X10067202Y-9298404D01*
X10067202Y-9298404D02*
X10067202Y-9250784D01*
X10067202Y-9250784D02*
X10076725Y-9212689D01*
X10076725Y-9212689D02*
X10086249Y-9193642D01*
X10086249Y-9193642D02*
X10095773Y-9184118D01*
X10095773Y-9184118D02*
X10114821Y-9174594D01*
X10267202Y-9355546D02*
X10276725Y-9365070D01*
X10276725Y-9365070D02*
X10267202Y-9374594D01*
X10267202Y-9374594D02*
X10257678Y-9365070D01*
X10257678Y-9365070D02*
X10267202Y-9355546D01*
X10267202Y-9355546D02*
X10267202Y-9374594D01*
X10448154Y-9174594D02*
X10410059Y-9174594D01*
X10410059Y-9174594D02*
X10391011Y-9184118D01*
X10391011Y-9184118D02*
X10381487Y-9193642D01*
X10381487Y-9193642D02*
X10362440Y-9222213D01*
X10362440Y-9222213D02*
X10352916Y-9260308D01*
X10352916Y-9260308D02*
X10352916Y-9336499D01*
X10352916Y-9336499D02*
X10362440Y-9355546D01*
X10362440Y-9355546D02*
X10371964Y-9365070D01*
X10371964Y-9365070D02*
X10391011Y-9374594D01*
X10391011Y-9374594D02*
X10429106Y-9374594D01*
X10429106Y-9374594D02*
X10448154Y-9365070D01*
X10448154Y-9365070D02*
X10457678Y-9355546D01*
X10457678Y-9355546D02*
X10467202Y-9336499D01*
X10467202Y-9336499D02*
X10467202Y-9288880D01*
X10467202Y-9288880D02*
X10457678Y-9269832D01*
X10457678Y-9269832D02*
X10448154Y-9260308D01*
X10448154Y-9260308D02*
X10429106Y-9250784D01*
X10429106Y-9250784D02*
X10391011Y-9250784D01*
X10391011Y-9250784D02*
X10371964Y-9260308D01*
X10371964Y-9260308D02*
X10362440Y-9269832D01*
X10362440Y-9269832D02*
X10352916Y-9288880D01*
X10591011Y-9174594D02*
X10610059Y-9174594D01*
X10610059Y-9174594D02*
X10629106Y-9184118D01*
X10629106Y-9184118D02*
X10638630Y-9193642D01*
X10638630Y-9193642D02*
X10648154Y-9212689D01*
X10648154Y-9212689D02*
X10657678Y-9250784D01*
X10657678Y-9250784D02*
X10657678Y-9298404D01*
X10657678Y-9298404D02*
X10648154Y-9336499D01*
X10648154Y-9336499D02*
X10638630Y-9355546D01*
X10638630Y-9355546D02*
X10629106Y-9365070D01*
X10629106Y-9365070D02*
X10610059Y-9374594D01*
X10610059Y-9374594D02*
X10591011Y-9374594D01*
X10591011Y-9374594D02*
X10571964Y-9365070D01*
X10571964Y-9365070D02*
X10562440Y-9355546D01*
X10562440Y-9355546D02*
X10552916Y-9336499D01*
X10552916Y-9336499D02*
X10543392Y-9298404D01*
X10543392Y-9298404D02*
X10543392Y-9250784D01*
X10543392Y-9250784D02*
X10552916Y-9212689D01*
X10552916Y-9212689D02*
X10562440Y-9193642D01*
X10562440Y-9193642D02*
X10571964Y-9184118D01*
X10571964Y-9184118D02*
X10591011Y-9174594D01*
X10781487Y-9174594D02*
X10800535Y-9174594D01*
X10800535Y-9174594D02*
X10819583Y-9184118D01*
X10819583Y-9184118D02*
X10829106Y-9193642D01*
X10829106Y-9193642D02*
X10838630Y-9212689D01*
X10838630Y-9212689D02*
X10848154Y-9250784D01*
X10848154Y-9250784D02*
X10848154Y-9298404D01*
X10848154Y-9298404D02*
X10838630Y-9336499D01*
X10838630Y-9336499D02*
X10829106Y-9355546D01*
X10829106Y-9355546D02*
X10819583Y-9365070D01*
X10819583Y-9365070D02*
X10800535Y-9374594D01*
X10800535Y-9374594D02*
X10781487Y-9374594D01*
X10781487Y-9374594D02*
X10762440Y-9365070D01*
X10762440Y-9365070D02*
X10752916Y-9355546D01*
X10752916Y-9355546D02*
X10743392Y-9336499D01*
X10743392Y-9336499D02*
X10733868Y-9298404D01*
X10733868Y-9298404D02*
X10733868Y-9250784D01*
X10733868Y-9250784D02*
X10743392Y-9212689D01*
X10743392Y-9212689D02*
X10752916Y-9193642D01*
X10752916Y-9193642D02*
X10762440Y-9184118D01*
X10762440Y-9184118D02*
X10781487Y-9174594D01*
X10933868Y-9374594D02*
X10933868Y-9241261D01*
X10933868Y-9260308D02*
X10943392Y-9250784D01*
X10943392Y-9250784D02*
X10962440Y-9241261D01*
X10962440Y-9241261D02*
X10991011Y-9241261D01*
X10991011Y-9241261D02*
X11010059Y-9250784D01*
X11010059Y-9250784D02*
X11019583Y-9269832D01*
X11019583Y-9269832D02*
X11019583Y-9374594D01*
X11019583Y-9269832D02*
X11029106Y-9250784D01*
X11029106Y-9250784D02*
X11048154Y-9241261D01*
X11048154Y-9241261D02*
X11076725Y-9241261D01*
X11076725Y-9241261D02*
X11095773Y-9250784D01*
X11095773Y-9250784D02*
X11105297Y-9269832D01*
X11105297Y-9269832D02*
X11105297Y-9374594D01*
X11200535Y-9374594D02*
X11200535Y-9241261D01*
X11200535Y-9260308D02*
X11210059Y-9250784D01*
X11210059Y-9250784D02*
X11229106Y-9241261D01*
X11229106Y-9241261D02*
X11257678Y-9241261D01*
X11257678Y-9241261D02*
X11276725Y-9250784D01*
X11276725Y-9250784D02*
X11286249Y-9269832D01*
X11286249Y-9269832D02*
X11286249Y-9374594D01*
X11286249Y-9269832D02*
X11295773Y-9250784D01*
X11295773Y-9250784D02*
X11314821Y-9241261D01*
X11314821Y-9241261D02*
X11343392Y-9241261D01*
X11343392Y-9241261D02*
X11362440Y-9250784D01*
X11362440Y-9250784D02*
X11371964Y-9269832D01*
X11371964Y-9269832D02*
X11371964Y-9374594D01*
X11762440Y-9165070D02*
X11591011Y-9422213D01*
X12019583Y-9174594D02*
X12038630Y-9174594D01*
X12038630Y-9174594D02*
X12057678Y-9184118D01*
X12057678Y-9184118D02*
X12067202Y-9193642D01*
X12067202Y-9193642D02*
X12076726Y-9212689D01*
X12076726Y-9212689D02*
X12086249Y-9250784D01*
X12086249Y-9250784D02*
X12086249Y-9298404D01*
X12086249Y-9298404D02*
X12076726Y-9336499D01*
X12076726Y-9336499D02*
X12067202Y-9355546D01*
X12067202Y-9355546D02*
X12057678Y-9365070D01*
X12057678Y-9365070D02*
X12038630Y-9374594D01*
X12038630Y-9374594D02*
X12019583Y-9374594D01*
X12019583Y-9374594D02*
X12000535Y-9365070D01*
X12000535Y-9365070D02*
X11991011Y-9355546D01*
X11991011Y-9355546D02*
X11981487Y-9336499D01*
X11981487Y-9336499D02*
X11971964Y-9298404D01*
X11971964Y-9298404D02*
X11971964Y-9250784D01*
X11971964Y-9250784D02*
X11981487Y-9212689D01*
X11981487Y-9212689D02*
X11991011Y-9193642D01*
X11991011Y-9193642D02*
X12000535Y-9184118D01*
X12000535Y-9184118D02*
X12019583Y-9174594D01*
X12171964Y-9355546D02*
X12181487Y-9365070D01*
X12181487Y-9365070D02*
X12171964Y-9374594D01*
X12171964Y-9374594D02*
X12162440Y-9365070D01*
X12162440Y-9365070D02*
X12171964Y-9355546D01*
X12171964Y-9355546D02*
X12171964Y-9374594D01*
X12305297Y-9174594D02*
X12324345Y-9174594D01*
X12324345Y-9174594D02*
X12343392Y-9184118D01*
X12343392Y-9184118D02*
X12352916Y-9193642D01*
X12352916Y-9193642D02*
X12362440Y-9212689D01*
X12362440Y-9212689D02*
X12371964Y-9250784D01*
X12371964Y-9250784D02*
X12371964Y-9298404D01*
X12371964Y-9298404D02*
X12362440Y-9336499D01*
X12362440Y-9336499D02*
X12352916Y-9355546D01*
X12352916Y-9355546D02*
X12343392Y-9365070D01*
X12343392Y-9365070D02*
X12324345Y-9374594D01*
X12324345Y-9374594D02*
X12305297Y-9374594D01*
X12305297Y-9374594D02*
X12286249Y-9365070D01*
X12286249Y-9365070D02*
X12276726Y-9355546D01*
X12276726Y-9355546D02*
X12267202Y-9336499D01*
X12267202Y-9336499D02*
X12257678Y-9298404D01*
X12257678Y-9298404D02*
X12257678Y-9250784D01*
X12257678Y-9250784D02*
X12267202Y-9212689D01*
X12267202Y-9212689D02*
X12276726Y-9193642D01*
X12276726Y-9193642D02*
X12286249Y-9184118D01*
X12286249Y-9184118D02*
X12305297Y-9174594D01*
X12448154Y-9193642D02*
X12457678Y-9184118D01*
X12457678Y-9184118D02*
X12476726Y-9174594D01*
X12476726Y-9174594D02*
X12524345Y-9174594D01*
X12524345Y-9174594D02*
X12543392Y-9184118D01*
X12543392Y-9184118D02*
X12552916Y-9193642D01*
X12552916Y-9193642D02*
X12562440Y-9212689D01*
X12562440Y-9212689D02*
X12562440Y-9231737D01*
X12562440Y-9231737D02*
X12552916Y-9260308D01*
X12552916Y-9260308D02*
X12438630Y-9374594D01*
X12438630Y-9374594D02*
X12562440Y-9374594D01*
X12629107Y-9174594D02*
X12752916Y-9174594D01*
X12752916Y-9174594D02*
X12686249Y-9250784D01*
X12686249Y-9250784D02*
X12714821Y-9250784D01*
X12714821Y-9250784D02*
X12733868Y-9260308D01*
X12733868Y-9260308D02*
X12743392Y-9269832D01*
X12743392Y-9269832D02*
X12752916Y-9288880D01*
X12752916Y-9288880D02*
X12752916Y-9336499D01*
X12752916Y-9336499D02*
X12743392Y-9355546D01*
X12743392Y-9355546D02*
X12733868Y-9365070D01*
X12733868Y-9365070D02*
X12714821Y-9374594D01*
X12714821Y-9374594D02*
X12657678Y-9374594D01*
X12657678Y-9374594D02*
X12638630Y-9365070D01*
X12638630Y-9365070D02*
X12629107Y-9355546D01*
X12924345Y-9174594D02*
X12886249Y-9174594D01*
X12886249Y-9174594D02*
X12867202Y-9184118D01*
X12867202Y-9184118D02*
X12857678Y-9193642D01*
X12857678Y-9193642D02*
X12838630Y-9222213D01*
X12838630Y-9222213D02*
X12829107Y-9260308D01*
X12829107Y-9260308D02*
X12829107Y-9336499D01*
X12829107Y-9336499D02*
X12838630Y-9355546D01*
X12838630Y-9355546D02*
X12848154Y-9365070D01*
X12848154Y-9365070D02*
X12867202Y-9374594D01*
X12867202Y-9374594D02*
X12905297Y-9374594D01*
X12905297Y-9374594D02*
X12924345Y-9365070D01*
X12924345Y-9365070D02*
X12933868Y-9355546D01*
X12933868Y-9355546D02*
X12943392Y-9336499D01*
X12943392Y-9336499D02*
X12943392Y-9288880D01*
X12943392Y-9288880D02*
X12933868Y-9269832D01*
X12933868Y-9269832D02*
X12924345Y-9260308D01*
X12924345Y-9260308D02*
X12905297Y-9250784D01*
X12905297Y-9250784D02*
X12867202Y-9250784D01*
X12867202Y-9250784D02*
X12848154Y-9260308D01*
X12848154Y-9260308D02*
X12838630Y-9269832D01*
X12838630Y-9269832D02*
X12829107Y-9288880D01*
X13019583Y-9174594D02*
X13019583Y-9212689D01*
X13095773Y-9174594D02*
X13095773Y-9212689D01*
X13391011Y-9450784D02*
X13381488Y-9441261D01*
X13381488Y-9441261D02*
X13362440Y-9412689D01*
X13362440Y-9412689D02*
X13352916Y-9393642D01*
X13352916Y-9393642D02*
X13343392Y-9365070D01*
X13343392Y-9365070D02*
X13333869Y-9317451D01*
X13333869Y-9317451D02*
X13333869Y-9279356D01*
X13333869Y-9279356D02*
X13343392Y-9231737D01*
X13343392Y-9231737D02*
X13352916Y-9203165D01*
X13352916Y-9203165D02*
X13362440Y-9184118D01*
X13362440Y-9184118D02*
X13381488Y-9155546D01*
X13381488Y-9155546D02*
X13391011Y-9146023D01*
X13505297Y-9174594D02*
X13524345Y-9174594D01*
X13524345Y-9174594D02*
X13543392Y-9184118D01*
X13543392Y-9184118D02*
X13552916Y-9193642D01*
X13552916Y-9193642D02*
X13562440Y-9212689D01*
X13562440Y-9212689D02*
X13571964Y-9250784D01*
X13571964Y-9250784D02*
X13571964Y-9298404D01*
X13571964Y-9298404D02*
X13562440Y-9336499D01*
X13562440Y-9336499D02*
X13552916Y-9355546D01*
X13552916Y-9355546D02*
X13543392Y-9365070D01*
X13543392Y-9365070D02*
X13524345Y-9374594D01*
X13524345Y-9374594D02*
X13505297Y-9374594D01*
X13505297Y-9374594D02*
X13486249Y-9365070D01*
X13486249Y-9365070D02*
X13476726Y-9355546D01*
X13476726Y-9355546D02*
X13467202Y-9336499D01*
X13467202Y-9336499D02*
X13457678Y-9298404D01*
X13457678Y-9298404D02*
X13457678Y-9250784D01*
X13457678Y-9250784D02*
X13467202Y-9212689D01*
X13467202Y-9212689D02*
X13476726Y-9193642D01*
X13476726Y-9193642D02*
X13486249Y-9184118D01*
X13486249Y-9184118D02*
X13505297Y-9174594D01*
X13810059Y-9374594D02*
X13810059Y-9174594D01*
X13895773Y-9374594D02*
X13895773Y-9269832D01*
X13895773Y-9269832D02*
X13886250Y-9250784D01*
X13886250Y-9250784D02*
X13867202Y-9241261D01*
X13867202Y-9241261D02*
X13838630Y-9241261D01*
X13838630Y-9241261D02*
X13819583Y-9250784D01*
X13819583Y-9250784D02*
X13810059Y-9260308D01*
X14019583Y-9374594D02*
X14000535Y-9365070D01*
X14000535Y-9365070D02*
X13991011Y-9355546D01*
X13991011Y-9355546D02*
X13981488Y-9336499D01*
X13981488Y-9336499D02*
X13981488Y-9279356D01*
X13981488Y-9279356D02*
X13991011Y-9260308D01*
X13991011Y-9260308D02*
X14000535Y-9250784D01*
X14000535Y-9250784D02*
X14019583Y-9241261D01*
X14019583Y-9241261D02*
X14048154Y-9241261D01*
X14048154Y-9241261D02*
X14067202Y-9250784D01*
X14067202Y-9250784D02*
X14076726Y-9260308D01*
X14076726Y-9260308D02*
X14086250Y-9279356D01*
X14086250Y-9279356D02*
X14086250Y-9336499D01*
X14086250Y-9336499D02*
X14076726Y-9355546D01*
X14076726Y-9355546D02*
X14067202Y-9365070D01*
X14067202Y-9365070D02*
X14048154Y-9374594D01*
X14048154Y-9374594D02*
X14019583Y-9374594D01*
X14200535Y-9374594D02*
X14181488Y-9365070D01*
X14181488Y-9365070D02*
X14171964Y-9346023D01*
X14171964Y-9346023D02*
X14171964Y-9174594D01*
X14352916Y-9365070D02*
X14333869Y-9374594D01*
X14333869Y-9374594D02*
X14295773Y-9374594D01*
X14295773Y-9374594D02*
X14276726Y-9365070D01*
X14276726Y-9365070D02*
X14267202Y-9346023D01*
X14267202Y-9346023D02*
X14267202Y-9269832D01*
X14267202Y-9269832D02*
X14276726Y-9250784D01*
X14276726Y-9250784D02*
X14295773Y-9241261D01*
X14295773Y-9241261D02*
X14333869Y-9241261D01*
X14333869Y-9241261D02*
X14352916Y-9250784D01*
X14352916Y-9250784D02*
X14362440Y-9269832D01*
X14362440Y-9269832D02*
X14362440Y-9288880D01*
X14362440Y-9288880D02*
X14267202Y-9307927D01*
X14438631Y-9365070D02*
X14457678Y-9374594D01*
X14457678Y-9374594D02*
X14495773Y-9374594D01*
X14495773Y-9374594D02*
X14514821Y-9365070D01*
X14514821Y-9365070D02*
X14524345Y-9346023D01*
X14524345Y-9346023D02*
X14524345Y-9336499D01*
X14524345Y-9336499D02*
X14514821Y-9317451D01*
X14514821Y-9317451D02*
X14495773Y-9307927D01*
X14495773Y-9307927D02*
X14467202Y-9307927D01*
X14467202Y-9307927D02*
X14448154Y-9298404D01*
X14448154Y-9298404D02*
X14438631Y-9279356D01*
X14438631Y-9279356D02*
X14438631Y-9269832D01*
X14438631Y-9269832D02*
X14448154Y-9250784D01*
X14448154Y-9250784D02*
X14467202Y-9241261D01*
X14467202Y-9241261D02*
X14495773Y-9241261D01*
X14495773Y-9241261D02*
X14514821Y-9250784D01*
X14762440Y-9298404D02*
X14914821Y-9298404D01*
X14838631Y-9374594D02*
X14838631Y-9222213D01*
X15152916Y-9193642D02*
X15162440Y-9184118D01*
X15162440Y-9184118D02*
X15181488Y-9174594D01*
X15181488Y-9174594D02*
X15229107Y-9174594D01*
X15229107Y-9174594D02*
X15248154Y-9184118D01*
X15248154Y-9184118D02*
X15257678Y-9193642D01*
X15257678Y-9193642D02*
X15267202Y-9212689D01*
X15267202Y-9212689D02*
X15267202Y-9231737D01*
X15267202Y-9231737D02*
X15257678Y-9260308D01*
X15257678Y-9260308D02*
X15143393Y-9374594D01*
X15143393Y-9374594D02*
X15267202Y-9374594D01*
X15495774Y-9365070D02*
X15514821Y-9374594D01*
X15514821Y-9374594D02*
X15552916Y-9374594D01*
X15552916Y-9374594D02*
X15571964Y-9365070D01*
X15571964Y-9365070D02*
X15581488Y-9346023D01*
X15581488Y-9346023D02*
X15581488Y-9336499D01*
X15581488Y-9336499D02*
X15571964Y-9317451D01*
X15571964Y-9317451D02*
X15552916Y-9307927D01*
X15552916Y-9307927D02*
X15524345Y-9307927D01*
X15524345Y-9307927D02*
X15505297Y-9298404D01*
X15505297Y-9298404D02*
X15495774Y-9279356D01*
X15495774Y-9279356D02*
X15495774Y-9269832D01*
X15495774Y-9269832D02*
X15505297Y-9250784D01*
X15505297Y-9250784D02*
X15524345Y-9241261D01*
X15524345Y-9241261D02*
X15552916Y-9241261D01*
X15552916Y-9241261D02*
X15571964Y-9250784D01*
X15695774Y-9374594D02*
X15676726Y-9365070D01*
X15676726Y-9365070D02*
X15667202Y-9346023D01*
X15667202Y-9346023D02*
X15667202Y-9174594D01*
X15800535Y-9374594D02*
X15781488Y-9365070D01*
X15781488Y-9365070D02*
X15771964Y-9355546D01*
X15771964Y-9355546D02*
X15762440Y-9336499D01*
X15762440Y-9336499D02*
X15762440Y-9279356D01*
X15762440Y-9279356D02*
X15771964Y-9260308D01*
X15771964Y-9260308D02*
X15781488Y-9250784D01*
X15781488Y-9250784D02*
X15800535Y-9241261D01*
X15800535Y-9241261D02*
X15829107Y-9241261D01*
X15829107Y-9241261D02*
X15848155Y-9250784D01*
X15848155Y-9250784D02*
X15857678Y-9260308D01*
X15857678Y-9260308D02*
X15867202Y-9279356D01*
X15867202Y-9279356D02*
X15867202Y-9336499D01*
X15867202Y-9336499D02*
X15857678Y-9355546D01*
X15857678Y-9355546D02*
X15848155Y-9365070D01*
X15848155Y-9365070D02*
X15829107Y-9374594D01*
X15829107Y-9374594D02*
X15800535Y-9374594D01*
X15924345Y-9241261D02*
X16000535Y-9241261D01*
X15952916Y-9174594D02*
X15952916Y-9346023D01*
X15952916Y-9346023D02*
X15962440Y-9365070D01*
X15962440Y-9365070D02*
X15981488Y-9374594D01*
X15981488Y-9374594D02*
X16000535Y-9374594D01*
X16057678Y-9365070D02*
X16076726Y-9374594D01*
X16076726Y-9374594D02*
X16114821Y-9374594D01*
X16114821Y-9374594D02*
X16133869Y-9365070D01*
X16133869Y-9365070D02*
X16143393Y-9346023D01*
X16143393Y-9346023D02*
X16143393Y-9336499D01*
X16143393Y-9336499D02*
X16133869Y-9317451D01*
X16133869Y-9317451D02*
X16114821Y-9307927D01*
X16114821Y-9307927D02*
X16086250Y-9307927D01*
X16086250Y-9307927D02*
X16067202Y-9298404D01*
X16067202Y-9298404D02*
X16057678Y-9279356D01*
X16057678Y-9279356D02*
X16057678Y-9269832D01*
X16057678Y-9269832D02*
X16067202Y-9250784D01*
X16067202Y-9250784D02*
X16086250Y-9241261D01*
X16086250Y-9241261D02*
X16114821Y-9241261D01*
X16114821Y-9241261D02*
X16133869Y-9250784D01*
X16210059Y-9450784D02*
X16219583Y-9441261D01*
X16219583Y-9441261D02*
X16238631Y-9412689D01*
X16238631Y-9412689D02*
X16248155Y-9393642D01*
X16248155Y-9393642D02*
X16257678Y-9365070D01*
X16257678Y-9365070D02*
X16267202Y-9317451D01*
X16267202Y-9317451D02*
X16267202Y-9279356D01*
X16267202Y-9279356D02*
X16257678Y-9231737D01*
X16257678Y-9231737D02*
X16248155Y-9203165D01*
X16248155Y-9203165D02*
X16238631Y-9184118D01*
X16238631Y-9184118D02*
X16219583Y-9155546D01*
X16219583Y-9155546D02*
X16210059Y-9146023D01*
D15*
X9775949Y-9587110D02*
X9815949Y-9547110D01*
X9775949Y-9507110D01*
X9735949Y-9547110D01*
X9775949Y-9587110D01*
D10*
X10114821Y-9438594D02*
X10133868Y-9438594D01*
X10133868Y-9438594D02*
X10152916Y-9448118D01*
X10152916Y-9448118D02*
X10162440Y-9457642D01*
X10162440Y-9457642D02*
X10171964Y-9476689D01*
X10171964Y-9476689D02*
X10181487Y-9514784D01*
X10181487Y-9514784D02*
X10181487Y-9562404D01*
X10181487Y-9562404D02*
X10171964Y-9600499D01*
X10171964Y-9600499D02*
X10162440Y-9619546D01*
X10162440Y-9619546D02*
X10152916Y-9629070D01*
X10152916Y-9629070D02*
X10133868Y-9638594D01*
X10133868Y-9638594D02*
X10114821Y-9638594D01*
X10114821Y-9638594D02*
X10095773Y-9629070D01*
X10095773Y-9629070D02*
X10086249Y-9619546D01*
X10086249Y-9619546D02*
X10076725Y-9600499D01*
X10076725Y-9600499D02*
X10067202Y-9562404D01*
X10067202Y-9562404D02*
X10067202Y-9514784D01*
X10067202Y-9514784D02*
X10076725Y-9476689D01*
X10076725Y-9476689D02*
X10086249Y-9457642D01*
X10086249Y-9457642D02*
X10095773Y-9448118D01*
X10095773Y-9448118D02*
X10114821Y-9438594D01*
X10267202Y-9619546D02*
X10276725Y-9629070D01*
X10276725Y-9629070D02*
X10267202Y-9638594D01*
X10267202Y-9638594D02*
X10257678Y-9629070D01*
X10257678Y-9629070D02*
X10267202Y-9619546D01*
X10267202Y-9619546D02*
X10267202Y-9638594D01*
X10391011Y-9524308D02*
X10371964Y-9514784D01*
X10371964Y-9514784D02*
X10362440Y-9505261D01*
X10362440Y-9505261D02*
X10352916Y-9486213D01*
X10352916Y-9486213D02*
X10352916Y-9476689D01*
X10352916Y-9476689D02*
X10362440Y-9457642D01*
X10362440Y-9457642D02*
X10371964Y-9448118D01*
X10371964Y-9448118D02*
X10391011Y-9438594D01*
X10391011Y-9438594D02*
X10429106Y-9438594D01*
X10429106Y-9438594D02*
X10448154Y-9448118D01*
X10448154Y-9448118D02*
X10457678Y-9457642D01*
X10457678Y-9457642D02*
X10467202Y-9476689D01*
X10467202Y-9476689D02*
X10467202Y-9486213D01*
X10467202Y-9486213D02*
X10457678Y-9505261D01*
X10457678Y-9505261D02*
X10448154Y-9514784D01*
X10448154Y-9514784D02*
X10429106Y-9524308D01*
X10429106Y-9524308D02*
X10391011Y-9524308D01*
X10391011Y-9524308D02*
X10371964Y-9533832D01*
X10371964Y-9533832D02*
X10362440Y-9543356D01*
X10362440Y-9543356D02*
X10352916Y-9562404D01*
X10352916Y-9562404D02*
X10352916Y-9600499D01*
X10352916Y-9600499D02*
X10362440Y-9619546D01*
X10362440Y-9619546D02*
X10371964Y-9629070D01*
X10371964Y-9629070D02*
X10391011Y-9638594D01*
X10391011Y-9638594D02*
X10429106Y-9638594D01*
X10429106Y-9638594D02*
X10448154Y-9629070D01*
X10448154Y-9629070D02*
X10457678Y-9619546D01*
X10457678Y-9619546D02*
X10467202Y-9600499D01*
X10467202Y-9600499D02*
X10467202Y-9562404D01*
X10467202Y-9562404D02*
X10457678Y-9543356D01*
X10457678Y-9543356D02*
X10448154Y-9533832D01*
X10448154Y-9533832D02*
X10429106Y-9524308D01*
X10591011Y-9438594D02*
X10610059Y-9438594D01*
X10610059Y-9438594D02*
X10629106Y-9448118D01*
X10629106Y-9448118D02*
X10638630Y-9457642D01*
X10638630Y-9457642D02*
X10648154Y-9476689D01*
X10648154Y-9476689D02*
X10657678Y-9514784D01*
X10657678Y-9514784D02*
X10657678Y-9562404D01*
X10657678Y-9562404D02*
X10648154Y-9600499D01*
X10648154Y-9600499D02*
X10638630Y-9619546D01*
X10638630Y-9619546D02*
X10629106Y-9629070D01*
X10629106Y-9629070D02*
X10610059Y-9638594D01*
X10610059Y-9638594D02*
X10591011Y-9638594D01*
X10591011Y-9638594D02*
X10571964Y-9629070D01*
X10571964Y-9629070D02*
X10562440Y-9619546D01*
X10562440Y-9619546D02*
X10552916Y-9600499D01*
X10552916Y-9600499D02*
X10543392Y-9562404D01*
X10543392Y-9562404D02*
X10543392Y-9514784D01*
X10543392Y-9514784D02*
X10552916Y-9476689D01*
X10552916Y-9476689D02*
X10562440Y-9457642D01*
X10562440Y-9457642D02*
X10571964Y-9448118D01*
X10571964Y-9448118D02*
X10591011Y-9438594D01*
X10781487Y-9438594D02*
X10800535Y-9438594D01*
X10800535Y-9438594D02*
X10819583Y-9448118D01*
X10819583Y-9448118D02*
X10829106Y-9457642D01*
X10829106Y-9457642D02*
X10838630Y-9476689D01*
X10838630Y-9476689D02*
X10848154Y-9514784D01*
X10848154Y-9514784D02*
X10848154Y-9562404D01*
X10848154Y-9562404D02*
X10838630Y-9600499D01*
X10838630Y-9600499D02*
X10829106Y-9619546D01*
X10829106Y-9619546D02*
X10819583Y-9629070D01*
X10819583Y-9629070D02*
X10800535Y-9638594D01*
X10800535Y-9638594D02*
X10781487Y-9638594D01*
X10781487Y-9638594D02*
X10762440Y-9629070D01*
X10762440Y-9629070D02*
X10752916Y-9619546D01*
X10752916Y-9619546D02*
X10743392Y-9600499D01*
X10743392Y-9600499D02*
X10733868Y-9562404D01*
X10733868Y-9562404D02*
X10733868Y-9514784D01*
X10733868Y-9514784D02*
X10743392Y-9476689D01*
X10743392Y-9476689D02*
X10752916Y-9457642D01*
X10752916Y-9457642D02*
X10762440Y-9448118D01*
X10762440Y-9448118D02*
X10781487Y-9438594D01*
X10933868Y-9638594D02*
X10933868Y-9505261D01*
X10933868Y-9524308D02*
X10943392Y-9514784D01*
X10943392Y-9514784D02*
X10962440Y-9505261D01*
X10962440Y-9505261D02*
X10991011Y-9505261D01*
X10991011Y-9505261D02*
X11010059Y-9514784D01*
X11010059Y-9514784D02*
X11019583Y-9533832D01*
X11019583Y-9533832D02*
X11019583Y-9638594D01*
X11019583Y-9533832D02*
X11029106Y-9514784D01*
X11029106Y-9514784D02*
X11048154Y-9505261D01*
X11048154Y-9505261D02*
X11076725Y-9505261D01*
X11076725Y-9505261D02*
X11095773Y-9514784D01*
X11095773Y-9514784D02*
X11105297Y-9533832D01*
X11105297Y-9533832D02*
X11105297Y-9638594D01*
X11200535Y-9638594D02*
X11200535Y-9505261D01*
X11200535Y-9524308D02*
X11210059Y-9514784D01*
X11210059Y-9514784D02*
X11229106Y-9505261D01*
X11229106Y-9505261D02*
X11257678Y-9505261D01*
X11257678Y-9505261D02*
X11276725Y-9514784D01*
X11276725Y-9514784D02*
X11286249Y-9533832D01*
X11286249Y-9533832D02*
X11286249Y-9638594D01*
X11286249Y-9533832D02*
X11295773Y-9514784D01*
X11295773Y-9514784D02*
X11314821Y-9505261D01*
X11314821Y-9505261D02*
X11343392Y-9505261D01*
X11343392Y-9505261D02*
X11362440Y-9514784D01*
X11362440Y-9514784D02*
X11371964Y-9533832D01*
X11371964Y-9533832D02*
X11371964Y-9638594D01*
X11762440Y-9429070D02*
X11591011Y-9686213D01*
X12019583Y-9438594D02*
X12038630Y-9438594D01*
X12038630Y-9438594D02*
X12057678Y-9448118D01*
X12057678Y-9448118D02*
X12067202Y-9457642D01*
X12067202Y-9457642D02*
X12076726Y-9476689D01*
X12076726Y-9476689D02*
X12086249Y-9514784D01*
X12086249Y-9514784D02*
X12086249Y-9562404D01*
X12086249Y-9562404D02*
X12076726Y-9600499D01*
X12076726Y-9600499D02*
X12067202Y-9619546D01*
X12067202Y-9619546D02*
X12057678Y-9629070D01*
X12057678Y-9629070D02*
X12038630Y-9638594D01*
X12038630Y-9638594D02*
X12019583Y-9638594D01*
X12019583Y-9638594D02*
X12000535Y-9629070D01*
X12000535Y-9629070D02*
X11991011Y-9619546D01*
X11991011Y-9619546D02*
X11981487Y-9600499D01*
X11981487Y-9600499D02*
X11971964Y-9562404D01*
X11971964Y-9562404D02*
X11971964Y-9514784D01*
X11971964Y-9514784D02*
X11981487Y-9476689D01*
X11981487Y-9476689D02*
X11991011Y-9457642D01*
X11991011Y-9457642D02*
X12000535Y-9448118D01*
X12000535Y-9448118D02*
X12019583Y-9438594D01*
X12171964Y-9619546D02*
X12181487Y-9629070D01*
X12181487Y-9629070D02*
X12171964Y-9638594D01*
X12171964Y-9638594D02*
X12162440Y-9629070D01*
X12162440Y-9629070D02*
X12171964Y-9619546D01*
X12171964Y-9619546D02*
X12171964Y-9638594D01*
X12305297Y-9438594D02*
X12324345Y-9438594D01*
X12324345Y-9438594D02*
X12343392Y-9448118D01*
X12343392Y-9448118D02*
X12352916Y-9457642D01*
X12352916Y-9457642D02*
X12362440Y-9476689D01*
X12362440Y-9476689D02*
X12371964Y-9514784D01*
X12371964Y-9514784D02*
X12371964Y-9562404D01*
X12371964Y-9562404D02*
X12362440Y-9600499D01*
X12362440Y-9600499D02*
X12352916Y-9619546D01*
X12352916Y-9619546D02*
X12343392Y-9629070D01*
X12343392Y-9629070D02*
X12324345Y-9638594D01*
X12324345Y-9638594D02*
X12305297Y-9638594D01*
X12305297Y-9638594D02*
X12286249Y-9629070D01*
X12286249Y-9629070D02*
X12276726Y-9619546D01*
X12276726Y-9619546D02*
X12267202Y-9600499D01*
X12267202Y-9600499D02*
X12257678Y-9562404D01*
X12257678Y-9562404D02*
X12257678Y-9514784D01*
X12257678Y-9514784D02*
X12267202Y-9476689D01*
X12267202Y-9476689D02*
X12276726Y-9457642D01*
X12276726Y-9457642D02*
X12286249Y-9448118D01*
X12286249Y-9448118D02*
X12305297Y-9438594D01*
X12438630Y-9438594D02*
X12562440Y-9438594D01*
X12562440Y-9438594D02*
X12495773Y-9514784D01*
X12495773Y-9514784D02*
X12524345Y-9514784D01*
X12524345Y-9514784D02*
X12543392Y-9524308D01*
X12543392Y-9524308D02*
X12552916Y-9533832D01*
X12552916Y-9533832D02*
X12562440Y-9552880D01*
X12562440Y-9552880D02*
X12562440Y-9600499D01*
X12562440Y-9600499D02*
X12552916Y-9619546D01*
X12552916Y-9619546D02*
X12543392Y-9629070D01*
X12543392Y-9629070D02*
X12524345Y-9638594D01*
X12524345Y-9638594D02*
X12467202Y-9638594D01*
X12467202Y-9638594D02*
X12448154Y-9629070D01*
X12448154Y-9629070D02*
X12438630Y-9619546D01*
X12752916Y-9638594D02*
X12638630Y-9638594D01*
X12695773Y-9638594D02*
X12695773Y-9438594D01*
X12695773Y-9438594D02*
X12676726Y-9467165D01*
X12676726Y-9467165D02*
X12657678Y-9486213D01*
X12657678Y-9486213D02*
X12638630Y-9495737D01*
X12933868Y-9438594D02*
X12838630Y-9438594D01*
X12838630Y-9438594D02*
X12829107Y-9533832D01*
X12829107Y-9533832D02*
X12838630Y-9524308D01*
X12838630Y-9524308D02*
X12857678Y-9514784D01*
X12857678Y-9514784D02*
X12905297Y-9514784D01*
X12905297Y-9514784D02*
X12924345Y-9524308D01*
X12924345Y-9524308D02*
X12933868Y-9533832D01*
X12933868Y-9533832D02*
X12943392Y-9552880D01*
X12943392Y-9552880D02*
X12943392Y-9600499D01*
X12943392Y-9600499D02*
X12933868Y-9619546D01*
X12933868Y-9619546D02*
X12924345Y-9629070D01*
X12924345Y-9629070D02*
X12905297Y-9638594D01*
X12905297Y-9638594D02*
X12857678Y-9638594D01*
X12857678Y-9638594D02*
X12838630Y-9629070D01*
X12838630Y-9629070D02*
X12829107Y-9619546D01*
X13019583Y-9438594D02*
X13019583Y-9476689D01*
X13095773Y-9438594D02*
X13095773Y-9476689D01*
X13391011Y-9714784D02*
X13381488Y-9705261D01*
X13381488Y-9705261D02*
X13362440Y-9676689D01*
X13362440Y-9676689D02*
X13352916Y-9657642D01*
X13352916Y-9657642D02*
X13343392Y-9629070D01*
X13343392Y-9629070D02*
X13333869Y-9581451D01*
X13333869Y-9581451D02*
X13333869Y-9543356D01*
X13333869Y-9543356D02*
X13343392Y-9495737D01*
X13343392Y-9495737D02*
X13352916Y-9467165D01*
X13352916Y-9467165D02*
X13362440Y-9448118D01*
X13362440Y-9448118D02*
X13381488Y-9419546D01*
X13381488Y-9419546D02*
X13391011Y-9410023D01*
X13457678Y-9457642D02*
X13467202Y-9448118D01*
X13467202Y-9448118D02*
X13486249Y-9438594D01*
X13486249Y-9438594D02*
X13533869Y-9438594D01*
X13533869Y-9438594D02*
X13552916Y-9448118D01*
X13552916Y-9448118D02*
X13562440Y-9457642D01*
X13562440Y-9457642D02*
X13571964Y-9476689D01*
X13571964Y-9476689D02*
X13571964Y-9495737D01*
X13571964Y-9495737D02*
X13562440Y-9524308D01*
X13562440Y-9524308D02*
X13448154Y-9638594D01*
X13448154Y-9638594D02*
X13571964Y-9638594D01*
X13810059Y-9638594D02*
X13810059Y-9438594D01*
X13895773Y-9638594D02*
X13895773Y-9533832D01*
X13895773Y-9533832D02*
X13886250Y-9514784D01*
X13886250Y-9514784D02*
X13867202Y-9505261D01*
X13867202Y-9505261D02*
X13838630Y-9505261D01*
X13838630Y-9505261D02*
X13819583Y-9514784D01*
X13819583Y-9514784D02*
X13810059Y-9524308D01*
X14019583Y-9638594D02*
X14000535Y-9629070D01*
X14000535Y-9629070D02*
X13991011Y-9619546D01*
X13991011Y-9619546D02*
X13981488Y-9600499D01*
X13981488Y-9600499D02*
X13981488Y-9543356D01*
X13981488Y-9543356D02*
X13991011Y-9524308D01*
X13991011Y-9524308D02*
X14000535Y-9514784D01*
X14000535Y-9514784D02*
X14019583Y-9505261D01*
X14019583Y-9505261D02*
X14048154Y-9505261D01*
X14048154Y-9505261D02*
X14067202Y-9514784D01*
X14067202Y-9514784D02*
X14076726Y-9524308D01*
X14076726Y-9524308D02*
X14086250Y-9543356D01*
X14086250Y-9543356D02*
X14086250Y-9600499D01*
X14086250Y-9600499D02*
X14076726Y-9619546D01*
X14076726Y-9619546D02*
X14067202Y-9629070D01*
X14067202Y-9629070D02*
X14048154Y-9638594D01*
X14048154Y-9638594D02*
X14019583Y-9638594D01*
X14200535Y-9638594D02*
X14181488Y-9629070D01*
X14181488Y-9629070D02*
X14171964Y-9610023D01*
X14171964Y-9610023D02*
X14171964Y-9438594D01*
X14352916Y-9629070D02*
X14333869Y-9638594D01*
X14333869Y-9638594D02*
X14295773Y-9638594D01*
X14295773Y-9638594D02*
X14276726Y-9629070D01*
X14276726Y-9629070D02*
X14267202Y-9610023D01*
X14267202Y-9610023D02*
X14267202Y-9533832D01*
X14267202Y-9533832D02*
X14276726Y-9514784D01*
X14276726Y-9514784D02*
X14295773Y-9505261D01*
X14295773Y-9505261D02*
X14333869Y-9505261D01*
X14333869Y-9505261D02*
X14352916Y-9514784D01*
X14352916Y-9514784D02*
X14362440Y-9533832D01*
X14362440Y-9533832D02*
X14362440Y-9552880D01*
X14362440Y-9552880D02*
X14267202Y-9571927D01*
X14438631Y-9629070D02*
X14457678Y-9638594D01*
X14457678Y-9638594D02*
X14495773Y-9638594D01*
X14495773Y-9638594D02*
X14514821Y-9629070D01*
X14514821Y-9629070D02*
X14524345Y-9610023D01*
X14524345Y-9610023D02*
X14524345Y-9600499D01*
X14524345Y-9600499D02*
X14514821Y-9581451D01*
X14514821Y-9581451D02*
X14495773Y-9571927D01*
X14495773Y-9571927D02*
X14467202Y-9571927D01*
X14467202Y-9571927D02*
X14448154Y-9562404D01*
X14448154Y-9562404D02*
X14438631Y-9543356D01*
X14438631Y-9543356D02*
X14438631Y-9533832D01*
X14438631Y-9533832D02*
X14448154Y-9514784D01*
X14448154Y-9514784D02*
X14467202Y-9505261D01*
X14467202Y-9505261D02*
X14495773Y-9505261D01*
X14495773Y-9505261D02*
X14514821Y-9514784D01*
X14591012Y-9714784D02*
X14600535Y-9705261D01*
X14600535Y-9705261D02*
X14619583Y-9676689D01*
X14619583Y-9676689D02*
X14629107Y-9657642D01*
X14629107Y-9657642D02*
X14638631Y-9629070D01*
X14638631Y-9629070D02*
X14648154Y-9581451D01*
X14648154Y-9581451D02*
X14648154Y-9543356D01*
X14648154Y-9543356D02*
X14638631Y-9495737D01*
X14638631Y-9495737D02*
X14629107Y-9467165D01*
X14629107Y-9467165D02*
X14619583Y-9448118D01*
X14619583Y-9448118D02*
X14600535Y-9419546D01*
X14600535Y-9419546D02*
X14591012Y-9410023D01*
D16*
X9730949Y-9768610D02*
X9815949Y-9853610D01*
X9815949Y-9768610D02*
X9730949Y-9853610D01*
X9815949Y-9811110D02*
G75*
G03*
X9815949Y-9811110I-42500J0D01*
G01*
D10*
X10114821Y-9702594D02*
X10133868Y-9702594D01*
X10133868Y-9702594D02*
X10152916Y-9712118D01*
X10152916Y-9712118D02*
X10162440Y-9721642D01*
X10162440Y-9721642D02*
X10171964Y-9740689D01*
X10171964Y-9740689D02*
X10181487Y-9778784D01*
X10181487Y-9778784D02*
X10181487Y-9826404D01*
X10181487Y-9826404D02*
X10171964Y-9864499D01*
X10171964Y-9864499D02*
X10162440Y-9883546D01*
X10162440Y-9883546D02*
X10152916Y-9893070D01*
X10152916Y-9893070D02*
X10133868Y-9902594D01*
X10133868Y-9902594D02*
X10114821Y-9902594D01*
X10114821Y-9902594D02*
X10095773Y-9893070D01*
X10095773Y-9893070D02*
X10086249Y-9883546D01*
X10086249Y-9883546D02*
X10076725Y-9864499D01*
X10076725Y-9864499D02*
X10067202Y-9826404D01*
X10067202Y-9826404D02*
X10067202Y-9778784D01*
X10067202Y-9778784D02*
X10076725Y-9740689D01*
X10076725Y-9740689D02*
X10086249Y-9721642D01*
X10086249Y-9721642D02*
X10095773Y-9712118D01*
X10095773Y-9712118D02*
X10114821Y-9702594D01*
X10267202Y-9883546D02*
X10276725Y-9893070D01*
X10276725Y-9893070D02*
X10267202Y-9902594D01*
X10267202Y-9902594D02*
X10257678Y-9893070D01*
X10257678Y-9893070D02*
X10267202Y-9883546D01*
X10267202Y-9883546D02*
X10267202Y-9902594D01*
X10391011Y-9788308D02*
X10371964Y-9778784D01*
X10371964Y-9778784D02*
X10362440Y-9769261D01*
X10362440Y-9769261D02*
X10352916Y-9750213D01*
X10352916Y-9750213D02*
X10352916Y-9740689D01*
X10352916Y-9740689D02*
X10362440Y-9721642D01*
X10362440Y-9721642D02*
X10371964Y-9712118D01*
X10371964Y-9712118D02*
X10391011Y-9702594D01*
X10391011Y-9702594D02*
X10429106Y-9702594D01*
X10429106Y-9702594D02*
X10448154Y-9712118D01*
X10448154Y-9712118D02*
X10457678Y-9721642D01*
X10457678Y-9721642D02*
X10467202Y-9740689D01*
X10467202Y-9740689D02*
X10467202Y-9750213D01*
X10467202Y-9750213D02*
X10457678Y-9769261D01*
X10457678Y-9769261D02*
X10448154Y-9778784D01*
X10448154Y-9778784D02*
X10429106Y-9788308D01*
X10429106Y-9788308D02*
X10391011Y-9788308D01*
X10391011Y-9788308D02*
X10371964Y-9797832D01*
X10371964Y-9797832D02*
X10362440Y-9807356D01*
X10362440Y-9807356D02*
X10352916Y-9826404D01*
X10352916Y-9826404D02*
X10352916Y-9864499D01*
X10352916Y-9864499D02*
X10362440Y-9883546D01*
X10362440Y-9883546D02*
X10371964Y-9893070D01*
X10371964Y-9893070D02*
X10391011Y-9902594D01*
X10391011Y-9902594D02*
X10429106Y-9902594D01*
X10429106Y-9902594D02*
X10448154Y-9893070D01*
X10448154Y-9893070D02*
X10457678Y-9883546D01*
X10457678Y-9883546D02*
X10467202Y-9864499D01*
X10467202Y-9864499D02*
X10467202Y-9826404D01*
X10467202Y-9826404D02*
X10457678Y-9807356D01*
X10457678Y-9807356D02*
X10448154Y-9797832D01*
X10448154Y-9797832D02*
X10429106Y-9788308D01*
X10648154Y-9702594D02*
X10552916Y-9702594D01*
X10552916Y-9702594D02*
X10543392Y-9797832D01*
X10543392Y-9797832D02*
X10552916Y-9788308D01*
X10552916Y-9788308D02*
X10571964Y-9778784D01*
X10571964Y-9778784D02*
X10619583Y-9778784D01*
X10619583Y-9778784D02*
X10638630Y-9788308D01*
X10638630Y-9788308D02*
X10648154Y-9797832D01*
X10648154Y-9797832D02*
X10657678Y-9816880D01*
X10657678Y-9816880D02*
X10657678Y-9864499D01*
X10657678Y-9864499D02*
X10648154Y-9883546D01*
X10648154Y-9883546D02*
X10638630Y-9893070D01*
X10638630Y-9893070D02*
X10619583Y-9902594D01*
X10619583Y-9902594D02*
X10571964Y-9902594D01*
X10571964Y-9902594D02*
X10552916Y-9893070D01*
X10552916Y-9893070D02*
X10543392Y-9883546D01*
X10781487Y-9702594D02*
X10800535Y-9702594D01*
X10800535Y-9702594D02*
X10819583Y-9712118D01*
X10819583Y-9712118D02*
X10829106Y-9721642D01*
X10829106Y-9721642D02*
X10838630Y-9740689D01*
X10838630Y-9740689D02*
X10848154Y-9778784D01*
X10848154Y-9778784D02*
X10848154Y-9826404D01*
X10848154Y-9826404D02*
X10838630Y-9864499D01*
X10838630Y-9864499D02*
X10829106Y-9883546D01*
X10829106Y-9883546D02*
X10819583Y-9893070D01*
X10819583Y-9893070D02*
X10800535Y-9902594D01*
X10800535Y-9902594D02*
X10781487Y-9902594D01*
X10781487Y-9902594D02*
X10762440Y-9893070D01*
X10762440Y-9893070D02*
X10752916Y-9883546D01*
X10752916Y-9883546D02*
X10743392Y-9864499D01*
X10743392Y-9864499D02*
X10733868Y-9826404D01*
X10733868Y-9826404D02*
X10733868Y-9778784D01*
X10733868Y-9778784D02*
X10743392Y-9740689D01*
X10743392Y-9740689D02*
X10752916Y-9721642D01*
X10752916Y-9721642D02*
X10762440Y-9712118D01*
X10762440Y-9712118D02*
X10781487Y-9702594D01*
X10933868Y-9902594D02*
X10933868Y-9769261D01*
X10933868Y-9788308D02*
X10943392Y-9778784D01*
X10943392Y-9778784D02*
X10962440Y-9769261D01*
X10962440Y-9769261D02*
X10991011Y-9769261D01*
X10991011Y-9769261D02*
X11010059Y-9778784D01*
X11010059Y-9778784D02*
X11019583Y-9797832D01*
X11019583Y-9797832D02*
X11019583Y-9902594D01*
X11019583Y-9797832D02*
X11029106Y-9778784D01*
X11029106Y-9778784D02*
X11048154Y-9769261D01*
X11048154Y-9769261D02*
X11076725Y-9769261D01*
X11076725Y-9769261D02*
X11095773Y-9778784D01*
X11095773Y-9778784D02*
X11105297Y-9797832D01*
X11105297Y-9797832D02*
X11105297Y-9902594D01*
X11200535Y-9902594D02*
X11200535Y-9769261D01*
X11200535Y-9788308D02*
X11210059Y-9778784D01*
X11210059Y-9778784D02*
X11229106Y-9769261D01*
X11229106Y-9769261D02*
X11257678Y-9769261D01*
X11257678Y-9769261D02*
X11276725Y-9778784D01*
X11276725Y-9778784D02*
X11286249Y-9797832D01*
X11286249Y-9797832D02*
X11286249Y-9902594D01*
X11286249Y-9797832D02*
X11295773Y-9778784D01*
X11295773Y-9778784D02*
X11314821Y-9769261D01*
X11314821Y-9769261D02*
X11343392Y-9769261D01*
X11343392Y-9769261D02*
X11362440Y-9778784D01*
X11362440Y-9778784D02*
X11371964Y-9797832D01*
X11371964Y-9797832D02*
X11371964Y-9902594D01*
X11762440Y-9693070D02*
X11591011Y-9950213D01*
X12019583Y-9702594D02*
X12038630Y-9702594D01*
X12038630Y-9702594D02*
X12057678Y-9712118D01*
X12057678Y-9712118D02*
X12067202Y-9721642D01*
X12067202Y-9721642D02*
X12076726Y-9740689D01*
X12076726Y-9740689D02*
X12086249Y-9778784D01*
X12086249Y-9778784D02*
X12086249Y-9826404D01*
X12086249Y-9826404D02*
X12076726Y-9864499D01*
X12076726Y-9864499D02*
X12067202Y-9883546D01*
X12067202Y-9883546D02*
X12057678Y-9893070D01*
X12057678Y-9893070D02*
X12038630Y-9902594D01*
X12038630Y-9902594D02*
X12019583Y-9902594D01*
X12019583Y-9902594D02*
X12000535Y-9893070D01*
X12000535Y-9893070D02*
X11991011Y-9883546D01*
X11991011Y-9883546D02*
X11981487Y-9864499D01*
X11981487Y-9864499D02*
X11971964Y-9826404D01*
X11971964Y-9826404D02*
X11971964Y-9778784D01*
X11971964Y-9778784D02*
X11981487Y-9740689D01*
X11981487Y-9740689D02*
X11991011Y-9721642D01*
X11991011Y-9721642D02*
X12000535Y-9712118D01*
X12000535Y-9712118D02*
X12019583Y-9702594D01*
X12171964Y-9883546D02*
X12181487Y-9893070D01*
X12181487Y-9893070D02*
X12171964Y-9902594D01*
X12171964Y-9902594D02*
X12162440Y-9893070D01*
X12162440Y-9893070D02*
X12171964Y-9883546D01*
X12171964Y-9883546D02*
X12171964Y-9902594D01*
X12305297Y-9702594D02*
X12324345Y-9702594D01*
X12324345Y-9702594D02*
X12343392Y-9712118D01*
X12343392Y-9712118D02*
X12352916Y-9721642D01*
X12352916Y-9721642D02*
X12362440Y-9740689D01*
X12362440Y-9740689D02*
X12371964Y-9778784D01*
X12371964Y-9778784D02*
X12371964Y-9826404D01*
X12371964Y-9826404D02*
X12362440Y-9864499D01*
X12362440Y-9864499D02*
X12352916Y-9883546D01*
X12352916Y-9883546D02*
X12343392Y-9893070D01*
X12343392Y-9893070D02*
X12324345Y-9902594D01*
X12324345Y-9902594D02*
X12305297Y-9902594D01*
X12305297Y-9902594D02*
X12286249Y-9893070D01*
X12286249Y-9893070D02*
X12276726Y-9883546D01*
X12276726Y-9883546D02*
X12267202Y-9864499D01*
X12267202Y-9864499D02*
X12257678Y-9826404D01*
X12257678Y-9826404D02*
X12257678Y-9778784D01*
X12257678Y-9778784D02*
X12267202Y-9740689D01*
X12267202Y-9740689D02*
X12276726Y-9721642D01*
X12276726Y-9721642D02*
X12286249Y-9712118D01*
X12286249Y-9712118D02*
X12305297Y-9702594D01*
X12438630Y-9702594D02*
X12562440Y-9702594D01*
X12562440Y-9702594D02*
X12495773Y-9778784D01*
X12495773Y-9778784D02*
X12524345Y-9778784D01*
X12524345Y-9778784D02*
X12543392Y-9788308D01*
X12543392Y-9788308D02*
X12552916Y-9797832D01*
X12552916Y-9797832D02*
X12562440Y-9816880D01*
X12562440Y-9816880D02*
X12562440Y-9864499D01*
X12562440Y-9864499D02*
X12552916Y-9883546D01*
X12552916Y-9883546D02*
X12543392Y-9893070D01*
X12543392Y-9893070D02*
X12524345Y-9902594D01*
X12524345Y-9902594D02*
X12467202Y-9902594D01*
X12467202Y-9902594D02*
X12448154Y-9893070D01*
X12448154Y-9893070D02*
X12438630Y-9883546D01*
X12629107Y-9702594D02*
X12752916Y-9702594D01*
X12752916Y-9702594D02*
X12686249Y-9778784D01*
X12686249Y-9778784D02*
X12714821Y-9778784D01*
X12714821Y-9778784D02*
X12733868Y-9788308D01*
X12733868Y-9788308D02*
X12743392Y-9797832D01*
X12743392Y-9797832D02*
X12752916Y-9816880D01*
X12752916Y-9816880D02*
X12752916Y-9864499D01*
X12752916Y-9864499D02*
X12743392Y-9883546D01*
X12743392Y-9883546D02*
X12733868Y-9893070D01*
X12733868Y-9893070D02*
X12714821Y-9902594D01*
X12714821Y-9902594D02*
X12657678Y-9902594D01*
X12657678Y-9902594D02*
X12638630Y-9893070D01*
X12638630Y-9893070D02*
X12629107Y-9883546D01*
X12933868Y-9702594D02*
X12838630Y-9702594D01*
X12838630Y-9702594D02*
X12829107Y-9797832D01*
X12829107Y-9797832D02*
X12838630Y-9788308D01*
X12838630Y-9788308D02*
X12857678Y-9778784D01*
X12857678Y-9778784D02*
X12905297Y-9778784D01*
X12905297Y-9778784D02*
X12924345Y-9788308D01*
X12924345Y-9788308D02*
X12933868Y-9797832D01*
X12933868Y-9797832D02*
X12943392Y-9816880D01*
X12943392Y-9816880D02*
X12943392Y-9864499D01*
X12943392Y-9864499D02*
X12933868Y-9883546D01*
X12933868Y-9883546D02*
X12924345Y-9893070D01*
X12924345Y-9893070D02*
X12905297Y-9902594D01*
X12905297Y-9902594D02*
X12857678Y-9902594D01*
X12857678Y-9902594D02*
X12838630Y-9893070D01*
X12838630Y-9893070D02*
X12829107Y-9883546D01*
X13019583Y-9702594D02*
X13019583Y-9740689D01*
X13095773Y-9702594D02*
X13095773Y-9740689D01*
X13391011Y-9978784D02*
X13381488Y-9969261D01*
X13381488Y-9969261D02*
X13362440Y-9940689D01*
X13362440Y-9940689D02*
X13352916Y-9921642D01*
X13352916Y-9921642D02*
X13343392Y-9893070D01*
X13343392Y-9893070D02*
X13333869Y-9845451D01*
X13333869Y-9845451D02*
X13333869Y-9807356D01*
X13333869Y-9807356D02*
X13343392Y-9759737D01*
X13343392Y-9759737D02*
X13352916Y-9731165D01*
X13352916Y-9731165D02*
X13362440Y-9712118D01*
X13362440Y-9712118D02*
X13381488Y-9683546D01*
X13381488Y-9683546D02*
X13391011Y-9674023D01*
X13457678Y-9721642D02*
X13467202Y-9712118D01*
X13467202Y-9712118D02*
X13486249Y-9702594D01*
X13486249Y-9702594D02*
X13533869Y-9702594D01*
X13533869Y-9702594D02*
X13552916Y-9712118D01*
X13552916Y-9712118D02*
X13562440Y-9721642D01*
X13562440Y-9721642D02*
X13571964Y-9740689D01*
X13571964Y-9740689D02*
X13571964Y-9759737D01*
X13571964Y-9759737D02*
X13562440Y-9788308D01*
X13562440Y-9788308D02*
X13448154Y-9902594D01*
X13448154Y-9902594D02*
X13571964Y-9902594D01*
X13810059Y-9902594D02*
X13810059Y-9702594D01*
X13895773Y-9902594D02*
X13895773Y-9797832D01*
X13895773Y-9797832D02*
X13886250Y-9778784D01*
X13886250Y-9778784D02*
X13867202Y-9769261D01*
X13867202Y-9769261D02*
X13838630Y-9769261D01*
X13838630Y-9769261D02*
X13819583Y-9778784D01*
X13819583Y-9778784D02*
X13810059Y-9788308D01*
X14019583Y-9902594D02*
X14000535Y-9893070D01*
X14000535Y-9893070D02*
X13991011Y-9883546D01*
X13991011Y-9883546D02*
X13981488Y-9864499D01*
X13981488Y-9864499D02*
X13981488Y-9807356D01*
X13981488Y-9807356D02*
X13991011Y-9788308D01*
X13991011Y-9788308D02*
X14000535Y-9778784D01*
X14000535Y-9778784D02*
X14019583Y-9769261D01*
X14019583Y-9769261D02*
X14048154Y-9769261D01*
X14048154Y-9769261D02*
X14067202Y-9778784D01*
X14067202Y-9778784D02*
X14076726Y-9788308D01*
X14076726Y-9788308D02*
X14086250Y-9807356D01*
X14086250Y-9807356D02*
X14086250Y-9864499D01*
X14086250Y-9864499D02*
X14076726Y-9883546D01*
X14076726Y-9883546D02*
X14067202Y-9893070D01*
X14067202Y-9893070D02*
X14048154Y-9902594D01*
X14048154Y-9902594D02*
X14019583Y-9902594D01*
X14200535Y-9902594D02*
X14181488Y-9893070D01*
X14181488Y-9893070D02*
X14171964Y-9874023D01*
X14171964Y-9874023D02*
X14171964Y-9702594D01*
X14352916Y-9893070D02*
X14333869Y-9902594D01*
X14333869Y-9902594D02*
X14295773Y-9902594D01*
X14295773Y-9902594D02*
X14276726Y-9893070D01*
X14276726Y-9893070D02*
X14267202Y-9874023D01*
X14267202Y-9874023D02*
X14267202Y-9797832D01*
X14267202Y-9797832D02*
X14276726Y-9778784D01*
X14276726Y-9778784D02*
X14295773Y-9769261D01*
X14295773Y-9769261D02*
X14333869Y-9769261D01*
X14333869Y-9769261D02*
X14352916Y-9778784D01*
X14352916Y-9778784D02*
X14362440Y-9797832D01*
X14362440Y-9797832D02*
X14362440Y-9816880D01*
X14362440Y-9816880D02*
X14267202Y-9835927D01*
X14438631Y-9893070D02*
X14457678Y-9902594D01*
X14457678Y-9902594D02*
X14495773Y-9902594D01*
X14495773Y-9902594D02*
X14514821Y-9893070D01*
X14514821Y-9893070D02*
X14524345Y-9874023D01*
X14524345Y-9874023D02*
X14524345Y-9864499D01*
X14524345Y-9864499D02*
X14514821Y-9845451D01*
X14514821Y-9845451D02*
X14495773Y-9835927D01*
X14495773Y-9835927D02*
X14467202Y-9835927D01*
X14467202Y-9835927D02*
X14448154Y-9826404D01*
X14448154Y-9826404D02*
X14438631Y-9807356D01*
X14438631Y-9807356D02*
X14438631Y-9797832D01*
X14438631Y-9797832D02*
X14448154Y-9778784D01*
X14448154Y-9778784D02*
X14467202Y-9769261D01*
X14467202Y-9769261D02*
X14495773Y-9769261D01*
X14495773Y-9769261D02*
X14514821Y-9778784D01*
X14591012Y-9978784D02*
X14600535Y-9969261D01*
X14600535Y-9969261D02*
X14619583Y-9940689D01*
X14619583Y-9940689D02*
X14629107Y-9921642D01*
X14629107Y-9921642D02*
X14638631Y-9893070D01*
X14638631Y-9893070D02*
X14648154Y-9845451D01*
X14648154Y-9845451D02*
X14648154Y-9807356D01*
X14648154Y-9807356D02*
X14638631Y-9759737D01*
X14638631Y-9759737D02*
X14629107Y-9731165D01*
X14629107Y-9731165D02*
X14619583Y-9712118D01*
X14619583Y-9712118D02*
X14600535Y-9683546D01*
X14600535Y-9683546D02*
X14591012Y-9674023D01*
D17*
X9715949Y-10025110D02*
X9815949Y-10125110D01*
X9815949Y-10025110D02*
X9715949Y-10125110D01*
X9765949Y-10025110D02*
X9765949Y-10125110D01*
X9715949Y-10075110D02*
X9815949Y-10075110D01*
D10*
X10181487Y-10166594D02*
X10067202Y-10166594D01*
X10124344Y-10166594D02*
X10124344Y-9966594D01*
X10124344Y-9966594D02*
X10105297Y-9995165D01*
X10105297Y-9995165D02*
X10086249Y-10014213D01*
X10086249Y-10014213D02*
X10067202Y-10023737D01*
X10267202Y-10147546D02*
X10276725Y-10157070D01*
X10276725Y-10157070D02*
X10267202Y-10166594D01*
X10267202Y-10166594D02*
X10257678Y-10157070D01*
X10257678Y-10157070D02*
X10267202Y-10147546D01*
X10267202Y-10147546D02*
X10267202Y-10166594D01*
X10400535Y-9966594D02*
X10419583Y-9966594D01*
X10419583Y-9966594D02*
X10438630Y-9976118D01*
X10438630Y-9976118D02*
X10448154Y-9985642D01*
X10448154Y-9985642D02*
X10457678Y-10004689D01*
X10457678Y-10004689D02*
X10467202Y-10042784D01*
X10467202Y-10042784D02*
X10467202Y-10090404D01*
X10467202Y-10090404D02*
X10457678Y-10128499D01*
X10457678Y-10128499D02*
X10448154Y-10147546D01*
X10448154Y-10147546D02*
X10438630Y-10157070D01*
X10438630Y-10157070D02*
X10419583Y-10166594D01*
X10419583Y-10166594D02*
X10400535Y-10166594D01*
X10400535Y-10166594D02*
X10381487Y-10157070D01*
X10381487Y-10157070D02*
X10371964Y-10147546D01*
X10371964Y-10147546D02*
X10362440Y-10128499D01*
X10362440Y-10128499D02*
X10352916Y-10090404D01*
X10352916Y-10090404D02*
X10352916Y-10042784D01*
X10352916Y-10042784D02*
X10362440Y-10004689D01*
X10362440Y-10004689D02*
X10371964Y-9985642D01*
X10371964Y-9985642D02*
X10381487Y-9976118D01*
X10381487Y-9976118D02*
X10400535Y-9966594D01*
X10591011Y-9966594D02*
X10610059Y-9966594D01*
X10610059Y-9966594D02*
X10629106Y-9976118D01*
X10629106Y-9976118D02*
X10638630Y-9985642D01*
X10638630Y-9985642D02*
X10648154Y-10004689D01*
X10648154Y-10004689D02*
X10657678Y-10042784D01*
X10657678Y-10042784D02*
X10657678Y-10090404D01*
X10657678Y-10090404D02*
X10648154Y-10128499D01*
X10648154Y-10128499D02*
X10638630Y-10147546D01*
X10638630Y-10147546D02*
X10629106Y-10157070D01*
X10629106Y-10157070D02*
X10610059Y-10166594D01*
X10610059Y-10166594D02*
X10591011Y-10166594D01*
X10591011Y-10166594D02*
X10571964Y-10157070D01*
X10571964Y-10157070D02*
X10562440Y-10147546D01*
X10562440Y-10147546D02*
X10552916Y-10128499D01*
X10552916Y-10128499D02*
X10543392Y-10090404D01*
X10543392Y-10090404D02*
X10543392Y-10042784D01*
X10543392Y-10042784D02*
X10552916Y-10004689D01*
X10552916Y-10004689D02*
X10562440Y-9985642D01*
X10562440Y-9985642D02*
X10571964Y-9976118D01*
X10571964Y-9976118D02*
X10591011Y-9966594D01*
X10781487Y-9966594D02*
X10800535Y-9966594D01*
X10800535Y-9966594D02*
X10819583Y-9976118D01*
X10819583Y-9976118D02*
X10829106Y-9985642D01*
X10829106Y-9985642D02*
X10838630Y-10004689D01*
X10838630Y-10004689D02*
X10848154Y-10042784D01*
X10848154Y-10042784D02*
X10848154Y-10090404D01*
X10848154Y-10090404D02*
X10838630Y-10128499D01*
X10838630Y-10128499D02*
X10829106Y-10147546D01*
X10829106Y-10147546D02*
X10819583Y-10157070D01*
X10819583Y-10157070D02*
X10800535Y-10166594D01*
X10800535Y-10166594D02*
X10781487Y-10166594D01*
X10781487Y-10166594D02*
X10762440Y-10157070D01*
X10762440Y-10157070D02*
X10752916Y-10147546D01*
X10752916Y-10147546D02*
X10743392Y-10128499D01*
X10743392Y-10128499D02*
X10733868Y-10090404D01*
X10733868Y-10090404D02*
X10733868Y-10042784D01*
X10733868Y-10042784D02*
X10743392Y-10004689D01*
X10743392Y-10004689D02*
X10752916Y-9985642D01*
X10752916Y-9985642D02*
X10762440Y-9976118D01*
X10762440Y-9976118D02*
X10781487Y-9966594D01*
X10933868Y-10166594D02*
X10933868Y-10033261D01*
X10933868Y-10052308D02*
X10943392Y-10042784D01*
X10943392Y-10042784D02*
X10962440Y-10033261D01*
X10962440Y-10033261D02*
X10991011Y-10033261D01*
X10991011Y-10033261D02*
X11010059Y-10042784D01*
X11010059Y-10042784D02*
X11019583Y-10061832D01*
X11019583Y-10061832D02*
X11019583Y-10166594D01*
X11019583Y-10061832D02*
X11029106Y-10042784D01*
X11029106Y-10042784D02*
X11048154Y-10033261D01*
X11048154Y-10033261D02*
X11076725Y-10033261D01*
X11076725Y-10033261D02*
X11095773Y-10042784D01*
X11095773Y-10042784D02*
X11105297Y-10061832D01*
X11105297Y-10061832D02*
X11105297Y-10166594D01*
X11200535Y-10166594D02*
X11200535Y-10033261D01*
X11200535Y-10052308D02*
X11210059Y-10042784D01*
X11210059Y-10042784D02*
X11229106Y-10033261D01*
X11229106Y-10033261D02*
X11257678Y-10033261D01*
X11257678Y-10033261D02*
X11276725Y-10042784D01*
X11276725Y-10042784D02*
X11286249Y-10061832D01*
X11286249Y-10061832D02*
X11286249Y-10166594D01*
X11286249Y-10061832D02*
X11295773Y-10042784D01*
X11295773Y-10042784D02*
X11314821Y-10033261D01*
X11314821Y-10033261D02*
X11343392Y-10033261D01*
X11343392Y-10033261D02*
X11362440Y-10042784D01*
X11362440Y-10042784D02*
X11371964Y-10061832D01*
X11371964Y-10061832D02*
X11371964Y-10166594D01*
X11762440Y-9957070D02*
X11591011Y-10214213D01*
X12019583Y-9966594D02*
X12038630Y-9966594D01*
X12038630Y-9966594D02*
X12057678Y-9976118D01*
X12057678Y-9976118D02*
X12067202Y-9985642D01*
X12067202Y-9985642D02*
X12076726Y-10004689D01*
X12076726Y-10004689D02*
X12086249Y-10042784D01*
X12086249Y-10042784D02*
X12086249Y-10090404D01*
X12086249Y-10090404D02*
X12076726Y-10128499D01*
X12076726Y-10128499D02*
X12067202Y-10147546D01*
X12067202Y-10147546D02*
X12057678Y-10157070D01*
X12057678Y-10157070D02*
X12038630Y-10166594D01*
X12038630Y-10166594D02*
X12019583Y-10166594D01*
X12019583Y-10166594D02*
X12000535Y-10157070D01*
X12000535Y-10157070D02*
X11991011Y-10147546D01*
X11991011Y-10147546D02*
X11981487Y-10128499D01*
X11981487Y-10128499D02*
X11971964Y-10090404D01*
X11971964Y-10090404D02*
X11971964Y-10042784D01*
X11971964Y-10042784D02*
X11981487Y-10004689D01*
X11981487Y-10004689D02*
X11991011Y-9985642D01*
X11991011Y-9985642D02*
X12000535Y-9976118D01*
X12000535Y-9976118D02*
X12019583Y-9966594D01*
X12171964Y-10147546D02*
X12181487Y-10157070D01*
X12181487Y-10157070D02*
X12171964Y-10166594D01*
X12171964Y-10166594D02*
X12162440Y-10157070D01*
X12162440Y-10157070D02*
X12171964Y-10147546D01*
X12171964Y-10147546D02*
X12171964Y-10166594D01*
X12305297Y-9966594D02*
X12324345Y-9966594D01*
X12324345Y-9966594D02*
X12343392Y-9976118D01*
X12343392Y-9976118D02*
X12352916Y-9985642D01*
X12352916Y-9985642D02*
X12362440Y-10004689D01*
X12362440Y-10004689D02*
X12371964Y-10042784D01*
X12371964Y-10042784D02*
X12371964Y-10090404D01*
X12371964Y-10090404D02*
X12362440Y-10128499D01*
X12362440Y-10128499D02*
X12352916Y-10147546D01*
X12352916Y-10147546D02*
X12343392Y-10157070D01*
X12343392Y-10157070D02*
X12324345Y-10166594D01*
X12324345Y-10166594D02*
X12305297Y-10166594D01*
X12305297Y-10166594D02*
X12286249Y-10157070D01*
X12286249Y-10157070D02*
X12276726Y-10147546D01*
X12276726Y-10147546D02*
X12267202Y-10128499D01*
X12267202Y-10128499D02*
X12257678Y-10090404D01*
X12257678Y-10090404D02*
X12257678Y-10042784D01*
X12257678Y-10042784D02*
X12267202Y-10004689D01*
X12267202Y-10004689D02*
X12276726Y-9985642D01*
X12276726Y-9985642D02*
X12286249Y-9976118D01*
X12286249Y-9976118D02*
X12305297Y-9966594D01*
X12438630Y-9966594D02*
X12562440Y-9966594D01*
X12562440Y-9966594D02*
X12495773Y-10042784D01*
X12495773Y-10042784D02*
X12524345Y-10042784D01*
X12524345Y-10042784D02*
X12543392Y-10052308D01*
X12543392Y-10052308D02*
X12552916Y-10061832D01*
X12552916Y-10061832D02*
X12562440Y-10080880D01*
X12562440Y-10080880D02*
X12562440Y-10128499D01*
X12562440Y-10128499D02*
X12552916Y-10147546D01*
X12552916Y-10147546D02*
X12543392Y-10157070D01*
X12543392Y-10157070D02*
X12524345Y-10166594D01*
X12524345Y-10166594D02*
X12467202Y-10166594D01*
X12467202Y-10166594D02*
X12448154Y-10157070D01*
X12448154Y-10157070D02*
X12438630Y-10147546D01*
X12657678Y-10166594D02*
X12695773Y-10166594D01*
X12695773Y-10166594D02*
X12714821Y-10157070D01*
X12714821Y-10157070D02*
X12724345Y-10147546D01*
X12724345Y-10147546D02*
X12743392Y-10118975D01*
X12743392Y-10118975D02*
X12752916Y-10080880D01*
X12752916Y-10080880D02*
X12752916Y-10004689D01*
X12752916Y-10004689D02*
X12743392Y-9985642D01*
X12743392Y-9985642D02*
X12733868Y-9976118D01*
X12733868Y-9976118D02*
X12714821Y-9966594D01*
X12714821Y-9966594D02*
X12676726Y-9966594D01*
X12676726Y-9966594D02*
X12657678Y-9976118D01*
X12657678Y-9976118D02*
X12648154Y-9985642D01*
X12648154Y-9985642D02*
X12638630Y-10004689D01*
X12638630Y-10004689D02*
X12638630Y-10052308D01*
X12638630Y-10052308D02*
X12648154Y-10071356D01*
X12648154Y-10071356D02*
X12657678Y-10080880D01*
X12657678Y-10080880D02*
X12676726Y-10090404D01*
X12676726Y-10090404D02*
X12714821Y-10090404D01*
X12714821Y-10090404D02*
X12733868Y-10080880D01*
X12733868Y-10080880D02*
X12743392Y-10071356D01*
X12743392Y-10071356D02*
X12752916Y-10052308D01*
X12924345Y-10033261D02*
X12924345Y-10166594D01*
X12876726Y-9957070D02*
X12829107Y-10099927D01*
X12829107Y-10099927D02*
X12952916Y-10099927D01*
X13019583Y-9966594D02*
X13019583Y-10004689D01*
X13095773Y-9966594D02*
X13095773Y-10004689D01*
X13391011Y-10242784D02*
X13381488Y-10233261D01*
X13381488Y-10233261D02*
X13362440Y-10204689D01*
X13362440Y-10204689D02*
X13352916Y-10185642D01*
X13352916Y-10185642D02*
X13343392Y-10157070D01*
X13343392Y-10157070D02*
X13333869Y-10109451D01*
X13333869Y-10109451D02*
X13333869Y-10071356D01*
X13333869Y-10071356D02*
X13343392Y-10023737D01*
X13343392Y-10023737D02*
X13352916Y-9995165D01*
X13352916Y-9995165D02*
X13362440Y-9976118D01*
X13362440Y-9976118D02*
X13381488Y-9947546D01*
X13381488Y-9947546D02*
X13391011Y-9938023D01*
X13457678Y-9985642D02*
X13467202Y-9976118D01*
X13467202Y-9976118D02*
X13486249Y-9966594D01*
X13486249Y-9966594D02*
X13533869Y-9966594D01*
X13533869Y-9966594D02*
X13552916Y-9976118D01*
X13552916Y-9976118D02*
X13562440Y-9985642D01*
X13562440Y-9985642D02*
X13571964Y-10004689D01*
X13571964Y-10004689D02*
X13571964Y-10023737D01*
X13571964Y-10023737D02*
X13562440Y-10052308D01*
X13562440Y-10052308D02*
X13448154Y-10166594D01*
X13448154Y-10166594D02*
X13571964Y-10166594D01*
X13810059Y-10166594D02*
X13810059Y-9966594D01*
X13895773Y-10166594D02*
X13895773Y-10061832D01*
X13895773Y-10061832D02*
X13886250Y-10042784D01*
X13886250Y-10042784D02*
X13867202Y-10033261D01*
X13867202Y-10033261D02*
X13838630Y-10033261D01*
X13838630Y-10033261D02*
X13819583Y-10042784D01*
X13819583Y-10042784D02*
X13810059Y-10052308D01*
X14019583Y-10166594D02*
X14000535Y-10157070D01*
X14000535Y-10157070D02*
X13991011Y-10147546D01*
X13991011Y-10147546D02*
X13981488Y-10128499D01*
X13981488Y-10128499D02*
X13981488Y-10071356D01*
X13981488Y-10071356D02*
X13991011Y-10052308D01*
X13991011Y-10052308D02*
X14000535Y-10042784D01*
X14000535Y-10042784D02*
X14019583Y-10033261D01*
X14019583Y-10033261D02*
X14048154Y-10033261D01*
X14048154Y-10033261D02*
X14067202Y-10042784D01*
X14067202Y-10042784D02*
X14076726Y-10052308D01*
X14076726Y-10052308D02*
X14086250Y-10071356D01*
X14086250Y-10071356D02*
X14086250Y-10128499D01*
X14086250Y-10128499D02*
X14076726Y-10147546D01*
X14076726Y-10147546D02*
X14067202Y-10157070D01*
X14067202Y-10157070D02*
X14048154Y-10166594D01*
X14048154Y-10166594D02*
X14019583Y-10166594D01*
X14200535Y-10166594D02*
X14181488Y-10157070D01*
X14181488Y-10157070D02*
X14171964Y-10138023D01*
X14171964Y-10138023D02*
X14171964Y-9966594D01*
X14352916Y-10157070D02*
X14333869Y-10166594D01*
X14333869Y-10166594D02*
X14295773Y-10166594D01*
X14295773Y-10166594D02*
X14276726Y-10157070D01*
X14276726Y-10157070D02*
X14267202Y-10138023D01*
X14267202Y-10138023D02*
X14267202Y-10061832D01*
X14267202Y-10061832D02*
X14276726Y-10042784D01*
X14276726Y-10042784D02*
X14295773Y-10033261D01*
X14295773Y-10033261D02*
X14333869Y-10033261D01*
X14333869Y-10033261D02*
X14352916Y-10042784D01*
X14352916Y-10042784D02*
X14362440Y-10061832D01*
X14362440Y-10061832D02*
X14362440Y-10080880D01*
X14362440Y-10080880D02*
X14267202Y-10099927D01*
X14438631Y-10157070D02*
X14457678Y-10166594D01*
X14457678Y-10166594D02*
X14495773Y-10166594D01*
X14495773Y-10166594D02*
X14514821Y-10157070D01*
X14514821Y-10157070D02*
X14524345Y-10138023D01*
X14524345Y-10138023D02*
X14524345Y-10128499D01*
X14524345Y-10128499D02*
X14514821Y-10109451D01*
X14514821Y-10109451D02*
X14495773Y-10099927D01*
X14495773Y-10099927D02*
X14467202Y-10099927D01*
X14467202Y-10099927D02*
X14448154Y-10090404D01*
X14448154Y-10090404D02*
X14438631Y-10071356D01*
X14438631Y-10071356D02*
X14438631Y-10061832D01*
X14438631Y-10061832D02*
X14448154Y-10042784D01*
X14448154Y-10042784D02*
X14467202Y-10033261D01*
X14467202Y-10033261D02*
X14495773Y-10033261D01*
X14495773Y-10033261D02*
X14514821Y-10042784D01*
X14591012Y-10242784D02*
X14600535Y-10233261D01*
X14600535Y-10233261D02*
X14619583Y-10204689D01*
X14619583Y-10204689D02*
X14629107Y-10185642D01*
X14629107Y-10185642D02*
X14638631Y-10157070D01*
X14638631Y-10157070D02*
X14648154Y-10109451D01*
X14648154Y-10109451D02*
X14648154Y-10071356D01*
X14648154Y-10071356D02*
X14638631Y-10023737D01*
X14638631Y-10023737D02*
X14629107Y-9995165D01*
X14629107Y-9995165D02*
X14619583Y-9976118D01*
X14619583Y-9976118D02*
X14600535Y-9947546D01*
X14600535Y-9947546D02*
X14591012Y-9938023D01*
D18*
X9713949Y-10288110D02*
X9815949Y-10390110D01*
X9815949Y-10288110D02*
X9713949Y-10390110D01*
X9801011Y-10375173D02*
X9801011Y-10303047D01*
X9728886Y-10303047D01*
X9728886Y-10375173D01*
X9801011Y-10375173D01*
D10*
X10181487Y-10430594D02*
X10067202Y-10430594D01*
X10124344Y-10430594D02*
X10124344Y-10230594D01*
X10124344Y-10230594D02*
X10105297Y-10259165D01*
X10105297Y-10259165D02*
X10086249Y-10278213D01*
X10086249Y-10278213D02*
X10067202Y-10287737D01*
X10267202Y-10411546D02*
X10276725Y-10421070D01*
X10276725Y-10421070D02*
X10267202Y-10430594D01*
X10267202Y-10430594D02*
X10257678Y-10421070D01*
X10257678Y-10421070D02*
X10267202Y-10411546D01*
X10267202Y-10411546D02*
X10267202Y-10430594D01*
X10400535Y-10230594D02*
X10419583Y-10230594D01*
X10419583Y-10230594D02*
X10438630Y-10240118D01*
X10438630Y-10240118D02*
X10448154Y-10249642D01*
X10448154Y-10249642D02*
X10457678Y-10268689D01*
X10457678Y-10268689D02*
X10467202Y-10306784D01*
X10467202Y-10306784D02*
X10467202Y-10354404D01*
X10467202Y-10354404D02*
X10457678Y-10392499D01*
X10457678Y-10392499D02*
X10448154Y-10411546D01*
X10448154Y-10411546D02*
X10438630Y-10421070D01*
X10438630Y-10421070D02*
X10419583Y-10430594D01*
X10419583Y-10430594D02*
X10400535Y-10430594D01*
X10400535Y-10430594D02*
X10381487Y-10421070D01*
X10381487Y-10421070D02*
X10371964Y-10411546D01*
X10371964Y-10411546D02*
X10362440Y-10392499D01*
X10362440Y-10392499D02*
X10352916Y-10354404D01*
X10352916Y-10354404D02*
X10352916Y-10306784D01*
X10352916Y-10306784D02*
X10362440Y-10268689D01*
X10362440Y-10268689D02*
X10371964Y-10249642D01*
X10371964Y-10249642D02*
X10381487Y-10240118D01*
X10381487Y-10240118D02*
X10400535Y-10230594D01*
X10543392Y-10249642D02*
X10552916Y-10240118D01*
X10552916Y-10240118D02*
X10571964Y-10230594D01*
X10571964Y-10230594D02*
X10619583Y-10230594D01*
X10619583Y-10230594D02*
X10638630Y-10240118D01*
X10638630Y-10240118D02*
X10648154Y-10249642D01*
X10648154Y-10249642D02*
X10657678Y-10268689D01*
X10657678Y-10268689D02*
X10657678Y-10287737D01*
X10657678Y-10287737D02*
X10648154Y-10316308D01*
X10648154Y-10316308D02*
X10533868Y-10430594D01*
X10533868Y-10430594D02*
X10657678Y-10430594D01*
X10781487Y-10230594D02*
X10800535Y-10230594D01*
X10800535Y-10230594D02*
X10819583Y-10240118D01*
X10819583Y-10240118D02*
X10829106Y-10249642D01*
X10829106Y-10249642D02*
X10838630Y-10268689D01*
X10838630Y-10268689D02*
X10848154Y-10306784D01*
X10848154Y-10306784D02*
X10848154Y-10354404D01*
X10848154Y-10354404D02*
X10838630Y-10392499D01*
X10838630Y-10392499D02*
X10829106Y-10411546D01*
X10829106Y-10411546D02*
X10819583Y-10421070D01*
X10819583Y-10421070D02*
X10800535Y-10430594D01*
X10800535Y-10430594D02*
X10781487Y-10430594D01*
X10781487Y-10430594D02*
X10762440Y-10421070D01*
X10762440Y-10421070D02*
X10752916Y-10411546D01*
X10752916Y-10411546D02*
X10743392Y-10392499D01*
X10743392Y-10392499D02*
X10733868Y-10354404D01*
X10733868Y-10354404D02*
X10733868Y-10306784D01*
X10733868Y-10306784D02*
X10743392Y-10268689D01*
X10743392Y-10268689D02*
X10752916Y-10249642D01*
X10752916Y-10249642D02*
X10762440Y-10240118D01*
X10762440Y-10240118D02*
X10781487Y-10230594D01*
X10933868Y-10430594D02*
X10933868Y-10297261D01*
X10933868Y-10316308D02*
X10943392Y-10306784D01*
X10943392Y-10306784D02*
X10962440Y-10297261D01*
X10962440Y-10297261D02*
X10991011Y-10297261D01*
X10991011Y-10297261D02*
X11010059Y-10306784D01*
X11010059Y-10306784D02*
X11019583Y-10325832D01*
X11019583Y-10325832D02*
X11019583Y-10430594D01*
X11019583Y-10325832D02*
X11029106Y-10306784D01*
X11029106Y-10306784D02*
X11048154Y-10297261D01*
X11048154Y-10297261D02*
X11076725Y-10297261D01*
X11076725Y-10297261D02*
X11095773Y-10306784D01*
X11095773Y-10306784D02*
X11105297Y-10325832D01*
X11105297Y-10325832D02*
X11105297Y-10430594D01*
X11200535Y-10430594D02*
X11200535Y-10297261D01*
X11200535Y-10316308D02*
X11210059Y-10306784D01*
X11210059Y-10306784D02*
X11229106Y-10297261D01*
X11229106Y-10297261D02*
X11257678Y-10297261D01*
X11257678Y-10297261D02*
X11276725Y-10306784D01*
X11276725Y-10306784D02*
X11286249Y-10325832D01*
X11286249Y-10325832D02*
X11286249Y-10430594D01*
X11286249Y-10325832D02*
X11295773Y-10306784D01*
X11295773Y-10306784D02*
X11314821Y-10297261D01*
X11314821Y-10297261D02*
X11343392Y-10297261D01*
X11343392Y-10297261D02*
X11362440Y-10306784D01*
X11362440Y-10306784D02*
X11371964Y-10325832D01*
X11371964Y-10325832D02*
X11371964Y-10430594D01*
X11762440Y-10221070D02*
X11591011Y-10478213D01*
X12019583Y-10230594D02*
X12038630Y-10230594D01*
X12038630Y-10230594D02*
X12057678Y-10240118D01*
X12057678Y-10240118D02*
X12067202Y-10249642D01*
X12067202Y-10249642D02*
X12076726Y-10268689D01*
X12076726Y-10268689D02*
X12086249Y-10306784D01*
X12086249Y-10306784D02*
X12086249Y-10354404D01*
X12086249Y-10354404D02*
X12076726Y-10392499D01*
X12076726Y-10392499D02*
X12067202Y-10411546D01*
X12067202Y-10411546D02*
X12057678Y-10421070D01*
X12057678Y-10421070D02*
X12038630Y-10430594D01*
X12038630Y-10430594D02*
X12019583Y-10430594D01*
X12019583Y-10430594D02*
X12000535Y-10421070D01*
X12000535Y-10421070D02*
X11991011Y-10411546D01*
X11991011Y-10411546D02*
X11981487Y-10392499D01*
X11981487Y-10392499D02*
X11971964Y-10354404D01*
X11971964Y-10354404D02*
X11971964Y-10306784D01*
X11971964Y-10306784D02*
X11981487Y-10268689D01*
X11981487Y-10268689D02*
X11991011Y-10249642D01*
X11991011Y-10249642D02*
X12000535Y-10240118D01*
X12000535Y-10240118D02*
X12019583Y-10230594D01*
X12171964Y-10411546D02*
X12181487Y-10421070D01*
X12181487Y-10421070D02*
X12171964Y-10430594D01*
X12171964Y-10430594D02*
X12162440Y-10421070D01*
X12162440Y-10421070D02*
X12171964Y-10411546D01*
X12171964Y-10411546D02*
X12171964Y-10430594D01*
X12305297Y-10230594D02*
X12324345Y-10230594D01*
X12324345Y-10230594D02*
X12343392Y-10240118D01*
X12343392Y-10240118D02*
X12352916Y-10249642D01*
X12352916Y-10249642D02*
X12362440Y-10268689D01*
X12362440Y-10268689D02*
X12371964Y-10306784D01*
X12371964Y-10306784D02*
X12371964Y-10354404D01*
X12371964Y-10354404D02*
X12362440Y-10392499D01*
X12362440Y-10392499D02*
X12352916Y-10411546D01*
X12352916Y-10411546D02*
X12343392Y-10421070D01*
X12343392Y-10421070D02*
X12324345Y-10430594D01*
X12324345Y-10430594D02*
X12305297Y-10430594D01*
X12305297Y-10430594D02*
X12286249Y-10421070D01*
X12286249Y-10421070D02*
X12276726Y-10411546D01*
X12276726Y-10411546D02*
X12267202Y-10392499D01*
X12267202Y-10392499D02*
X12257678Y-10354404D01*
X12257678Y-10354404D02*
X12257678Y-10306784D01*
X12257678Y-10306784D02*
X12267202Y-10268689D01*
X12267202Y-10268689D02*
X12276726Y-10249642D01*
X12276726Y-10249642D02*
X12286249Y-10240118D01*
X12286249Y-10240118D02*
X12305297Y-10230594D01*
X12543392Y-10297261D02*
X12543392Y-10430594D01*
X12495773Y-10221070D02*
X12448154Y-10363927D01*
X12448154Y-10363927D02*
X12571964Y-10363927D01*
X12686249Y-10230594D02*
X12705297Y-10230594D01*
X12705297Y-10230594D02*
X12724345Y-10240118D01*
X12724345Y-10240118D02*
X12733868Y-10249642D01*
X12733868Y-10249642D02*
X12743392Y-10268689D01*
X12743392Y-10268689D02*
X12752916Y-10306784D01*
X12752916Y-10306784D02*
X12752916Y-10354404D01*
X12752916Y-10354404D02*
X12743392Y-10392499D01*
X12743392Y-10392499D02*
X12733868Y-10411546D01*
X12733868Y-10411546D02*
X12724345Y-10421070D01*
X12724345Y-10421070D02*
X12705297Y-10430594D01*
X12705297Y-10430594D02*
X12686249Y-10430594D01*
X12686249Y-10430594D02*
X12667202Y-10421070D01*
X12667202Y-10421070D02*
X12657678Y-10411546D01*
X12657678Y-10411546D02*
X12648154Y-10392499D01*
X12648154Y-10392499D02*
X12638630Y-10354404D01*
X12638630Y-10354404D02*
X12638630Y-10306784D01*
X12638630Y-10306784D02*
X12648154Y-10268689D01*
X12648154Y-10268689D02*
X12657678Y-10249642D01*
X12657678Y-10249642D02*
X12667202Y-10240118D01*
X12667202Y-10240118D02*
X12686249Y-10230594D01*
X12829107Y-10249642D02*
X12838630Y-10240118D01*
X12838630Y-10240118D02*
X12857678Y-10230594D01*
X12857678Y-10230594D02*
X12905297Y-10230594D01*
X12905297Y-10230594D02*
X12924345Y-10240118D01*
X12924345Y-10240118D02*
X12933868Y-10249642D01*
X12933868Y-10249642D02*
X12943392Y-10268689D01*
X12943392Y-10268689D02*
X12943392Y-10287737D01*
X12943392Y-10287737D02*
X12933868Y-10316308D01*
X12933868Y-10316308D02*
X12819583Y-10430594D01*
X12819583Y-10430594D02*
X12943392Y-10430594D01*
X13019583Y-10230594D02*
X13019583Y-10268689D01*
X13095773Y-10230594D02*
X13095773Y-10268689D01*
X13391011Y-10506784D02*
X13381488Y-10497261D01*
X13381488Y-10497261D02*
X13362440Y-10468689D01*
X13362440Y-10468689D02*
X13352916Y-10449642D01*
X13352916Y-10449642D02*
X13343392Y-10421070D01*
X13343392Y-10421070D02*
X13333869Y-10373451D01*
X13333869Y-10373451D02*
X13333869Y-10335356D01*
X13333869Y-10335356D02*
X13343392Y-10287737D01*
X13343392Y-10287737D02*
X13352916Y-10259165D01*
X13352916Y-10259165D02*
X13362440Y-10240118D01*
X13362440Y-10240118D02*
X13381488Y-10211546D01*
X13381488Y-10211546D02*
X13391011Y-10202023D01*
X13552916Y-10297261D02*
X13552916Y-10430594D01*
X13505297Y-10221070D02*
X13457678Y-10363927D01*
X13457678Y-10363927D02*
X13581488Y-10363927D01*
X13810059Y-10430594D02*
X13810059Y-10230594D01*
X13895773Y-10430594D02*
X13895773Y-10325832D01*
X13895773Y-10325832D02*
X13886250Y-10306784D01*
X13886250Y-10306784D02*
X13867202Y-10297261D01*
X13867202Y-10297261D02*
X13838630Y-10297261D01*
X13838630Y-10297261D02*
X13819583Y-10306784D01*
X13819583Y-10306784D02*
X13810059Y-10316308D01*
X14019583Y-10430594D02*
X14000535Y-10421070D01*
X14000535Y-10421070D02*
X13991011Y-10411546D01*
X13991011Y-10411546D02*
X13981488Y-10392499D01*
X13981488Y-10392499D02*
X13981488Y-10335356D01*
X13981488Y-10335356D02*
X13991011Y-10316308D01*
X13991011Y-10316308D02*
X14000535Y-10306784D01*
X14000535Y-10306784D02*
X14019583Y-10297261D01*
X14019583Y-10297261D02*
X14048154Y-10297261D01*
X14048154Y-10297261D02*
X14067202Y-10306784D01*
X14067202Y-10306784D02*
X14076726Y-10316308D01*
X14076726Y-10316308D02*
X14086250Y-10335356D01*
X14086250Y-10335356D02*
X14086250Y-10392499D01*
X14086250Y-10392499D02*
X14076726Y-10411546D01*
X14076726Y-10411546D02*
X14067202Y-10421070D01*
X14067202Y-10421070D02*
X14048154Y-10430594D01*
X14048154Y-10430594D02*
X14019583Y-10430594D01*
X14200535Y-10430594D02*
X14181488Y-10421070D01*
X14181488Y-10421070D02*
X14171964Y-10402023D01*
X14171964Y-10402023D02*
X14171964Y-10230594D01*
X14352916Y-10421070D02*
X14333869Y-10430594D01*
X14333869Y-10430594D02*
X14295773Y-10430594D01*
X14295773Y-10430594D02*
X14276726Y-10421070D01*
X14276726Y-10421070D02*
X14267202Y-10402023D01*
X14267202Y-10402023D02*
X14267202Y-10325832D01*
X14267202Y-10325832D02*
X14276726Y-10306784D01*
X14276726Y-10306784D02*
X14295773Y-10297261D01*
X14295773Y-10297261D02*
X14333869Y-10297261D01*
X14333869Y-10297261D02*
X14352916Y-10306784D01*
X14352916Y-10306784D02*
X14362440Y-10325832D01*
X14362440Y-10325832D02*
X14362440Y-10344880D01*
X14362440Y-10344880D02*
X14267202Y-10363927D01*
X14438631Y-10421070D02*
X14457678Y-10430594D01*
X14457678Y-10430594D02*
X14495773Y-10430594D01*
X14495773Y-10430594D02*
X14514821Y-10421070D01*
X14514821Y-10421070D02*
X14524345Y-10402023D01*
X14524345Y-10402023D02*
X14524345Y-10392499D01*
X14524345Y-10392499D02*
X14514821Y-10373451D01*
X14514821Y-10373451D02*
X14495773Y-10363927D01*
X14495773Y-10363927D02*
X14467202Y-10363927D01*
X14467202Y-10363927D02*
X14448154Y-10354404D01*
X14448154Y-10354404D02*
X14438631Y-10335356D01*
X14438631Y-10335356D02*
X14438631Y-10325832D01*
X14438631Y-10325832D02*
X14448154Y-10306784D01*
X14448154Y-10306784D02*
X14467202Y-10297261D01*
X14467202Y-10297261D02*
X14495773Y-10297261D01*
X14495773Y-10297261D02*
X14514821Y-10306784D01*
X14591012Y-10506784D02*
X14600535Y-10497261D01*
X14600535Y-10497261D02*
X14619583Y-10468689D01*
X14619583Y-10468689D02*
X14629107Y-10449642D01*
X14629107Y-10449642D02*
X14638631Y-10421070D01*
X14638631Y-10421070D02*
X14648154Y-10373451D01*
X14648154Y-10373451D02*
X14648154Y-10335356D01*
X14648154Y-10335356D02*
X14638631Y-10287737D01*
X14638631Y-10287737D02*
X14629107Y-10259165D01*
X14629107Y-10259165D02*
X14619583Y-10240118D01*
X14619583Y-10240118D02*
X14600535Y-10211546D01*
X14600535Y-10211546D02*
X14591012Y-10202023D01*
D19*
X9695949Y-10543110D02*
X9815949Y-10663110D01*
X9815949Y-10543110D02*
X9695949Y-10663110D01*
X9755949Y-10663110D02*
X9815949Y-10603110D01*
X9755949Y-10543110D01*
X9695949Y-10603110D01*
X9755949Y-10663110D01*
D10*
X10181487Y-10694594D02*
X10067202Y-10694594D01*
X10124344Y-10694594D02*
X10124344Y-10494594D01*
X10124344Y-10494594D02*
X10105297Y-10523165D01*
X10105297Y-10523165D02*
X10086249Y-10542213D01*
X10086249Y-10542213D02*
X10067202Y-10551737D01*
X10267202Y-10675546D02*
X10276725Y-10685070D01*
X10276725Y-10685070D02*
X10267202Y-10694594D01*
X10267202Y-10694594D02*
X10257678Y-10685070D01*
X10257678Y-10685070D02*
X10267202Y-10675546D01*
X10267202Y-10675546D02*
X10267202Y-10694594D01*
X10352916Y-10513642D02*
X10362440Y-10504118D01*
X10362440Y-10504118D02*
X10381487Y-10494594D01*
X10381487Y-10494594D02*
X10429106Y-10494594D01*
X10429106Y-10494594D02*
X10448154Y-10504118D01*
X10448154Y-10504118D02*
X10457678Y-10513642D01*
X10457678Y-10513642D02*
X10467202Y-10532689D01*
X10467202Y-10532689D02*
X10467202Y-10551737D01*
X10467202Y-10551737D02*
X10457678Y-10580308D01*
X10457678Y-10580308D02*
X10343392Y-10694594D01*
X10343392Y-10694594D02*
X10467202Y-10694594D01*
X10591011Y-10494594D02*
X10610059Y-10494594D01*
X10610059Y-10494594D02*
X10629106Y-10504118D01*
X10629106Y-10504118D02*
X10638630Y-10513642D01*
X10638630Y-10513642D02*
X10648154Y-10532689D01*
X10648154Y-10532689D02*
X10657678Y-10570784D01*
X10657678Y-10570784D02*
X10657678Y-10618404D01*
X10657678Y-10618404D02*
X10648154Y-10656499D01*
X10648154Y-10656499D02*
X10638630Y-10675546D01*
X10638630Y-10675546D02*
X10629106Y-10685070D01*
X10629106Y-10685070D02*
X10610059Y-10694594D01*
X10610059Y-10694594D02*
X10591011Y-10694594D01*
X10591011Y-10694594D02*
X10571964Y-10685070D01*
X10571964Y-10685070D02*
X10562440Y-10675546D01*
X10562440Y-10675546D02*
X10552916Y-10656499D01*
X10552916Y-10656499D02*
X10543392Y-10618404D01*
X10543392Y-10618404D02*
X10543392Y-10570784D01*
X10543392Y-10570784D02*
X10552916Y-10532689D01*
X10552916Y-10532689D02*
X10562440Y-10513642D01*
X10562440Y-10513642D02*
X10571964Y-10504118D01*
X10571964Y-10504118D02*
X10591011Y-10494594D01*
X10781487Y-10494594D02*
X10800535Y-10494594D01*
X10800535Y-10494594D02*
X10819583Y-10504118D01*
X10819583Y-10504118D02*
X10829106Y-10513642D01*
X10829106Y-10513642D02*
X10838630Y-10532689D01*
X10838630Y-10532689D02*
X10848154Y-10570784D01*
X10848154Y-10570784D02*
X10848154Y-10618404D01*
X10848154Y-10618404D02*
X10838630Y-10656499D01*
X10838630Y-10656499D02*
X10829106Y-10675546D01*
X10829106Y-10675546D02*
X10819583Y-10685070D01*
X10819583Y-10685070D02*
X10800535Y-10694594D01*
X10800535Y-10694594D02*
X10781487Y-10694594D01*
X10781487Y-10694594D02*
X10762440Y-10685070D01*
X10762440Y-10685070D02*
X10752916Y-10675546D01*
X10752916Y-10675546D02*
X10743392Y-10656499D01*
X10743392Y-10656499D02*
X10733868Y-10618404D01*
X10733868Y-10618404D02*
X10733868Y-10570784D01*
X10733868Y-10570784D02*
X10743392Y-10532689D01*
X10743392Y-10532689D02*
X10752916Y-10513642D01*
X10752916Y-10513642D02*
X10762440Y-10504118D01*
X10762440Y-10504118D02*
X10781487Y-10494594D01*
X10933868Y-10694594D02*
X10933868Y-10561261D01*
X10933868Y-10580308D02*
X10943392Y-10570784D01*
X10943392Y-10570784D02*
X10962440Y-10561261D01*
X10962440Y-10561261D02*
X10991011Y-10561261D01*
X10991011Y-10561261D02*
X11010059Y-10570784D01*
X11010059Y-10570784D02*
X11019583Y-10589832D01*
X11019583Y-10589832D02*
X11019583Y-10694594D01*
X11019583Y-10589832D02*
X11029106Y-10570784D01*
X11029106Y-10570784D02*
X11048154Y-10561261D01*
X11048154Y-10561261D02*
X11076725Y-10561261D01*
X11076725Y-10561261D02*
X11095773Y-10570784D01*
X11095773Y-10570784D02*
X11105297Y-10589832D01*
X11105297Y-10589832D02*
X11105297Y-10694594D01*
X11200535Y-10694594D02*
X11200535Y-10561261D01*
X11200535Y-10580308D02*
X11210059Y-10570784D01*
X11210059Y-10570784D02*
X11229106Y-10561261D01*
X11229106Y-10561261D02*
X11257678Y-10561261D01*
X11257678Y-10561261D02*
X11276725Y-10570784D01*
X11276725Y-10570784D02*
X11286249Y-10589832D01*
X11286249Y-10589832D02*
X11286249Y-10694594D01*
X11286249Y-10589832D02*
X11295773Y-10570784D01*
X11295773Y-10570784D02*
X11314821Y-10561261D01*
X11314821Y-10561261D02*
X11343392Y-10561261D01*
X11343392Y-10561261D02*
X11362440Y-10570784D01*
X11362440Y-10570784D02*
X11371964Y-10589832D01*
X11371964Y-10589832D02*
X11371964Y-10694594D01*
X11762440Y-10485070D02*
X11591011Y-10742213D01*
X12019583Y-10494594D02*
X12038630Y-10494594D01*
X12038630Y-10494594D02*
X12057678Y-10504118D01*
X12057678Y-10504118D02*
X12067202Y-10513642D01*
X12067202Y-10513642D02*
X12076726Y-10532689D01*
X12076726Y-10532689D02*
X12086249Y-10570784D01*
X12086249Y-10570784D02*
X12086249Y-10618404D01*
X12086249Y-10618404D02*
X12076726Y-10656499D01*
X12076726Y-10656499D02*
X12067202Y-10675546D01*
X12067202Y-10675546D02*
X12057678Y-10685070D01*
X12057678Y-10685070D02*
X12038630Y-10694594D01*
X12038630Y-10694594D02*
X12019583Y-10694594D01*
X12019583Y-10694594D02*
X12000535Y-10685070D01*
X12000535Y-10685070D02*
X11991011Y-10675546D01*
X11991011Y-10675546D02*
X11981487Y-10656499D01*
X11981487Y-10656499D02*
X11971964Y-10618404D01*
X11971964Y-10618404D02*
X11971964Y-10570784D01*
X11971964Y-10570784D02*
X11981487Y-10532689D01*
X11981487Y-10532689D02*
X11991011Y-10513642D01*
X11991011Y-10513642D02*
X12000535Y-10504118D01*
X12000535Y-10504118D02*
X12019583Y-10494594D01*
X12171964Y-10675546D02*
X12181487Y-10685070D01*
X12181487Y-10685070D02*
X12171964Y-10694594D01*
X12171964Y-10694594D02*
X12162440Y-10685070D01*
X12162440Y-10685070D02*
X12171964Y-10675546D01*
X12171964Y-10675546D02*
X12171964Y-10694594D01*
X12305297Y-10494594D02*
X12324345Y-10494594D01*
X12324345Y-10494594D02*
X12343392Y-10504118D01*
X12343392Y-10504118D02*
X12352916Y-10513642D01*
X12352916Y-10513642D02*
X12362440Y-10532689D01*
X12362440Y-10532689D02*
X12371964Y-10570784D01*
X12371964Y-10570784D02*
X12371964Y-10618404D01*
X12371964Y-10618404D02*
X12362440Y-10656499D01*
X12362440Y-10656499D02*
X12352916Y-10675546D01*
X12352916Y-10675546D02*
X12343392Y-10685070D01*
X12343392Y-10685070D02*
X12324345Y-10694594D01*
X12324345Y-10694594D02*
X12305297Y-10694594D01*
X12305297Y-10694594D02*
X12286249Y-10685070D01*
X12286249Y-10685070D02*
X12276726Y-10675546D01*
X12276726Y-10675546D02*
X12267202Y-10656499D01*
X12267202Y-10656499D02*
X12257678Y-10618404D01*
X12257678Y-10618404D02*
X12257678Y-10570784D01*
X12257678Y-10570784D02*
X12267202Y-10532689D01*
X12267202Y-10532689D02*
X12276726Y-10513642D01*
X12276726Y-10513642D02*
X12286249Y-10504118D01*
X12286249Y-10504118D02*
X12305297Y-10494594D01*
X12543392Y-10561261D02*
X12543392Y-10694594D01*
X12495773Y-10485070D02*
X12448154Y-10627927D01*
X12448154Y-10627927D02*
X12571964Y-10627927D01*
X12629107Y-10494594D02*
X12762440Y-10494594D01*
X12762440Y-10494594D02*
X12676726Y-10694594D01*
X12829107Y-10513642D02*
X12838630Y-10504118D01*
X12838630Y-10504118D02*
X12857678Y-10494594D01*
X12857678Y-10494594D02*
X12905297Y-10494594D01*
X12905297Y-10494594D02*
X12924345Y-10504118D01*
X12924345Y-10504118D02*
X12933868Y-10513642D01*
X12933868Y-10513642D02*
X12943392Y-10532689D01*
X12943392Y-10532689D02*
X12943392Y-10551737D01*
X12943392Y-10551737D02*
X12933868Y-10580308D01*
X12933868Y-10580308D02*
X12819583Y-10694594D01*
X12819583Y-10694594D02*
X12943392Y-10694594D01*
X13019583Y-10494594D02*
X13019583Y-10532689D01*
X13095773Y-10494594D02*
X13095773Y-10532689D01*
X13391011Y-10770784D02*
X13381488Y-10761261D01*
X13381488Y-10761261D02*
X13362440Y-10732689D01*
X13362440Y-10732689D02*
X13352916Y-10713642D01*
X13352916Y-10713642D02*
X13343392Y-10685070D01*
X13343392Y-10685070D02*
X13333869Y-10637451D01*
X13333869Y-10637451D02*
X13333869Y-10599356D01*
X13333869Y-10599356D02*
X13343392Y-10551737D01*
X13343392Y-10551737D02*
X13352916Y-10523165D01*
X13352916Y-10523165D02*
X13362440Y-10504118D01*
X13362440Y-10504118D02*
X13381488Y-10475546D01*
X13381488Y-10475546D02*
X13391011Y-10466023D01*
X13552916Y-10561261D02*
X13552916Y-10694594D01*
X13505297Y-10485070D02*
X13457678Y-10627927D01*
X13457678Y-10627927D02*
X13581488Y-10627927D01*
X13810059Y-10694594D02*
X13810059Y-10494594D01*
X13895773Y-10694594D02*
X13895773Y-10589832D01*
X13895773Y-10589832D02*
X13886250Y-10570784D01*
X13886250Y-10570784D02*
X13867202Y-10561261D01*
X13867202Y-10561261D02*
X13838630Y-10561261D01*
X13838630Y-10561261D02*
X13819583Y-10570784D01*
X13819583Y-10570784D02*
X13810059Y-10580308D01*
X14019583Y-10694594D02*
X14000535Y-10685070D01*
X14000535Y-10685070D02*
X13991011Y-10675546D01*
X13991011Y-10675546D02*
X13981488Y-10656499D01*
X13981488Y-10656499D02*
X13981488Y-10599356D01*
X13981488Y-10599356D02*
X13991011Y-10580308D01*
X13991011Y-10580308D02*
X14000535Y-10570784D01*
X14000535Y-10570784D02*
X14019583Y-10561261D01*
X14019583Y-10561261D02*
X14048154Y-10561261D01*
X14048154Y-10561261D02*
X14067202Y-10570784D01*
X14067202Y-10570784D02*
X14076726Y-10580308D01*
X14076726Y-10580308D02*
X14086250Y-10599356D01*
X14086250Y-10599356D02*
X14086250Y-10656499D01*
X14086250Y-10656499D02*
X14076726Y-10675546D01*
X14076726Y-10675546D02*
X14067202Y-10685070D01*
X14067202Y-10685070D02*
X14048154Y-10694594D01*
X14048154Y-10694594D02*
X14019583Y-10694594D01*
X14200535Y-10694594D02*
X14181488Y-10685070D01*
X14181488Y-10685070D02*
X14171964Y-10666023D01*
X14171964Y-10666023D02*
X14171964Y-10494594D01*
X14352916Y-10685070D02*
X14333869Y-10694594D01*
X14333869Y-10694594D02*
X14295773Y-10694594D01*
X14295773Y-10694594D02*
X14276726Y-10685070D01*
X14276726Y-10685070D02*
X14267202Y-10666023D01*
X14267202Y-10666023D02*
X14267202Y-10589832D01*
X14267202Y-10589832D02*
X14276726Y-10570784D01*
X14276726Y-10570784D02*
X14295773Y-10561261D01*
X14295773Y-10561261D02*
X14333869Y-10561261D01*
X14333869Y-10561261D02*
X14352916Y-10570784D01*
X14352916Y-10570784D02*
X14362440Y-10589832D01*
X14362440Y-10589832D02*
X14362440Y-10608880D01*
X14362440Y-10608880D02*
X14267202Y-10627927D01*
X14438631Y-10685070D02*
X14457678Y-10694594D01*
X14457678Y-10694594D02*
X14495773Y-10694594D01*
X14495773Y-10694594D02*
X14514821Y-10685070D01*
X14514821Y-10685070D02*
X14524345Y-10666023D01*
X14524345Y-10666023D02*
X14524345Y-10656499D01*
X14524345Y-10656499D02*
X14514821Y-10637451D01*
X14514821Y-10637451D02*
X14495773Y-10627927D01*
X14495773Y-10627927D02*
X14467202Y-10627927D01*
X14467202Y-10627927D02*
X14448154Y-10618404D01*
X14448154Y-10618404D02*
X14438631Y-10599356D01*
X14438631Y-10599356D02*
X14438631Y-10589832D01*
X14438631Y-10589832D02*
X14448154Y-10570784D01*
X14448154Y-10570784D02*
X14467202Y-10561261D01*
X14467202Y-10561261D02*
X14495773Y-10561261D01*
X14495773Y-10561261D02*
X14514821Y-10570784D01*
X14591012Y-10770784D02*
X14600535Y-10761261D01*
X14600535Y-10761261D02*
X14619583Y-10732689D01*
X14619583Y-10732689D02*
X14629107Y-10713642D01*
X14629107Y-10713642D02*
X14638631Y-10685070D01*
X14638631Y-10685070D02*
X14648154Y-10637451D01*
X14648154Y-10637451D02*
X14648154Y-10599356D01*
X14648154Y-10599356D02*
X14638631Y-10551737D01*
X14638631Y-10551737D02*
X14629107Y-10523165D01*
X14629107Y-10523165D02*
X14619583Y-10504118D01*
X14619583Y-10504118D02*
X14600535Y-10475546D01*
X14600535Y-10475546D02*
X14591012Y-10466023D01*
X9715949Y-10767110D02*
X9715949Y-10967110D01*
X9615949Y-10867110D02*
X9815949Y-10867110D01*
X9815949Y-10867110D02*
G75*
G03*
X9815949Y-10867110I-100000J0D01*
G01*
X10067202Y-10777642D02*
X10076725Y-10768118D01*
X10076725Y-10768118D02*
X10095773Y-10758594D01*
X10095773Y-10758594D02*
X10143392Y-10758594D01*
X10143392Y-10758594D02*
X10162440Y-10768118D01*
X10162440Y-10768118D02*
X10171964Y-10777642D01*
X10171964Y-10777642D02*
X10181487Y-10796689D01*
X10181487Y-10796689D02*
X10181487Y-10815737D01*
X10181487Y-10815737D02*
X10171964Y-10844308D01*
X10171964Y-10844308D02*
X10057678Y-10958594D01*
X10057678Y-10958594D02*
X10181487Y-10958594D01*
X10267202Y-10939546D02*
X10276725Y-10949070D01*
X10276725Y-10949070D02*
X10267202Y-10958594D01*
X10267202Y-10958594D02*
X10257678Y-10949070D01*
X10257678Y-10949070D02*
X10267202Y-10939546D01*
X10267202Y-10939546D02*
X10267202Y-10958594D01*
X10457678Y-10758594D02*
X10362440Y-10758594D01*
X10362440Y-10758594D02*
X10352916Y-10853832D01*
X10352916Y-10853832D02*
X10362440Y-10844308D01*
X10362440Y-10844308D02*
X10381487Y-10834784D01*
X10381487Y-10834784D02*
X10429106Y-10834784D01*
X10429106Y-10834784D02*
X10448154Y-10844308D01*
X10448154Y-10844308D02*
X10457678Y-10853832D01*
X10457678Y-10853832D02*
X10467202Y-10872880D01*
X10467202Y-10872880D02*
X10467202Y-10920499D01*
X10467202Y-10920499D02*
X10457678Y-10939546D01*
X10457678Y-10939546D02*
X10448154Y-10949070D01*
X10448154Y-10949070D02*
X10429106Y-10958594D01*
X10429106Y-10958594D02*
X10381487Y-10958594D01*
X10381487Y-10958594D02*
X10362440Y-10949070D01*
X10362440Y-10949070D02*
X10352916Y-10939546D01*
X10591011Y-10758594D02*
X10610059Y-10758594D01*
X10610059Y-10758594D02*
X10629106Y-10768118D01*
X10629106Y-10768118D02*
X10638630Y-10777642D01*
X10638630Y-10777642D02*
X10648154Y-10796689D01*
X10648154Y-10796689D02*
X10657678Y-10834784D01*
X10657678Y-10834784D02*
X10657678Y-10882404D01*
X10657678Y-10882404D02*
X10648154Y-10920499D01*
X10648154Y-10920499D02*
X10638630Y-10939546D01*
X10638630Y-10939546D02*
X10629106Y-10949070D01*
X10629106Y-10949070D02*
X10610059Y-10958594D01*
X10610059Y-10958594D02*
X10591011Y-10958594D01*
X10591011Y-10958594D02*
X10571964Y-10949070D01*
X10571964Y-10949070D02*
X10562440Y-10939546D01*
X10562440Y-10939546D02*
X10552916Y-10920499D01*
X10552916Y-10920499D02*
X10543392Y-10882404D01*
X10543392Y-10882404D02*
X10543392Y-10834784D01*
X10543392Y-10834784D02*
X10552916Y-10796689D01*
X10552916Y-10796689D02*
X10562440Y-10777642D01*
X10562440Y-10777642D02*
X10571964Y-10768118D01*
X10571964Y-10768118D02*
X10591011Y-10758594D01*
X10781487Y-10758594D02*
X10800535Y-10758594D01*
X10800535Y-10758594D02*
X10819583Y-10768118D01*
X10819583Y-10768118D02*
X10829106Y-10777642D01*
X10829106Y-10777642D02*
X10838630Y-10796689D01*
X10838630Y-10796689D02*
X10848154Y-10834784D01*
X10848154Y-10834784D02*
X10848154Y-10882404D01*
X10848154Y-10882404D02*
X10838630Y-10920499D01*
X10838630Y-10920499D02*
X10829106Y-10939546D01*
X10829106Y-10939546D02*
X10819583Y-10949070D01*
X10819583Y-10949070D02*
X10800535Y-10958594D01*
X10800535Y-10958594D02*
X10781487Y-10958594D01*
X10781487Y-10958594D02*
X10762440Y-10949070D01*
X10762440Y-10949070D02*
X10752916Y-10939546D01*
X10752916Y-10939546D02*
X10743392Y-10920499D01*
X10743392Y-10920499D02*
X10733868Y-10882404D01*
X10733868Y-10882404D02*
X10733868Y-10834784D01*
X10733868Y-10834784D02*
X10743392Y-10796689D01*
X10743392Y-10796689D02*
X10752916Y-10777642D01*
X10752916Y-10777642D02*
X10762440Y-10768118D01*
X10762440Y-10768118D02*
X10781487Y-10758594D01*
X10933868Y-10958594D02*
X10933868Y-10825261D01*
X10933868Y-10844308D02*
X10943392Y-10834784D01*
X10943392Y-10834784D02*
X10962440Y-10825261D01*
X10962440Y-10825261D02*
X10991011Y-10825261D01*
X10991011Y-10825261D02*
X11010059Y-10834784D01*
X11010059Y-10834784D02*
X11019583Y-10853832D01*
X11019583Y-10853832D02*
X11019583Y-10958594D01*
X11019583Y-10853832D02*
X11029106Y-10834784D01*
X11029106Y-10834784D02*
X11048154Y-10825261D01*
X11048154Y-10825261D02*
X11076725Y-10825261D01*
X11076725Y-10825261D02*
X11095773Y-10834784D01*
X11095773Y-10834784D02*
X11105297Y-10853832D01*
X11105297Y-10853832D02*
X11105297Y-10958594D01*
X11200535Y-10958594D02*
X11200535Y-10825261D01*
X11200535Y-10844308D02*
X11210059Y-10834784D01*
X11210059Y-10834784D02*
X11229106Y-10825261D01*
X11229106Y-10825261D02*
X11257678Y-10825261D01*
X11257678Y-10825261D02*
X11276725Y-10834784D01*
X11276725Y-10834784D02*
X11286249Y-10853832D01*
X11286249Y-10853832D02*
X11286249Y-10958594D01*
X11286249Y-10853832D02*
X11295773Y-10834784D01*
X11295773Y-10834784D02*
X11314821Y-10825261D01*
X11314821Y-10825261D02*
X11343392Y-10825261D01*
X11343392Y-10825261D02*
X11362440Y-10834784D01*
X11362440Y-10834784D02*
X11371964Y-10853832D01*
X11371964Y-10853832D02*
X11371964Y-10958594D01*
X11762440Y-10749070D02*
X11591011Y-11006213D01*
X12019583Y-10758594D02*
X12038630Y-10758594D01*
X12038630Y-10758594D02*
X12057678Y-10768118D01*
X12057678Y-10768118D02*
X12067202Y-10777642D01*
X12067202Y-10777642D02*
X12076726Y-10796689D01*
X12076726Y-10796689D02*
X12086249Y-10834784D01*
X12086249Y-10834784D02*
X12086249Y-10882404D01*
X12086249Y-10882404D02*
X12076726Y-10920499D01*
X12076726Y-10920499D02*
X12067202Y-10939546D01*
X12067202Y-10939546D02*
X12057678Y-10949070D01*
X12057678Y-10949070D02*
X12038630Y-10958594D01*
X12038630Y-10958594D02*
X12019583Y-10958594D01*
X12019583Y-10958594D02*
X12000535Y-10949070D01*
X12000535Y-10949070D02*
X11991011Y-10939546D01*
X11991011Y-10939546D02*
X11981487Y-10920499D01*
X11981487Y-10920499D02*
X11971964Y-10882404D01*
X11971964Y-10882404D02*
X11971964Y-10834784D01*
X11971964Y-10834784D02*
X11981487Y-10796689D01*
X11981487Y-10796689D02*
X11991011Y-10777642D01*
X11991011Y-10777642D02*
X12000535Y-10768118D01*
X12000535Y-10768118D02*
X12019583Y-10758594D01*
X12171964Y-10939546D02*
X12181487Y-10949070D01*
X12181487Y-10949070D02*
X12171964Y-10958594D01*
X12171964Y-10958594D02*
X12162440Y-10949070D01*
X12162440Y-10949070D02*
X12171964Y-10939546D01*
X12171964Y-10939546D02*
X12171964Y-10958594D01*
X12305297Y-10758594D02*
X12324345Y-10758594D01*
X12324345Y-10758594D02*
X12343392Y-10768118D01*
X12343392Y-10768118D02*
X12352916Y-10777642D01*
X12352916Y-10777642D02*
X12362440Y-10796689D01*
X12362440Y-10796689D02*
X12371964Y-10834784D01*
X12371964Y-10834784D02*
X12371964Y-10882404D01*
X12371964Y-10882404D02*
X12362440Y-10920499D01*
X12362440Y-10920499D02*
X12352916Y-10939546D01*
X12352916Y-10939546D02*
X12343392Y-10949070D01*
X12343392Y-10949070D02*
X12324345Y-10958594D01*
X12324345Y-10958594D02*
X12305297Y-10958594D01*
X12305297Y-10958594D02*
X12286249Y-10949070D01*
X12286249Y-10949070D02*
X12276726Y-10939546D01*
X12276726Y-10939546D02*
X12267202Y-10920499D01*
X12267202Y-10920499D02*
X12257678Y-10882404D01*
X12257678Y-10882404D02*
X12257678Y-10834784D01*
X12257678Y-10834784D02*
X12267202Y-10796689D01*
X12267202Y-10796689D02*
X12276726Y-10777642D01*
X12276726Y-10777642D02*
X12286249Y-10768118D01*
X12286249Y-10768118D02*
X12305297Y-10758594D01*
X12467202Y-10958594D02*
X12505297Y-10958594D01*
X12505297Y-10958594D02*
X12524345Y-10949070D01*
X12524345Y-10949070D02*
X12533868Y-10939546D01*
X12533868Y-10939546D02*
X12552916Y-10910975D01*
X12552916Y-10910975D02*
X12562440Y-10872880D01*
X12562440Y-10872880D02*
X12562440Y-10796689D01*
X12562440Y-10796689D02*
X12552916Y-10777642D01*
X12552916Y-10777642D02*
X12543392Y-10768118D01*
X12543392Y-10768118D02*
X12524345Y-10758594D01*
X12524345Y-10758594D02*
X12486249Y-10758594D01*
X12486249Y-10758594D02*
X12467202Y-10768118D01*
X12467202Y-10768118D02*
X12457678Y-10777642D01*
X12457678Y-10777642D02*
X12448154Y-10796689D01*
X12448154Y-10796689D02*
X12448154Y-10844308D01*
X12448154Y-10844308D02*
X12457678Y-10863356D01*
X12457678Y-10863356D02*
X12467202Y-10872880D01*
X12467202Y-10872880D02*
X12486249Y-10882404D01*
X12486249Y-10882404D02*
X12524345Y-10882404D01*
X12524345Y-10882404D02*
X12543392Y-10872880D01*
X12543392Y-10872880D02*
X12552916Y-10863356D01*
X12552916Y-10863356D02*
X12562440Y-10844308D01*
X12676726Y-10844308D02*
X12657678Y-10834784D01*
X12657678Y-10834784D02*
X12648154Y-10825261D01*
X12648154Y-10825261D02*
X12638630Y-10806213D01*
X12638630Y-10806213D02*
X12638630Y-10796689D01*
X12638630Y-10796689D02*
X12648154Y-10777642D01*
X12648154Y-10777642D02*
X12657678Y-10768118D01*
X12657678Y-10768118D02*
X12676726Y-10758594D01*
X12676726Y-10758594D02*
X12714821Y-10758594D01*
X12714821Y-10758594D02*
X12733868Y-10768118D01*
X12733868Y-10768118D02*
X12743392Y-10777642D01*
X12743392Y-10777642D02*
X12752916Y-10796689D01*
X12752916Y-10796689D02*
X12752916Y-10806213D01*
X12752916Y-10806213D02*
X12743392Y-10825261D01*
X12743392Y-10825261D02*
X12733868Y-10834784D01*
X12733868Y-10834784D02*
X12714821Y-10844308D01*
X12714821Y-10844308D02*
X12676726Y-10844308D01*
X12676726Y-10844308D02*
X12657678Y-10853832D01*
X12657678Y-10853832D02*
X12648154Y-10863356D01*
X12648154Y-10863356D02*
X12638630Y-10882404D01*
X12638630Y-10882404D02*
X12638630Y-10920499D01*
X12638630Y-10920499D02*
X12648154Y-10939546D01*
X12648154Y-10939546D02*
X12657678Y-10949070D01*
X12657678Y-10949070D02*
X12676726Y-10958594D01*
X12676726Y-10958594D02*
X12714821Y-10958594D01*
X12714821Y-10958594D02*
X12733868Y-10949070D01*
X12733868Y-10949070D02*
X12743392Y-10939546D01*
X12743392Y-10939546D02*
X12752916Y-10920499D01*
X12752916Y-10920499D02*
X12752916Y-10882404D01*
X12752916Y-10882404D02*
X12743392Y-10863356D01*
X12743392Y-10863356D02*
X12733868Y-10853832D01*
X12733868Y-10853832D02*
X12714821Y-10844308D01*
X12924345Y-10825261D02*
X12924345Y-10958594D01*
X12876726Y-10749070D02*
X12829107Y-10891927D01*
X12829107Y-10891927D02*
X12952916Y-10891927D01*
X13019583Y-10758594D02*
X13019583Y-10796689D01*
X13095773Y-10758594D02*
X13095773Y-10796689D01*
X13391011Y-11034784D02*
X13381488Y-11025261D01*
X13381488Y-11025261D02*
X13362440Y-10996689D01*
X13362440Y-10996689D02*
X13352916Y-10977642D01*
X13352916Y-10977642D02*
X13343392Y-10949070D01*
X13343392Y-10949070D02*
X13333869Y-10901451D01*
X13333869Y-10901451D02*
X13333869Y-10863356D01*
X13333869Y-10863356D02*
X13343392Y-10815737D01*
X13343392Y-10815737D02*
X13352916Y-10787165D01*
X13352916Y-10787165D02*
X13362440Y-10768118D01*
X13362440Y-10768118D02*
X13381488Y-10739546D01*
X13381488Y-10739546D02*
X13391011Y-10730023D01*
X13552916Y-10825261D02*
X13552916Y-10958594D01*
X13505297Y-10749070D02*
X13457678Y-10891927D01*
X13457678Y-10891927D02*
X13581488Y-10891927D01*
X13810059Y-10958594D02*
X13810059Y-10758594D01*
X13895773Y-10958594D02*
X13895773Y-10853832D01*
X13895773Y-10853832D02*
X13886250Y-10834784D01*
X13886250Y-10834784D02*
X13867202Y-10825261D01*
X13867202Y-10825261D02*
X13838630Y-10825261D01*
X13838630Y-10825261D02*
X13819583Y-10834784D01*
X13819583Y-10834784D02*
X13810059Y-10844308D01*
X14019583Y-10958594D02*
X14000535Y-10949070D01*
X14000535Y-10949070D02*
X13991011Y-10939546D01*
X13991011Y-10939546D02*
X13981488Y-10920499D01*
X13981488Y-10920499D02*
X13981488Y-10863356D01*
X13981488Y-10863356D02*
X13991011Y-10844308D01*
X13991011Y-10844308D02*
X14000535Y-10834784D01*
X14000535Y-10834784D02*
X14019583Y-10825261D01*
X14019583Y-10825261D02*
X14048154Y-10825261D01*
X14048154Y-10825261D02*
X14067202Y-10834784D01*
X14067202Y-10834784D02*
X14076726Y-10844308D01*
X14076726Y-10844308D02*
X14086250Y-10863356D01*
X14086250Y-10863356D02*
X14086250Y-10920499D01*
X14086250Y-10920499D02*
X14076726Y-10939546D01*
X14076726Y-10939546D02*
X14067202Y-10949070D01*
X14067202Y-10949070D02*
X14048154Y-10958594D01*
X14048154Y-10958594D02*
X14019583Y-10958594D01*
X14200535Y-10958594D02*
X14181488Y-10949070D01*
X14181488Y-10949070D02*
X14171964Y-10930023D01*
X14171964Y-10930023D02*
X14171964Y-10758594D01*
X14352916Y-10949070D02*
X14333869Y-10958594D01*
X14333869Y-10958594D02*
X14295773Y-10958594D01*
X14295773Y-10958594D02*
X14276726Y-10949070D01*
X14276726Y-10949070D02*
X14267202Y-10930023D01*
X14267202Y-10930023D02*
X14267202Y-10853832D01*
X14267202Y-10853832D02*
X14276726Y-10834784D01*
X14276726Y-10834784D02*
X14295773Y-10825261D01*
X14295773Y-10825261D02*
X14333869Y-10825261D01*
X14333869Y-10825261D02*
X14352916Y-10834784D01*
X14352916Y-10834784D02*
X14362440Y-10853832D01*
X14362440Y-10853832D02*
X14362440Y-10872880D01*
X14362440Y-10872880D02*
X14267202Y-10891927D01*
X14438631Y-10949070D02*
X14457678Y-10958594D01*
X14457678Y-10958594D02*
X14495773Y-10958594D01*
X14495773Y-10958594D02*
X14514821Y-10949070D01*
X14514821Y-10949070D02*
X14524345Y-10930023D01*
X14524345Y-10930023D02*
X14524345Y-10920499D01*
X14524345Y-10920499D02*
X14514821Y-10901451D01*
X14514821Y-10901451D02*
X14495773Y-10891927D01*
X14495773Y-10891927D02*
X14467202Y-10891927D01*
X14467202Y-10891927D02*
X14448154Y-10882404D01*
X14448154Y-10882404D02*
X14438631Y-10863356D01*
X14438631Y-10863356D02*
X14438631Y-10853832D01*
X14438631Y-10853832D02*
X14448154Y-10834784D01*
X14448154Y-10834784D02*
X14467202Y-10825261D01*
X14467202Y-10825261D02*
X14495773Y-10825261D01*
X14495773Y-10825261D02*
X14514821Y-10834784D01*
X14591012Y-11034784D02*
X14600535Y-11025261D01*
X14600535Y-11025261D02*
X14619583Y-10996689D01*
X14619583Y-10996689D02*
X14629107Y-10977642D01*
X14629107Y-10977642D02*
X14638631Y-10949070D01*
X14638631Y-10949070D02*
X14648154Y-10901451D01*
X14648154Y-10901451D02*
X14648154Y-10863356D01*
X14648154Y-10863356D02*
X14638631Y-10815737D01*
X14638631Y-10815737D02*
X14629107Y-10787165D01*
X14629107Y-10787165D02*
X14619583Y-10768118D01*
X14619583Y-10768118D02*
X14600535Y-10739546D01*
X14600535Y-10739546D02*
X14591012Y-10730023D01*
M02*
