%TF.GenerationSoftware,KiCad,Pcbnew,7.0.2*%
%TF.CreationDate,2023-10-15T09:35:09+11:00*%
%TF.ProjectId,Strelka_Flight_Computer,53747265-6c6b-4615-9f46-6c696768745f,rev?*%
%TF.SameCoordinates,Original*%
%TF.FileFunction,Soldermask,Bot*%
%TF.FilePolarity,Negative*%
%FSLAX46Y46*%
G04 Gerber Fmt 4.6, Leading zero omitted, Abs format (unit mm)*
G04 Created by KiCad (PCBNEW 7.0.2) date 2023-10-15 09:35:09*
%MOMM*%
%LPD*%
G01*
G04 APERTURE LIST*
G04 Aperture macros list*
%AMRoundRect*
0 Rectangle with rounded corners*
0 $1 Rounding radius*
0 $2 $3 $4 $5 $6 $7 $8 $9 X,Y pos of 4 corners*
0 Add a 4 corners polygon primitive as box body*
4,1,4,$2,$3,$4,$5,$6,$7,$8,$9,$2,$3,0*
0 Add four circle primitives for the rounded corners*
1,1,$1+$1,$2,$3*
1,1,$1+$1,$4,$5*
1,1,$1+$1,$6,$7*
1,1,$1+$1,$8,$9*
0 Add four rect primitives between the rounded corners*
20,1,$1+$1,$2,$3,$4,$5,0*
20,1,$1+$1,$4,$5,$6,$7,0*
20,1,$1+$1,$6,$7,$8,$9,0*
20,1,$1+$1,$8,$9,$2,$3,0*%
G04 Aperture macros list end*
%ADD10C,0.836200*%
%ADD11C,1.576200*%
%ADD12C,0.010000*%
%ADD13C,5.000000*%
%ADD14C,3.000000*%
%ADD15R,2.000000X2.000000*%
%ADD16C,2.000000*%
%ADD17C,1.600000*%
%ADD18O,1.900000X1.200000*%
%ADD19C,1.450000*%
%ADD20RoundRect,0.381000X1.369000X0.381000X-1.369000X0.381000X-1.369000X-0.381000X1.369000X-0.381000X0*%
%ADD21R,2.400000X2.400000*%
%ADD22C,2.400000*%
%ADD23RoundRect,0.250000X-1.425000X0.362500X-1.425000X-0.362500X1.425000X-0.362500X1.425000X0.362500X0*%
%ADD24R,1.000000X2.000000*%
%ADD25RoundRect,0.150000X0.587500X0.150000X-0.587500X0.150000X-0.587500X-0.150000X0.587500X-0.150000X0*%
%ADD26R,1.250000X0.650000*%
%ADD27RoundRect,0.150000X-0.150000X0.825000X-0.150000X-0.825000X0.150000X-0.825000X0.150000X0.825000X0*%
%ADD28RoundRect,0.150000X-0.587500X-0.150000X0.587500X-0.150000X0.587500X0.150000X-0.587500X0.150000X0*%
G04 APERTURE END LIST*
D10*
%TO.C,J7*%
X108418100Y-52000000D02*
G75*
G03*
X108418100Y-52000000I-418100J0D01*
G01*
D11*
X101468100Y-52000000D02*
G75*
G03*
X101468100Y-52000000I-788100J0D01*
G01*
D12*
X105836200Y-52836200D02*
X104163800Y-52836200D01*
X104163800Y-51163800D01*
X105836200Y-51163800D01*
X105836200Y-52836200D01*
G36*
X105836200Y-52836200D02*
G01*
X104163800Y-52836200D01*
X104163800Y-51163800D01*
X105836200Y-51163800D01*
X105836200Y-52836200D01*
G37*
D10*
%TO.C,SW1*%
X108418100Y-62000000D02*
G75*
G03*
X108418100Y-62000000I-418100J0D01*
G01*
D11*
X101468100Y-62000000D02*
G75*
G03*
X101468100Y-62000000I-788100J0D01*
G01*
D12*
X105836200Y-62836200D02*
X104163800Y-62836200D01*
X104163800Y-61163800D01*
X105836200Y-61163800D01*
X105836200Y-62836200D01*
G36*
X105836200Y-62836200D02*
G01*
X104163800Y-62836200D01*
X104163800Y-61163800D01*
X105836200Y-61163800D01*
X105836200Y-62836200D01*
G37*
%TD*%
D13*
%TO.C,H1*%
X170059602Y-75565795D03*
%TD*%
D14*
%TO.C,J7*%
X100680000Y-52000000D03*
%TD*%
D13*
%TO.C,H3*%
X117609602Y-75565795D03*
%TD*%
D15*
%TO.C,BZ3*%
X148000000Y-53000000D03*
D16*
X143000000Y-53000000D03*
%TD*%
D17*
%TO.C,C41*%
X112300000Y-57300000D03*
X115800000Y-57300000D03*
%TD*%
D13*
%TO.C,H2*%
X117609602Y-51210595D03*
%TD*%
%TO.C,H4*%
X170059602Y-51210595D03*
%TD*%
D18*
%TO.C,J6*%
X100050000Y-70250000D03*
D19*
X102750000Y-71250000D03*
X102750000Y-76250000D03*
D18*
X100050000Y-77250000D03*
%TD*%
D20*
%TO.C,AE2*%
X187028000Y-55500000D03*
X187028000Y-50500000D03*
%TD*%
D21*
%TO.C,J3*%
X134500000Y-74000000D03*
D22*
X131000000Y-74000000D03*
X127500000Y-74000000D03*
X124000000Y-74000000D03*
%TD*%
D20*
%TO.C,AE1*%
X187028000Y-76000000D03*
X187028000Y-71000000D03*
%TD*%
D14*
%TO.C,SW1*%
X100680000Y-62000000D03*
%TD*%
D23*
%TO.C,R27*%
X139850000Y-86787500D03*
X139850000Y-92712500D03*
%TD*%
D24*
%TO.C,U4*%
X169500000Y-55395695D03*
X171500000Y-55395695D03*
X173500000Y-55395695D03*
X175500000Y-55395695D03*
X177500000Y-55395695D03*
X179500000Y-55395695D03*
X181500000Y-55395695D03*
X183500000Y-55395695D03*
X183500000Y-71395695D03*
X181500000Y-71395695D03*
X179500000Y-71395695D03*
X177500000Y-71395695D03*
X175500000Y-71395695D03*
X173500000Y-71395695D03*
X171500000Y-71395695D03*
X169500000Y-71395695D03*
%TD*%
D25*
%TO.C,Q10*%
X143537500Y-92750000D03*
X143537500Y-94650000D03*
X141662500Y-93700000D03*
%TD*%
%TO.C,Q5*%
X139050000Y-97500000D03*
X139050000Y-99400000D03*
X137175000Y-98450000D03*
%TD*%
D26*
%TO.C,IC1*%
X154750000Y-53905000D03*
X154750000Y-52635000D03*
X154750000Y-51365000D03*
X154750000Y-50095000D03*
X162250000Y-50095000D03*
X162250000Y-51365000D03*
X162250000Y-52635000D03*
X162250000Y-53905000D03*
%TD*%
D23*
%TO.C,R47*%
X143800000Y-86787500D03*
X143800000Y-92712500D03*
%TD*%
D27*
%TO.C,U5*%
X139845000Y-64400000D03*
X141115000Y-64400000D03*
X142385000Y-64400000D03*
X143655000Y-64400000D03*
X143655000Y-69350000D03*
X142385000Y-69350000D03*
X141115000Y-69350000D03*
X139845000Y-69350000D03*
%TD*%
D25*
%TO.C,Q9*%
X143287500Y-96500000D03*
X143287500Y-98400000D03*
X141412500Y-97450000D03*
%TD*%
D28*
%TO.C,Q4*%
X137675000Y-96100000D03*
X137675000Y-94200000D03*
X139550000Y-95150000D03*
%TD*%
M02*
