%TF.GenerationSoftware,KiCad,Pcbnew,7.0.2*%
%TF.CreationDate,2023-10-15T09:35:08+11:00*%
%TF.ProjectId,Strelka_Flight_Computer,53747265-6c6b-4615-9f46-6c696768745f,rev?*%
%TF.SameCoordinates,Original*%
%TF.FileFunction,Legend,Top*%
%TF.FilePolarity,Positive*%
%FSLAX46Y46*%
G04 Gerber Fmt 4.6, Leading zero omitted, Abs format (unit mm)*
G04 Created by KiCad (PCBNEW 7.0.2) date 2023-10-15 09:35:08*
%MOMM*%
%LPD*%
G01*
G04 APERTURE LIST*
%ADD10C,0.400000*%
%ADD11C,0.300000*%
%ADD12C,0.150000*%
%ADD13C,0.127000*%
%ADD14C,0.120000*%
%ADD15C,0.200000*%
%ADD16C,0.100000*%
%ADD17C,0.152400*%
G04 APERTURE END LIST*
D10*
X182844800Y-72694964D02*
X182159000Y-73304564D01*
X179898400Y-69761264D02*
X180508000Y-70447064D01*
X179923800Y-72694964D02*
X182844800Y-72694964D01*
X179898400Y-72682264D02*
X179898400Y-69761264D01*
X179898400Y-69761264D02*
X179263400Y-70472464D01*
X182844800Y-72694964D02*
X182133600Y-72059964D01*
X180419564Y-72669564D02*
G75*
G03*
X180419564Y-72669564I-521164J0D01*
G01*
D11*
X178235542Y-72185692D02*
X179021257Y-72185692D01*
X179021257Y-72185692D02*
X178235542Y-73185692D01*
X178235542Y-73185692D02*
X179021257Y-73185692D01*
X183391742Y-73211092D02*
X184177457Y-72211092D01*
X183391742Y-72211092D02*
X184177457Y-73211092D01*
X180938257Y-69442492D02*
X181295400Y-70442492D01*
X181652543Y-69442492D02*
X181295400Y-70442492D01*
X181295400Y-70442492D02*
X181152543Y-70799635D01*
X181152543Y-70799635D02*
X181081114Y-70871064D01*
X181081114Y-70871064D02*
X180938257Y-70942492D01*
D12*
%TO.C,F1*%
X139988809Y-70608333D02*
X139988809Y-70941666D01*
X140512619Y-70941666D02*
X139512619Y-70941666D01*
X139512619Y-70941666D02*
X139512619Y-70465476D01*
X140512619Y-69560714D02*
X140512619Y-70132142D01*
X140512619Y-69846428D02*
X139512619Y-69846428D01*
X139512619Y-69846428D02*
X139655476Y-69941666D01*
X139655476Y-69941666D02*
X139750714Y-70036904D01*
X139750714Y-70036904D02*
X139798333Y-70132142D01*
%TO.C,R24*%
X164749867Y-56709004D02*
X164177447Y-56607989D01*
X164345806Y-57113065D02*
X163638699Y-56405958D01*
X163638699Y-56405958D02*
X163908073Y-56136584D01*
X163908073Y-56136584D02*
X164009088Y-56102913D01*
X164009088Y-56102913D02*
X164076432Y-56102913D01*
X164076432Y-56102913D02*
X164177447Y-56136584D01*
X164177447Y-56136584D02*
X164278462Y-56237600D01*
X164278462Y-56237600D02*
X164312134Y-56338615D01*
X164312134Y-56338615D02*
X164312134Y-56405958D01*
X164312134Y-56405958D02*
X164278462Y-56506974D01*
X164278462Y-56506974D02*
X164009088Y-56776348D01*
X164379478Y-55799867D02*
X164379478Y-55732523D01*
X164379478Y-55732523D02*
X164413149Y-55631508D01*
X164413149Y-55631508D02*
X164581508Y-55463149D01*
X164581508Y-55463149D02*
X164682523Y-55429478D01*
X164682523Y-55429478D02*
X164749867Y-55429478D01*
X164749867Y-55429478D02*
X164850882Y-55463149D01*
X164850882Y-55463149D02*
X164918226Y-55530493D01*
X164918226Y-55530493D02*
X164985569Y-55665180D01*
X164985569Y-55665180D02*
X164985569Y-56473302D01*
X164985569Y-56473302D02*
X165423302Y-56035569D01*
X165557989Y-54958073D02*
X166029393Y-55429478D01*
X165120256Y-54857058D02*
X165456974Y-55530493D01*
X165456974Y-55530493D02*
X165894706Y-55092760D01*
%TO.C,MOSFET1*%
X86079231Y-103866614D02*
X86079231Y-102866614D01*
X86079231Y-102866614D02*
X86317326Y-102866614D01*
X86317326Y-102866614D02*
X86460183Y-102914233D01*
X86460183Y-102914233D02*
X86555421Y-103009471D01*
X86555421Y-103009471D02*
X86603040Y-103104709D01*
X86603040Y-103104709D02*
X86650659Y-103295185D01*
X86650659Y-103295185D02*
X86650659Y-103438042D01*
X86650659Y-103438042D02*
X86603040Y-103628518D01*
X86603040Y-103628518D02*
X86555421Y-103723756D01*
X86555421Y-103723756D02*
X86460183Y-103818995D01*
X86460183Y-103818995D02*
X86317326Y-103866614D01*
X86317326Y-103866614D02*
X86079231Y-103866614D01*
X87079231Y-103866614D02*
X87079231Y-102866614D01*
X87079231Y-102866614D02*
X87412564Y-103580899D01*
X87412564Y-103580899D02*
X87745897Y-102866614D01*
X87745897Y-102866614D02*
X87745897Y-103866614D01*
X88745897Y-102914233D02*
X88650659Y-102866614D01*
X88650659Y-102866614D02*
X88507802Y-102866614D01*
X88507802Y-102866614D02*
X88364945Y-102914233D01*
X88364945Y-102914233D02*
X88269707Y-103009471D01*
X88269707Y-103009471D02*
X88222088Y-103104709D01*
X88222088Y-103104709D02*
X88174469Y-103295185D01*
X88174469Y-103295185D02*
X88174469Y-103438042D01*
X88174469Y-103438042D02*
X88222088Y-103628518D01*
X88222088Y-103628518D02*
X88269707Y-103723756D01*
X88269707Y-103723756D02*
X88364945Y-103818995D01*
X88364945Y-103818995D02*
X88507802Y-103866614D01*
X88507802Y-103866614D02*
X88603040Y-103866614D01*
X88603040Y-103866614D02*
X88745897Y-103818995D01*
X88745897Y-103818995D02*
X88793516Y-103771375D01*
X88793516Y-103771375D02*
X88793516Y-103438042D01*
X88793516Y-103438042D02*
X88603040Y-103438042D01*
X89650659Y-102866614D02*
X89460183Y-102866614D01*
X89460183Y-102866614D02*
X89364945Y-102914233D01*
X89364945Y-102914233D02*
X89317326Y-102961852D01*
X89317326Y-102961852D02*
X89222088Y-103104709D01*
X89222088Y-103104709D02*
X89174469Y-103295185D01*
X89174469Y-103295185D02*
X89174469Y-103676137D01*
X89174469Y-103676137D02*
X89222088Y-103771375D01*
X89222088Y-103771375D02*
X89269707Y-103818995D01*
X89269707Y-103818995D02*
X89364945Y-103866614D01*
X89364945Y-103866614D02*
X89555421Y-103866614D01*
X89555421Y-103866614D02*
X89650659Y-103818995D01*
X89650659Y-103818995D02*
X89698278Y-103771375D01*
X89698278Y-103771375D02*
X89745897Y-103676137D01*
X89745897Y-103676137D02*
X89745897Y-103438042D01*
X89745897Y-103438042D02*
X89698278Y-103342804D01*
X89698278Y-103342804D02*
X89650659Y-103295185D01*
X89650659Y-103295185D02*
X89555421Y-103247566D01*
X89555421Y-103247566D02*
X89364945Y-103247566D01*
X89364945Y-103247566D02*
X89269707Y-103295185D01*
X89269707Y-103295185D02*
X89222088Y-103342804D01*
X89222088Y-103342804D02*
X89174469Y-103438042D01*
X90222088Y-103866614D02*
X90412564Y-103866614D01*
X90412564Y-103866614D02*
X90507802Y-103818995D01*
X90507802Y-103818995D02*
X90555421Y-103771375D01*
X90555421Y-103771375D02*
X90650659Y-103628518D01*
X90650659Y-103628518D02*
X90698278Y-103438042D01*
X90698278Y-103438042D02*
X90698278Y-103057090D01*
X90698278Y-103057090D02*
X90650659Y-102961852D01*
X90650659Y-102961852D02*
X90603040Y-102914233D01*
X90603040Y-102914233D02*
X90507802Y-102866614D01*
X90507802Y-102866614D02*
X90317326Y-102866614D01*
X90317326Y-102866614D02*
X90222088Y-102914233D01*
X90222088Y-102914233D02*
X90174469Y-102961852D01*
X90174469Y-102961852D02*
X90126850Y-103057090D01*
X90126850Y-103057090D02*
X90126850Y-103295185D01*
X90126850Y-103295185D02*
X90174469Y-103390423D01*
X90174469Y-103390423D02*
X90222088Y-103438042D01*
X90222088Y-103438042D02*
X90317326Y-103485661D01*
X90317326Y-103485661D02*
X90507802Y-103485661D01*
X90507802Y-103485661D02*
X90603040Y-103438042D01*
X90603040Y-103438042D02*
X90650659Y-103390423D01*
X90650659Y-103390423D02*
X90698278Y-103295185D01*
X91555421Y-102866614D02*
X91364945Y-102866614D01*
X91364945Y-102866614D02*
X91269707Y-102914233D01*
X91269707Y-102914233D02*
X91222088Y-102961852D01*
X91222088Y-102961852D02*
X91126850Y-103104709D01*
X91126850Y-103104709D02*
X91079231Y-103295185D01*
X91079231Y-103295185D02*
X91079231Y-103676137D01*
X91079231Y-103676137D02*
X91126850Y-103771375D01*
X91126850Y-103771375D02*
X91174469Y-103818995D01*
X91174469Y-103818995D02*
X91269707Y-103866614D01*
X91269707Y-103866614D02*
X91460183Y-103866614D01*
X91460183Y-103866614D02*
X91555421Y-103818995D01*
X91555421Y-103818995D02*
X91603040Y-103771375D01*
X91603040Y-103771375D02*
X91650659Y-103676137D01*
X91650659Y-103676137D02*
X91650659Y-103438042D01*
X91650659Y-103438042D02*
X91603040Y-103342804D01*
X91603040Y-103342804D02*
X91555421Y-103295185D01*
X91555421Y-103295185D02*
X91460183Y-103247566D01*
X91460183Y-103247566D02*
X91269707Y-103247566D01*
X91269707Y-103247566D02*
X91174469Y-103295185D01*
X91174469Y-103295185D02*
X91126850Y-103342804D01*
X91126850Y-103342804D02*
X91079231Y-103438042D01*
X92222088Y-103295185D02*
X92126850Y-103247566D01*
X92126850Y-103247566D02*
X92079231Y-103199947D01*
X92079231Y-103199947D02*
X92031612Y-103104709D01*
X92031612Y-103104709D02*
X92031612Y-103057090D01*
X92031612Y-103057090D02*
X92079231Y-102961852D01*
X92079231Y-102961852D02*
X92126850Y-102914233D01*
X92126850Y-102914233D02*
X92222088Y-102866614D01*
X92222088Y-102866614D02*
X92412564Y-102866614D01*
X92412564Y-102866614D02*
X92507802Y-102914233D01*
X92507802Y-102914233D02*
X92555421Y-102961852D01*
X92555421Y-102961852D02*
X92603040Y-103057090D01*
X92603040Y-103057090D02*
X92603040Y-103104709D01*
X92603040Y-103104709D02*
X92555421Y-103199947D01*
X92555421Y-103199947D02*
X92507802Y-103247566D01*
X92507802Y-103247566D02*
X92412564Y-103295185D01*
X92412564Y-103295185D02*
X92222088Y-103295185D01*
X92222088Y-103295185D02*
X92126850Y-103342804D01*
X92126850Y-103342804D02*
X92079231Y-103390423D01*
X92079231Y-103390423D02*
X92031612Y-103485661D01*
X92031612Y-103485661D02*
X92031612Y-103676137D01*
X92031612Y-103676137D02*
X92079231Y-103771375D01*
X92079231Y-103771375D02*
X92126850Y-103818995D01*
X92126850Y-103818995D02*
X92222088Y-103866614D01*
X92222088Y-103866614D02*
X92412564Y-103866614D01*
X92412564Y-103866614D02*
X92507802Y-103818995D01*
X92507802Y-103818995D02*
X92555421Y-103771375D01*
X92555421Y-103771375D02*
X92603040Y-103676137D01*
X92603040Y-103676137D02*
X92603040Y-103485661D01*
X92603040Y-103485661D02*
X92555421Y-103390423D01*
X92555421Y-103390423D02*
X92507802Y-103342804D01*
X92507802Y-103342804D02*
X92412564Y-103295185D01*
X93031612Y-102866614D02*
X93031612Y-103676137D01*
X93031612Y-103676137D02*
X93079231Y-103771375D01*
X93079231Y-103771375D02*
X93126850Y-103818995D01*
X93126850Y-103818995D02*
X93222088Y-103866614D01*
X93222088Y-103866614D02*
X93412564Y-103866614D01*
X93412564Y-103866614D02*
X93507802Y-103818995D01*
X93507802Y-103818995D02*
X93555421Y-103771375D01*
X93555421Y-103771375D02*
X93603040Y-103676137D01*
X93603040Y-103676137D02*
X93603040Y-102866614D01*
X94079231Y-103866614D02*
X94079231Y-102866614D01*
X94079231Y-102866614D02*
X94317326Y-102866614D01*
X94317326Y-102866614D02*
X94460183Y-102914233D01*
X94460183Y-102914233D02*
X94555421Y-103009471D01*
X94555421Y-103009471D02*
X94603040Y-103104709D01*
X94603040Y-103104709D02*
X94650659Y-103295185D01*
X94650659Y-103295185D02*
X94650659Y-103438042D01*
X94650659Y-103438042D02*
X94603040Y-103628518D01*
X94603040Y-103628518D02*
X94555421Y-103723756D01*
X94555421Y-103723756D02*
X94460183Y-103818995D01*
X94460183Y-103818995D02*
X94317326Y-103866614D01*
X94317326Y-103866614D02*
X94079231Y-103866614D01*
X95079231Y-103866614D02*
X95079231Y-102866614D01*
X95079231Y-102866614D02*
X95412564Y-103580899D01*
X95412564Y-103580899D02*
X95745897Y-102866614D01*
X95745897Y-102866614D02*
X95745897Y-103866614D01*
X96222088Y-103485661D02*
X96983993Y-103485661D01*
X97364945Y-102866614D02*
X98031611Y-102866614D01*
X98031611Y-102866614D02*
X97603040Y-103866614D01*
%TO.C,J8*%
X185699217Y-65539999D02*
X185937312Y-65539999D01*
X185842074Y-65778094D02*
X185937312Y-65539999D01*
X185937312Y-65539999D02*
X185842074Y-65301904D01*
X186127788Y-65682856D02*
X185937312Y-65539999D01*
X185937312Y-65539999D02*
X186127788Y-65397142D01*
%TO.C,U1*%
X173468000Y-63462367D02*
X173468000Y-63700462D01*
X173229905Y-63605224D02*
X173468000Y-63700462D01*
X173468000Y-63700462D02*
X173706095Y-63605224D01*
X173325143Y-63890938D02*
X173468000Y-63700462D01*
X173468000Y-63700462D02*
X173610857Y-63890938D01*
X173468000Y-63462367D02*
X173468000Y-63700462D01*
X173229905Y-63605224D02*
X173468000Y-63700462D01*
X173468000Y-63700462D02*
X173706095Y-63605224D01*
X173325143Y-63890938D02*
X173468000Y-63700462D01*
X173468000Y-63700462D02*
X173610857Y-63890938D01*
D13*
%TO.C,U11*%
X182159500Y-63095000D02*
G75*
G03*
X182159500Y-63095000I-127000J0D01*
G01*
D14*
%TO.C,R20*%
X154649436Y-53062035D02*
X154866717Y-53279316D01*
X154112035Y-53599436D02*
X154329316Y-53816717D01*
D15*
%TO.C,IC2*%
X183350000Y-60300000D02*
X183350000Y-50700000D01*
X173250000Y-60300000D02*
X173250000Y-50700000D01*
D16*
X173900000Y-61600000D02*
X173900000Y-61600000D01*
X173900000Y-61700000D02*
X173900000Y-61700000D01*
X173900000Y-61700000D02*
G75*
G03*
X173900000Y-61600000I0J50000D01*
G01*
X173900000Y-61600000D02*
G75*
G03*
X173900000Y-61700000I0J-50000D01*
G01*
D17*
%TO.C,U12*%
X173620400Y-68242100D02*
X173620400Y-68708148D01*
X173620400Y-73541852D02*
X173620400Y-74007900D01*
X173620400Y-74007900D02*
X177379600Y-74007900D01*
X177379600Y-68242100D02*
X173620400Y-68242100D01*
X177379600Y-68708148D02*
X177379600Y-68242100D01*
X177379600Y-74007900D02*
X177379600Y-73541852D01*
X173203500Y-69250000D02*
G75*
G03*
X173203500Y-69250000I-76200J0D01*
G01*
D14*
%TO.C,R81*%
X234016359Y-114830000D02*
X234323641Y-114830000D01*
X234016359Y-115590000D02*
X234323641Y-115590000D01*
%TO.C,R13*%
X141596359Y-71295000D02*
X141903641Y-71295000D01*
X141596359Y-72055000D02*
X141903641Y-72055000D01*
%TO.C,R4*%
X141326359Y-133750000D02*
X141633641Y-133750000D01*
X141326359Y-134510000D02*
X141633641Y-134510000D01*
D13*
%TO.C,J2*%
X137625000Y-73575000D02*
X139390000Y-73575000D01*
X137625000Y-74995000D02*
X137625000Y-73575000D01*
X138710000Y-77625000D02*
X144800000Y-77625000D01*
X145875000Y-73575000D02*
X144110000Y-73575000D01*
X145875000Y-75005000D02*
X145875000Y-73575000D01*
D15*
X140050000Y-71925000D02*
G75*
G03*
X140050000Y-71925000I-100000J0D01*
G01*
D14*
%TO.C,SW7*%
X236830000Y-126230000D02*
X240970000Y-126230000D01*
X236830000Y-126530000D02*
X236830000Y-126230000D01*
X236830000Y-129370000D02*
X236830000Y-129070000D01*
X240970000Y-126230000D02*
X240970000Y-126530000D01*
X240970000Y-129070000D02*
X240970000Y-129370000D01*
X240970000Y-129370000D02*
X236830000Y-129370000D01*
%TO.C,R74*%
X152221359Y-77345000D02*
X152528641Y-77345000D01*
X152221359Y-78105000D02*
X152528641Y-78105000D01*
%TO.C,D14*%
X127500000Y-65150000D02*
X125500000Y-65150000D01*
X127500000Y-65150000D02*
X127500000Y-69050000D01*
X125500000Y-65150000D02*
X125500000Y-69050000D01*
%TO.C,R1*%
X146702742Y-133867500D02*
X147177258Y-133867500D01*
X146702742Y-134912500D02*
X147177258Y-134912500D01*
%TO.C,C38*%
X81811766Y-126940595D02*
X82027438Y-126940595D01*
X81811766Y-127660595D02*
X82027438Y-127660595D01*
%TO.C,R62*%
X122662742Y-58677500D02*
X123137258Y-58677500D01*
X122662742Y-59722500D02*
X123137258Y-59722500D01*
%TO.C,R17*%
X130786359Y-80320000D02*
X131093641Y-80320000D01*
X130786359Y-81080000D02*
X131093641Y-81080000D01*
%TO.C,Y6*%
X149799480Y-68772093D02*
X147572093Y-70999480D01*
X147572093Y-70999480D02*
X150400520Y-73827907D01*
%TO.C,C46*%
X60229022Y-109730595D02*
X60510182Y-109730595D01*
X60229022Y-110750595D02*
X60510182Y-110750595D01*
%TO.C,R61*%
X119146359Y-59120000D02*
X119453641Y-59120000D01*
X119146359Y-59880000D02*
X119453641Y-59880000D01*
%TO.C,C68*%
X161419190Y-52521693D02*
X161571693Y-52369190D01*
X161928307Y-53030810D02*
X162080810Y-52878307D01*
%TO.C,R25*%
X165377341Y-56160060D02*
X165160060Y-56377341D01*
X164839940Y-55622659D02*
X164622659Y-55839940D01*
%TO.C,R60*%
X64142344Y-119758095D02*
X64616860Y-119758095D01*
X64142344Y-120803095D02*
X64616860Y-120803095D01*
%TO.C,C10*%
X69783335Y-141830595D02*
X70075869Y-141830595D01*
X69783335Y-142850595D02*
X70075869Y-142850595D01*
%TO.C,C55*%
X129238748Y-65965000D02*
X129761252Y-65965000D01*
X129238748Y-67435000D02*
X129761252Y-67435000D01*
%TO.C,C60*%
X241192164Y-137250000D02*
X241407836Y-137250000D01*
X241192164Y-137970000D02*
X241407836Y-137970000D01*
%TO.C,TP6*%
X129879602Y-158480595D02*
X131279602Y-158480595D01*
X129879602Y-159880595D02*
X129879602Y-158480595D01*
X131279602Y-158480595D02*
X131279602Y-159880595D01*
X131279602Y-159880595D02*
X129879602Y-159880595D01*
%TO.C,F1*%
X139135000Y-70047936D02*
X139135000Y-70502064D01*
X137665000Y-70047936D02*
X137665000Y-70502064D01*
D13*
%TO.C,J7*%
X108320000Y-48425000D02*
X96080000Y-48425000D01*
X96080000Y-48425000D02*
X96080000Y-55575000D01*
X108320000Y-50500000D02*
X108320000Y-48425000D01*
X108320000Y-55575000D02*
X108320000Y-53500000D01*
X96080000Y-55575000D02*
X108320000Y-55575000D01*
X105010000Y-55920000D02*
X104610000Y-56620000D01*
X105410000Y-56620000D02*
X105010000Y-55920000D01*
X104610000Y-56620000D02*
X105410000Y-56620000D01*
D14*
%TO.C,R77*%
X231106359Y-120800000D02*
X231413641Y-120800000D01*
X231106359Y-121560000D02*
X231413641Y-121560000D01*
%TO.C,R21*%
X133380000Y-55546359D02*
X133380000Y-55853641D01*
X132620000Y-55546359D02*
X132620000Y-55853641D01*
D13*
%TO.C,J4*%
X140282102Y-53158095D02*
X140282102Y-51908095D01*
X140282102Y-53158095D02*
X138682102Y-53158095D01*
X139032102Y-49108095D02*
X130782102Y-49108095D01*
X129532102Y-53158095D02*
X131132102Y-53158095D01*
X129532102Y-53158095D02*
X129532102Y-51908095D01*
D15*
X141039602Y-53408095D02*
G75*
G03*
X141039602Y-53408095I-100000J0D01*
G01*
D14*
%TO.C,C1*%
X69691766Y-157550595D02*
X69907438Y-157550595D01*
X69691766Y-158270595D02*
X69907438Y-158270595D01*
D16*
%TO.C,D10*%
X184550000Y-55090000D02*
G75*
G03*
X184550000Y-55090000I-50000J0D01*
G01*
D14*
%TO.C,R24*%
X164427341Y-55260060D02*
X164210060Y-55477341D01*
X163889940Y-54722659D02*
X163672659Y-54939940D01*
%TO.C,R63*%
X123137258Y-58222500D02*
X122662742Y-58222500D01*
X123137258Y-57177500D02*
X122662742Y-57177500D01*
%TO.C,R2*%
X136416359Y-133750000D02*
X136723641Y-133750000D01*
X136416359Y-134510000D02*
X136723641Y-134510000D01*
%TO.C,BZ3*%
X150100000Y-53000000D02*
G75*
G03*
X150100000Y-53000000I-4600000J0D01*
G01*
%TO.C,TP10*%
X135979602Y-158480595D02*
X137379602Y-158480595D01*
X135979602Y-159880595D02*
X135979602Y-158480595D01*
X137379602Y-158480595D02*
X137379602Y-159880595D01*
X137379602Y-159880595D02*
X135979602Y-159880595D01*
%TO.C,C3*%
X175462164Y-66740000D02*
X175677836Y-66740000D01*
X175462164Y-67460000D02*
X175677836Y-67460000D01*
%TO.C,D18*%
X149297500Y-74510000D02*
X149297500Y-73040000D01*
X149297500Y-73040000D02*
X147012500Y-73040000D01*
X147012500Y-74510000D02*
X149297500Y-74510000D01*
%TO.C,Q11*%
X112869602Y-150160595D02*
X111194602Y-150160595D01*
X112869602Y-150160595D02*
X113519602Y-150160595D01*
X112869602Y-153280595D02*
X112219602Y-153280595D01*
X112869602Y-153280595D02*
X113519602Y-153280595D01*
%TO.C,C64*%
X147321693Y-72330810D02*
X147169190Y-72178307D01*
X147830810Y-71821693D02*
X147678307Y-71669190D01*
%TO.C,JP7*%
X246380000Y-143440000D02*
X246380000Y-142840000D01*
X247080000Y-142140000D02*
X248480000Y-142140000D01*
X248480000Y-144140000D02*
X247080000Y-144140000D01*
X249180000Y-142840000D02*
X249180000Y-143440000D01*
X247080000Y-142140000D02*
G75*
G03*
X246380000Y-142840000I-1J-699999D01*
G01*
X246380000Y-143440000D02*
G75*
G03*
X247080000Y-144140000I699999J-1D01*
G01*
X249180000Y-142840000D02*
G75*
G03*
X248480000Y-142140000I-700000J0D01*
G01*
X248480000Y-144140000D02*
G75*
G03*
X249180000Y-143440000I0J700000D01*
G01*
%TO.C,MOSFET1*%
X91029902Y-110160395D02*
X92985702Y-110160395D01*
X92985702Y-106807595D02*
X91029902Y-106807595D01*
%TO.C,C61*%
X147482282Y-67491399D02*
X147329779Y-67338896D01*
X147991399Y-66982282D02*
X147838896Y-66829779D01*
%TO.C,C39*%
X81811766Y-129450595D02*
X82027438Y-129450595D01*
X81811766Y-130170595D02*
X82027438Y-130170595D01*
%TO.C,C47*%
X60261766Y-112390595D02*
X60477438Y-112390595D01*
X60261766Y-113110595D02*
X60477438Y-113110595D01*
%TO.C,R51*%
X108265961Y-151510595D02*
X108573243Y-151510595D01*
X108265961Y-152270595D02*
X108573243Y-152270595D01*
%TO.C,R84*%
X162762659Y-53939940D02*
X162979940Y-53722659D01*
X163300060Y-54477341D02*
X163517341Y-54260060D01*
%TO.C,C54*%
X241192164Y-135280000D02*
X241407836Y-135280000D01*
X241192164Y-136000000D02*
X241407836Y-136000000D01*
%TO.C,TP3*%
X95159602Y-115110595D02*
X96559602Y-115110595D01*
X95159602Y-116510595D02*
X95159602Y-115110595D01*
X96559602Y-115110595D02*
X96559602Y-116510595D01*
X96559602Y-116510595D02*
X95159602Y-116510595D01*
%TO.C,C65*%
X152491399Y-73178307D02*
X152338896Y-73330810D01*
X151982282Y-72669190D02*
X151829779Y-72821693D01*
%TO.C,L4*%
X152071445Y-74386596D02*
X152636596Y-73821445D01*
X152863404Y-75178555D02*
X153428555Y-74613404D01*
%TO.C,C11*%
X69783335Y-144340595D02*
X70075869Y-144340595D01*
X69783335Y-145360595D02*
X70075869Y-145360595D01*
%TO.C,Q15*%
X148387500Y-74790000D02*
X146712500Y-74790000D01*
X148387500Y-74790000D02*
X149037500Y-74790000D01*
X148387500Y-77910000D02*
X147737500Y-77910000D01*
X148387500Y-77910000D02*
X149037500Y-77910000D01*
%TO.C,C41*%
X109760000Y-54760000D02*
X118170000Y-54760000D01*
X118170000Y-54760000D02*
X118170000Y-70300000D01*
X118170000Y-70300000D02*
X109760000Y-70300000D01*
X109760000Y-70300000D02*
X109760000Y-54760000D01*
%TO.C,C6*%
X60261766Y-107370595D02*
X60477438Y-107370595D01*
X60261766Y-108090595D02*
X60477438Y-108090595D01*
%TO.C,C36*%
X81811766Y-124430595D02*
X82027438Y-124430595D01*
X81811766Y-125150595D02*
X82027438Y-125150595D01*
%TO.C,Q17*%
X207940000Y-153630000D02*
X206265000Y-153630000D01*
X207940000Y-153630000D02*
X208590000Y-153630000D01*
X207940000Y-156750000D02*
X207290000Y-156750000D01*
X207940000Y-156750000D02*
X208590000Y-156750000D01*
%TO.C,C30*%
X127901766Y-131340595D02*
X128117438Y-131340595D01*
X127901766Y-132060595D02*
X128117438Y-132060595D01*
%TO.C,R10*%
X136416359Y-137730000D02*
X136723641Y-137730000D01*
X136416359Y-138490000D02*
X136723641Y-138490000D01*
%TO.C,C50*%
X238322164Y-145130000D02*
X238537836Y-145130000D01*
X238322164Y-145850000D02*
X238537836Y-145850000D01*
%TO.C,D6*%
X130700000Y-55090000D02*
X129300000Y-55090000D01*
X129300000Y-57410000D02*
X131200000Y-57410000D01*
%TO.C,J8*%
X184572898Y-67902200D02*
X185927317Y-67902200D01*
X188916298Y-66471161D02*
X188916298Y-59528839D01*
X184572898Y-66162940D02*
X184572898Y-67902200D01*
X184572898Y-58097800D02*
X184572898Y-59837060D01*
X185927317Y-58097800D02*
X184572898Y-58097800D01*
X184881000Y-69680200D02*
G75*
G03*
X184881000Y-69680200I-381000J0D01*
G01*
%TO.C,JP6*%
X246380000Y-139890000D02*
X246380000Y-139290000D01*
X247080000Y-138590000D02*
X248480000Y-138590000D01*
X248480000Y-140590000D02*
X247080000Y-140590000D01*
X249180000Y-139290000D02*
X249180000Y-139890000D01*
X247080000Y-138590000D02*
G75*
G03*
X246380000Y-139290000I-1J-699999D01*
G01*
X246380000Y-139890000D02*
G75*
G03*
X247080000Y-140590000I699999J-1D01*
G01*
X249180000Y-139290000D02*
G75*
G03*
X248480000Y-138590000I-700000J0D01*
G01*
X248480000Y-140590000D02*
G75*
G03*
X249180000Y-139890000I0J700000D01*
G01*
%TO.C,C28*%
X108311766Y-158550595D02*
X108527438Y-158550595D01*
X108311766Y-159270595D02*
X108527438Y-159270595D01*
%TO.C,R35*%
X153710060Y-54022659D02*
X153927341Y-54239940D01*
X153172659Y-54560060D02*
X153389940Y-54777341D01*
%TO.C,C66*%
X154071693Y-72830810D02*
X153919190Y-72678307D01*
X154580810Y-72321693D02*
X154428307Y-72169190D01*
%TO.C,R18*%
X135880000Y-55546359D02*
X135880000Y-55853641D01*
X135120000Y-55546359D02*
X135120000Y-55853641D01*
%TO.C,TP2*%
X126829602Y-158480595D02*
X128229602Y-158480595D01*
X126829602Y-159880595D02*
X126829602Y-158480595D01*
X128229602Y-158480595D02*
X128229602Y-159880595D01*
X128229602Y-159880595D02*
X126829602Y-159880595D01*
%TO.C,R19*%
X134680000Y-55546359D02*
X134680000Y-55853641D01*
X133920000Y-55546359D02*
X133920000Y-55853641D01*
%TO.C,R6*%
X141326359Y-135740000D02*
X141633641Y-135740000D01*
X141326359Y-136500000D02*
X141633641Y-136500000D01*
%TO.C,TP1*%
X95159602Y-112060595D02*
X96559602Y-112060595D01*
X95159602Y-113460595D02*
X95159602Y-112060595D01*
X96559602Y-112060595D02*
X96559602Y-113460595D01*
X96559602Y-113460595D02*
X95159602Y-113460595D01*
%TO.C,D4*%
X130300000Y-62350000D02*
X132300000Y-62350000D01*
X130300000Y-62350000D02*
X130300000Y-58450000D01*
X132300000Y-62350000D02*
X132300000Y-58450000D01*
%TO.C,C53*%
X241192164Y-133310000D02*
X241407836Y-133310000D01*
X241192164Y-134030000D02*
X241407836Y-134030000D01*
%TO.C,C4*%
X177392164Y-66740000D02*
X177607836Y-66740000D01*
X177392164Y-67460000D02*
X177607836Y-67460000D01*
%TO.C,D11*%
X100769602Y-124200595D02*
X99094602Y-124200595D01*
X100769602Y-124200595D02*
X101419602Y-124200595D01*
X100769602Y-127320595D02*
X100119602Y-127320595D01*
X100769602Y-127320595D02*
X101419602Y-127320595D01*
%TO.C,R76*%
X150495000Y-76688641D02*
X150495000Y-76381359D01*
X151255000Y-76688641D02*
X151255000Y-76381359D01*
D17*
%TO.C,U1*%
X173874400Y-63628400D02*
X173874400Y-63855630D01*
X173874400Y-66144370D02*
X173874400Y-66371600D01*
X173874400Y-66371600D02*
X174599261Y-66371600D01*
X174599261Y-63628400D02*
X173874400Y-63628400D01*
X176400739Y-66371600D02*
X177125600Y-66371600D01*
X177125600Y-63628400D02*
X176400739Y-63628400D01*
X177125600Y-63855630D02*
X177125600Y-63628400D01*
X177125600Y-66371600D02*
X177125600Y-66144370D01*
G36*
X177405000Y-64940437D02*
G01*
X177151000Y-64940437D01*
X177151000Y-64559437D01*
X177405000Y-64559437D01*
X177405000Y-64940437D01*
G37*
D14*
%TO.C,D2*%
X129900000Y-57850000D02*
X127900000Y-57850000D01*
X129900000Y-57850000D02*
X129900000Y-61750000D01*
X127900000Y-57850000D02*
X127900000Y-61750000D01*
%TO.C,D20*%
X242735000Y-125735000D02*
X242735000Y-127205000D01*
X242735000Y-127205000D02*
X245020000Y-127205000D01*
X245020000Y-125735000D02*
X242735000Y-125735000D01*
%TO.C,C26*%
X139390580Y-59010000D02*
X139109420Y-59010000D01*
X139390580Y-57990000D02*
X139109420Y-57990000D01*
%TO.C,D1*%
X114250000Y-54500000D02*
X114250000Y-52500000D01*
X114250000Y-54500000D02*
X110350000Y-54500000D01*
X114250000Y-52500000D02*
X110350000Y-52500000D01*
%TO.C,D19*%
X242735000Y-123145000D02*
X242735000Y-124615000D01*
X242735000Y-124615000D02*
X245020000Y-124615000D01*
X245020000Y-123145000D02*
X242735000Y-123145000D01*
%TO.C,U3*%
X120750000Y-48840000D02*
X126760000Y-48840000D01*
X123000000Y-55660000D02*
X126760000Y-55660000D01*
X126760000Y-48840000D02*
X126760000Y-50100000D01*
X126760000Y-55660000D02*
X126760000Y-54400000D01*
D13*
%TO.C,U16*%
X120000000Y-60265000D02*
X123000000Y-60265000D01*
X120000000Y-63335000D02*
X123000000Y-63335000D01*
D15*
X118080000Y-60545000D02*
G75*
G03*
X118080000Y-60545000I-100000J0D01*
G01*
D14*
%TO.C,R80*%
X234016359Y-112840000D02*
X234323641Y-112840000D01*
X234016359Y-113600000D02*
X234323641Y-113600000D01*
%TO.C,R78*%
X231106359Y-122790000D02*
X231413641Y-122790000D01*
X231106359Y-123550000D02*
X231413641Y-123550000D01*
D13*
%TO.C,BT2*%
X92999602Y-139264595D02*
X93399602Y-139264595D01*
X93199602Y-139064595D02*
X93199602Y-139464595D01*
X91499602Y-140910595D02*
G75*
G03*
X91499602Y-140910595I-3400000J0D01*
G01*
D14*
%TO.C,R55*%
X184880000Y-49346359D02*
X184880000Y-49653641D01*
X184120000Y-49346359D02*
X184120000Y-49653641D01*
%TO.C,TP5*%
X126829602Y-161530595D02*
X128229602Y-161530595D01*
X126829602Y-162930595D02*
X126829602Y-161530595D01*
X128229602Y-161530595D02*
X128229602Y-162930595D01*
X128229602Y-162930595D02*
X126829602Y-162930595D01*
%TO.C,C5*%
X120210000Y-55842164D02*
X120210000Y-56057836D01*
X119490000Y-55842164D02*
X119490000Y-56057836D01*
%TO.C,R7*%
X64225961Y-107350595D02*
X64533243Y-107350595D01*
X64225961Y-108110595D02*
X64533243Y-108110595D01*
%TO.C,R56*%
X81765961Y-134450595D02*
X82073243Y-134450595D01*
X81765961Y-135210595D02*
X82073243Y-135210595D01*
%TO.C,R9*%
X64142344Y-112228095D02*
X64616860Y-112228095D01*
X64142344Y-113273095D02*
X64616860Y-113273095D01*
%TO.C,TP7*%
X129879602Y-161530595D02*
X131279602Y-161530595D01*
X129879602Y-162930595D02*
X129879602Y-161530595D01*
X131279602Y-161530595D02*
X131279602Y-162930595D01*
X131279602Y-162930595D02*
X129879602Y-162930595D01*
%TO.C,C51*%
X119192164Y-58040000D02*
X119407836Y-58040000D01*
X119192164Y-58760000D02*
X119407836Y-58760000D01*
%TO.C,D3*%
X115939602Y-129050595D02*
X115939602Y-130250595D01*
X117789602Y-129050595D02*
X115939602Y-129050595D01*
X117789602Y-130250595D02*
X115939602Y-130250595D01*
%TO.C,R5*%
X136416359Y-135740000D02*
X136723641Y-135740000D01*
X136416359Y-136500000D02*
X136723641Y-136500000D01*
%TO.C,J6*%
X103050000Y-69850000D02*
X103050000Y-70300000D01*
X101200000Y-69850000D02*
X103050000Y-69850000D01*
X98650000Y-69850000D02*
X98900000Y-69850000D01*
X103600000Y-72050000D02*
X103150000Y-72050000D01*
X103600000Y-72050000D02*
X103600000Y-72500000D01*
X103050000Y-77650000D02*
X103050000Y-77200000D01*
X101200000Y-77650000D02*
X103050000Y-77650000D01*
X98650000Y-77650000D02*
X98900000Y-77650000D01*
%TO.C,R31*%
X108265961Y-134450595D02*
X108573243Y-134450595D01*
X108265961Y-135210595D02*
X108573243Y-135210595D01*
%TO.C,TP9*%
X132929602Y-161530595D02*
X134329602Y-161530595D01*
X132929602Y-162930595D02*
X132929602Y-161530595D01*
X134329602Y-161530595D02*
X134329602Y-162930595D01*
X134329602Y-162930595D02*
X132929602Y-162930595D01*
%TO.C,C27*%
X139490000Y-56415580D02*
X139490000Y-56134420D01*
X140510000Y-56415580D02*
X140510000Y-56134420D01*
%TO.C,U6*%
X148444942Y-63395695D02*
X148939916Y-63890670D01*
X148939916Y-63890670D02*
X147974716Y-64855871D01*
X158500000Y-73450753D02*
X158005025Y-72955779D01*
X148939916Y-62900720D02*
X148444942Y-63395695D01*
X158994975Y-72955779D02*
X158500000Y-73450753D01*
X158005025Y-53835611D02*
X158500000Y-53340637D01*
X168060084Y-63890670D02*
X168555058Y-63395695D01*
X158500000Y-53340637D02*
X158994975Y-53835611D01*
X168555058Y-63395695D02*
X168060084Y-62900720D01*
%TO.C,R15*%
X108265961Y-141470595D02*
X108573243Y-141470595D01*
X108265961Y-142230595D02*
X108573243Y-142230595D01*
%TO.C,C67*%
X169228307Y-66219190D02*
X169380810Y-66371693D01*
X168719190Y-66728307D02*
X168871693Y-66880810D01*
%TO.C,R22*%
X162072659Y-53239940D02*
X162289940Y-53022659D01*
X162610060Y-53777341D02*
X162827341Y-53560060D01*
%TO.C,SW6*%
X236830000Y-121780000D02*
X240970000Y-121780000D01*
X236830000Y-122080000D02*
X236830000Y-121780000D01*
X236830000Y-124920000D02*
X236830000Y-124620000D01*
X240970000Y-121780000D02*
X240970000Y-122080000D01*
X240970000Y-124620000D02*
X240970000Y-124920000D01*
X240970000Y-124920000D02*
X236830000Y-124920000D01*
%TO.C,R65*%
X137180000Y-55546359D02*
X137180000Y-55853641D01*
X136420000Y-55546359D02*
X136420000Y-55853641D01*
%TO.C,C52*%
X241192164Y-131340000D02*
X241407836Y-131340000D01*
X241192164Y-132060000D02*
X241407836Y-132060000D01*
%TO.C,R23*%
X155610060Y-52122659D02*
X155827341Y-52339940D01*
X155072659Y-52660060D02*
X155289940Y-52877341D01*
%TO.C,C62*%
X145991399Y-68017718D02*
X145838896Y-68170221D01*
X145482282Y-67508601D02*
X145329779Y-67661104D01*
%TO.C,R11*%
X141326359Y-137730000D02*
X141633641Y-137730000D01*
X141326359Y-138490000D02*
X141633641Y-138490000D01*
%TO.C,C49*%
X238322164Y-143160000D02*
X238537836Y-143160000D01*
X238322164Y-143880000D02*
X238537836Y-143880000D01*
%TO.C,Q1*%
X109840000Y-50400000D02*
X109840000Y-52075000D01*
X109840000Y-50400000D02*
X109840000Y-49750000D01*
X112960000Y-50400000D02*
X112960000Y-51050000D01*
X112960000Y-50400000D02*
X112960000Y-49750000D01*
%TO.C,C48*%
X125592164Y-60140000D02*
X125807836Y-60140000D01*
X125592164Y-60860000D02*
X125807836Y-60860000D01*
%TO.C,C40*%
X81811766Y-131960595D02*
X82027438Y-131960595D01*
X81811766Y-132680595D02*
X82027438Y-132680595D01*
%TO.C,U2*%
X82419602Y-111900595D02*
X80619602Y-111900595D01*
X82419602Y-111900595D02*
X83219602Y-111900595D01*
X82419602Y-115020595D02*
X81619602Y-115020595D01*
X82419602Y-115020595D02*
X83219602Y-115020595D01*
%TO.C,D13*%
X95050000Y-89200000D02*
X95050000Y-90400000D01*
X96900000Y-89200000D02*
X95050000Y-89200000D01*
X96900000Y-90400000D02*
X95050000Y-90400000D01*
%TO.C,R14*%
X108265961Y-124410595D02*
X108573243Y-124410595D01*
X108265961Y-125170595D02*
X108573243Y-125170595D01*
%TO.C,U8*%
X104490000Y-74650000D02*
X104490000Y-76450000D01*
X104490000Y-74650000D02*
X104490000Y-73850000D01*
X107610000Y-74650000D02*
X107610000Y-75450000D01*
X107610000Y-74650000D02*
X107610000Y-73850000D01*
%TO.C,R8*%
X125556359Y-61120000D02*
X125863641Y-61120000D01*
X125556359Y-61880000D02*
X125863641Y-61880000D01*
%TO.C,R16*%
X136416359Y-139720000D02*
X136723641Y-139720000D01*
X136416359Y-140480000D02*
X136723641Y-140480000D01*
%TO.C,Y5*%
X145403984Y-69358579D02*
X146358579Y-68403984D01*
X146641421Y-70596016D02*
X147596016Y-69641421D01*
%TO.C,R57*%
X81765961Y-136960595D02*
X82073243Y-136960595D01*
X81765961Y-137720595D02*
X82073243Y-137720595D01*
%TO.C,TP4*%
X95159602Y-118160595D02*
X96559602Y-118160595D01*
X95159602Y-119560595D02*
X95159602Y-118160595D01*
X96559602Y-118160595D02*
X96559602Y-119560595D01*
X96559602Y-119560595D02*
X95159602Y-119560595D01*
%TO.C,D5*%
X115939602Y-146110595D02*
X115939602Y-147310595D01*
X117789602Y-146110595D02*
X115939602Y-146110595D01*
X117789602Y-147310595D02*
X115939602Y-147310595D01*
%TO.C,Q2*%
X124540000Y-58000000D02*
X124540000Y-59675000D01*
X124540000Y-58000000D02*
X124540000Y-57350000D01*
X127660000Y-58000000D02*
X127660000Y-58650000D01*
X127660000Y-58000000D02*
X127660000Y-57350000D01*
%TO.C,FB2*%
X139010000Y-56124721D02*
X139010000Y-56450279D01*
X137990000Y-56124721D02*
X137990000Y-56450279D01*
%TO.C,C29*%
X108311766Y-161060595D02*
X108527438Y-161060595D01*
X108311766Y-161780595D02*
X108527438Y-161780595D01*
%TO.C,R59*%
X64142344Y-117248095D02*
X64616860Y-117248095D01*
X64142344Y-118293095D02*
X64616860Y-118293095D01*
%TO.C,L2*%
X118350000Y-63600000D02*
X120080000Y-63600000D01*
X118350000Y-65330000D02*
X118350000Y-63600000D01*
X118730000Y-63980000D02*
X118730000Y-65550000D01*
X118730000Y-63980000D02*
X124670000Y-63980000D01*
X118730000Y-67850000D02*
X118730000Y-69420000D01*
X118730000Y-69420000D02*
X124670000Y-69420000D01*
X124670000Y-63980000D02*
X124670000Y-65550000D01*
X124670000Y-67850000D02*
X124670000Y-69420000D01*
%TO.C,C2*%
X177540000Y-65707836D02*
X177540000Y-65492164D01*
X178260000Y-65707836D02*
X178260000Y-65492164D01*
%TO.C,TP8*%
X132929602Y-158480595D02*
X134329602Y-158480595D01*
X132929602Y-159880595D02*
X132929602Y-158480595D01*
X134329602Y-158480595D02*
X134329602Y-159880595D01*
X134329602Y-159880595D02*
X132929602Y-159880595D01*
%TO.C,C56*%
X129238748Y-68065000D02*
X129761252Y-68065000D01*
X129238748Y-69535000D02*
X129761252Y-69535000D01*
%TO.C,R12*%
X140530000Y-69996359D02*
X140530000Y-70303641D01*
X139770000Y-69996359D02*
X139770000Y-70303641D01*
%TO.C,FB3*%
X184120000Y-52153641D02*
X184120000Y-51846359D01*
X184880000Y-52153641D02*
X184880000Y-51846359D01*
%TO.C,TP11*%
X135979602Y-161530595D02*
X137379602Y-161530595D01*
X135979602Y-162930595D02*
X135979602Y-161530595D01*
X137379602Y-161530595D02*
X137379602Y-162930595D01*
X137379602Y-162930595D02*
X135979602Y-162930595D01*
%TO.C,D12*%
X98884602Y-128545595D02*
X98884602Y-130015595D01*
X98884602Y-130015595D02*
X101169602Y-130015595D01*
X101169602Y-128545595D02*
X98884602Y-128545595D01*
%TO.C,C31*%
X160619190Y-51771693D02*
X160771693Y-51619190D01*
X161128307Y-52280810D02*
X161280810Y-52128307D01*
%TO.C,R3*%
X113320000Y-51553641D02*
X113320000Y-51246359D01*
X114080000Y-51553641D02*
X114080000Y-51246359D01*
%TO.C,R86*%
X171303641Y-58580000D02*
X170996359Y-58580000D01*
X171303641Y-57820000D02*
X170996359Y-57820000D01*
%TO.C,Q16*%
X207940000Y-149180000D02*
X206265000Y-149180000D01*
X207940000Y-149180000D02*
X208590000Y-149180000D01*
X207940000Y-152300000D02*
X207290000Y-152300000D01*
X207940000Y-152300000D02*
X208590000Y-152300000D01*
%TO.C,J3*%
X136900000Y-71840000D02*
X136900000Y-70100000D01*
X136900000Y-70100000D02*
X135400000Y-70100000D01*
X136660000Y-77460000D02*
X136660000Y-70340000D01*
X136660000Y-77460000D02*
X121840000Y-77460000D01*
X136660000Y-71900000D02*
X121840000Y-71900000D01*
X136660000Y-70340000D02*
X121840000Y-70340000D01*
X121840000Y-77460000D02*
X121840000Y-70340000D01*
X135932000Y-74608000D02*
G75*
G03*
X135932109Y-73392258I-1432000J608000D01*
G01*
X133892000Y-75432000D02*
G75*
G03*
X135107742Y-75432109I608000J1432000D01*
G01*
X135108000Y-72568001D02*
G75*
G03*
X134472989Y-72444508I-607998J-1431987D01*
G01*
X134500000Y-72445001D02*
G75*
G03*
X133892413Y-72568616I0J-1554999D01*
G01*
X133068000Y-73392000D02*
G75*
G03*
X133067891Y-74607742I1432003J-607999D01*
G01*
X132555000Y-74000000D02*
G75*
G03*
X132555000Y-74000000I-1555000J0D01*
G01*
X129055000Y-74000000D02*
G75*
G03*
X129055000Y-74000000I-1555000J0D01*
G01*
X125555000Y-74000000D02*
G75*
G03*
X125555000Y-74000000I-1555000J0D01*
G01*
%TO.C,R87*%
X171303641Y-59780000D02*
X170996359Y-59780000D01*
X171303641Y-59020000D02*
X170996359Y-59020000D01*
%TO.C,C8*%
X121607836Y-56760000D02*
X121392164Y-56760000D01*
X121607836Y-56040000D02*
X121392164Y-56040000D01*
%TO.C,C63*%
X144482282Y-71830810D02*
X144329779Y-71678307D01*
X144991399Y-71321693D02*
X144838896Y-71169190D01*
%TO.C,R79*%
X231106359Y-124780000D02*
X231413641Y-124780000D01*
X231106359Y-125540000D02*
X231413641Y-125540000D01*
%TO.C,C37*%
X185872164Y-48590000D02*
X186087836Y-48590000D01*
X185872164Y-49310000D02*
X186087836Y-49310000D01*
D13*
%TO.C,SW1*%
X108320000Y-58425000D02*
X96080000Y-58425000D01*
X96080000Y-58425000D02*
X96080000Y-65575000D01*
X108320000Y-60500000D02*
X108320000Y-58425000D01*
X108320000Y-65575000D02*
X108320000Y-63500000D01*
X96080000Y-65575000D02*
X108320000Y-65575000D01*
X105010000Y-65920000D02*
X104610000Y-66620000D01*
X105410000Y-66620000D02*
X105010000Y-65920000D01*
X104610000Y-66620000D02*
X105410000Y-66620000D01*
D14*
%TO.C,Q6*%
X112869602Y-133100595D02*
X111194602Y-133100595D01*
X112869602Y-133100595D02*
X113519602Y-133100595D01*
X112869602Y-136220595D02*
X112219602Y-136220595D01*
X112869602Y-136220595D02*
X113519602Y-136220595D01*
%TO.C,R75*%
X231106359Y-116820000D02*
X231413641Y-116820000D01*
X231106359Y-117580000D02*
X231413641Y-117580000D01*
%TO.C,C7*%
X123292164Y-56040000D02*
X123507836Y-56040000D01*
X123292164Y-56760000D02*
X123507836Y-56760000D01*
%TD*%
M02*
