%TF.GenerationSoftware,KiCad,Pcbnew,7.0.7*%
%TF.CreationDate,2023-11-07T13:11:27+11:00*%
%TF.ProjectId,Strelka_Flight_Computer,53747265-6c6b-4615-9f46-6c696768745f,2*%
%TF.SameCoordinates,Original*%
%TF.FileFunction,Paste,Top*%
%TF.FilePolarity,Positive*%
%FSLAX46Y46*%
G04 Gerber Fmt 4.6, Leading zero omitted, Abs format (unit mm)*
G04 Created by KiCad (PCBNEW 7.0.7) date 2023-11-07 13:11:27*
%MOMM*%
%LPD*%
G01*
G04 APERTURE LIST*
G04 Aperture macros list*
%AMRoundRect*
0 Rectangle with rounded corners*
0 $1 Rounding radius*
0 $2 $3 $4 $5 $6 $7 $8 $9 X,Y pos of 4 corners*
0 Add a 4 corners polygon primitive as box body*
4,1,4,$2,$3,$4,$5,$6,$7,$8,$9,$2,$3,0*
0 Add four circle primitives for the rounded corners*
1,1,$1+$1,$2,$3*
1,1,$1+$1,$4,$5*
1,1,$1+$1,$6,$7*
1,1,$1+$1,$8,$9*
0 Add four rect primitives between the rounded corners*
20,1,$1+$1,$2,$3,$4,$5,0*
20,1,$1+$1,$4,$5,$6,$7,0*
20,1,$1+$1,$6,$7,$8,$9,0*
20,1,$1+$1,$8,$9,$2,$3,0*%
%AMRotRect*
0 Rectangle, with rotation*
0 The origin of the aperture is its center*
0 $1 length*
0 $2 width*
0 $3 Rotation angle, in degrees counterclockwise*
0 Add horizontal line*
21,1,$1,$2,0,0,$3*%
G04 Aperture macros list end*
%ADD10C,0.152400*%
%ADD11RoundRect,0.135000X-0.185000X0.135000X-0.185000X-0.135000X0.185000X-0.135000X0.185000X0.135000X0*%
%ADD12R,0.863600X0.457200*%
%ADD13R,0.400000X0.650000*%
%ADD14RoundRect,0.225000X-0.225000X-0.250000X0.225000X-0.250000X0.225000X0.250000X-0.225000X0.250000X0*%
%ADD15RoundRect,0.005000X-0.332500X-0.120000X0.332500X-0.120000X0.332500X0.120000X-0.332500X0.120000X0*%
%ADD16RoundRect,0.005000X0.120000X-0.270000X0.120000X0.270000X-0.120000X0.270000X-0.120000X-0.270000X0*%
%ADD17RoundRect,0.135000X-0.226274X-0.035355X-0.035355X-0.226274X0.226274X0.035355X0.035355X0.226274X0*%
%ADD18R,0.700000X1.800000*%
%ADD19R,0.800000X1.800000*%
%ADD20R,1.092200X0.609600*%
%ADD21RoundRect,0.135000X0.185000X-0.135000X0.185000X0.135000X-0.185000X0.135000X-0.185000X-0.135000X0*%
%ADD22R,0.600000X1.700000*%
%ADD23R,1.000000X2.700000*%
%ADD24RoundRect,0.200000X0.200000X0.800000X-0.200000X0.800000X-0.200000X-0.800000X0.200000X-0.800000X0*%
%ADD25RoundRect,0.135000X-0.135000X-0.185000X0.135000X-0.185000X0.135000X0.185000X-0.135000X0.185000X0*%
%ADD26R,1.200000X0.900000*%
%ADD27RoundRect,0.140000X-0.170000X0.140000X-0.170000X-0.140000X0.170000X-0.140000X0.170000X0.140000X0*%
%ADD28RoundRect,0.200000X-0.200000X-0.275000X0.200000X-0.275000X0.200000X0.275000X-0.200000X0.275000X0*%
%ADD29RotRect,1.400000X1.150000X315.000000*%
%ADD30RoundRect,0.225000X0.250000X-0.225000X0.250000X0.225000X-0.250000X0.225000X-0.250000X-0.225000X0*%
%ADD31RoundRect,0.140000X0.021213X-0.219203X0.219203X-0.021213X-0.021213X0.219203X-0.219203X0.021213X0*%
%ADD32RoundRect,0.135000X-0.035355X0.226274X-0.226274X0.035355X0.035355X-0.226274X0.226274X-0.035355X0*%
%ADD33RoundRect,0.200000X-0.275000X0.200000X-0.275000X-0.200000X0.275000X-0.200000X0.275000X0.200000X0*%
%ADD34RoundRect,0.140000X0.140000X0.170000X-0.140000X0.170000X-0.140000X-0.170000X0.140000X-0.170000X0*%
%ADD35RoundRect,0.250000X-0.250000X-0.475000X0.250000X-0.475000X0.250000X0.475000X-0.250000X0.475000X0*%
%ADD36RoundRect,0.140000X0.219203X0.021213X0.021213X0.219203X-0.219203X-0.021213X-0.021213X-0.219203X0*%
%ADD37RoundRect,0.250000X-0.450000X0.262500X-0.450000X-0.262500X0.450000X-0.262500X0.450000X0.262500X0*%
%ADD38RoundRect,0.147500X0.172500X-0.147500X0.172500X0.147500X-0.172500X0.147500X-0.172500X-0.147500X0*%
%ADD39RoundRect,0.200000X0.200000X0.275000X-0.200000X0.275000X-0.200000X-0.275000X0.200000X-0.275000X0*%
%ADD40RoundRect,0.135000X0.135000X0.185000X-0.135000X0.185000X-0.135000X-0.185000X0.135000X-0.185000X0*%
%ADD41RoundRect,0.140000X-0.140000X-0.170000X0.140000X-0.170000X0.140000X0.170000X-0.140000X0.170000X0*%
%ADD42RoundRect,0.218750X0.218750X0.256250X-0.218750X0.256250X-0.218750X-0.256250X0.218750X-0.256250X0*%
%ADD43RoundRect,0.150000X-0.150000X0.587500X-0.150000X-0.587500X0.150000X-0.587500X0.150000X0.587500X0*%
%ADD44RoundRect,0.135000X0.035355X-0.226274X0.226274X-0.035355X-0.035355X0.226274X-0.226274X0.035355X0*%
%ADD45RoundRect,0.140000X-0.021213X0.219203X-0.219203X0.021213X0.021213X-0.219203X0.219203X-0.021213X0*%
%ADD46RoundRect,0.218750X0.114905X-0.424264X0.424264X-0.114905X-0.114905X0.424264X-0.424264X0.114905X0*%
%ADD47RoundRect,0.237500X0.300000X0.237500X-0.300000X0.237500X-0.300000X-0.237500X0.300000X-0.237500X0*%
%ADD48RoundRect,0.150000X-0.587500X-0.150000X0.587500X-0.150000X0.587500X0.150000X-0.587500X0.150000X0*%
%ADD49RoundRect,0.140000X0.170000X-0.140000X0.170000X0.140000X-0.170000X0.140000X-0.170000X-0.140000X0*%
%ADD50R,0.650000X0.400000*%
%ADD51R,1.803400X0.660400*%
%ADD52R,2.879999X1.092200*%
%ADD53R,0.533400X0.304800*%
%ADD54R,0.304800X0.533400*%
%ADD55RoundRect,0.218750X0.256250X-0.218750X0.256250X0.218750X-0.256250X0.218750X-0.256250X-0.218750X0*%
%ADD56RoundRect,0.225000X0.225000X0.250000X-0.225000X0.250000X-0.225000X-0.250000X0.225000X-0.250000X0*%
%ADD57R,0.900000X1.200000*%
%ADD58RoundRect,0.218750X-0.218750X-0.256250X0.218750X-0.256250X0.218750X0.256250X-0.218750X0.256250X0*%
%ADD59R,2.000000X1.500000*%
%ADD60R,2.000000X3.800000*%
%ADD61RoundRect,0.028800X-0.706200X-0.211200X0.706200X-0.211200X0.706200X0.211200X-0.706200X0.211200X0*%
%ADD62R,0.700000X0.600000*%
%ADD63R,1.350000X0.400000*%
%ADD64R,1.900000X1.500000*%
%ADD65RoundRect,0.075000X-0.459619X-0.565685X0.565685X0.459619X0.459619X0.565685X-0.565685X-0.459619X0*%
%ADD66RoundRect,0.075000X0.459619X-0.565685X0.565685X-0.459619X-0.459619X0.565685X-0.565685X0.459619X0*%
%ADD67RoundRect,0.140000X-0.219203X-0.021213X-0.021213X-0.219203X0.219203X0.021213X0.021213X0.219203X0*%
%ADD68RoundRect,0.200000X0.800000X-0.200000X0.800000X0.200000X-0.800000X0.200000X-0.800000X-0.200000X0*%
%ADD69RoundRect,0.150000X0.150000X-0.587500X0.150000X0.587500X-0.150000X0.587500X-0.150000X-0.587500X0*%
%ADD70R,0.600000X0.700000*%
%ADD71RoundRect,0.150000X0.150000X-0.512500X0.150000X0.512500X-0.150000X0.512500X-0.150000X-0.512500X0*%
%ADD72RotRect,1.000000X1.800000X45.000000*%
%ADD73RoundRect,0.218750X-0.256250X0.218750X-0.256250X-0.218750X0.256250X-0.218750X0.256250X0.218750X0*%
%ADD74RoundRect,0.200000X0.275000X-0.200000X0.275000X0.200000X-0.275000X0.200000X-0.275000X-0.200000X0*%
%ADD75RoundRect,0.450000X-0.550000X-0.450000X0.550000X-0.450000X0.550000X0.450000X-0.550000X0.450000X0*%
%ADD76RoundRect,0.381000X1.369000X0.381000X-1.369000X0.381000X-1.369000X-0.381000X1.369000X-0.381000X0*%
G04 APERTURE END LIST*
D10*
%TO.C,U12*%
X173853900Y-68945200D02*
X173853900Y-69554800D01*
X173853900Y-69554800D02*
X174946100Y-69554800D01*
X173853900Y-70195200D02*
X173853900Y-70804800D01*
X173853900Y-70804800D02*
X174946100Y-70804800D01*
X173853900Y-71445200D02*
X173853900Y-72054800D01*
X173853900Y-72054800D02*
X174946100Y-72054800D01*
X173853900Y-72695200D02*
X173853900Y-73304800D01*
X173853900Y-73304800D02*
X174946100Y-73304800D01*
X174946100Y-68945200D02*
X173853900Y-68945200D01*
X174946100Y-69554800D02*
X174946100Y-68945200D01*
X174946100Y-70195200D02*
X173853900Y-70195200D01*
X174946100Y-70804800D02*
X174946100Y-70195200D01*
X174946100Y-71445200D02*
X173853900Y-71445200D01*
X174946100Y-72054800D02*
X174946100Y-71445200D01*
X174946100Y-72695200D02*
X173853900Y-72695200D01*
X174946100Y-73304800D02*
X174946100Y-72695200D01*
X176053900Y-68945200D02*
X176053900Y-69554800D01*
X176053900Y-69554800D02*
X177146100Y-69554800D01*
X176053900Y-70195200D02*
X176053900Y-70804800D01*
X176053900Y-70804800D02*
X177146100Y-70804800D01*
X176053900Y-71445200D02*
X176053900Y-72054800D01*
X176053900Y-72054800D02*
X177146100Y-72054800D01*
X176053900Y-72695200D02*
X176053900Y-73304800D01*
X176053900Y-73304800D02*
X177146100Y-73304800D01*
X177146100Y-68945200D02*
X176053900Y-68945200D01*
X177146100Y-69554800D02*
X177146100Y-68945200D01*
X177146100Y-70195200D02*
X176053900Y-70195200D01*
X177146100Y-70804800D02*
X177146100Y-70195200D01*
X177146100Y-71445200D02*
X176053900Y-71445200D01*
X177146100Y-72054800D02*
X177146100Y-71445200D01*
X177146100Y-72695200D02*
X176053900Y-72695200D01*
X177146100Y-73304800D02*
X177146100Y-72695200D01*
%TD*%
D11*
%TO.C,R26*%
X142750000Y-70290000D03*
X142750000Y-71310000D03*
%TD*%
D12*
%TO.C,FL1*%
X143328700Y-67450000D03*
X143328700Y-66600000D03*
X141271300Y-66600000D03*
X141271300Y-67450000D03*
%TD*%
D13*
%TO.C,D7*%
X142950000Y-63350000D03*
X142300000Y-63350000D03*
X141650000Y-63350000D03*
X141650000Y-65250000D03*
X142950000Y-65250000D03*
%TD*%
D14*
%TO.C,C15*%
X141525000Y-69050000D03*
X143075000Y-69050000D03*
%TD*%
D15*
%TO.C,U11*%
X182025000Y-63500000D03*
X182025000Y-64000000D03*
X182025000Y-64500000D03*
X182025000Y-65000000D03*
X182025000Y-65500000D03*
X182025000Y-66000000D03*
X182025000Y-66500000D03*
D16*
X181262500Y-67050000D03*
X180762500Y-67050000D03*
X180262500Y-67050000D03*
D15*
X179500000Y-66500000D03*
X179500000Y-66000000D03*
X179500000Y-65500000D03*
X179500000Y-65000000D03*
X179500000Y-64500000D03*
X179500000Y-64000000D03*
X179500000Y-63500000D03*
D16*
X180262500Y-62950000D03*
X180762500Y-62950000D03*
X181262500Y-62950000D03*
%TD*%
D17*
%TO.C,R20*%
X154128752Y-53078752D03*
X154850000Y-53800000D03*
%TD*%
D18*
%TO.C,IC2*%
X173900000Y-60250000D03*
D19*
X175000000Y-60250000D03*
X176100000Y-60250000D03*
X177200000Y-60250000D03*
X178300000Y-60250000D03*
X179400000Y-60250000D03*
X180500000Y-60250000D03*
X181600000Y-60250000D03*
D18*
X182700000Y-60250000D03*
X182700000Y-50750000D03*
D19*
X181600000Y-50750000D03*
X180500000Y-50750000D03*
X179400000Y-50750000D03*
X178300000Y-50750000D03*
X177200000Y-50750000D03*
X176100000Y-50750000D03*
X175000000Y-50750000D03*
D18*
X173900000Y-50750000D03*
%TD*%
D20*
%TO.C,U12*%
X174400000Y-69250000D03*
X174400000Y-70500000D03*
X174400000Y-71750000D03*
X174400000Y-73000000D03*
X176600000Y-73000000D03*
X176600000Y-71750000D03*
X176600000Y-70500000D03*
X176600000Y-69250000D03*
%TD*%
D11*
%TO.C,R81*%
X141300000Y-57780000D03*
X141300000Y-58800000D03*
%TD*%
D21*
%TO.C,R13*%
X141750000Y-71300000D03*
X141750000Y-70280000D03*
%TD*%
%TO.C,R4*%
X134150000Y-61985000D03*
X134150000Y-60965000D03*
%TD*%
D22*
%TO.C,J2*%
X139875000Y-73325000D03*
X141125000Y-73325000D03*
X142375000Y-73325000D03*
X143625000Y-73325000D03*
D23*
X145475000Y-76525000D03*
X138025000Y-76525000D03*
%TD*%
D24*
%TO.C,SW7*%
X182900000Y-76425000D03*
X178700000Y-76425000D03*
%TD*%
D25*
%TO.C,R74*%
X151865000Y-77725000D03*
X152885000Y-77725000D03*
%TD*%
D26*
%TO.C,D14*%
X126500000Y-65750000D03*
X126500000Y-69050000D03*
%TD*%
D27*
%TO.C,C38*%
X171631582Y-60380000D03*
X171631582Y-61340000D03*
%TD*%
D28*
%TO.C,R62*%
X122075000Y-59200000D03*
X123725000Y-59200000D03*
%TD*%
D21*
%TO.C,R17*%
X111725000Y-73760000D03*
X111725000Y-72740000D03*
%TD*%
D29*
%TO.C,Y6*%
X148756497Y-71087868D03*
X150312132Y-72643503D03*
X151443503Y-71512132D03*
X149887868Y-69956497D03*
%TD*%
D30*
%TO.C,C46*%
X117550000Y-61125000D03*
X117550000Y-59575000D03*
%TD*%
D25*
%TO.C,R61*%
X118790000Y-59500000D03*
X119810000Y-59500000D03*
%TD*%
D31*
%TO.C,C68*%
X161410589Y-53039411D03*
X162089411Y-52360589D03*
%TD*%
D32*
%TO.C,R25*%
X165360624Y-55639376D03*
X164639376Y-56360624D03*
%TD*%
D33*
%TO.C,R60*%
X108925000Y-75250000D03*
X108925000Y-76900000D03*
%TD*%
D34*
%TO.C,C10*%
X175180000Y-76525000D03*
X174220000Y-76525000D03*
%TD*%
D35*
%TO.C,C55*%
X128550000Y-66700000D03*
X130450000Y-66700000D03*
%TD*%
D36*
%TO.C,C60*%
X147339411Y-63534411D03*
X146660589Y-62855589D03*
%TD*%
D37*
%TO.C,F1*%
X138400000Y-69362500D03*
X138400000Y-71187500D03*
%TD*%
D25*
%TO.C,R77*%
X104865000Y-67475000D03*
X105885000Y-67475000D03*
%TD*%
D11*
%TO.C,R21*%
X133000000Y-55190000D03*
X133000000Y-56210000D03*
%TD*%
D22*
%TO.C,J4*%
X138032102Y-53408095D03*
X136782102Y-53408095D03*
X135532102Y-53408095D03*
X134282102Y-53408095D03*
X133032102Y-53408095D03*
X131782102Y-53408095D03*
D23*
X139882102Y-50208095D03*
X129932102Y-50208095D03*
%TD*%
D27*
%TO.C,C1*%
X145000000Y-65820000D03*
X145000000Y-66780000D03*
%TD*%
D38*
%TO.C,D10*%
X184500000Y-54485000D03*
X184500000Y-53515000D03*
%TD*%
D32*
%TO.C,R24*%
X164410624Y-54739376D03*
X163689376Y-55460624D03*
%TD*%
D39*
%TO.C,R63*%
X123725000Y-57700000D03*
X122075000Y-57700000D03*
%TD*%
D40*
%TO.C,R2*%
X130745000Y-63075000D03*
X129725000Y-63075000D03*
%TD*%
D41*
%TO.C,C3*%
X175090000Y-67100000D03*
X176050000Y-67100000D03*
%TD*%
D42*
%TO.C,D18*%
X148600000Y-73775000D03*
X147025000Y-73775000D03*
%TD*%
D43*
%TO.C,Q11*%
X137475000Y-63550000D03*
X135575000Y-63550000D03*
X136525000Y-65425000D03*
%TD*%
D35*
%TO.C,C14*%
X128550000Y-68700000D03*
X130450000Y-68700000D03*
%TD*%
D36*
%TO.C,C64*%
X147839411Y-72339411D03*
X147160589Y-71660589D03*
%TD*%
%TO.C,C61*%
X148000000Y-67500000D03*
X147321178Y-66821178D03*
%TD*%
D34*
%TO.C,C39*%
X186210000Y-57300000D03*
X185250000Y-57300000D03*
%TD*%
D27*
%TO.C,C47*%
X117700000Y-62320000D03*
X117700000Y-63280000D03*
%TD*%
D31*
%TO.C,C12*%
X165165589Y-71364411D03*
X165844411Y-70685589D03*
%TD*%
D11*
%TO.C,R51*%
X136425000Y-60965000D03*
X136425000Y-61985000D03*
%TD*%
D44*
%TO.C,R84*%
X162779376Y-54460624D03*
X163500624Y-53739376D03*
%TD*%
D36*
%TO.C,C54*%
X159139411Y-52969411D03*
X158460589Y-52290589D03*
%TD*%
D45*
%TO.C,C65*%
X152500000Y-72660589D03*
X151821178Y-73339411D03*
%TD*%
D46*
%TO.C,L4*%
X151998699Y-75251301D03*
X153501301Y-73748699D03*
%TD*%
D47*
%TO.C,C11*%
X175562500Y-74975000D03*
X173837500Y-74975000D03*
%TD*%
D48*
%TO.C,Q15*%
X147450000Y-75400000D03*
X147450000Y-77300000D03*
X149325000Y-76350000D03*
%TD*%
D49*
%TO.C,C6*%
X100351582Y-57450000D03*
X100351582Y-56490000D03*
%TD*%
D34*
%TO.C,C30*%
X173010000Y-69125000D03*
X172050000Y-69125000D03*
%TD*%
D11*
%TO.C,R10*%
X133050000Y-60965000D03*
X133050000Y-61985000D03*
%TD*%
D31*
%TO.C,C50*%
X169485589Y-63739411D03*
X170164411Y-63060589D03*
%TD*%
D50*
%TO.C,D6*%
X130950000Y-56900000D03*
X130950000Y-56250000D03*
X130950000Y-55600000D03*
X129050000Y-55600000D03*
X129050000Y-56900000D03*
%TD*%
D51*
%TO.C,J8*%
X184500000Y-65500000D03*
X184500000Y-64250000D03*
X184500000Y-63000000D03*
X184500000Y-61750000D03*
X184500000Y-60500000D03*
D52*
X187700001Y-67350001D03*
X187700001Y-58649999D03*
%TD*%
D41*
%TO.C,C28*%
X180045000Y-68175000D03*
X181005000Y-68175000D03*
%TD*%
D17*
%TO.C,R35*%
X153189376Y-54039376D03*
X153910624Y-54760624D03*
%TD*%
D36*
%TO.C,C66*%
X154589411Y-72839411D03*
X153910589Y-72160589D03*
%TD*%
D11*
%TO.C,R18*%
X135500000Y-55190000D03*
X135500000Y-56210000D03*
%TD*%
%TO.C,R19*%
X134300000Y-55190000D03*
X134300000Y-56210000D03*
%TD*%
D21*
%TO.C,R6*%
X137500000Y-61860000D03*
X137500000Y-60840000D03*
%TD*%
D26*
%TO.C,D4*%
X131300000Y-61750000D03*
X131300000Y-58450000D03*
%TD*%
D36*
%TO.C,C53*%
X159789411Y-74494411D03*
X159110589Y-73815589D03*
%TD*%
D41*
%TO.C,C4*%
X177020000Y-67100000D03*
X177980000Y-67100000D03*
%TD*%
D21*
%TO.C,R76*%
X150875000Y-77045000D03*
X150875000Y-76025000D03*
%TD*%
D53*
%TO.C,U1*%
X174369700Y-64249811D03*
X174369700Y-64749937D03*
X174369700Y-65250063D03*
X174369700Y-65750189D03*
D54*
X174999874Y-65883300D03*
X175500000Y-65883300D03*
X176000126Y-65883300D03*
D53*
X176630300Y-65750189D03*
X176630300Y-65250063D03*
X176630300Y-64749937D03*
X176630300Y-64249811D03*
D54*
X176000126Y-64116700D03*
X175500000Y-64116700D03*
X174999874Y-64116700D03*
%TD*%
D26*
%TO.C,D2*%
X128900000Y-58450000D03*
X128900000Y-61750000D03*
%TD*%
D55*
%TO.C,D20*%
X119140000Y-56260000D03*
X119140000Y-54685000D03*
%TD*%
D56*
%TO.C,C26*%
X140025000Y-58500000D03*
X138475000Y-58500000D03*
%TD*%
D57*
%TO.C,D1*%
X113650000Y-53500000D03*
X110350000Y-53500000D03*
%TD*%
D58*
%TO.C,D19*%
X107137500Y-67750000D03*
X108712500Y-67750000D03*
%TD*%
D59*
%TO.C,U3*%
X121700000Y-49950000D03*
X121700000Y-52250000D03*
D60*
X128000000Y-52250000D03*
D59*
X121700000Y-54550000D03*
%TD*%
D61*
%TO.C,U16*%
X119350000Y-60825000D03*
X119350000Y-61475000D03*
X119350000Y-62125000D03*
X119350000Y-62775000D03*
X123650000Y-62775000D03*
X123650000Y-62125000D03*
X123650000Y-61475000D03*
X123650000Y-60825000D03*
%TD*%
D11*
%TO.C,R80*%
X142300000Y-57775000D03*
X142300000Y-58795000D03*
%TD*%
D25*
%TO.C,R78*%
X114880000Y-54180000D03*
X115900000Y-54180000D03*
%TD*%
D11*
%TO.C,R55*%
X184500000Y-48990000D03*
X184500000Y-50010000D03*
%TD*%
D41*
%TO.C,C13*%
X160195000Y-77600000D03*
X161155000Y-77600000D03*
%TD*%
D27*
%TO.C,C5*%
X120875000Y-57445000D03*
X120875000Y-58405000D03*
%TD*%
D11*
%TO.C,R7*%
X99291582Y-56460000D03*
X99291582Y-57480000D03*
%TD*%
D44*
%TO.C,R56*%
X164440958Y-70660624D03*
X165162206Y-69939376D03*
%TD*%
D39*
%TO.C,R9*%
X103576582Y-56970000D03*
X101926582Y-56970000D03*
%TD*%
D41*
%TO.C,C51*%
X118820000Y-58400000D03*
X119780000Y-58400000D03*
%TD*%
D62*
%TO.C,D3*%
X114000000Y-75150000D03*
X114000000Y-76550000D03*
%TD*%
D25*
%TO.C,R5*%
X129150000Y-65150000D03*
X130170000Y-65150000D03*
%TD*%
D63*
%TO.C,J6*%
X102750000Y-72450000D03*
X102750000Y-73100000D03*
X102750000Y-73750000D03*
X102750000Y-74400000D03*
X102750000Y-75050000D03*
D64*
X100050000Y-72750000D03*
X100050000Y-74750000D03*
%TD*%
D40*
%TO.C,R31*%
X130160000Y-64100000D03*
X129140000Y-64100000D03*
%TD*%
D30*
%TO.C,C27*%
X140000000Y-57050000D03*
X140000000Y-55500000D03*
%TD*%
D65*
%TO.C,U6*%
X148830315Y-64580099D03*
X149183868Y-64933652D03*
X149537422Y-65287206D03*
X149890975Y-65640759D03*
X150244528Y-65994312D03*
X150598082Y-66347866D03*
X150951635Y-66701419D03*
X151305189Y-67054973D03*
X151658742Y-67408526D03*
X152012295Y-67762079D03*
X152365849Y-68115633D03*
X152719402Y-68469186D03*
X153072955Y-68822740D03*
X153426509Y-69176293D03*
X153780062Y-69529846D03*
X154133616Y-69883400D03*
X154487169Y-70236953D03*
X154840722Y-70590506D03*
X155194276Y-70944060D03*
X155547829Y-71297613D03*
X155901383Y-71651167D03*
X156254936Y-72004720D03*
X156608489Y-72358273D03*
X156962043Y-72711827D03*
X157315596Y-73065380D03*
D66*
X159684404Y-73065380D03*
X160037957Y-72711827D03*
X160391511Y-72358273D03*
X160745064Y-72004720D03*
X161098617Y-71651167D03*
X161452171Y-71297613D03*
X161805724Y-70944060D03*
X162159278Y-70590506D03*
X162512831Y-70236953D03*
X162866384Y-69883400D03*
X163219938Y-69529846D03*
X163573491Y-69176293D03*
X163927045Y-68822740D03*
X164280598Y-68469186D03*
X164634151Y-68115633D03*
X164987705Y-67762079D03*
X165341258Y-67408526D03*
X165694811Y-67054973D03*
X166048365Y-66701419D03*
X166401918Y-66347866D03*
X166755472Y-65994312D03*
X167109025Y-65640759D03*
X167462578Y-65287206D03*
X167816132Y-64933652D03*
X168169685Y-64580099D03*
D65*
X168169685Y-62211291D03*
X167816132Y-61857738D03*
X167462578Y-61504184D03*
X167109025Y-61150631D03*
X166755472Y-60797078D03*
X166401918Y-60443524D03*
X166048365Y-60089971D03*
X165694811Y-59736417D03*
X165341258Y-59382864D03*
X164987705Y-59029311D03*
X164634151Y-58675757D03*
X164280598Y-58322204D03*
X163927045Y-57968650D03*
X163573491Y-57615097D03*
X163219938Y-57261544D03*
X162866384Y-56907990D03*
X162512831Y-56554437D03*
X162159278Y-56200884D03*
X161805724Y-55847330D03*
X161452171Y-55493777D03*
X161098617Y-55140223D03*
X160745064Y-54786670D03*
X160391511Y-54433117D03*
X160037957Y-54079563D03*
X159684404Y-53726010D03*
D66*
X157315596Y-53726010D03*
X156962043Y-54079563D03*
X156608489Y-54433117D03*
X156254936Y-54786670D03*
X155901383Y-55140223D03*
X155547829Y-55493777D03*
X155194276Y-55847330D03*
X154840722Y-56200884D03*
X154487169Y-56554437D03*
X154133616Y-56907990D03*
X153780062Y-57261544D03*
X153426509Y-57615097D03*
X153072955Y-57968650D03*
X152719402Y-58322204D03*
X152365849Y-58675757D03*
X152012295Y-59029311D03*
X151658742Y-59382864D03*
X151305189Y-59736417D03*
X150951635Y-60089971D03*
X150598082Y-60443524D03*
X150244528Y-60797078D03*
X149890975Y-61150631D03*
X149537422Y-61504184D03*
X149183868Y-61857738D03*
X148830315Y-62211291D03*
%TD*%
D21*
%TO.C,R15*%
X112750000Y-73760000D03*
X112750000Y-72740000D03*
%TD*%
D67*
%TO.C,C67*%
X168710589Y-66210589D03*
X169389411Y-66889411D03*
%TD*%
D44*
%TO.C,R22*%
X162089376Y-53760624D03*
X162810624Y-53039376D03*
%TD*%
D68*
%TO.C,SW6*%
X165500000Y-77625000D03*
X165500000Y-73425000D03*
%TD*%
D11*
%TO.C,R65*%
X136800000Y-55190000D03*
X136800000Y-56210000D03*
%TD*%
D36*
%TO.C,C52*%
X148064411Y-62809411D03*
X147385589Y-62130589D03*
%TD*%
D17*
%TO.C,R23*%
X155089376Y-52139376D03*
X155810624Y-52860624D03*
%TD*%
D45*
%TO.C,C62*%
X146000000Y-67500000D03*
X145321178Y-68178822D03*
%TD*%
D11*
%TO.C,R11*%
X135300000Y-60965000D03*
X135300000Y-61985000D03*
%TD*%
D27*
%TO.C,C49*%
X177525000Y-75145000D03*
X177525000Y-76105000D03*
%TD*%
D69*
%TO.C,Q1*%
X110450000Y-51337500D03*
X112350000Y-51337500D03*
X111400000Y-49462500D03*
%TD*%
D41*
%TO.C,C48*%
X125220000Y-60500000D03*
X126180000Y-60500000D03*
%TD*%
%TO.C,C40*%
X187740000Y-57275000D03*
X188700000Y-57275000D03*
%TD*%
D70*
%TO.C,D13*%
X107525000Y-77500000D03*
X106125000Y-77500000D03*
%TD*%
D11*
%TO.C,R14*%
X112750000Y-75015000D03*
X112750000Y-76035000D03*
%TD*%
D71*
%TO.C,U8*%
X105100000Y-75787500D03*
X106050000Y-75787500D03*
X107000000Y-75787500D03*
X107000000Y-73512500D03*
X106050000Y-73512500D03*
X105100000Y-73512500D03*
%TD*%
D25*
%TO.C,R8*%
X125200000Y-61500000D03*
X126220000Y-61500000D03*
%TD*%
D45*
%TO.C,C9*%
X162389411Y-73835589D03*
X161710589Y-74514411D03*
%TD*%
D11*
%TO.C,R16*%
X111725000Y-75015000D03*
X111725000Y-76035000D03*
%TD*%
D72*
%TO.C,Y5*%
X147383883Y-68616117D03*
X145616117Y-70383883D03*
%TD*%
D40*
%TO.C,R57*%
X158460000Y-77325000D03*
X157440000Y-77325000D03*
%TD*%
D62*
%TO.C,D5*%
X114000000Y-73625000D03*
X114000000Y-72225000D03*
%TD*%
D69*
%TO.C,Q2*%
X125150000Y-58937500D03*
X127050000Y-58937500D03*
X126100000Y-57062500D03*
%TD*%
D73*
%TO.C,FB2*%
X138500000Y-55500000D03*
X138500000Y-57075000D03*
%TD*%
D27*
%TO.C,C29*%
X179050000Y-67270000D03*
X179050000Y-68230000D03*
%TD*%
D74*
%TO.C,R59*%
X110450000Y-76900000D03*
X110450000Y-75250000D03*
%TD*%
D75*
%TO.C,L2*%
X119450000Y-66700000D03*
X123950000Y-66700000D03*
%TD*%
D49*
%TO.C,C2*%
X177900000Y-66080000D03*
X177900000Y-65120000D03*
%TD*%
D11*
%TO.C,R12*%
X140150000Y-69640000D03*
X140150000Y-70660000D03*
%TD*%
D21*
%TO.C,FB3*%
X184500000Y-52510000D03*
X184500000Y-51490000D03*
%TD*%
D76*
%TO.C,AE2*%
X187028000Y-53000000D03*
X187028000Y-55500000D03*
X187028000Y-50500000D03*
%TD*%
D58*
%TO.C,D12*%
X154662500Y-77350000D03*
X156237500Y-77350000D03*
%TD*%
D31*
%TO.C,C31*%
X160610589Y-52289411D03*
X161289411Y-51610589D03*
%TD*%
D21*
%TO.C,R3*%
X113700000Y-51910000D03*
X113700000Y-50890000D03*
%TD*%
D40*
%TO.C,R86*%
X171660000Y-58200000D03*
X170640000Y-58200000D03*
%TD*%
%TO.C,R87*%
X171660000Y-59400000D03*
X170640000Y-59400000D03*
%TD*%
D76*
%TO.C,AE1*%
X187028000Y-73500000D03*
X187028000Y-76000000D03*
X187028000Y-71000000D03*
%TD*%
D34*
%TO.C,C8*%
X121980000Y-56400000D03*
X121020000Y-56400000D03*
%TD*%
D36*
%TO.C,C63*%
X145000000Y-71839411D03*
X144321178Y-71160589D03*
%TD*%
D25*
%TO.C,R79*%
X178465000Y-74150000D03*
X179485000Y-74150000D03*
%TD*%
D41*
%TO.C,C37*%
X185500000Y-48950000D03*
X186460000Y-48950000D03*
%TD*%
D43*
%TO.C,Q6*%
X133950000Y-63550000D03*
X132050000Y-63550000D03*
X133000000Y-65425000D03*
%TD*%
D11*
%TO.C,R75*%
X163200000Y-76800000D03*
X163200000Y-77820000D03*
%TD*%
D41*
%TO.C,C7*%
X122920000Y-56400000D03*
X123880000Y-56400000D03*
%TD*%
M02*
