%TF.GenerationSoftware,KiCad,Pcbnew,7.0.2*%
%TF.CreationDate,2023-10-15T09:35:08+11:00*%
%TF.ProjectId,Strelka_Flight_Computer,53747265-6c6b-4615-9f46-6c696768745f,rev?*%
%TF.SameCoordinates,Original*%
%TF.FileFunction,Paste,Top*%
%TF.FilePolarity,Positive*%
%FSLAX46Y46*%
G04 Gerber Fmt 4.6, Leading zero omitted, Abs format (unit mm)*
G04 Created by KiCad (PCBNEW 7.0.2) date 2023-10-15 09:35:08*
%MOMM*%
%LPD*%
G01*
G04 APERTURE LIST*
G04 Aperture macros list*
%AMRoundRect*
0 Rectangle with rounded corners*
0 $1 Rounding radius*
0 $2 $3 $4 $5 $6 $7 $8 $9 X,Y pos of 4 corners*
0 Add a 4 corners polygon primitive as box body*
4,1,4,$2,$3,$4,$5,$6,$7,$8,$9,$2,$3,0*
0 Add four circle primitives for the rounded corners*
1,1,$1+$1,$2,$3*
1,1,$1+$1,$4,$5*
1,1,$1+$1,$6,$7*
1,1,$1+$1,$8,$9*
0 Add four rect primitives between the rounded corners*
20,1,$1+$1,$2,$3,$4,$5,0*
20,1,$1+$1,$4,$5,$6,$7,0*
20,1,$1+$1,$6,$7,$8,$9,0*
20,1,$1+$1,$8,$9,$2,$3,0*%
%AMRotRect*
0 Rectangle, with rotation*
0 The origin of the aperture is its center*
0 $1 length*
0 $2 width*
0 $3 Rotation angle, in degrees counterclockwise*
0 Add horizontal line*
21,1,$1,$2,0,0,$3*%
G04 Aperture macros list end*
%ADD10C,0.152400*%
%ADD11RoundRect,0.005000X-0.332500X-0.120000X0.332500X-0.120000X0.332500X0.120000X-0.332500X0.120000X0*%
%ADD12RoundRect,0.005000X0.120000X-0.270000X0.120000X0.270000X-0.120000X0.270000X-0.120000X-0.270000X0*%
%ADD13RoundRect,0.135000X-0.226274X-0.035355X-0.035355X-0.226274X0.226274X0.035355X0.035355X0.226274X0*%
%ADD14R,0.700000X1.800000*%
%ADD15R,0.800000X1.800000*%
%ADD16R,1.092200X0.609600*%
%ADD17RoundRect,0.135000X-0.135000X-0.185000X0.135000X-0.185000X0.135000X0.185000X-0.135000X0.185000X0*%
%ADD18R,0.600000X1.700000*%
%ADD19R,1.000000X2.700000*%
%ADD20RoundRect,0.200000X-0.200000X-0.800000X0.200000X-0.800000X0.200000X0.800000X-0.200000X0.800000X0*%
%ADD21R,1.200000X0.900000*%
%ADD22RoundRect,0.200000X-0.200000X-0.275000X0.200000X-0.275000X0.200000X0.275000X-0.200000X0.275000X0*%
%ADD23RoundRect,0.140000X-0.140000X-0.170000X0.140000X-0.170000X0.140000X0.170000X-0.140000X0.170000X0*%
%ADD24RotRect,1.400000X1.150000X315.000000*%
%ADD25RoundRect,0.225000X-0.225000X-0.250000X0.225000X-0.250000X0.225000X0.250000X-0.225000X0.250000X0*%
%ADD26RoundRect,0.140000X0.021213X-0.219203X0.219203X-0.021213X-0.021213X0.219203X-0.219203X0.021213X0*%
%ADD27RoundRect,0.135000X-0.035355X0.226274X-0.226274X0.035355X0.035355X-0.226274X0.226274X-0.035355X0*%
%ADD28RoundRect,0.237500X-0.300000X-0.237500X0.300000X-0.237500X0.300000X0.237500X-0.300000X0.237500X0*%
%ADD29RoundRect,0.250000X-0.250000X-0.475000X0.250000X-0.475000X0.250000X0.475000X-0.250000X0.475000X0*%
%ADD30RoundRect,0.250000X-0.450000X0.262500X-0.450000X-0.262500X0.450000X-0.262500X0.450000X0.262500X0*%
%ADD31RoundRect,0.135000X-0.185000X0.135000X-0.185000X-0.135000X0.185000X-0.135000X0.185000X0.135000X0*%
%ADD32RoundRect,0.147500X0.172500X-0.147500X0.172500X0.147500X-0.172500X0.147500X-0.172500X-0.147500X0*%
%ADD33RoundRect,0.200000X0.200000X0.275000X-0.200000X0.275000X-0.200000X-0.275000X0.200000X-0.275000X0*%
%ADD34RoundRect,0.218750X0.218750X0.256250X-0.218750X0.256250X-0.218750X-0.256250X0.218750X-0.256250X0*%
%ADD35RoundRect,0.150000X-0.587500X-0.150000X0.587500X-0.150000X0.587500X0.150000X-0.587500X0.150000X0*%
%ADD36RoundRect,0.140000X0.219203X0.021213X0.021213X0.219203X-0.219203X-0.021213X-0.021213X-0.219203X0*%
%ADD37R,1.003300X0.558800*%
%ADD38RoundRect,0.135000X0.035355X-0.226274X0.226274X-0.035355X-0.035355X0.226274X-0.226274X0.035355X0*%
%ADD39RoundRect,0.140000X-0.021213X0.219203X-0.219203X0.021213X0.021213X-0.219203X0.219203X-0.021213X0*%
%ADD40RoundRect,0.218750X0.114905X-0.424264X0.424264X-0.114905X-0.114905X0.424264X-0.424264X0.114905X0*%
%ADD41R,0.650000X0.400000*%
%ADD42R,1.803400X0.660400*%
%ADD43R,2.879999X1.092200*%
%ADD44RoundRect,0.135000X0.185000X-0.135000X0.185000X0.135000X-0.185000X0.135000X-0.185000X-0.135000X0*%
%ADD45R,0.533400X0.304800*%
%ADD46R,0.304800X0.533400*%
%ADD47RoundRect,0.218750X-0.218750X-0.256250X0.218750X-0.256250X0.218750X0.256250X-0.218750X0.256250X0*%
%ADD48RoundRect,0.225000X0.225000X0.250000X-0.225000X0.250000X-0.225000X-0.250000X0.225000X-0.250000X0*%
%ADD49R,0.900000X1.200000*%
%ADD50R,2.000000X1.500000*%
%ADD51R,2.000000X3.800000*%
%ADD52RoundRect,0.028800X-0.706200X-0.211200X0.706200X-0.211200X0.706200X0.211200X-0.706200X0.211200X0*%
%ADD53R,2.200000X0.650000*%
%ADD54R,2.300000X0.650000*%
%ADD55RoundRect,0.050000X-0.350000X-0.050000X0.350000X-0.050000X0.350000X0.050000X-0.350000X0.050000X0*%
%ADD56RoundRect,0.200000X-0.200000X-0.200000X0.200000X-0.200000X0.200000X0.200000X-0.200000X0.200000X0*%
%ADD57RoundRect,0.140000X-0.170000X0.140000X-0.170000X-0.140000X0.170000X-0.140000X0.170000X0.140000X0*%
%ADD58R,0.600000X0.700000*%
%ADD59R,1.350000X0.400000*%
%ADD60R,1.900000X1.500000*%
%ADD61RoundRect,0.225000X0.250000X-0.225000X0.250000X0.225000X-0.250000X0.225000X-0.250000X-0.225000X0*%
%ADD62RoundRect,0.075000X-0.459619X-0.565685X0.565685X0.459619X0.459619X0.565685X-0.565685X-0.459619X0*%
%ADD63RoundRect,0.075000X0.459619X-0.565685X0.565685X-0.459619X-0.459619X0.565685X-0.565685X0.459619X0*%
%ADD64RoundRect,0.140000X-0.219203X-0.021213X-0.021213X-0.219203X0.219203X0.021213X0.021213X0.219203X0*%
%ADD65RoundRect,0.150000X0.150000X-0.587500X0.150000X0.587500X-0.150000X0.587500X-0.150000X-0.587500X0*%
%ADD66RoundRect,0.150000X-0.512500X-0.150000X0.512500X-0.150000X0.512500X0.150000X-0.512500X0.150000X0*%
%ADD67RoundRect,0.150000X0.150000X-0.512500X0.150000X0.512500X-0.150000X0.512500X-0.150000X-0.512500X0*%
%ADD68RotRect,1.000000X1.800000X45.000000*%
%ADD69RoundRect,0.218750X-0.256250X0.218750X-0.256250X-0.218750X0.256250X-0.218750X0.256250X0.218750X0*%
%ADD70RoundRect,0.450000X-0.550000X-0.450000X0.550000X-0.450000X0.550000X0.450000X-0.550000X0.450000X0*%
%ADD71RoundRect,0.140000X0.170000X-0.140000X0.170000X0.140000X-0.170000X0.140000X-0.170000X-0.140000X0*%
%ADD72RoundRect,0.381000X1.369000X0.381000X-1.369000X0.381000X-1.369000X-0.381000X1.369000X-0.381000X0*%
%ADD73RoundRect,0.135000X0.135000X0.185000X-0.135000X0.185000X-0.135000X-0.185000X0.135000X-0.185000X0*%
%ADD74RoundRect,0.140000X0.140000X0.170000X-0.140000X0.170000X-0.140000X-0.170000X0.140000X-0.170000X0*%
G04 APERTURE END LIST*
D10*
%TO.C,U12*%
X173853900Y-68945200D02*
X173853900Y-69554800D01*
X173853900Y-69554800D02*
X174946100Y-69554800D01*
X173853900Y-70195200D02*
X173853900Y-70804800D01*
X173853900Y-70804800D02*
X174946100Y-70804800D01*
X173853900Y-71445200D02*
X173853900Y-72054800D01*
X173853900Y-72054800D02*
X174946100Y-72054800D01*
X173853900Y-72695200D02*
X173853900Y-73304800D01*
X173853900Y-73304800D02*
X174946100Y-73304800D01*
X174946100Y-68945200D02*
X173853900Y-68945200D01*
X174946100Y-69554800D02*
X174946100Y-68945200D01*
X174946100Y-70195200D02*
X173853900Y-70195200D01*
X174946100Y-70804800D02*
X174946100Y-70195200D01*
X174946100Y-71445200D02*
X173853900Y-71445200D01*
X174946100Y-72054800D02*
X174946100Y-71445200D01*
X174946100Y-72695200D02*
X173853900Y-72695200D01*
X174946100Y-73304800D02*
X174946100Y-72695200D01*
X176053900Y-68945200D02*
X176053900Y-69554800D01*
X176053900Y-69554800D02*
X177146100Y-69554800D01*
X176053900Y-70195200D02*
X176053900Y-70804800D01*
X176053900Y-70804800D02*
X177146100Y-70804800D01*
X176053900Y-71445200D02*
X176053900Y-72054800D01*
X176053900Y-72054800D02*
X177146100Y-72054800D01*
X176053900Y-72695200D02*
X176053900Y-73304800D01*
X176053900Y-73304800D02*
X177146100Y-73304800D01*
X177146100Y-68945200D02*
X176053900Y-68945200D01*
X177146100Y-69554800D02*
X177146100Y-68945200D01*
X177146100Y-70195200D02*
X176053900Y-70195200D01*
X177146100Y-70804800D02*
X177146100Y-70195200D01*
X177146100Y-71445200D02*
X176053900Y-71445200D01*
X177146100Y-72054800D02*
X177146100Y-71445200D01*
X177146100Y-72695200D02*
X176053900Y-72695200D01*
X177146100Y-73304800D02*
X177146100Y-72695200D01*
%TD*%
D11*
%TO.C,U11*%
X182025000Y-63500000D03*
X182025000Y-64000000D03*
X182025000Y-64500000D03*
X182025000Y-65000000D03*
X182025000Y-65500000D03*
X182025000Y-66000000D03*
X182025000Y-66500000D03*
D12*
X181262500Y-67050000D03*
X180762500Y-67050000D03*
X180262500Y-67050000D03*
D11*
X179500000Y-66500000D03*
X179500000Y-66000000D03*
X179500000Y-65500000D03*
X179500000Y-65000000D03*
X179500000Y-64500000D03*
X179500000Y-64000000D03*
X179500000Y-63500000D03*
D12*
X180262500Y-62950000D03*
X180762500Y-62950000D03*
X181262500Y-62950000D03*
%TD*%
D13*
%TO.C,R20*%
X154128752Y-53078752D03*
X154850000Y-53800000D03*
%TD*%
D14*
%TO.C,IC2*%
X173900000Y-60250000D03*
D15*
X175000000Y-60250000D03*
X176100000Y-60250000D03*
X177200000Y-60250000D03*
X178300000Y-60250000D03*
X179400000Y-60250000D03*
X180500000Y-60250000D03*
X181600000Y-60250000D03*
D14*
X182700000Y-60250000D03*
X182700000Y-50750000D03*
D15*
X181600000Y-50750000D03*
X180500000Y-50750000D03*
X179400000Y-50750000D03*
X178300000Y-50750000D03*
X177200000Y-50750000D03*
X176100000Y-50750000D03*
X175000000Y-50750000D03*
D14*
X173900000Y-50750000D03*
%TD*%
D16*
%TO.C,U12*%
X174400000Y-69250000D03*
X174400000Y-70500000D03*
X174400000Y-71750000D03*
X174400000Y-73000000D03*
X176600000Y-73000000D03*
X176600000Y-71750000D03*
X176600000Y-70500000D03*
X176600000Y-69250000D03*
%TD*%
D17*
%TO.C,R81*%
X233660000Y-115210000D03*
X234680000Y-115210000D03*
%TD*%
%TO.C,R13*%
X141240000Y-71675000D03*
X142260000Y-71675000D03*
%TD*%
%TO.C,R4*%
X140970000Y-134130000D03*
X141990000Y-134130000D03*
%TD*%
D18*
%TO.C,J2*%
X139875000Y-73325000D03*
X141125000Y-73325000D03*
X142375000Y-73325000D03*
X143625000Y-73325000D03*
D19*
X145475000Y-76525000D03*
X138025000Y-76525000D03*
%TD*%
D20*
%TO.C,SW7*%
X236800000Y-127800000D03*
X241000000Y-127800000D03*
%TD*%
D17*
%TO.C,R74*%
X151865000Y-77725000D03*
X152885000Y-77725000D03*
%TD*%
D21*
%TO.C,D14*%
X126500000Y-65750000D03*
X126500000Y-69050000D03*
%TD*%
D22*
%TO.C,R1*%
X146115000Y-134390000D03*
X147765000Y-134390000D03*
%TD*%
D23*
%TO.C,C38*%
X81439602Y-127300595D03*
X82399602Y-127300595D03*
%TD*%
D22*
%TO.C,R62*%
X122075000Y-59200000D03*
X123725000Y-59200000D03*
%TD*%
D17*
%TO.C,R17*%
X130430000Y-80700000D03*
X131450000Y-80700000D03*
%TD*%
D24*
%TO.C,Y6*%
X148756497Y-71087868D03*
X150312132Y-72643503D03*
X151443503Y-71512132D03*
X149887868Y-69956497D03*
%TD*%
D25*
%TO.C,C46*%
X59594602Y-110240595D03*
X61144602Y-110240595D03*
%TD*%
D17*
%TO.C,R61*%
X118790000Y-59500000D03*
X119810000Y-59500000D03*
%TD*%
D26*
%TO.C,C68*%
X161410589Y-53039411D03*
X162089411Y-52360589D03*
%TD*%
D27*
%TO.C,R25*%
X165360624Y-55639376D03*
X164639376Y-56360624D03*
%TD*%
D22*
%TO.C,R60*%
X63554602Y-120280595D03*
X65204602Y-120280595D03*
%TD*%
D28*
%TO.C,C10*%
X69067102Y-142340595D03*
X70792102Y-142340595D03*
%TD*%
D29*
%TO.C,C55*%
X128550000Y-66700000D03*
X130450000Y-66700000D03*
%TD*%
D23*
%TO.C,C60*%
X240820000Y-137610000D03*
X241780000Y-137610000D03*
%TD*%
D30*
%TO.C,F1*%
X138400000Y-69362500D03*
X138400000Y-71187500D03*
%TD*%
D17*
%TO.C,R77*%
X230750000Y-121180000D03*
X231770000Y-121180000D03*
%TD*%
D31*
%TO.C,R21*%
X133000000Y-55190000D03*
X133000000Y-56210000D03*
%TD*%
D18*
%TO.C,J4*%
X138032102Y-53408095D03*
X136782102Y-53408095D03*
X135532102Y-53408095D03*
X134282102Y-53408095D03*
X133032102Y-53408095D03*
X131782102Y-53408095D03*
D19*
X139882102Y-50208095D03*
X129932102Y-50208095D03*
%TD*%
D23*
%TO.C,C1*%
X69319602Y-157910595D03*
X70279602Y-157910595D03*
%TD*%
D32*
%TO.C,D10*%
X184500000Y-54485000D03*
X184500000Y-53515000D03*
%TD*%
D27*
%TO.C,R24*%
X164410624Y-54739376D03*
X163689376Y-55460624D03*
%TD*%
D33*
%TO.C,R63*%
X123725000Y-57700000D03*
X122075000Y-57700000D03*
%TD*%
D17*
%TO.C,R2*%
X136060000Y-134130000D03*
X137080000Y-134130000D03*
%TD*%
D23*
%TO.C,C3*%
X175090000Y-67100000D03*
X176050000Y-67100000D03*
%TD*%
D34*
%TO.C,D18*%
X148600000Y-73775000D03*
X147025000Y-73775000D03*
%TD*%
D35*
%TO.C,Q11*%
X111932102Y-150770595D03*
X111932102Y-152670595D03*
X113807102Y-151720595D03*
%TD*%
D36*
%TO.C,C64*%
X147839411Y-72339411D03*
X147160589Y-71660589D03*
%TD*%
D37*
%TO.C,MOSFET1*%
X90655252Y-107533994D03*
X90655252Y-108483995D03*
X90655252Y-109433996D03*
X93360352Y-109433996D03*
X93360352Y-108483995D03*
X93360352Y-107533994D03*
%TD*%
D36*
%TO.C,C61*%
X148000000Y-67500000D03*
X147321178Y-66821178D03*
%TD*%
D23*
%TO.C,C39*%
X81439602Y-129810595D03*
X82399602Y-129810595D03*
%TD*%
%TO.C,C47*%
X59889602Y-112750595D03*
X60849602Y-112750595D03*
%TD*%
D17*
%TO.C,R51*%
X107909602Y-151890595D03*
X108929602Y-151890595D03*
%TD*%
D38*
%TO.C,R84*%
X162779376Y-54460624D03*
X163500624Y-53739376D03*
%TD*%
D23*
%TO.C,C54*%
X240820000Y-135640000D03*
X241780000Y-135640000D03*
%TD*%
D39*
%TO.C,C65*%
X152500000Y-72660589D03*
X151821178Y-73339411D03*
%TD*%
D40*
%TO.C,L4*%
X151998699Y-75251301D03*
X153501301Y-73748699D03*
%TD*%
D28*
%TO.C,C11*%
X69067102Y-144850595D03*
X70792102Y-144850595D03*
%TD*%
D35*
%TO.C,Q15*%
X147450000Y-75400000D03*
X147450000Y-77300000D03*
X149325000Y-76350000D03*
%TD*%
D23*
%TO.C,C6*%
X59889602Y-107730595D03*
X60849602Y-107730595D03*
%TD*%
%TO.C,C36*%
X81439602Y-124790595D03*
X82399602Y-124790595D03*
%TD*%
D35*
%TO.C,Q17*%
X207002500Y-154240000D03*
X207002500Y-156140000D03*
X208877500Y-155190000D03*
%TD*%
D23*
%TO.C,C30*%
X127529602Y-131700595D03*
X128489602Y-131700595D03*
%TD*%
D17*
%TO.C,R10*%
X136060000Y-138110000D03*
X137080000Y-138110000D03*
%TD*%
D23*
%TO.C,C50*%
X237950000Y-145490000D03*
X238910000Y-145490000D03*
%TD*%
D41*
%TO.C,D6*%
X130950000Y-56900000D03*
X130950000Y-56250000D03*
X130950000Y-55600000D03*
X129050000Y-55600000D03*
X129050000Y-56900000D03*
%TD*%
D42*
%TO.C,J8*%
X184500000Y-65500000D03*
X184500000Y-64250000D03*
X184500000Y-63000000D03*
X184500000Y-61750000D03*
X184500000Y-60500000D03*
D43*
X187700001Y-67350001D03*
X187700001Y-58649999D03*
%TD*%
D23*
%TO.C,C28*%
X107939602Y-158910595D03*
X108899602Y-158910595D03*
%TD*%
D13*
%TO.C,R35*%
X153189376Y-54039376D03*
X153910624Y-54760624D03*
%TD*%
D36*
%TO.C,C66*%
X154589411Y-72839411D03*
X153910589Y-72160589D03*
%TD*%
D31*
%TO.C,R18*%
X135500000Y-55190000D03*
X135500000Y-56210000D03*
%TD*%
%TO.C,R19*%
X134300000Y-55190000D03*
X134300000Y-56210000D03*
%TD*%
D17*
%TO.C,R6*%
X140970000Y-136120000D03*
X141990000Y-136120000D03*
%TD*%
D21*
%TO.C,D4*%
X131300000Y-61750000D03*
X131300000Y-58450000D03*
%TD*%
D23*
%TO.C,C53*%
X240820000Y-133670000D03*
X241780000Y-133670000D03*
%TD*%
%TO.C,C4*%
X177020000Y-67100000D03*
X177980000Y-67100000D03*
%TD*%
D35*
%TO.C,D11*%
X99832102Y-124810595D03*
X99832102Y-126710595D03*
X101707102Y-125760595D03*
%TD*%
D44*
%TO.C,R76*%
X150875000Y-77045000D03*
X150875000Y-76025000D03*
%TD*%
D45*
%TO.C,U1*%
X174369700Y-64249811D03*
X174369700Y-64749937D03*
X174369700Y-65250063D03*
X174369700Y-65750189D03*
D46*
X174999874Y-65883300D03*
X175500000Y-65883300D03*
X176000126Y-65883300D03*
D45*
X176630300Y-65750189D03*
X176630300Y-65250063D03*
X176630300Y-64749937D03*
X176630300Y-64249811D03*
D46*
X176000126Y-64116700D03*
X175500000Y-64116700D03*
X174999874Y-64116700D03*
%TD*%
D21*
%TO.C,D2*%
X128900000Y-58450000D03*
X128900000Y-61750000D03*
%TD*%
D47*
%TO.C,D20*%
X243432500Y-126470000D03*
X245007500Y-126470000D03*
%TD*%
D48*
%TO.C,C26*%
X140025000Y-58500000D03*
X138475000Y-58500000D03*
%TD*%
D49*
%TO.C,D1*%
X113650000Y-53500000D03*
X110350000Y-53500000D03*
%TD*%
D47*
%TO.C,D19*%
X243432500Y-123880000D03*
X245007500Y-123880000D03*
%TD*%
D50*
%TO.C,U3*%
X121700000Y-49950000D03*
X121700000Y-52250000D03*
D51*
X128000000Y-52250000D03*
D50*
X121700000Y-54550000D03*
%TD*%
D52*
%TO.C,U16*%
X119350000Y-60825000D03*
X119350000Y-61475000D03*
X119350000Y-62125000D03*
X119350000Y-62775000D03*
X123650000Y-62775000D03*
X123650000Y-62125000D03*
X123650000Y-61475000D03*
X123650000Y-60825000D03*
%TD*%
D17*
%TO.C,R80*%
X233660000Y-113220000D03*
X234680000Y-113220000D03*
%TD*%
%TO.C,R78*%
X230750000Y-123170000D03*
X231770000Y-123170000D03*
%TD*%
D53*
%TO.C,BT2*%
X93149602Y-140160595D03*
D54*
X93099602Y-141660595D03*
%TD*%
D31*
%TO.C,R55*%
X184500000Y-48990000D03*
X184500000Y-50010000D03*
%TD*%
D55*
%TO.C,JP4*%
X141975000Y-65575000D03*
X141975000Y-66775000D03*
D56*
X141375000Y-65575000D03*
X142575000Y-66775000D03*
X141375000Y-66775000D03*
X142575000Y-65575000D03*
%TD*%
D57*
%TO.C,C5*%
X119850000Y-55470000D03*
X119850000Y-56430000D03*
%TD*%
D17*
%TO.C,R7*%
X63869602Y-107730595D03*
X64889602Y-107730595D03*
%TD*%
%TO.C,R56*%
X81409602Y-134830595D03*
X82429602Y-134830595D03*
%TD*%
D22*
%TO.C,R9*%
X63554602Y-112750595D03*
X65204602Y-112750595D03*
%TD*%
D23*
%TO.C,C51*%
X118820000Y-58400000D03*
X119780000Y-58400000D03*
%TD*%
D58*
%TO.C,D3*%
X116389602Y-129650595D03*
X117789602Y-129650595D03*
%TD*%
D17*
%TO.C,R5*%
X136060000Y-136120000D03*
X137080000Y-136120000D03*
%TD*%
D59*
%TO.C,J6*%
X102750000Y-72450000D03*
X102750000Y-73100000D03*
X102750000Y-73750000D03*
X102750000Y-74400000D03*
X102750000Y-75050000D03*
D60*
X100050000Y-72750000D03*
X100050000Y-74750000D03*
%TD*%
D17*
%TO.C,R31*%
X107909602Y-134830595D03*
X108929602Y-134830595D03*
%TD*%
D61*
%TO.C,C27*%
X140000000Y-57050000D03*
X140000000Y-55500000D03*
%TD*%
D62*
%TO.C,U6*%
X148830315Y-64580099D03*
X149183868Y-64933652D03*
X149537422Y-65287206D03*
X149890975Y-65640759D03*
X150244528Y-65994312D03*
X150598082Y-66347866D03*
X150951635Y-66701419D03*
X151305189Y-67054973D03*
X151658742Y-67408526D03*
X152012295Y-67762079D03*
X152365849Y-68115633D03*
X152719402Y-68469186D03*
X153072955Y-68822740D03*
X153426509Y-69176293D03*
X153780062Y-69529846D03*
X154133616Y-69883400D03*
X154487169Y-70236953D03*
X154840722Y-70590506D03*
X155194276Y-70944060D03*
X155547829Y-71297613D03*
X155901383Y-71651167D03*
X156254936Y-72004720D03*
X156608489Y-72358273D03*
X156962043Y-72711827D03*
X157315596Y-73065380D03*
D63*
X159684404Y-73065380D03*
X160037957Y-72711827D03*
X160391511Y-72358273D03*
X160745064Y-72004720D03*
X161098617Y-71651167D03*
X161452171Y-71297613D03*
X161805724Y-70944060D03*
X162159278Y-70590506D03*
X162512831Y-70236953D03*
X162866384Y-69883400D03*
X163219938Y-69529846D03*
X163573491Y-69176293D03*
X163927045Y-68822740D03*
X164280598Y-68469186D03*
X164634151Y-68115633D03*
X164987705Y-67762079D03*
X165341258Y-67408526D03*
X165694811Y-67054973D03*
X166048365Y-66701419D03*
X166401918Y-66347866D03*
X166755472Y-65994312D03*
X167109025Y-65640759D03*
X167462578Y-65287206D03*
X167816132Y-64933652D03*
X168169685Y-64580099D03*
D62*
X168169685Y-62211291D03*
X167816132Y-61857738D03*
X167462578Y-61504184D03*
X167109025Y-61150631D03*
X166755472Y-60797078D03*
X166401918Y-60443524D03*
X166048365Y-60089971D03*
X165694811Y-59736417D03*
X165341258Y-59382864D03*
X164987705Y-59029311D03*
X164634151Y-58675757D03*
X164280598Y-58322204D03*
X163927045Y-57968650D03*
X163573491Y-57615097D03*
X163219938Y-57261544D03*
X162866384Y-56907990D03*
X162512831Y-56554437D03*
X162159278Y-56200884D03*
X161805724Y-55847330D03*
X161452171Y-55493777D03*
X161098617Y-55140223D03*
X160745064Y-54786670D03*
X160391511Y-54433117D03*
X160037957Y-54079563D03*
X159684404Y-53726010D03*
D63*
X157315596Y-53726010D03*
X156962043Y-54079563D03*
X156608489Y-54433117D03*
X156254936Y-54786670D03*
X155901383Y-55140223D03*
X155547829Y-55493777D03*
X155194276Y-55847330D03*
X154840722Y-56200884D03*
X154487169Y-56554437D03*
X154133616Y-56907990D03*
X153780062Y-57261544D03*
X153426509Y-57615097D03*
X153072955Y-57968650D03*
X152719402Y-58322204D03*
X152365849Y-58675757D03*
X152012295Y-59029311D03*
X151658742Y-59382864D03*
X151305189Y-59736417D03*
X150951635Y-60089971D03*
X150598082Y-60443524D03*
X150244528Y-60797078D03*
X149890975Y-61150631D03*
X149537422Y-61504184D03*
X149183868Y-61857738D03*
X148830315Y-62211291D03*
%TD*%
D17*
%TO.C,R15*%
X107909602Y-141850595D03*
X108929602Y-141850595D03*
%TD*%
D64*
%TO.C,C67*%
X168710589Y-66210589D03*
X169389411Y-66889411D03*
%TD*%
D38*
%TO.C,R22*%
X162089376Y-53760624D03*
X162810624Y-53039376D03*
%TD*%
D20*
%TO.C,SW6*%
X236800000Y-123350000D03*
X241000000Y-123350000D03*
%TD*%
D31*
%TO.C,R65*%
X136800000Y-55190000D03*
X136800000Y-56210000D03*
%TD*%
D23*
%TO.C,C52*%
X240820000Y-131700000D03*
X241780000Y-131700000D03*
%TD*%
D13*
%TO.C,R23*%
X155089376Y-52139376D03*
X155810624Y-52860624D03*
%TD*%
D39*
%TO.C,C62*%
X146000000Y-67500000D03*
X145321178Y-68178822D03*
%TD*%
D17*
%TO.C,R11*%
X140970000Y-138110000D03*
X141990000Y-138110000D03*
%TD*%
D23*
%TO.C,C49*%
X237950000Y-143520000D03*
X238910000Y-143520000D03*
%TD*%
D65*
%TO.C,Q1*%
X110450000Y-51337500D03*
X112350000Y-51337500D03*
X111400000Y-49462500D03*
%TD*%
D23*
%TO.C,C48*%
X125220000Y-60500000D03*
X126180000Y-60500000D03*
%TD*%
%TO.C,C40*%
X81439602Y-132320595D03*
X82399602Y-132320595D03*
%TD*%
D66*
%TO.C,U2*%
X81282102Y-112510595D03*
X81282102Y-113460595D03*
X81282102Y-114410595D03*
X83557102Y-114410595D03*
X83557102Y-113460595D03*
X83557102Y-112510595D03*
%TD*%
D58*
%TO.C,D13*%
X95500000Y-89800000D03*
X96900000Y-89800000D03*
%TD*%
D17*
%TO.C,R14*%
X107909602Y-124790595D03*
X108929602Y-124790595D03*
%TD*%
D67*
%TO.C,U8*%
X105100000Y-75787500D03*
X106050000Y-75787500D03*
X107000000Y-75787500D03*
X107000000Y-73512500D03*
X106050000Y-73512500D03*
X105100000Y-73512500D03*
%TD*%
D17*
%TO.C,R8*%
X125200000Y-61500000D03*
X126220000Y-61500000D03*
%TD*%
%TO.C,R16*%
X136060000Y-140100000D03*
X137080000Y-140100000D03*
%TD*%
D68*
%TO.C,Y5*%
X147383883Y-68616117D03*
X145616117Y-70383883D03*
%TD*%
D17*
%TO.C,R57*%
X81409602Y-137340595D03*
X82429602Y-137340595D03*
%TD*%
D58*
%TO.C,D5*%
X116389602Y-146710595D03*
X117789602Y-146710595D03*
%TD*%
D65*
%TO.C,Q2*%
X125150000Y-58937500D03*
X127050000Y-58937500D03*
X126100000Y-57062500D03*
%TD*%
D69*
%TO.C,FB2*%
X138500000Y-55500000D03*
X138500000Y-57075000D03*
%TD*%
D23*
%TO.C,C29*%
X107939602Y-161420595D03*
X108899602Y-161420595D03*
%TD*%
D22*
%TO.C,R59*%
X63554602Y-117770595D03*
X65204602Y-117770595D03*
%TD*%
D70*
%TO.C,L2*%
X119450000Y-66700000D03*
X123950000Y-66700000D03*
%TD*%
D71*
%TO.C,C2*%
X177900000Y-66080000D03*
X177900000Y-65120000D03*
%TD*%
D29*
%TO.C,C56*%
X128550000Y-68800000D03*
X130450000Y-68800000D03*
%TD*%
D31*
%TO.C,R12*%
X140150000Y-69640000D03*
X140150000Y-70660000D03*
%TD*%
D44*
%TO.C,FB3*%
X184500000Y-52510000D03*
X184500000Y-51490000D03*
%TD*%
D72*
%TO.C,AE2*%
X187028000Y-53000000D03*
X187028000Y-55500000D03*
X187028000Y-50500000D03*
%TD*%
D47*
%TO.C,D12*%
X99582102Y-129280595D03*
X101157102Y-129280595D03*
%TD*%
D26*
%TO.C,C31*%
X160610589Y-52289411D03*
X161289411Y-51610589D03*
%TD*%
D44*
%TO.C,R3*%
X113700000Y-51910000D03*
X113700000Y-50890000D03*
%TD*%
D73*
%TO.C,R86*%
X171660000Y-58200000D03*
X170640000Y-58200000D03*
%TD*%
D35*
%TO.C,Q16*%
X207002500Y-149790000D03*
X207002500Y-151690000D03*
X208877500Y-150740000D03*
%TD*%
D73*
%TO.C,R87*%
X171660000Y-59400000D03*
X170640000Y-59400000D03*
%TD*%
D72*
%TO.C,AE1*%
X187028000Y-73500000D03*
X187028000Y-76000000D03*
X187028000Y-71000000D03*
%TD*%
D74*
%TO.C,C8*%
X121980000Y-56400000D03*
X121020000Y-56400000D03*
%TD*%
D36*
%TO.C,C63*%
X145000000Y-71839411D03*
X144321178Y-71160589D03*
%TD*%
D17*
%TO.C,R79*%
X230750000Y-125160000D03*
X231770000Y-125160000D03*
%TD*%
D23*
%TO.C,C37*%
X185500000Y-48950000D03*
X186460000Y-48950000D03*
%TD*%
D35*
%TO.C,Q6*%
X111932102Y-133710595D03*
X111932102Y-135610595D03*
X113807102Y-134660595D03*
%TD*%
D17*
%TO.C,R75*%
X230750000Y-117200000D03*
X231770000Y-117200000D03*
%TD*%
D23*
%TO.C,C7*%
X122920000Y-56400000D03*
X123880000Y-56400000D03*
%TD*%
M02*
