%TF.GenerationSoftware,KiCad,Pcbnew,7.0.2*%
%TF.CreationDate,2023-10-15T09:35:08+11:00*%
%TF.ProjectId,Strelka_Flight_Computer,53747265-6c6b-4615-9f46-6c696768745f,rev?*%
%TF.SameCoordinates,Original*%
%TF.FileFunction,Copper,L2,Inr*%
%TF.FilePolarity,Positive*%
%FSLAX46Y46*%
G04 Gerber Fmt 4.6, Leading zero omitted, Abs format (unit mm)*
G04 Created by KiCad (PCBNEW 7.0.2) date 2023-10-15 09:35:08*
%MOMM*%
%LPD*%
G01*
G04 APERTURE LIST*
%TA.AperFunction,ComponentPad*%
%ADD10C,5.000000*%
%TD*%
%TA.AperFunction,ComponentPad*%
%ADD11R,1.520000X1.520000*%
%TD*%
%TA.AperFunction,ComponentPad*%
%ADD12C,1.520000*%
%TD*%
%TA.AperFunction,ComponentPad*%
%ADD13R,2.000000X2.000000*%
%TD*%
%TA.AperFunction,ComponentPad*%
%ADD14C,2.000000*%
%TD*%
%TA.AperFunction,ComponentPad*%
%ADD15C,1.600000*%
%TD*%
%TA.AperFunction,ComponentPad*%
%ADD16O,1.900000X1.200000*%
%TD*%
%TA.AperFunction,ComponentPad*%
%ADD17C,1.450000*%
%TD*%
%TA.AperFunction,ComponentPad*%
%ADD18R,2.400000X2.400000*%
%TD*%
%TA.AperFunction,ComponentPad*%
%ADD19C,2.400000*%
%TD*%
%TA.AperFunction,ViaPad*%
%ADD20C,0.450000*%
%TD*%
%TA.AperFunction,ViaPad*%
%ADD21C,0.800000*%
%TD*%
%TA.AperFunction,ViaPad*%
%ADD22C,0.600000*%
%TD*%
G04 APERTURE END LIST*
D10*
%TO.N,N/C*%
%TO.C,H1*%
X170059602Y-75565795D03*
%TD*%
D11*
%TO.N,+BATT*%
%TO.C,J7*%
X105000000Y-52000000D03*
D12*
%TO.N,-BATT*%
X108000000Y-52000000D03*
%TD*%
D10*
%TO.N,N/C*%
%TO.C,H3*%
X117609602Y-75565795D03*
%TD*%
D13*
%TO.N,Net-(BZ3--)*%
%TO.C,BZ3*%
X148000000Y-53000000D03*
D14*
%TO.N,GND*%
X143000000Y-53000000D03*
%TD*%
D15*
%TO.N,VDC*%
%TO.C,C41*%
X112300000Y-57300000D03*
%TO.N,GND*%
X115800000Y-57300000D03*
%TD*%
D10*
%TO.N,N/C*%
%TO.C,H2*%
X117609602Y-51210595D03*
%TD*%
%TO.N,N/C*%
%TO.C,H4*%
X170059602Y-51210595D03*
%TD*%
D16*
%TO.N,GND*%
%TO.C,J6*%
X100050000Y-70250000D03*
D17*
X102750000Y-71250000D03*
X102750000Y-76250000D03*
D16*
X100050000Y-77250000D03*
%TD*%
D18*
%TO.N,/Actuators/Ematch_Main/EMATCH-*%
%TO.C,J3*%
X134500000Y-74000000D03*
D19*
%TO.N,/Actuators/Ematch_Main/EMATCH+*%
X131000000Y-74000000D03*
%TO.N,/Actuators/Ematch_Drogue1/EMATCH-*%
X127500000Y-74000000D03*
%TO.N,/Actuators/Ematch_Drogue1/EMATCH+*%
X124000000Y-74000000D03*
%TD*%
D11*
%TO.N,/Power/SW_IN*%
%TO.C,SW1*%
X105000000Y-62000000D03*
D12*
%TO.N,VDC*%
X108000000Y-62000000D03*
%TD*%
D20*
%TO.N,/915MHz_Radio/SPI_MOSI*%
X174600000Y-62875000D03*
%TO.N,/915MHz_Radio/SPI_MISO*%
X174400000Y-63750000D03*
%TO.N,/915MHz_Radio/SPI_MOSI*%
X175575000Y-63275000D03*
D21*
%TO.N,GND*%
X130850000Y-53875000D03*
D20*
%TO.N,/STM32H743/GPS_RST*%
X155975000Y-74600000D03*
%TO.N,/STM32H743/EXTI7*%
X182700000Y-62950000D03*
%TO.N,/915MHz_Radio/SPI_CLK*%
X178075000Y-64200000D03*
D21*
%TO.N,+3.3V*%
X123575000Y-55475000D03*
D20*
%TO.N,/915MHz_Radio/LoRa_Sig*%
X183500000Y-72900000D03*
D21*
%TO.N,GND*%
X181400000Y-73150000D03*
X185900000Y-64300000D03*
X184050000Y-76850000D03*
X185050000Y-77700000D03*
X182500000Y-73150000D03*
X140225000Y-71600000D03*
X184050000Y-74600000D03*
X187700000Y-77700000D03*
X184050000Y-75700000D03*
X186300000Y-77700000D03*
D22*
X173275000Y-65425000D03*
D21*
X183050000Y-74050000D03*
%TO.N,+5VA*%
X125325000Y-57300000D03*
X124250500Y-58705240D03*
%TO.N,+5V*%
X128875000Y-59450000D03*
X138375000Y-67850000D03*
%TO.N,+3.3V*%
X166200000Y-55050000D03*
X152650000Y-52550000D03*
X185950000Y-65500000D03*
X156150000Y-51250000D03*
X159550000Y-52050000D03*
X168750000Y-64200000D03*
X170103378Y-58596641D03*
X165225000Y-53925000D03*
X151891332Y-53885405D03*
X181100000Y-64350000D03*
%TO.N,VBUS*%
X104100000Y-72325000D03*
X126275000Y-62450000D03*
X125950000Y-59150000D03*
X106025000Y-72450000D03*
%TO.N,Net-(D1-A)*%
X113575000Y-49825000D03*
X109650000Y-51300000D03*
%TO.N,/Data_Interfaces/CAN_+*%
X141225000Y-70509352D03*
%TO.N,/Data_Interfaces/CAN_-*%
X142275000Y-70509352D03*
%TO.N,/Data_Interfaces/USB_D-*%
X133478768Y-67478768D03*
X105878768Y-70678768D03*
%TO.N,/Data_Interfaces/USB_D+*%
X134221232Y-68221232D03*
X105150000Y-71700000D03*
D20*
%TO.N,/915MHz_Radio/SPI_MISO*%
X179450000Y-62800000D03*
X168800000Y-60650000D03*
%TO.N,/915MHz_Radio/SPI_MOSI*%
X168848998Y-60203059D03*
X180325000Y-66250000D03*
%TO.N,/915MHz_Radio/SPI_CLK*%
X180925000Y-66100000D03*
X168800000Y-61150000D03*
%TO.N,/915MHz_Radio/CS_RF*%
X175550000Y-57225000D03*
%TO.N,/915MHz_Radio/IO0_RF*%
X167300000Y-63150000D03*
D21*
%TO.N,Net-(JP4-RX1)*%
X140186531Y-65988488D03*
%TO.N,Net-(JP4-TX1)*%
X143700000Y-66025000D03*
D20*
%TO.N,/STM32H743/I2C2_SDA*%
X168450000Y-67000000D03*
X169700000Y-65750000D03*
%TO.N,/STM32H743/I2C2_SCL*%
X167750000Y-67000000D03*
X169337500Y-65112500D03*
D21*
%TO.N,/Data_Logging/SD0*%
X166000000Y-53650000D03*
%TO.N,/Data_Logging/SD1*%
X164450593Y-53713092D03*
%TO.N,/Data_Logging/SD2*%
X156627794Y-52203325D03*
%TO.N,/Data_Logging/SD3*%
X153681541Y-52137734D03*
%TO.N,/Data_Logging/CLK*%
X153009431Y-51269988D03*
%TO.N,/Data_Logging/CMD*%
X159650000Y-50750000D03*
%TO.N,Net-(U5-Rs)*%
X139914772Y-68074500D03*
D20*
%TO.N,/Actuators/EXT_SPI_MISO*%
X160149566Y-70651251D03*
X138875000Y-61575000D03*
%TO.N,/Actuators/EXT_SPI_MOSI*%
X138050000Y-61450000D03*
X160525000Y-70250000D03*
%TO.N,/Actuators/EXT_SPI_SCK*%
X137925000Y-62050000D03*
X159700000Y-71050000D03*
%TO.N,/Actuators/EXT_SPI_CS*%
X137704749Y-62553430D03*
X159325000Y-71575000D03*
%TO.N,/STM32H743/SPI2_NSS1*%
X167750000Y-59900000D03*
X175350000Y-62350000D03*
%TO.N,/STM32H743/SPI2_NSS2*%
X172350000Y-66850002D03*
X165500000Y-61800000D03*
%TO.N,/STM32H743/SPI2_NSS3*%
X164700000Y-61850000D03*
X171839799Y-67054080D03*
%TO.N,/STM32H743/SPI2_NSS4*%
X170150000Y-61850000D03*
X175800000Y-64800000D03*
%TO.N,/STM32H743/EXTI6*%
X176900000Y-62600000D03*
X165589644Y-57239644D03*
%TO.N,/STM32H743/EXTI7*%
X176650000Y-56925000D03*
%TO.N,/STM32H743/EXTI13*%
X168320104Y-59179896D03*
X165891299Y-58335610D03*
X173435565Y-66131486D03*
X169400535Y-62555798D03*
%TO.N,/STM32H743/EXTI14*%
X166122250Y-57836998D03*
X175200000Y-65100000D03*
X169750000Y-62250000D03*
X168501000Y-58726262D03*
%TO.N,/STM32H743/SPI4_NSS*%
X173250000Y-69900000D03*
X166384897Y-68900001D03*
%TO.N,/STM32H743/SPI4_SCK*%
X175800567Y-68499500D03*
X166387429Y-68312571D03*
%TO.N,/STM32H743/SPI4_MISO*%
X175550000Y-69900000D03*
X167125000Y-68450000D03*
%TO.N,/STM32H743/SPI4_MOSI*%
X177400000Y-69900000D03*
X166900000Y-67550000D03*
%TO.N,/STM32H743/GPS_RST*%
X157625000Y-71375000D03*
%TO.N,/STM32H743/EXTI15*%
X180700000Y-62350000D03*
X176074115Y-57594618D03*
%TD*%
M02*
