M48
; DRILL file {KiCad 7.0.7} date Tue Nov  7 13:11:26 2023
; FORMAT={-:-/ absolute / metric / decimal}
; #@! TF.CreationDate,2023-11-07T13:11:26+11:00
; #@! TF.GenerationSoftware,Kicad,Pcbnew,7.0.7
; #@! TF.FileFunction,Plated,1,4,PTH
FMAT,2
METRIC
; #@! TA.AperFunction,Plated,PTH,ViaDrill
T1C0.200
; #@! TA.AperFunction,Plated,PTH,ViaDrill
T2C0.300
; #@! TA.AperFunction,Plated,PTH,ViaDrill
T3C0.400
; #@! TA.AperFunction,Plated,PTH,ComponentDrill
T4C0.600
; #@! TA.AperFunction,Plated,PTH,ComponentDrill
T5C0.800
; #@! TA.AperFunction,Plated,PTH,ComponentDrill
T6C0.850
; #@! TA.AperFunction,Plated,PTH,ComponentDrill
T7C1.000
; #@! TA.AperFunction,Plated,PTH,ComponentDrill
T8C1.020
; #@! TA.AperFunction,Plated,PTH,ComponentDrill
T9C1.200
; #@! TA.AperFunction,Plated,PTH,ComponentDrill
T10C2.500
%
G90
G05
T1
X105.625Y-71.275
X108.075Y-71.474
X111.382Y-77.5
X114.282Y-74.525
X114.735Y-73.453
X128.775Y-62.625
X131.15Y-63.975
X132.9Y-63.7
X133.675Y-58.975
X134.1Y-60.35
X134.249Y-59.279
X135.35Y-60.175
X136.575Y-60.225
X139.175Y-62.225
X139.589Y-61.863
X139.665Y-61.319
X140.542Y-61.575
X141.283Y-60.45
X142.328Y-66.021
X142.35Y-68.1
X144.38Y-69.05
X149.525Y-57.9
X149.525Y-59.125
X149.55Y-57.25
X149.55Y-58.55
X154.45Y-59.25
X156.056Y-74.2
X157.625Y-71.375
X157.7Y-74.3
X158.177Y-55.192
X158.4Y-74.6
X158.5Y-73.1
X159.318Y-71.499
X159.4Y-76.7
X159.4Y-77.6
X159.7Y-71.05
X159.925Y-55.975
X160.15Y-70.651
X160.6Y-70.2
X160.643Y-76.425
X161.298Y-74.102
X161.972Y-73.126
X162.0Y-68.4
X162.626Y-73.008
X163.075Y-71.75
X163.4Y-66.5
X163.745Y-70.914
X164.6Y-64.7
X164.7Y-61.85
X165.5Y-61.8
X165.6Y-57.4
X165.632Y-69.52
X166.385Y-68.9
X166.387Y-68.313
X166.4Y-58.336
X166.525Y-69.925
X166.9Y-67.55
X167.0Y-57.6
X167.125Y-68.45
X167.343Y-54.686
X167.367Y-63.023
X167.626Y-58.8
X167.694Y-55.294
X167.75Y-59.9
X167.75Y-67.0
X167.975Y-71.55
X168.0Y-55.8
X168.421Y-71.078
X168.45Y-67.0
X168.451Y-58.717
X168.743Y-60.886
X168.849Y-60.203
X169.0Y-61.4
X169.0Y-62.2
X169.338Y-65.112
X169.7Y-65.75
X169.75Y-62.4
X170.15Y-61.85
X170.4Y-65.8
X171.902Y-67.116
X172.0Y-73.0
X172.375Y-66.837
X173.436Y-66.131
X173.5Y-69.95
X173.825Y-52.15
X174.2Y-52.8
X174.382Y-69.575
X174.4Y-63.75
X174.409Y-53.4
X174.425Y-72.271
X174.457Y-71.125
X174.6Y-62.875
X175.2Y-65.1
X175.35Y-62.399
X175.425Y-63.275
X175.55Y-57.225
X175.55Y-69.9
X175.8Y-64.8
X175.801Y-69.15
X176.2Y-66.4
X176.4Y-57.595
X176.65Y-56.925
X177.02Y-67.725
X177.2Y-62.6
X177.4Y-53.4
X177.4Y-64.675
X177.4Y-69.9
X177.6Y-52.8
X177.8Y-52.1
X178.038Y-64.303
X179.45Y-62.8
X180.325Y-66.25
X180.7Y-62.35
X180.925Y-66.1
X182.7Y-62.95
X183.5Y-72.9
T2
X165.225Y-53.925
X166.12Y-55.026
X173.275Y-65.425
X181.1Y-64.35
T3
X99.282Y-55.64
X100.307Y-58.35
X100.982Y-56.09
X102.5Y-50.0
X102.792Y-59.83
X104.1Y-72.325
X106.025Y-72.45
X108.932Y-73.825
X109.65Y-51.3
X109.875Y-67.75
X110.8Y-74.3
X111.0Y-64.7
X112.5Y-67.5
X112.65Y-76.925
X112.7Y-71.95
X113.4Y-64.7
X113.575Y-49.825
X115.0Y-67.5
X116.4Y-63.6
X117.5Y-67.5
X119.3Y-68.45
X121.177Y-55.901
X121.825Y-68.35
X122.025Y-61.424
X122.5Y-77.5
X123.375Y-51.275
X123.375Y-52.2
X123.575Y-55.475
X123.632Y-49.5
X124.45Y-51.275
X124.45Y-52.2
X124.6Y-56.2
X124.632Y-49.425
X125.0Y-77.5
X125.154Y-57.032
X125.525Y-51.3
X125.525Y-52.225
X125.607Y-49.3
X125.7Y-62.475
X126.062Y-58.563
X126.25Y-64.55
X126.6Y-51.3
X126.6Y-52.225
X126.6Y-53.15
X126.699Y-62.501
X126.75Y-67.55
X126.957Y-49.15
X127.5Y-77.5
X127.8Y-54.825
X128.122Y-64.372
X128.15Y-65.175
X128.157Y-49.175
X129.245Y-69.992
X130.0Y-77.5
X130.85Y-53.875
X131.382Y-50.125
X132.075Y-60.7
X132.357Y-50.125
X132.5Y-77.5
X132.775Y-57.95
X133.307Y-50.125
X133.732Y-65.125
X133.875Y-67.575
X135.0Y-50.0
X135.0Y-77.5
X135.1Y-66.4
X135.331Y-65.379
X137.5Y-50.0
X137.525Y-57.425
X137.95Y-61.75
X138.375Y-67.85
X139.507Y-76.525
X139.915Y-68.075
X140.0Y-52.5
X140.157Y-57.775
X140.225Y-71.6
X140.748Y-64.9
X140.782Y-76.525
X141.375Y-55.825
X142.032Y-76.525
X142.5Y-50.0
X143.125Y-56.725
X143.232Y-76.525
X144.3Y-63.2
X144.432Y-76.525
X144.8Y-73.2
X145.075Y-64.5
X145.2Y-62.4
X146.2Y-72.4
X148.0Y-64.15
X148.6Y-66.6
X150.0Y-52.5
X150.0Y-55.0
X150.807Y-69.1
X151.2Y-73.8
X151.891Y-53.885
X152.475Y-61.15
X152.65Y-52.55
X152.944Y-76.225
X153.009Y-51.27
X153.2Y-66.8
X153.207Y-71.325
X153.4Y-77.2
X153.661Y-52.077
X154.45Y-60.975
X155.819Y-69.724
X156.15Y-51.25
X156.628Y-52.203
X157.05Y-58.925
X157.05Y-60.975
X157.8Y-53.0
X157.85Y-65.25
X158.525Y-71.725
X158.952Y-54.909
X159.55Y-52.05
X159.65Y-50.75
X159.675Y-58.925
X159.675Y-60.975
X160.8Y-51.0
X162.125Y-77.775
X164.542Y-53.09
X165.0Y-50.0
X165.212Y-74.455
X165.542Y-63.4
X166.022Y-53.01
X166.721Y-76.584
X168.098Y-63.407
X168.75Y-64.2
X170.103Y-58.597
X172.82Y-59.634
X172.825Y-77.75
X172.916Y-60.79
X176.665Y-74.71
X177.3Y-77.1
X178.082Y-68.075
X180.0Y-77.5
X180.407Y-74.15
X180.6Y-52.4
X181.2Y-53.4
X181.4Y-73.15
X181.575Y-58.95
X181.986Y-67.352
X182.27Y-53.861
X182.5Y-73.15
X183.05Y-74.05
X183.4Y-52.0
X183.4Y-54.0
X183.825Y-57.175
X184.05Y-74.6
X184.05Y-75.7
X184.05Y-76.85
X184.6Y-55.4
X184.6Y-56.4
X185.05Y-77.7
X185.557Y-69.05
X185.9Y-64.3
X185.95Y-65.5
X186.3Y-77.7
X186.632Y-69.05
X186.95Y-57.275
X187.4Y-49.0
X187.6Y-60.2
X187.6Y-61.65
X187.6Y-63.1
X187.6Y-64.55
X187.6Y-66.0
X187.7Y-77.7
X187.707Y-69.05
T5
X112.3Y-57.3
X115.8Y-57.3
T6
X102.75Y-71.25
X102.75Y-76.25
T7
X143.0Y-53.0
X148.0Y-53.0
T8
X105.0Y-52.0
X105.0Y-62.0
X108.0Y-52.0
X108.0Y-62.0
T9
X123.65Y-73.5
X127.15Y-73.5
X130.65Y-73.5
X134.15Y-73.5
T10
X117.61Y-51.211
X117.61Y-75.566
X170.06Y-51.211
X170.06Y-75.566
T4
G00X99.7Y-70.25
M15
G01X100.4Y-70.25
M16
G05
G00X100.4Y-77.25
M15
G01X99.7Y-77.25
M16
G05
T0
M30
