M48
; DRILL file {KiCad 7.0.2} date Sun Oct 15 09:35:08 2023
; FORMAT={-:-/ absolute / metric / decimal}
; #@! TF.CreationDate,2023-10-15T09:35:08+11:00
; #@! TF.GenerationSoftware,Kicad,Pcbnew,7.0.2
; #@! TF.FileFunction,Plated,1,4,PTH
FMAT,2
METRIC
; #@! TA.AperFunction,Plated,PTH,ViaDrill
T1C0.200
; #@! TA.AperFunction,Plated,PTH,ViaDrill
T2C0.400
; #@! TA.AperFunction,Plated,PTH,ComponentDrill
T3C0.600
; #@! TA.AperFunction,Plated,PTH,ComponentDrill
T4C0.800
; #@! TA.AperFunction,Plated,PTH,ComponentDrill
T5C0.850
; #@! TA.AperFunction,Plated,PTH,ComponentDrill
T6C1.000
; #@! TA.AperFunction,Plated,PTH,ComponentDrill
T7C1.020
; #@! TA.AperFunction,Plated,PTH,ComponentDrill
T8C1.200
; #@! TA.AperFunction,Plated,PTH,ComponentDrill
T9C2.500
%
G90
G05
T1
X137.705Y-62.553
X137.925Y-62.05
X138.05Y-61.45
X138.875Y-61.575
X155.975Y-74.6
X157.625Y-71.375
X159.325Y-71.575
X159.7Y-71.05
X160.15Y-70.651
X160.525Y-70.25
X164.7Y-61.85
X165.5Y-61.8
X165.59Y-57.24
X165.891Y-58.336
X166.122Y-57.837
X166.385Y-68.9
X166.387Y-68.313
X166.9Y-67.55
X167.125Y-68.45
X167.3Y-63.15
X167.75Y-59.9
X167.75Y-67.0
X168.32Y-59.18
X168.45Y-67.0
X168.501Y-58.726
X168.8Y-60.65
X168.8Y-61.15
X168.849Y-60.203
X169.338Y-65.112
X169.401Y-62.556
X169.7Y-65.75
X169.75Y-62.25
X170.15Y-61.85
X171.84Y-67.054
X172.35Y-66.85
X173.25Y-69.9
X173.436Y-66.131
X174.4Y-63.75
X174.6Y-62.875
X175.2Y-65.1
X175.35Y-62.35
X175.55Y-57.225
X175.55Y-69.9
X175.575Y-63.275
X175.8Y-64.8
X175.801Y-68.499
X176.074Y-57.595
X176.65Y-56.925
X176.9Y-62.6
X177.4Y-69.9
X178.075Y-64.2
X179.45Y-62.8
X180.325Y-66.25
X180.7Y-62.35
X180.925Y-66.1
X182.7Y-62.95
X183.5Y-72.9
T2
X104.1Y-72.325
X105.15Y-71.7
X105.879Y-70.679
X106.025Y-72.45
X109.65Y-51.3
X113.575Y-49.825
X123.575Y-55.475
X124.25Y-58.705
X125.325Y-57.3
X125.95Y-59.15
X126.275Y-62.45
X128.875Y-59.45
X130.85Y-53.875
X133.479Y-67.479
X134.221Y-68.221
X138.375Y-67.85
X139.915Y-68.075
X140.187Y-65.988
X140.225Y-71.6
X141.225Y-70.509
X142.275Y-70.509
X143.7Y-66.025
X151.891Y-53.885
X152.65Y-52.55
X153.009Y-51.27
X153.682Y-52.138
X156.15Y-51.25
X156.628Y-52.203
X159.55Y-52.05
X159.65Y-50.75
X164.451Y-53.713
X165.225Y-53.925
X166.0Y-53.65
X166.2Y-55.05
X168.75Y-64.2
X170.103Y-58.597
X173.275Y-65.425
X181.1Y-64.35
X181.4Y-73.15
X182.5Y-73.15
X183.05Y-74.05
X184.05Y-74.6
X184.05Y-75.7
X184.05Y-76.85
X185.05Y-77.7
X185.9Y-64.3
X185.95Y-65.5
X186.3Y-77.7
X187.7Y-77.7
T4
X112.3Y-57.3
X115.8Y-57.3
T5
X102.75Y-71.25
X102.75Y-76.25
T6
X143.0Y-53.0
X148.0Y-53.0
T7
X105.0Y-52.0
X105.0Y-62.0
X108.0Y-52.0
X108.0Y-62.0
T8
X124.0Y-74.0
X127.5Y-74.0
X131.0Y-74.0
X134.5Y-74.0
T9
X117.61Y-51.211
X117.61Y-75.566
X170.06Y-51.211
X170.06Y-75.566
T3
G00X99.7Y-70.25
M15
G01X100.4Y-70.25
M16
G05
G00X100.4Y-77.25
M15
G01X99.7Y-77.25
M16
G05
T0
M30
